<?xml version="1.0" encoding="UTF-8"?>
<!DOCTYPE svg PUBLIC "-//W3C//DTD SVG 1.1//EN" "http://www.w3.org/Graphics/SVG/1.1/DTD/svg11.dtd">
<!-- Creator: CorelDRAW X8 -->
<svg xmlns="http://www.w3.org/2000/svg" xml:space="preserve" width="150px" height="50px" version="1.1" style="shape-rendering:geometricPrecision; text-rendering:geometricPrecision; image-rendering:optimizeQuality; fill-rule:evenodd; clip-rule:evenodd"
viewBox="0 0 150 50"
 xmlns:xlink="http://www.w3.org/1999/xlink">
 <defs>
  <style type="text/css">
   <![CDATA[
    .fil1 {fill:#FEFEFE}
    .fil0 {fill:#232322}
   ]]>
  </style>
 </defs>
 <g id="Слой_x0020_1">
  <metadata id="CorelCorpID_0Corel-Layer"/>
  <polygon class="fil0" points="8,50 141,50 141,0 8,0 "/>
  <polygon class="fil1" points="8,30 47,30 47,24 8,24 "/>
  <path class="fil1" d="M36 23l0 -7 12 0c0,0 11,-2 11,11 0,12 -12,11 -12,11l0 4 -11 0 0 -10 13 0 0 -9 -13 0z"/>
  <path class="fil1" d="M76 42l0 -13c0,0 0,-5 -5,-5 -6,0 -11,0 -11,0l0 6 8 0 0 7 -1 0 0 -5c0,0 -1,0 -3,0 -2,0 -6,0 -6,5 0,5 4,5 5,5 2,0 13,0 13,0z"/>
  <path class="fil1" d="M77 42l8 0 0 -12 4 0 0 -6c0,0 -3,0 -6,0 -3,0 -6,2 -6,4 0,3 0,14 0,14z"/>
  <path class="fil1" d="M127 42l7 0 0 -12 4 0 0 -6c0,0 -3,0 -6,0 -3,0 -5,2 -5,4 0,3 0,14 0,14z"/>
  <polygon class="fil1" points="90,42 90,16 98,16 98,30 101,24 109,24 104,33 110,42 101,42 98,36 98,42 "/>
  <path class="fil1" d="M116 36l9 0 0 6 -10 0c-4,0 -7,-2 -7,-6 0,-3 0,-6 0,-8 1,-2 3,-4 8,-4 6,0 9,2 9,5 0,3 0,6 0,6l-8 0 0 -5 -1 0 0 6z"/>
 </g>
</svg>
