<?xml version="1.0" encoding="UTF-8"?>
<!DOCTYPE svg PUBLIC "-//W3C//DTD SVG 1.1//EN" "http://www.w3.org/Graphics/SVG/1.1/DTD/svg11.dtd">
<!-- Creator: CorelDRAW X8 -->
<svg xmlns="http://www.w3.org/2000/svg" xml:space="preserve" width="150px" height="50px" version="1.1" style="shape-rendering:geometricPrecision; text-rendering:geometricPrecision; image-rendering:optimizeQuality; fill-rule:evenodd; clip-rule:evenodd"
viewBox="0 0 150 50"
 xmlns:xlink="http://www.w3.org/1999/xlink">
 <defs>
  <style type="text/css">
   <![CDATA[
    .fil0 {fill:black}
   ]]>
  </style>
 </defs>
 <g id="Слой_x0020_1">
  <metadata id="CorelCorpID_0Corel-Layer"/>
  <g id="_1251195833520">
   <path class="fil0" d="M25 23c0,0 0,0 0,0 -1,1 -1,1 -1,1 0,1 0,2 -2,3 0,0 0,0 -1,0 0,0 0,0 0,0l-2 0c-1,0 -1,-1 -2,-2 0,0 0,-1 -1,-2 0,-1 0,-1 -1,-2 -1,0 -4,-2 -4,-2 0,0 -2,1 -2,1l-2 2c0,1 0,1 0,1 0,0 -1,0 -1,1 0,0 0,0 0,1 -1,0 -1,0 -1,1 0,0 -1,1 0,1 0,1 0,1 0,1l1 1c1,1 2,2 3,2 0,0 1,0 1,0 1,-1 2,-1 4,-1 0,0 2,0 3,0 0,1 0,3 3,3 1,1 2,1 4,0 0,0 0,0 1,0 2,-1 1,-1 0,-2 0,0 -1,-1 0,-2 0,0 0,0 0,0 1,0 1,0 2,0 1,0 1,0 2,0 0,0 0,0 -1,-1 0,-1 0,-2 0,-4 0,0 0,0 0,0 0,-1 0,0 0,-1 1,0 1,1 1,1 1,0 2,0 2,0 0,0 1,0 1,0 1,-1 2,-1 3,-2 1,0 2,-1 0,-2 -1,-1 0,-1 1,-2 1,0 1,-1 1,-1l2 -2c1,-1 1,-1 1,-1 0,0 0,-1 0,-1 1,0 3,-4 3,-5 0,0 -1,0 -1,0l-1 2c-2,1 -5,3 -7,4 -1,0 -2,0 -3,1 0,1 0,1 -2,0 -1,0 -2,-1 -3,-1 -1,0 -2,0 -3,-1 -3,0 -3,0 -5,0 -1,0 -1,0 -2,0 0,-1 -1,0 -2,-1l-3 -1c-1,-1 -2,-2 -3,-3 0,-1 0,-1 -1,-1l0 -2c0,0 0,0 0,0 -1,0 -1,0 -1,0l0 2c0,1 0,1 1,2 0,1 0,1 0,2 0,1 0,1 0,2 1,1 1,2 2,4 1,0 1,1 2,1 1,1 2,2 3,2 2,1 4,2 7,2 0,0 0,1 1,1 1,0 2,0 3,0z"/>
   <path class="fil0" d="M58 36l0 0 0 -7c2,0 3,0 3,3 0,0 0,2 0,3 -1,1 -2,1 -3,1zm1 -11l-1 0 0 -6c0,0 1,0 2,0 1,1 1,2 1,3 0,2 -1,3 -2,3zm-8 -11l0 27 10 0c1,0 3,0 3,-1 1,0 2,-1 2,-2 1,-1 2,-3 2,-5 0,-2 -1,-3 -1,-4 -1,-1 -2,-2 -3,-2 0,0 1,-1 2,-2 1,-1 1,-3 1,-5 0,-2 -1,-3 -2,-4 -1,-1 -2,-2 -4,-2l-10 0c0,0 0,0 0,0z"/>
   <path class="fil0" d="M91 34l0 -7c0,-4 2,-4 2,-2l0 10c0,1 0,2 0,2 -1,0 -1,0 -2,-1 0,-1 0,-1 0,-2zm-6 -20l0 27 6 0 0 -2 0 0c0,1 1,1 2,2 1,1 4,1 5,-1 1,-1 1,-3 1,-4l0 -12c0,-5 -4,-6 -6,-4 -1,0 -1,1 -1,1 -1,0 -1,1 -1,1l0 -7c0,0 0,-1 0,-1l-6 0c0,0 0,0 0,0z"/>
   <path class="fil0" d="M75 35l0 -10c0,-1 0,-2 1,-2 1,0 1,1 1,2l0 11c0,0 0,1 -1,1 -1,0 -1,-1 -1,-2zm-6 -10l0 10c0,3 1,5 4,6 2,1 4,1 6,0 1,0 1,-1 2,-1 1,-1 2,-3 2,-5l0 -9c0,-5 -2,-7 -7,-7 -4,0 -7,2 -7,6z"/>
   <path class="fil0" d="M124 37c0,0 0,0 -1,-1 0,0 0,-3 0,-4 1,0 2,-1 3,-2 0,1 0,5 -1,6 0,0 0,1 -1,1zm-7 -12l0 2 6 0c0,-2 0,-4 1,-4 1,0 2,1 2,2 0,2 -2,3 -4,3 0,1 -2,1 -2,2 -3,2 -3,4 -3,7 0,5 5,5 7,3 0,0 1,0 1,0 0,-1 0,-1 1,-1l0 2 5 0 0 -16c0,-2 0,-3 -1,-4 -1,-1 -3,-1 -5,-1 -2,0 -2,0 -4,0 -1,0 -2,1 -3,2 0,1 -1,2 -1,3z"/>
   <path class="fil0" d="M101 26l0 9c0,1 0,2 1,3 0,1 2,3 3,3 3,1 7,1 9,-2 2,-1 1,-4 1,-7l-5 0c0,1 0,4 0,4 -1,1 -1,1 -2,1 -1,0 -1,-1 -1,-2l0 -9c0,-1 0,-3 1,-3 1,0 2,1 2,2l0 3 5 0c0,-4 0,-7 -3,-8 -3,-1 -7,-1 -9,1 0,1 -1,1 -1,2 -1,1 -1,2 -1,3z"/>
   <path class="fil0" d="M134 20c0,0 -1,0 -1,0l0 4 1 0 0 13c0,3 2,4 4,4 1,0 3,0 4,0 0,-1 0,-1 0,-2l0 -2c-2,0 -2,0 -2,-2l0 -11 2 0 0 -4c0,0 0,0 0,0l-2 0 0 -5 -6 0 0 5z"/>
   <path class="fil0" d="M31 28c-1,0 -2,-1 -2,0 0,1 1,1 0,2l-1 2c0,0 0,0 0,0 1,1 2,1 3,1 1,0 2,0 3,0 0,-1 0,-1 0,-1 0,-1 0,-1 0,-2 1,0 1,0 2,0l1 0c1,0 1,0 0,-1 0,0 0,0 0,0 0,0 0,0 0,-1 -1,-1 -1,-2 -1,-3 0,0 0,-2 0,-3 0,0 0,0 -1,1 0,0 0,1 0,3 -1,1 -2,2 -4,2z"/>
   <path class="fil0" d="M19 42c0,1 0,1 1,1 1,1 3,1 4,1 2,0 3,-2 2,-3 0,-1 1,-1 1,-2 0,0 0,0 0,0 0,0 -2,1 -4,1 -1,-1 -1,-2 -1,-3 0,1 0,1 -1,2 0,1 1,0 -1,0 -1,0 -1,1 -1,1 0,1 0,2 0,2z"/>
   <path class="fil0" d="M5 35c0,0 1,0 1,-1 0,0 0,0 1,0 0,0 0,0 0,0 2,-1 4,-2 6,-2 1,0 3,0 3,0 0,-1 0,-1 0,-1 -3,-1 -7,1 -9,2l-1 1c-1,0 -1,0 -1,1z"/>
   <path class="fil0" d="M7 37c0,0 0,0 0,0 1,0 1,0 1,0 2,-2 4,-3 6,-3 1,-1 2,-1 2,-1 1,0 1,-1 0,-1 -1,0 -4,1 -5,2l-2 1c0,0 0,0 0,0 0,1 -1,1 -1,1 0,0 0,0 0,0 0,0 -1,1 -1,1z"/>
   <path class="fil0" d="M10 39c0,0 0,0 1,0 0,0 1,-1 3,-2 1,-1 2,-2 3,-2 0,-1 1,-1 1,-1 0,-1 -2,0 -2,0 -1,0 -4,3 -4,3 -1,1 -2,2 -2,2z"/>
   <path class="fil0" d="M35 31c0,1 2,0 5,2 0,0 1,0 1,1 0,0 0,0 0,0 1,0 1,0 1,0 0,-1 -2,-2 -2,-2 -1,0 -1,0 -1,-1 -1,0 -2,0 -3,-1 -1,0 -1,0 -1,1z"/>
   <path class="fil0" d="M35 32c0,1 0,1 0,1 1,0 1,0 1,0 1,0 2,1 3,2 0,0 0,0 0,0 1,0 1,0 1,0 -1,-1 -2,-2 -3,-3 -1,0 -2,-1 -2,0z"/>
   <path class="fil0" d="M28 37c0,0 2,-1 2,-3 0,0 -1,0 -1,0 -1,0 0,1 -1,2 0,0 -1,1 0,1z"/>
   <path class="fil0" d="M34 34c0,0 0,0 1,0 0,1 2,1 2,2 0,0 1,1 1,0 0,0 -1,-1 -2,-2 -1,0 -1,-1 -2,-1 0,0 0,0 0,1z"/>
   <path class="fil0" d="M23 37c1,0 1,-2 1,-2 0,-1 1,-2 -1,-1 0,0 0,0 0,0 0,0 0,1 0,1 0,0 0,1 0,1l0 1z"/>
  </g>
 </g>
</svg>
