<?xml version="1.0" encoding="UTF-8"?>
<!DOCTYPE svg PUBLIC "-//W3C//DTD SVG 1.1//EN" "http://www.w3.org/Graphics/SVG/1.1/DTD/svg11.dtd">
<!-- Creator: CorelDRAW X8 -->
<svg xmlns="http://www.w3.org/2000/svg" xml:space="preserve" width="150px" height="50px" version="1.1" style="shape-rendering:geometricPrecision; text-rendering:geometricPrecision; image-rendering:optimizeQuality; fill-rule:evenodd; clip-rule:evenodd"
viewBox="0 0 150 50"
 xmlns:xlink="http://www.w3.org/1999/xlink">
 <defs>
  <style type="text/css">
   <![CDATA[
    .fil0 {fill:#2B2A29;fill-rule:nonzero}
    .fil1 {fill:#F2C400;fill-rule:nonzero}
   ]]>
  </style>
 </defs>
 <g id="Слой_x0020_1">
  <metadata id="CorelCorpID_0Corel-Layer"/>
  <g id="_1251245683440">
   <path class="fil0" d="M145 26l0 0 0 -1c0,0 0,0 0,0 1,0 1,0 1,0 0,1 0,1 -1,1zm2 -1c0,0 0,0 -1,0 0,-1 0,-1 -1,-1 0,0 -1,0 -1,0l0 4 1 0 0 -2 0 0c0,0 1,2 1,2l1 0c0,0 -1,-2 -1,-2 0,0 1,0 1,-1z"/>
   <path class="fil0" d="M148 27c-1,1 -1,1 -1,2 -1,0 -1,0 -2,0 0,0 -1,0 -1,0 -1,-1 -1,-1 -1,-2 0,0 0,0 0,-1 0,0 0,-1 0,-1 0,-1 0,-1 1,-1 0,0 1,-1 1,-1 1,0 1,1 2,1 0,0 0,0 1,1 0,0 0,1 0,1 0,1 0,1 0,1zm0 0l0 -1c0,-1 0,-1 0,-1 0,-1 -1,-1 -1,-2 -1,0 -1,0 -2,0 0,0 -1,0 -1,0 -1,1 -1,1 -2,2 0,0 0,1 0,1 0,1 0,1 0,2 1,0 1,1 2,1 0,0 1,0 1,0 1,0 1,0 2,0 0,0 1,-1 1,-1 0,-1 0,-1 0,-1z"/>
   <path class="fil0" d="M77 30c0,1 0,2 0,2 -1,0 -1,0 -1,0 0,0 -2,0 -2,0l0 -5c1,0 2,0 3,0 0,0 0,1 0,2l0 1zm4 -5c-1,-1 -1,-1 -2,-2 -1,0 -2,0 -4,0l-5 0 0 22 4 0 0 -9 3 0c1,0 2,0 3,0 0,-1 1,-1 1,-2 1,0 1,-2 1,-3l0 -2c0,-1 0,-2 -1,-3 0,0 0,-1 0,-1zm3 20l4 0 0 -22 -4 0 0 22zm12 -22l-5 0 0 22 10 0 0 -4 -5 0 0 -18zm39 7c0,1 0,1 0,2 -1,0 -2,0 -3,0l0 -5c1,0 2,0 3,0 0,0 0,1 0,1l0 2zm5 14c0,0 0,-5 0,-5 0,-2 0,-3 0,-3 0,0 -1,-1 -1,-1 0,-1 -1,-1 -2,-1 1,-1 3,-2 3,-5 0,-2 0,-3 -1,-4 -1,-1 -1,-1 -2,-2 -1,0 -3,0 -5,0l-4 0 0 22 5 0 0 -9c1,-1 2,0 2,2 0,0 0,5 0,5 0,2 1,2 1,2l4 0c0,0 0,-1 0,-1zm-33 -21l-5 0 0 22 10 0 0 -4 -5 0 0 -18zm11 14l1 -10 1 10 -2 0zm-2 -14l-4 22 5 0 1 -4 3 0 0 4 5 0 -4 -22 -6 0zm-87 4l4 0 0 15 3 3 2 0 0 -18 3 0 0 -4 -12 0 0 4zm-7 6l1 -6 2 6 -3 0zm-2 -10l-3 17 6 -6 8 6 -4 -17 -7 0zm42 7c1,1 0,1 0,2 -1,0 -2,0 -2,0l0 -5c0,0 2,0 2,0 0,0 0,1 0,1l0 2zm5 9c0,-2 0,-3 0,-3 0,0 0,-1 -1,-1 0,-1 0,-1 -1,-1 1,-1 2,-2 2,-5 0,-2 0,-3 -1,-4 0,-1 -1,-1 -2,-2 -1,0 -2,0 -5,0l-4 0 0 22 5 0 0 -9c1,-1 2,0 2,2 0,0 0,5 0,5 0,2 1,2 1,2l5 0c0,0 -1,-1 -1,-1 0,0 0,-5 0,-5zm-54 -15c-1,-1 -2,-1 -3,-1 -1,0 -2,0 -3,0 -1,1 -2,1 -2,2 -1,1 -1,1 -1,2 0,0 0,1 0,1 0,1 0,2 0,3l0 6c0,2 0,4 0,5 1,1 1,2 2,2 1,1 2,1 4,1l5 -4c0,-1 1,-2 1,-4l0 -1 -5 0 0 3c0,1 0,1 0,2 -1,0 -2,1 -2,0 0,0 0,-1 0,-2l0 -10c0,-1 0,-2 0,-2 0,-1 1,-1 2,0 0,0 0,1 0,2l0 3 5 0 0 -2c0,-2 -1,-3 -1,-4 0,-1 -1,-2 -2,-2zm34 12l5 0 0 -4 -5 0 0 -5 6 0 0 -4 -11 0 0 22 11 0 0 -4 -6 0 0 -5z"/>
   <polygon class="fil1" points="23,36 35,45 12,45 "/>
  </g>
 </g>
</svg>
