<?xml version="1.0" encoding="utf-8"?>
<!DOCTYPE svg PUBLIC "-//W3C//DTD SVG 1.1//EN" "http://www.w3.org/Graphics/SVG/1.1/DTD/svg11.dtd">
<svg xmlns="http://www.w3.org/2000/svg" xmlns:xlink="http://www.w3.org/1999/xlink" version="1.1" baseProfile="full" width="240" height="241.333" viewBox="0 0 240.00 241.33" enable-background="new 0 0 240.00 241.33" xml:space="preserve">
	<path fill="#293E94" fill-opacity="1" fill-rule="evenodd" stroke-linejoin="round" d="M 200.21,0.432022C 195.643,3.26497 190.884,8.59999 194.541,14.5251C 200.081,23.4996 211.701,12.1935 213.993,15.9069C 215.003,17.5426 213.852,18.8683 212.511,19.6998C 211.673,20.2206 210.755,20.423 209.938,20.3187C 209.052,20.1964 208.279,19.6967 208.427,19.6702L 200.131,24.8153C 203.721,29.8599 210.26,28.0655 215.286,24.9484C 223.332,19.959 225.082,14.3476 222.109,9.52875C 216.76,0.864868 204.228,11.633 202.235,8.40616C 201.526,7.2571 202.189,6.17343 203.697,5.23689C 204.368,4.82275 205.106,4.60788 205.813,4.72076C 206.52,4.83289 207.139,5.18085 207.147,5.34042L 215.066,0.33783L 240.148,0.358856L 240.148,87.9948L 129.575,88.1723C 111.571,88.1723 96.9755,102.801 96.9755,120.843C 96.9755,138.891 111.571,153.519 129.575,153.519L 240.148,153.519L 240.148,241.058L 120.211,241.333C 53.8214,241.333 -2.96595e-006,187.386 -2.96595e-006,120.843C -2.96595e-006,54.3031 53.8214,0.358856 120.211,0.358856L 200.21,0.432022 Z "/>
	<path fill="#FEFEFE" fill-opacity="1" fill-rule="evenodd" stroke-linejoin="round" d="M 74.7402,111.208L 66.654,116.224L 64.5926,114.598C 63.9208,117.811 62.748,119.562 59.1456,121.798C 54.3689,124.758 49.3585,123.587 45.2645,116.959L 36.5592,102.856L 45.273,97.4518L 52.9981,109.961C 54.9623,113.144 56.6369,113.511 58.7309,112.213C 61.2458,110.654 60.8132,108.171 58.6027,104.589L 51.7251,93.4512L 60.4404,88.0453L 74.7402,111.208 Z "/>
	<path fill="#FEFEFE" fill-opacity="1" fill-rule="evenodd" stroke-linejoin="round" d="M 64.3788,85.6015L 72.3811,80.6378L 74.4705,82.3054C 74.4666,79.8617 76.385,77.2849 78.9256,75.6617C 82.8301,73.1643 86.1357,73.6345 88.7097,75.4601C 88.8767,71.5053 90.4472,68.5135 93.6728,66.5128C 100.084,62.537 104.442,65.0921 108.345,71.4127L 116.806,85.1158L 108.092,90.5224L 100.803,78.7196C 98.7027,75.3145 97.2285,74.3344 94.9233,75.7645C 92.3679,77.3495 93.3116,80.0042 95.0305,82.788L 102.098,94.2374L 93.3846,99.6417L 86.0984,87.8405C 83.9974,84.4353 82.5217,83.4568 80.218,84.8845C 77.6627,86.4703 78.6048,89.125 80.3252,91.9097L 87.3947,103.358L 78.6802,108.763L 64.3788,85.6015 Z "/>
	<path fill="#FEFEFE" fill-opacity="1" fill-rule="evenodd" stroke-linejoin="round" d="M 163.186,56.3464L 148.886,33.1831L 157.601,27.7787L 171.901,50.9413L 163.186,56.3464 Z "/>
	<path fill="#FEFEFE" fill-opacity="1" fill-rule="evenodd" stroke-linejoin="round" d="M 143.019,23.6805L 151.733,18.2746L 155.772,24.8163L 147.057,30.2229L 143.019,23.6805 Z "/>
	<path fill="#FEFEFE" fill-opacity="1" fill-rule="evenodd" stroke-linejoin="round" d="M 162.242,24.8995L 170.201,19.963L 172.753,21.6952C 172.946,19.3013 173.897,16.7526 177.207,14.6981C 182.99,11.1139 187.923,13.0049 191.853,19.3698L 200.423,33.2489L 191.708,38.6555L 184.149,26.4113C 182.729,24.1124 180.887,22.4433 178.415,23.9754C 175.734,25.6398 176.142,27.8928 177.97,30.8542L 185.256,42.6577L 176.543,48.0636L 162.242,24.8995 Z "/>
	<path fill="#FEFEFE" fill-opacity="1" fill-rule="evenodd" stroke-linejoin="round" d="M 106.261,59.6223L 114.263,54.6602L 116.351,56.3277C 116.349,53.8832 118.267,51.3072 120.809,49.6825C 124.713,47.1866 128.017,47.6569 130.593,49.4824C 130.759,45.5284 132.331,42.5343 135.557,40.5359C 141.966,36.5586 146.325,39.1129 150.227,45.435L 158.688,59.1365L 149.973,64.5432L 142.686,52.7404C 140.586,49.3368 139.11,48.3567 136.807,49.7852C 134.25,51.371 135.193,54.0265 136.913,56.8088L 143.982,68.2581L 135.267,73.6648L 127.981,61.8613C 125.878,58.4577 124.404,57.4776 122.099,58.9069C 119.544,60.4926 120.489,63.1458 122.206,65.9304L 129.277,77.3806L 120.562,82.7872L 106.261,59.6223 Z "/>
	<path fill="#FEFEFE" fill-opacity="1" fill-rule="evenodd" stroke-linejoin="round" d="M 36.099,135.176C 26.7111,141 14.3887,138.094 8.57903,128.684C 2.76699,119.273 5.66951,106.923 15.0575,101.1L 26.3926,94.0733L 31.8854,102.969L 22.0843,109.048C 17.5996,111.831 16.2124,117.732 18.9891,122.226C 21.7643,126.721 27.6516,128.11 32.1363,125.33L 41.9359,119.25L 47.4295,128.147L 36.099,135.176 Z "/>
</svg>
