<?xml version="1.0" encoding="UTF-8"?>
<!DOCTYPE svg PUBLIC "-//W3C//DTD SVG 1.1//EN" "http://www.w3.org/Graphics/SVG/1.1/DTD/svg11.dtd">
<!-- Creator: CorelDRAW X8 -->
<svg xmlns="http://www.w3.org/2000/svg" xml:space="preserve" width="150px" height="50px" version="1.1" style="shape-rendering:geometricPrecision; text-rendering:geometricPrecision; image-rendering:optimizeQuality; fill-rule:evenodd; clip-rule:evenodd"
viewBox="0 0 150 50"
 xmlns:xlink="http://www.w3.org/1999/xlink">
 <defs>
  <style type="text/css">
   <![CDATA[
    .fil2 {fill:#00418A}
    .fil1 {fill:#0099D7}
    .fil0 {fill:#00A886}
    .fil3 {fill:#FEFFFF}
   ]]>
  </style>
 </defs>
 <g id="Слой_x0020_1">
  <metadata id="CorelCorpID_0Corel-Layer"/>
  <g id="_1251169094672">
   <path class="fil0" d="M99 29c0,0 3,-8 4,-10 0,0 0,0 0,0 0,-1 0,-1 0,-1l6 0 0 7c1,0 3,-6 3,-7l4 0 -4 11 -5 0c0,-1 0,-6 -1,-7l-2 7 -5 0zm-12 -15c0,2 0,4 0,6 0,2 -1,4 -1,6 0,0 1,-1 1,-1l5 -6c0,-1 0,-1 0,-1l6 0 1 11 -5 0 0 -2 -4 0c0,1 -1,2 -1,2l-3 0 -1 10 4 1c1,0 1,0 2,0l25 3 2 -20c1,-3 1,-7 2,-10 0,0 0,-1 0,-2l-8 -1c-1,0 -3,0 -4,0 -1,0 -3,0 -4,-1 -1,0 -3,0 -4,0 -1,0 -3,0 -4,0l-8 -1c0,0 -1,6 -1,6z"/>
   <path class="fil1" d="M73 22c0,2 -1,3 -2,5 -1,1 -2,2 -4,2 -1,1 -4,1 -6,0 -2,0 -3,-1 -2,-4 0,-1 1,-3 2,-4 2,-3 6,-4 10,-3 2,0 3,2 2,4zm-1 4l5 0c0,1 -1,1 0,1 2,1 3,0 3,-1 -1,-2 -8,-1 -6,-5 2,-2 4,-3 7,-3 2,0 6,0 5,3l-4 0c0,0 0,-1 -1,-1 -1,0 -1,0 -2,0 -2,2 4,2 5,4 1,1 1,2 0,3 -2,3 -9,3 -11,2 -1,-1 -1,-1 -1,-3 0,0 0,0 0,0zm-7 -13l-10 0 0 4c0,1 1,1 0,1 2,0 5,0 4,4 0,1 -1,2 -1,3 -1,2 -1,2 -2,3l1 10 0 3c0,1 0,1 0,1 0,1 0,2 0,3l28 -2c1,0 2,0 2,0 1,0 2,0 2,0l0 -2c0,0 0,0 0,-1l-4 -1 1 -10 -2 0c0,0 1,-2 2,-3 0,0 0,0 0,0 0,-2 1,-4 1,-6 0,-2 0,-4 0,-6 0,0 0,0 0,0l0 -3c-1,0 -2,0 -3,0 -3,0 -7,1 -10,1 -1,0 -2,0 -3,0l-5 0c-1,0 -1,1 -1,1z"/>
   <path class="fil2" d="M34 18l7 0c2,0 5,1 4,3 0,2 -1,5 -2,6 -1,1 -3,2 -5,2l-8 0 4 -11zm23 20l-1 -10c0,0 -1,1 -3,1 -1,0 -3,0 -4,0 -3,0 -5,-1 -4,-4 1,-2 2,-4 3,-6 2,-1 4,-1 7,-1 1,0 0,0 0,-1l0 -4 10 0c0,-1 1,-2 1,-3l-29 -9c0,0 -1,0 -2,0 0,0 0,1 0,1l-10 29 6 2c1,0 1,0 2,0 6,3 13,5 19,7l4 1 1 -3z"/>
   <path class="fil3" d="M99 29l5 0 2 -7c1,1 1,6 1,7l5 0 4 -11 -4 0c0,1 -2,7 -3,7l0 -7 -6 0c0,0 0,0 0,1 0,0 0,0 0,0 -1,2 -4,10 -4,10z"/>
   <path class="fil3" d="M35 27c1,-1 2,-5 3,-6 0,0 0,-1 0,-1 1,0 3,0 2,1 0,1 0,2 0,3 -1,3 -1,3 -5,3zm-5 2l8 0c2,0 4,-1 5,-2 1,-1 2,-4 2,-6 1,-2 -2,-3 -4,-3l-7 0 -4 11z"/>
   <path class="fil3" d="M67 20c2,-1 1,2 1,4 -1,1 -1,3 -3,3 -3,1 -1,-2 -1,-3 1,-1 1,-2 1,-3 1,0 1,-1 2,-1zm6 2c1,-2 0,-4 -2,-4 -4,-1 -8,0 -10,3 -1,1 -2,3 -2,4 -1,3 0,4 2,4 2,1 5,1 6,0 2,0 3,-1 4,-2 1,-2 2,-3 2,-5z"/>
   <path class="fil3" d="M53 20c1,0 2,0 1,1 0,1 -1,4 -1,5 -1,1 -1,1 -2,1 -3,1 -1,-2 -1,-3 1,-2 1,-4 3,-4zm3 8c1,-1 1,-1 2,-3 0,-1 1,-2 1,-3 1,-4 -2,-4 -4,-4 -3,0 -5,0 -7,1 -1,2 -2,4 -3,6 -1,3 1,4 4,4 1,0 3,0 4,0 2,0 3,-1 3,-1z"/>
   <path class="fil3" d="M94 25l-3 0c0,0 2,-3 3,-4l0 -1 0 5zm-8 1c0,0 0,0 0,0 -1,1 -2,3 -2,3l2 0 3 0c0,0 1,-1 1,-2l4 0 0 2 5 0 -1 -11 -6 0c0,0 0,0 0,1l-5 6c0,0 -1,1 -1,1z"/>
   <path class="fil3" d="M72 26c0,0 0,0 0,0 0,2 0,2 1,3 2,1 9,1 11,-2 1,-1 1,-2 0,-3 -1,-2 -7,-2 -5,-4 1,0 1,0 2,0 1,0 1,1 1,1l4 0c1,-3 -3,-3 -5,-3 -3,0 -5,1 -7,3 -2,4 5,3 6,5 0,1 -1,2 -3,1 -1,0 0,0 0,-1l-5 0z"/>
   <path class="fil1" d="M67 20c-1,0 -1,1 -2,1 0,1 0,2 -1,3 0,1 -2,4 1,3 2,0 2,-2 3,-3 0,-2 1,-5 -1,-4z"/>
   <path class="fil2" d="M53 20c-2,0 -2,2 -3,4 0,1 -2,4 1,3 1,0 1,0 2,-1 0,-1 1,-4 1,-5 1,-1 0,-1 -1,-1z"/>
   <path class="fil2" d="M35 27c4,0 4,0 5,-3 0,-1 0,-2 0,-3 1,-1 -1,-1 -2,-1 0,0 0,1 0,1 -1,1 -2,5 -3,6z"/>
   <path class="fil0" d="M94 20l0 1c-1,1 -3,4 -3,4l3 0 0 -5z"/>
  </g>
 </g>
</svg>
