<?xml version="1.0" encoding="UTF-8"?>
<!DOCTYPE svg PUBLIC "-//W3C//DTD SVG 1.1//EN" "http://www.w3.org/Graphics/SVG/1.1/DTD/svg11.dtd">
<!-- Creator: CorelDRAW X8 -->
<svg xmlns="http://www.w3.org/2000/svg" xml:space="preserve" width="150px" height="50px" version="1.1" style="shape-rendering:geometricPrecision; text-rendering:geometricPrecision; image-rendering:optimizeQuality; fill-rule:evenodd; clip-rule:evenodd"
viewBox="0 0 150 50"
 xmlns:xlink="http://www.w3.org/1999/xlink">
 <defs>
  <style type="text/css">
   <![CDATA[
    .fil0 {fill:#0072C6;fill-rule:nonzero}
   ]]>
  </style>
 </defs>
 <g id="Слой_x0020_1">
  <metadata id="CorelCorpID_0Corel-Layer"/>
  <path class="fil0" d="M23 46l4 -11 -13 0 0 -4 14 0 3 -10 -17 0 0 -4 18 0 3 -11 -35 0 0 40 23 0zm115 -15l0 0 -8 -25 -19 0 0 40 12 0 0 -25 0 0 7 25 20 0 0 -40 -12 0 0 25 0 0zm-39 5l0 0c4,0 8,-4 8,-8 0,-5 -4,-9 -8,-9 -5,0 -8,4 -8,9 0,4 3,8 8,8zm-7 -30l0 0 -37 0 0 11 12 0 0 29 19 0c-2,-1 -9,-7 -9,-19 0,-9 5,-19 15,-21zm-50 29l0 0 -4 11 20 0 -3 -11 -13 0zm6 -21l0 0 4 12 -8 0 4 -12z"/>
 </g>
</svg>
