<?xml version="1.0" encoding="UTF-8"?>
<!DOCTYPE svg PUBLIC "-//W3C//DTD SVG 1.1//EN" "http://www.w3.org/Graphics/SVG/1.1/DTD/svg11.dtd">
<!-- Creator: CorelDRAW X8 -->
<svg xmlns="http://www.w3.org/2000/svg" xml:space="preserve" width="150px" height="50px" version="1.1" style="shape-rendering:geometricPrecision; text-rendering:geometricPrecision; image-rendering:optimizeQuality; fill-rule:evenodd; clip-rule:evenodd"
viewBox="0 0 150 50"
 xmlns:xlink="http://www.w3.org/1999/xlink">
 <defs>
  <style type="text/css">
   <![CDATA[
    .fil0 {fill:#2B2A29;fill-rule:nonzero}
   ]]>
  </style>
 </defs>
 <g id="Слой_x0020_1">
  <metadata id="CorelCorpID_0Corel-Layer"/>
  <g id="_1251029151184">
   <polygon class="fil0" points="30,32 30,27 8,27 6,29 6,43 8,45 30,45 30,40 11,40 11,38 30,38 30,33 11,33 11,32 "/>
   <polygon class="fil0" points="118,32 118,27 96,27 94,29 94,42 96,45 118,45 118,44 118,34 104,34 100,38 112,38 112,40 99,40 99,32 "/>
   <polygon class="fil0" points="83,42 83,40 83,40 83,38 83,38 83,36 80,33 64,33 64,32 83,32 83,27 61,27 59,29 59,32 59,32 59,33 59,33 59,36 61,38 77,38 77,40 59,40 59,45 80,45 "/>
   <polygon class="fil0" points="56,27 51,27 51,38 39,26 39,26 36,26 32,26 32,45 38,45 38,33 50,45 50,45 54,45 56,45 "/>
   <polygon class="fil0" points="144,27 139,27 139,38 127,26 127,26 123,26 120,26 120,45 125,45 125,33 138,45 138,45 142,45 144,45 "/>
   <polygon class="fil0" points="91,45 85,45 85,27 91,27 "/>
  </g>
 </g>
</svg>
