<?xml version="1.0" encoding="UTF-8"?>
<!DOCTYPE svg PUBLIC "-//W3C//DTD SVG 1.1//EN" "http://www.w3.org/Graphics/SVG/1.1/DTD/svg11.dtd">
<!-- Creator: CorelDRAW X8 -->
<svg xmlns="http://www.w3.org/2000/svg" xml:space="preserve" width="200px" height="150px" version="1.1" style="shape-rendering:geometricPrecision; text-rendering:geometricPrecision; image-rendering:optimizeQuality; fill-rule:evenodd; clip-rule:evenodd"
viewBox="0 0 200 150"
 xmlns:xlink="http://www.w3.org/1999/xlink">
 <defs>
  <style type="text/css">
   <![CDATA[
    .fil24 {fill:#2B2A29}
    .fil51 {fill:#F7EDCB}
    .fil47 {fill:#BF984B}
    .fil23 {fill:#676E70}
    .fil43 {fill:#404342}
    .fil15 {fill:#F7EDCB;fill-rule:nonzero}
    .fil10 {fill:#BF984B;fill-rule:nonzero}
    .fil1 {fill:url(#id0)}
    .fil0 {fill:url(#id1)}
    .fil3 {fill:url(#id2)}
    .fil53 {fill:url(#id3)}
    .fil29 {fill:url(#id4)}
    .fil60 {fill:url(#id5)}
    .fil14 {fill:url(#id6)}
    .fil38 {fill:url(#id7)}
    .fil70 {fill:url(#id8)}
    .fil69 {fill:url(#id9)}
    .fil64 {fill:url(#id10)}
    .fil11 {fill:url(#id11)}
    .fil67 {fill:url(#id12)}
    .fil66 {fill:url(#id13)}
    .fil40 {fill:url(#id14)}
    .fil22 {fill:url(#id15)}
    .fil55 {fill:url(#id16)}
    .fil27 {fill:url(#id17)}
    .fil6 {fill:url(#id18)}
    .fil68 {fill:url(#id19)}
    .fil9 {fill:url(#id20)}
    .fil45 {fill:url(#id21)}
    .fil16 {fill:url(#id22)}
    .fil35 {fill:url(#id23)}
    .fil5 {fill:url(#id24)}
    .fil7 {fill:url(#id25)}
    .fil8 {fill:url(#id26)}
    .fil46 {fill:url(#id27)}
    .fil25 {fill:url(#id28)}
    .fil59 {fill:url(#id29)}
    .fil48 {fill:url(#id30)}
    .fil57 {fill:url(#id31)}
    .fil17 {fill:url(#id32)}
    .fil54 {fill:url(#id33)}
    .fil12 {fill:url(#id34)}
    .fil21 {fill:url(#id35)}
    .fil2 {fill:url(#id36)}
    .fil19 {fill:url(#id37)}
    .fil37 {fill:url(#id38)}
    .fil20 {fill:url(#id39)}
    .fil58 {fill:url(#id40)}
    .fil71 {fill:url(#id41)}
    .fil62 {fill:url(#id42)}
    .fil50 {fill:url(#id43)}
    .fil42 {fill:url(#id44)}
    .fil39 {fill:url(#id45)}
    .fil30 {fill:url(#id46)}
    .fil4 {fill:url(#id47)}
    .fil28 {fill:url(#id48)}
    .fil61 {fill:url(#id49)}
    .fil36 {fill:url(#id50)}
    .fil31 {fill:url(#id51)}
    .fil18 {fill:url(#id52)}
    .fil63 {fill:url(#id53)}
    .fil33 {fill:url(#id54)}
    .fil44 {fill:url(#id55)}
    .fil26 {fill:url(#id56)}
    .fil56 {fill:url(#id57)}
    .fil41 {fill:url(#id58)}
    .fil65 {fill:url(#id59)}
    .fil13 {fill:url(#id60)}
    .fil52 {fill:url(#id61)}
    .fil72 {fill:url(#id62)}
    .fil49 {fill:url(#id63)}
    .fil32 {fill:url(#id64)}
    .fil34 {fill:url(#id65)}
   ]]>
  </style>
  <linearGradient id="id0" gradientUnits="userSpaceOnUse" x1="111.529" y1="72.6112" x2="113.791" y2="72.6112">
   <stop offset="0" style="stop-opacity:1; stop-color:#FEFEFE"/>
   <stop offset="0.180392" style="stop-opacity:1; stop-color:#C8C6C6"/>
   <stop offset="0.2" style="stop-opacity:1; stop-color:#FEFEFE"/>
   <stop offset="0.360784" style="stop-opacity:1; stop-color:#F3F3F5"/>
   <stop offset="0.54902" style="stop-opacity:1; stop-color:#F3F3F5"/>
   <stop offset="0.588235" style="stop-opacity:1; stop-color:#929294"/>
   <stop offset="0.85098" style="stop-opacity:1; stop-color:#5E6161"/>
   <stop offset="0.909804" style="stop-opacity:1; stop-color:#D19032"/>
   <stop offset="1" style="stop-opacity:1; stop-color:#F8EDC3"/>
  </linearGradient>
  <linearGradient id="id1" gradientUnits="userSpaceOnUse" x1="-140.23" y1="92.0959" x2="-140.23" y2="96.3478">
   <stop offset="0" style="stop-opacity:1; stop-color:#373938"/>
   <stop offset="1" style="stop-opacity:1; stop-color:#BAB9B9"/>
  </linearGradient>
  <linearGradient id="id2" gradientUnits="userSpaceOnUse" x1="139.567" y1="115.72" x2="139.567" y2="124.772">
   <stop offset="0" style="stop-opacity:1; stop-color:#D19032"/>
   <stop offset="1" style="stop-opacity:1; stop-color:#F4C617"/>
  </linearGradient>
  <linearGradient id="id3" gradientUnits="userSpaceOnUse" xlink:href="#id1" x1="145.392" y1="118.287" x2="145.392" y2="139.497">
  </linearGradient>
  <linearGradient id="id4" gradientUnits="userSpaceOnUse" xlink:href="#id2" x1="72.4555" y1="94.3197" x2="73.442" y2="122.561">
  </linearGradient>
  <linearGradient id="id5" gradientUnits="userSpaceOnUse" x1="113.844" y1="116.73" x2="131.036" y2="108.879">
   <stop offset="0" style="stop-opacity:1; stop-color:#373938"/>
   <stop offset="1" style="stop-opacity:1; stop-color:#90908F"/>
  </linearGradient>
  <linearGradient id="id6" gradientUnits="userSpaceOnUse" x1="108.484" y1="101.251" x2="138.958" y2="116.452">
   <stop offset="0" style="stop-opacity:1; stop-color:#FAD60B"/>
   <stop offset="1" style="stop-opacity:1; stop-color:#F0B921"/>
  </linearGradient>
  <linearGradient id="id7" gradientUnits="userSpaceOnUse" xlink:href="#id5" x1="61.6517" y1="110.364" x2="84.8301" y2="99.7785">
  </linearGradient>
  <linearGradient id="id8" gradientUnits="userSpaceOnUse" x1="30.0344" y1="116.184" x2="23.4592" y2="111.354">
   <stop offset="0" style="stop-opacity:1; stop-color:#5F6262"/>
   <stop offset="1" style="stop-opacity:1; stop-color:#212220"/>
  </linearGradient>
  <linearGradient id="id9" gradientUnits="userSpaceOnUse" xlink:href="#id6" x1="124.345" y1="99.4898" x2="125.506" y2="131.784">
  </linearGradient>
  <linearGradient id="id10" gradientUnits="userSpaceOnUse" x1="114.013" y1="138.072" x2="114.013" y2="118.471">
   <stop offset="0" style="stop-opacity:1; stop-color:#373938"/>
   <stop offset="1" style="stop-opacity:1; stop-color:#7A7B7B"/>
  </linearGradient>
  <linearGradient id="id11" gradientUnits="userSpaceOnUse" xlink:href="#id6" x1="140.644" y1="97.0739" x2="146.395" y2="143.795">
  </linearGradient>
  <linearGradient id="id12" gradientUnits="userSpaceOnUse" xlink:href="#id6" x1="139.366" y1="123.402" x2="139.366" y2="132.77">
  </linearGradient>
  <linearGradient id="id13" gradientUnits="userSpaceOnUse" xlink:href="#id10" x1="118.048" y1="134.525" x2="118.048" y2="122.948">
  </linearGradient>
  <linearGradient id="id14" gradientUnits="userSpaceOnUse" x1="57.2255" y1="123.925" x2="71.3852" y2="101.892">
   <stop offset="0" style="stop-opacity:1; stop-color:#373938"/>
   <stop offset="1" style="stop-opacity:1; stop-color:#858483"/>
  </linearGradient>
  <linearGradient id="id15" gradientUnits="userSpaceOnUse" xlink:href="#id8" x1="143.312" y1="126.34" x2="142.484" y2="128.362">
  </linearGradient>
  <linearGradient id="id16" gradientUnits="userSpaceOnUse" x1="138.667" y1="110.712" x2="149.708" y2="127.893">
   <stop offset="0" style="stop-opacity:1; stop-color:#373938"/>
   <stop offset="1" style="stop-opacity:1; stop-color:#AFADAE"/>
  </linearGradient>
  <linearGradient id="id17" gradientUnits="userSpaceOnUse" x1="62.4647" y1="105.198" x2="62.4647" y2="93.9962">
   <stop offset="0" style="stop-opacity:1; stop-color:#CCC7C7"/>
   <stop offset="1" style="stop-opacity:1; stop-color:#7F7F7C"/>
  </linearGradient>
  <linearGradient id="id18" gradientUnits="userSpaceOnUse" x1="36.5961" y1="61.1339" x2="37.262" y2="60.341">
   <stop offset="0" style="stop-opacity:1; stop-color:#808384"/>
   <stop offset="1" style="stop-opacity:1; stop-color:#FEFEFE"/>
  </linearGradient>
  <linearGradient id="id19" gradientUnits="userSpaceOnUse" x1="121.979" y1="134.018" x2="121.7" y2="126.013">
   <stop offset="0" style="stop-opacity:1; stop-color:#FAD60B"/>
   <stop offset="1" style="stop-opacity:1; stop-color:#FEFEFE"/>
  </linearGradient>
  <linearGradient id="id20" gradientUnits="userSpaceOnUse" xlink:href="#id6" x1="28.9735" y1="95.4339" x2="31.9835" y2="96.0734">
  </linearGradient>
  <linearGradient id="id21" gradientUnits="userSpaceOnUse" xlink:href="#id10" x1="68.4178" y1="132.665" x2="68.4178" y2="117.055">
  </linearGradient>
  <linearGradient id="id22" gradientUnits="userSpaceOnUse" xlink:href="#id18" x1="110.728" y1="100.525" x2="111.046" y2="99.7763">
  </linearGradient>
  <linearGradient id="id23" gradientUnits="userSpaceOnUse" x1="79.1725" y1="99.6678" x2="102.855" y2="110.483">
   <stop offset="0" style="stop-opacity:1; stop-color:#373938"/>
   <stop offset="1" style="stop-opacity:1; stop-color:#A3A1A0"/>
  </linearGradient>
  <linearGradient id="id24" gradientUnits="userSpaceOnUse" xlink:href="#id8" x1="37.1861" y1="64.9422" x2="39.0301" y2="65.4449">
  </linearGradient>
  <linearGradient id="id25" gradientUnits="userSpaceOnUse" xlink:href="#id8" x1="71.9721" y1="90.7844" x2="70.4274" y2="92.4394">
  </linearGradient>
  <linearGradient id="id26" gradientUnits="userSpaceOnUse" xlink:href="#id6" x1="49.5346" y1="64.7128" x2="48.5753" y2="69.9535">
  </linearGradient>
  <linearGradient id="id27" gradientUnits="userSpaceOnUse" xlink:href="#id6" x1="94.59" y1="116.446" x2="94.59" y2="131.388">
  </linearGradient>
  <linearGradient id="id28" gradientUnits="userSpaceOnUse" x1="89.9548" y1="76.8628" x2="89.9548" y2="96.0168">
   <stop offset="0" style="stop-opacity:1; stop-color:#B5B3B1"/>
   <stop offset="1" style="stop-opacity:1; stop-color:#FEFEFE"/>
  </linearGradient>
  <linearGradient id="id29" gradientUnits="userSpaceOnUse" x1="117.279" y1="113.56" x2="137.201" y2="110.696">
   <stop offset="0" style="stop-opacity:1; stop-color:#373938"/>
   <stop offset="1" style="stop-opacity:1; stop-color:#979695"/>
  </linearGradient>
  <linearGradient id="id30" gradientUnits="userSpaceOnUse" xlink:href="#id6" x1="89.9117" y1="121.36" x2="89.9117" y2="127.007">
  </linearGradient>
  <linearGradient id="id31" gradientUnits="userSpaceOnUse" xlink:href="#id23" x1="127.986" y1="108.796" x2="145.55" y2="116.817">
  </linearGradient>
  <linearGradient id="id32" gradientUnits="userSpaceOnUse" xlink:href="#id8" x1="143.249" y1="112.079" x2="142.431" y2="113.897">
  </linearGradient>
  <linearGradient id="id33" gradientUnits="userSpaceOnUse" x1="143.128" y1="114.252" x2="148.822" y2="133.644">
   <stop offset="0" style="stop-opacity:1; stop-color:#373938"/>
   <stop offset="1" style="stop-opacity:1; stop-color:#B4B3B4"/>
  </linearGradient>
  <linearGradient id="id34" gradientUnits="userSpaceOnUse" x1="98.3892" y1="104.263" x2="110.035" y2="65.9683">
   <stop offset="0" style="stop-opacity:1; stop-color:#5F6262"/>
   <stop offset="1" style="stop-opacity:1; stop-color:#FEFEFE"/>
  </linearGradient>
  <linearGradient id="id35" gradientUnits="userSpaceOnUse" xlink:href="#id6" x1="118.327" y1="117.354" x2="120.935" y2="138.592">
  </linearGradient>
  <linearGradient id="id36" gradientUnits="userSpaceOnUse" xlink:href="#id19" x1="24.1958" y1="110.166" x2="24.1958" y2="69.0951">
  </linearGradient>
  <linearGradient id="id37" gradientUnits="userSpaceOnUse" xlink:href="#id6" x1="157.184" y1="95.9094" x2="165.571" y2="175.49">
  </linearGradient>
  <linearGradient id="id38" gradientUnits="userSpaceOnUse" xlink:href="#id29" x1="65.7782" y1="106.241" x2="92.6375" y2="102.378">
  </linearGradient>
  <linearGradient id="id39" gradientUnits="userSpaceOnUse" xlink:href="#id8" x1="158.122" y1="118.254" x2="161.818" y2="121.901">
  </linearGradient>
  <linearGradient id="id40" gradientUnits="userSpaceOnUse" x1="121.915" y1="110.691" x2="141.98" y2="113.575">
   <stop offset="0" style="stop-opacity:1; stop-color:#373938"/>
   <stop offset="1" style="stop-opacity:1; stop-color:#9B9A9A"/>
  </linearGradient>
  <linearGradient id="id41" gradientUnits="userSpaceOnUse" xlink:href="#id6" x1="91.9666" y1="64.6655" x2="99.1352" y2="68.1608">
  </linearGradient>
  <linearGradient id="id42" gradientUnits="userSpaceOnUse" xlink:href="#id14" x1="109.967" y1="127.295" x2="120.469" y2="110.954">
  </linearGradient>
  <linearGradient id="id43" gradientUnits="userSpaceOnUse" xlink:href="#id6" x1="105.683" y1="102.763" x2="104.853" y2="109.521">
  </linearGradient>
  <linearGradient id="id44" gradientUnits="userSpaceOnUse" xlink:href="#id10" x1="62.9749" y1="137.448" x2="62.9749" y2="111.018">
  </linearGradient>
  <linearGradient id="id45" gradientUnits="userSpaceOnUse" x1="58.2248" y1="117.395" x2="78.578" y2="99.7589">
   <stop offset="0" style="stop-opacity:1; stop-color:#373938"/>
   <stop offset="1" style="stop-opacity:1; stop-color:#8A8B8B"/>
  </linearGradient>
  <linearGradient id="id46" gradientUnits="userSpaceOnUse" xlink:href="#id1" x1="60.186" y1="141.732" x2="61.3101" y2="109.529">
  </linearGradient>
  <linearGradient id="id47" gradientUnits="userSpaceOnUse" xlink:href="#id18" x1="26.5886" y1="111.954" x2="25.5549" y2="111.695">
  </linearGradient>
  <linearGradient id="id48" gradientUnits="userSpaceOnUse" xlink:href="#id19" x1="59.9445" y1="136.875" x2="56.2553" y2="94.7003">
  </linearGradient>
  <linearGradient id="id49" gradientUnits="userSpaceOnUse" xlink:href="#id45" x1="110.969" y1="122.156" x2="126.065" y2="109.075">
  </linearGradient>
  <linearGradient id="id50" gradientUnits="userSpaceOnUse" xlink:href="#id40" x1="71.4982" y1="102.371" x2="98.5509" y2="106.26">
  </linearGradient>
  <linearGradient id="id51" gradientUnits="userSpaceOnUse" xlink:href="#id1" x1="101.553" y1="110.769" x2="101.553" y2="139.366">
  </linearGradient>
  <linearGradient id="id52" gradientUnits="userSpaceOnUse" xlink:href="#id6" x1="83.7782" y1="81.8121" x2="49.287" y2="168.357">
  </linearGradient>
  <linearGradient id="id53" gradientUnits="userSpaceOnUse" x1="110.825" y1="132.684" x2="116.163" y2="114.503">
   <stop offset="0" style="stop-opacity:1; stop-color:#373938"/>
   <stop offset="1" style="stop-opacity:1; stop-color:#7F7F7F"/>
  </linearGradient>
  <linearGradient id="id54" gradientUnits="userSpaceOnUse" xlink:href="#id16" x1="92.7818" y1="101.565" x2="107.669" y2="124.73">
  </linearGradient>
  <linearGradient id="id55" gradientUnits="userSpaceOnUse" xlink:href="#id1" x1="98.2694" y1="113.113" x2="98.2694" y2="135.545">
  </linearGradient>
  <linearGradient id="id56" gradientUnits="userSpaceOnUse" xlink:href="#id28" x1="110.125" y1="76.5386" x2="110.125" y2="97.8037">
  </linearGradient>
  <linearGradient id="id57" gradientUnits="userSpaceOnUse" x1="132.976" y1="108.917" x2="148.623" y2="122.475">
   <stop offset="0" style="stop-opacity:1; stop-color:#373938"/>
   <stop offset="1" style="stop-opacity:1; stop-color:#A7A7A8"/>
  </linearGradient>
  <linearGradient id="id58" gradientUnits="userSpaceOnUse" xlink:href="#id53" x1="58.6001" y1="130.709" x2="65.7983" y2="106.196">
  </linearGradient>
  <linearGradient id="id59" gradientUnits="userSpaceOnUse" xlink:href="#id1" x1="142.957" y1="120.026" x2="142.957" y2="136.661">
  </linearGradient>
  <linearGradient id="id60" gradientUnits="userSpaceOnUse" xlink:href="#id34" x1="144.893" y1="106.018" x2="143.756" y2="110.582">
  </linearGradient>
  <linearGradient id="id61" gradientUnits="userSpaceOnUse" xlink:href="#id1" x1="111.944" y1="141.201" x2="112.779" y2="117.318">
  </linearGradient>
  <linearGradient id="id62" gradientUnits="userSpaceOnUse" xlink:href="#id34" x1="72.9748" y1="101.294" x2="68.5619" y2="109.255">
  </linearGradient>
  <linearGradient id="id63" gradientUnits="userSpaceOnUse" xlink:href="#id19" x1="60.7299" y1="111.243" x2="60.7299" y2="98.6088">
  </linearGradient>
  <linearGradient id="id64" gradientUnits="userSpaceOnUse" xlink:href="#id33" x1="98.577" y1="105.855" x2="106.254" y2="132.001">
  </linearGradient>
  <linearGradient id="id65" gradientUnits="userSpaceOnUse" xlink:href="#id57" x1="85.453" y1="99.5415" x2="106.549" y2="117.822">
  </linearGradient>
 </defs>
 <g id="Слой_x0020_1">
  <metadata id="CorelCorpID_0Corel-Layer"/>
  <path class="fil0" d="M122 103c0,0 0,0 0,0 -1,0 -1,0 -1,0l0 -14 1 0 0 14z"/>
  <path class="fil1" d="M114 100c0,1 -1,1 -1,1 -1,0 -2,0 -2,-1l0 -22 3 0 0 0 0 22z"/>
  <path class="fil2" d="M62 125l-8 0 -3 -4c0,0 3,-24 2,-27 0,-3 -8,-16 -8,-16l-7 23 -7 9 -2 0 9 -36 -2 -6 5 -2 17 18c0,0 10,2 11,4 0,2 -1,3 -5,7 -3,4 -7,19 -7,19l6 0 -3 7 3 0 -1 4z"/>
  <polygon class="fil3" points="65,114 134,114 134,125 115,123 110,125 65,125 "/>
  <path class="fil4" d="M36 71c0,0 1,0 1,0 0,0 0,0 0,0l-9 35c0,1 -1,1 -1,1 0,0 0,-1 0,-1l9 -35z"/>
  <path class="fil5" d="M36 71c0,-1 0,-1 1,-1 0,0 1,1 1,1l-6 22c0,1 -1,1 -1,1 -1,0 -1,-1 -1,-1l6 -22z"/>
  <path class="fil6" d="M67 87c0,0 0,1 0,1 0,0 0,0 -1,0l-25 -24c0,0 0,0 0,0 0,0 1,0 1,0l25 23z"/>
  <path class="fil7" d="M67 87c1,0 1,1 0,1 0,1 -1,1 -1,0l-16 -15c0,0 0,0 0,-1 1,0 1,0 2,0l15 15z"/>
  <path class="fil8" d="M44 71c0,0 2,-6 0,-7 -1,-1 -3,-2 -4,0 0,1 -1,3 -1,3 0,0 5,4 5,4z"/>
  <polygon class="fil9" points="31,101 25,107 29,110 "/>
  <path class="fil10" d="M125 120c1,0 1,0 1,0 0,0 -1,0 -1,0l-19 -2 -8 -1 0 0 -31 -2c0,0 0,0 0,0 0,0 0,-1 0,-1l31 3 8 0 0 0 19 3z"/>
  <path class="fil11" d="M136 121c0,0 1,-13 1,-13l-31 -8 0 17c0,0 30,4 30,4z"/>
  <path class="fil12" d="M106 98c0,0 19,3 25,6 7,2 8,3 8,6 0,3 -1,12 -1,12l-3 -2 -29 -19 0 -3z"/>
  <path class="fil13" d="M106 98c0,0 19,3 25,6 6,1 8,2 8,5l-33 -10 0 -1z"/>
  <path class="fil14" d="M105 110c0,0 13,5 14,5 1,0 1,-2 0,-3 -1,0 -12,-5 -13,-5 -1,0 -1,3 -1,3z"/>
  <path class="fil15" d="M119 113c-1,-1 -3,-2 -5,-3 -4,-1 -7,-2 -8,-2 0,-1 0,2 0,2l-1 0c0,0 0,-3 1,-3 1,0 5,2 8,3 2,1 5,2 5,2l0 1z"/>
  <path class="fil10" d="M105 109c0,0 13,6 14,6l0 0c0,0 0,0 0,0 0,-1 0,-1 0,-1 0,0 0,0 0,-1l0 0c0,0 0,0 0,0l0 -1c0,0 1,1 1,1 0,1 0,1 0,1l0 0c0,0 0,1 -1,1 0,0 0,0 0,0l0 0c-1,0 -14,-5 -14,-5l0 -1z"/>
  <path class="fil16" d="M116 101c0,0 0,0 0,0 0,0 1,0 1,0l29 14c0,0 0,0 0,0 0,0 -1,0 -1,0l-29 -14z"/>
  <path class="fil17" d="M116 102c0,0 -1,-1 0,-1 0,-1 0,-1 1,-1l20 10c1,0 1,1 1,1 0,1 -1,1 -1,1l-21 -10z"/>
  <path class="fil18" d="M61 125l-8 0 -3 -4c0,0 3,-24 2,-27 0,-3 -8,-16 -8,-16l-7 23 -7 9 -2 0 9 -36 -2 -6 5 -2 17 18c0,0 10,2 11,4 0,2 -1,3 -5,7 -3,4 -7,19 -7,19l6 0 -3 7 3 0 -1 4z"/>
  <path class="fil19" d="M108 100l26 13 13 13 1 -5 -5 -7 1 -2 11 13 -1 2 -4 -3 -1 4 4 3 -1 4 -44 -31c0,0 0,-4 0,-4z"/>
  <polygon class="fil15" points="108,100 134,113 134,113 134,113 138,117 138,118 134,114 108,100 "/>
  <path class="fil20" d="M155 125c0,0 -3,3 -3,5 -1,3 -1,5 0,5 2,1 3,0 3,0l3 -10 -3 0z"/>
  <polygon class="fil21" points="98,129 113,129 113,119 98,119 "/>
  <path class="fil22" d="M139 122c0,0 0,0 0,0 0,1 0,1 -1,1l-28 -7c0,0 0,0 0,-1 0,0 0,0 1,0l28 7z"/>
  <path class="fil23" d="M67 114c0,0 1,-15 1,-19 1,-4 3,-13 3,-13l-3 -3 38 0 0 3 -3 0c0,0 2,8 3,12 1,4 0,22 0,22l-39 -2z"/>
  <path class="fil24" d="M67 114c0,0 0,-3 0,-6l17 -6 11 7 3 7 -31 -2z"/>
  <path class="fil25" d="M73 80c0,0 -3,9 -4,20 -1,11 -1,12 -1,12 0,0 1,-3 5,-7 5,-3 10,-4 10,-4l2 -21 -12 0z"/>
  <path class="fil26" d="M86 80l-1 21c0,0 7,2 11,8 3,6 3,6 3,6l6 0c0,0 0,-14 -1,-16 0,-3 -4,-19 -4,-19l-14 0z"/>
  <path class="fil27" d="M69 94c0,2 0,4 0,6 -1,11 -1,12 -1,12 0,0 1,-3 5,-7 5,-3 10,-4 10,-4l1 -7 -15 0 0 0zm16 0l0 7c0,0 7,2 11,8 3,6 3,6 3,6l6 0c0,0 0,-14 -1,-16 0,-1 0,-3 0,-5l-19 0z"/>
  <path class="fil24" d="M72 83c1,0 2,1 2,1 1,1 0,2 0,2l-3 14 -2 0c-1,11 -1,12 -1,12 0,0 1,-3 5,-7 5,-3 10,-4 10,-4l1 -4c-1,-2 -2,-4 -3,-4 0,-1 -2,0 -2,0l1 6 -4 2 -3 3 0 -4c0,0 2,-9 3,-12 1,-3 2,-6 2,-6l6 0 1 -2 -12 0c0,0 -1,1 -1,3l0 0zm32 14l-2 0 -3 2 -1 0 2 -2 -1 -2 -2 2 0 -1 2 -2 -1 -1 -6 5 1 0 2 -1 1 1 -1 0 4 7 2 4 1 1 -2 0 -6 -6 -2 -2 -2 -1 0 -19 11 1 -1 -3 -14 0 0 2 2 0 0 16 -3 0 0 3c0,0 7,2 11,8 3,6 3,6 3,6l6 0c0,0 0,-14 -1,-16 0,-1 0,-1 0,-2z"/>
  <path class="fil28" d="M63 106l5 23 2 -1c0,0 -4,-18 -4,-19 0,0 2,-6 2,-6l0 -2 -5 5z"/>
  <polygon class="fil29" points="63,106 58,106 64,129 68,129 "/>
  <path class="fil30" d="M83 109c0,0 1,0 2,0l0 0c0,1 0,1 0,1 1,0 1,0 1,0l0 0c1,0 2,0 3,0l0 0c-1,1 0,1 0,2 0,0 1,0 1,-1l0 0c1,1 1,1 2,2l0 0c0,0 0,1 0,1 0,0 1,0 1,0l0 0c1,1 1,1 2,2l0 0c-1,0 -1,1 -1,1 1,0 1,1 2,0l0 0c0,1 0,2 0,2l0 0c0,1 0,1 0,2 0,0 0,0 1,0l0 0c0,1 0,2 0,2l0 0c0,0 -1,1 -1,1 0,1 1,1 1,1l0 0c0,1 0,2 0,3l0 0c-1,-1 -1,0 -1,0l0 0c0,1 0,1 0,1l0 0c0,1 0,2 0,2l0 0c-1,0 -1,0 -2,1 0,0 0,1 1,1l0 0c-1,1 -1,1 -2,2l0 0c0,-1 -1,-1 -1,0l0 0c0,0 0,1 0,1l0 0c-1,0 -1,1 -2,1l0 0c0,0 -1,0 -1,0l0 0c0,0 -1,1 0,1l0 0c-1,1 -2,1 -2,1l0 0c-1,0 -1,-1 -2,0 0,0 0,0 0,1l0 0c-1,0 -2,0 -2,0 0,-1 -1,-1 -1,-1l0 0 0 0 0 0 0 0c-1,0 -1,0 -1,1 -1,0 -2,0 -2,0l0 0c0,-1 -1,-1 -1,-1 -1,-1 -1,0 -1,0l0 0c-1,0 -2,0 -2,-1l0 0c0,0 0,-1 -1,-1 0,0 -1,0 -1,0l0 0c0,0 -1,-1 -2,-1l0 0c1,0 1,-1 0,-1 0,-1 -1,-1 -1,0l0 0c0,-1 -1,-1 -1,-2l0 0c0,0 0,-1 0,-1 0,-1 -1,-1 -1,-1l0 0c-1,0 -1,-1 -1,-2l0 0c0,0 1,0 1,-1 -1,0 -1,-1 -1,0l-1 0c0,-1 0,-2 0,-3l0 0c1,0 1,0 1,-1 0,0 0,-1 -1,-1l0 0c0,0 0,-1 1,-2l0 0c0,0 0,0 1,0 0,-1 -1,-1 -1,-2l0 0c0,0 1,-1 1,-2l0 0c0,1 1,0 1,0 0,0 0,-1 0,-1l0 0c0,-1 1,-1 1,-2l0 0c1,0 1,0 1,0 1,0 1,-1 0,-1l0 0c1,-1 2,-1 2,-2l0 0c1,1 1,1 1,1 1,-1 1,-1 1,-2l0 0c0,0 1,0 2,0l0 0c0,0 1,0 1,0l0 0c0,0 1,0 1,-1l0 0c0,0 1,0 2,0 0,0 0,1 1,1 0,0 0,0 0,0 0,0 0,0 0,0 0,0 1,-1 1,-1zm2 1l0 0zm4 2l0 0zm3 2l0 0zm2 3l0 0zm2 4l0 0zm0 3l0 0zm-2 8l0 0zm-9 7l0 0zm-7 0l0 0zm-4 -2l0 0zm-3 -2l0 0zm-2 -3l0 0zm-1 -4l0 0zm-1 -4l0 0zm1 -3l0 0zm1 -4l0 0zm2 -3l0 0zm3 -2l0 0zm8 -2l0 0zm0 0l0 0z"/>
  <path class="fil31" d="M82 139c8,0 14,-7 14,-15 0,-8 -6,-14 -14,-14 -8,0 -15,6 -15,14 0,8 7,15 15,15z"/>
  <path class="fil32" d="M82 139c8,0 14,-7 14,-15 0,-8 -6,-14 -14,-14 -8,0 -15,6 -15,14 0,8 7,15 15,15z"/>
  <path class="fil33" d="M82 139c8,0 14,-7 14,-15 0,-8 -6,-14 -14,-14 -8,0 -15,6 -15,14 0,8 7,15 15,15z"/>
  <path class="fil34" d="M82 139c8,0 14,-7 14,-15 0,-7 -6,-14 -14,-14 -8,0 -14,7 -14,14 0,8 6,15 14,15z"/>
  <path class="fil35" d="M82 138c7,0 14,-6 14,-14 0,-7 -7,-14 -14,-14 -8,0 -14,7 -14,14 0,8 6,14 14,14z"/>
  <path class="fil36" d="M82 138c7,0 14,-6 14,-14 0,-7 -7,-14 -14,-14 -8,0 -14,7 -14,14 0,8 6,14 14,14z"/>
  <path class="fil37" d="M82 138c7,0 14,-6 14,-14 0,-7 -7,-14 -14,-14 -8,0 -14,7 -14,14 0,8 6,14 14,14z"/>
  <path class="fil38" d="M82 138c7,0 13,-6 13,-14 0,-7 -6,-13 -13,-13 -8,0 -14,6 -14,13 0,8 6,14 14,14z"/>
  <path class="fil39" d="M82 138c7,0 13,-6 13,-14 0,-7 -6,-13 -13,-13 -8,0 -14,6 -14,13 0,8 6,14 14,14z"/>
  <path class="fil40" d="M82 138c7,0 13,-6 13,-14 0,-7 -6,-13 -13,-13 -8,0 -14,6 -14,13 0,8 6,14 14,14z"/>
  <path class="fil41" d="M82 138c7,0 13,-6 13,-14 0,-7 -6,-13 -13,-13 -8,0 -14,6 -14,13 0,8 6,14 14,14z"/>
  <path class="fil42" d="M82 138c7,0 13,-6 13,-14 0,-7 -6,-13 -13,-13 -8,0 -14,6 -14,13 0,8 6,14 14,14z"/>
  <path class="fil43" d="M82 136c6,0 12,-5 12,-12 0,-6 -6,-12 -12,-12 -7,0 -12,6 -12,12 0,7 5,12 12,12z"/>
  <path class="fil44" d="M82 136c6,0 11,-5 11,-12 0,-6 -5,-11 -11,-11 -6,0 -11,5 -11,11 0,7 5,12 11,12z"/>
  <path class="fil45" d="M82 133c4,0 8,-4 8,-8 0,-4 -4,-8 -8,-8 -5,0 -8,4 -8,8 0,4 3,8 8,8z"/>
  <path class="fil46" d="M82 132c4,0 7,-4 7,-8 0,-4 -3,-7 -7,-7 -4,0 -8,3 -8,7 0,4 4,8 8,8z"/>
  <path class="fil47" d="M82 131c3,0 6,-3 6,-7 0,-3 -3,-6 -6,-6 -4,0 -7,3 -7,6 0,4 3,7 7,7z"/>
  <path class="fil43" d="M82 121c0,0 0,-1 0,-1 0,0 0,0 0,0 -1,0 -1,0 -1,0 0,0 0,1 1,1z"/>
  <path class="fil43" d="M85 121c0,0 0,1 0,1 0,0 0,0 -1,0 0,0 0,-1 0,-1 1,0 1,0 1,0z"/>
  <path class="fil43" d="M87 124c0,1 -1,1 -1,1 0,0 -1,0 -1,-1 0,0 1,0 1,0 0,0 1,0 1,0z"/>
  <path class="fil43" d="M85 128c0,0 0,0 -1,0 0,0 0,-1 0,-1 1,0 1,0 1,0 0,0 0,1 0,1z"/>
  <path class="fil43" d="M82 129c-1,0 -1,0 -1,0 0,-1 0,-1 1,-1 0,0 0,0 0,1 0,0 0,0 0,0z"/>
  <path class="fil43" d="M78 128c0,0 0,-1 0,-1 1,0 1,0 1,0 0,0 0,1 0,1 0,0 0,0 -1,0z"/>
  <path class="fil43" d="M77 124c0,0 0,0 0,0 1,0 1,0 1,0 0,1 0,1 -1,1 0,0 0,0 0,-1z"/>
  <path class="fil43" d="M78 121c0,0 1,0 1,0 0,0 0,1 0,1 0,0 -1,0 -1,0 0,0 0,-1 0,-1z"/>
  <path class="fil48" d="M82 127c1,0 3,-1 3,-3 0,-1 -2,-3 -3,-3 -2,0 -3,2 -3,3 0,2 1,3 3,3z"/>
  <path class="fil49" d="M82 98c8,0 15,7 17,18 0,0 -1,0 -2,-1 -3,-5 -9,-8 -15,-8 -4,0 -7,1 -10,3 -2,0 -4,1 -6,1 3,-8 9,-13 16,-13z"/>
  <path class="fil50" d="M82 100c8,0 14,6 17,16 -1,0 -1,-1 -2,-1 -3,-5 -9,-8 -15,-8 -4,0 -7,1 -10,3 -2,0 -4,1 -5,1 3,-7 9,-11 15,-11z"/>
  <path class="fil15" d="M99 116l-1 0 0 0 -1 0 0 0 0 0c-2,-3 -4,-5 -7,-6 -2,-2 -5,-3 -8,-3 -2,0 -4,1 -5,1 -2,1 -4,2 -5,3l0 0 0 0c-1,0 -2,0 -3,0 -1,0 -2,0 -3,0l0 0c1,-1 2,-1 3,-1 1,0 2,0 3,0 1,-1 3,-2 5,-2 1,-1 3,-1 5,-1 3,0 6,1 8,2 3,1 5,3 7,6l1 0 1 0 0 1z"/>
  <polygon class="fil51" points="98,120 113,120 113,119 98,119 "/>
  <polygon class="fil47" points="98,129 113,129 113,128 98,128 "/>
  <path class="fil10" d="M137 125l-30 -20 0 0 0 -1c0,0 1,-4 1,-4l0 0c0,0 0,3 0,4l30 21 -1 0z"/>
  <path class="fil52" d="M130 117c1,0 1,0 2,0l0 0c0,0 0,1 0,1l0 0c0,0 1,0 1,-1l0 0c0,1 1,1 1,1l0 0c0,0 0,1 1,1 0,0 0,0 1,0l0 0c0,0 1,0 1,1l0 0c0,0 0,0 0,1 0,0 1,0 1,0l0 0c0,0 1,1 1,1l0 0c0,0 0,1 0,1 0,0 0,0 1,0l0 0c0,1 0,1 0,2l0 0c0,0 0,0 0,1 0,0 0,0 1,0l0 0c0,1 0,1 0,2l0 0c-1,0 -1,0 -1,0 0,1 0,1 1,1l0 0c0,1 0,1 0,2l0 0c-1,0 -1,0 -1,0 0,0 0,1 0,1l0 0c0,0 0,1 0,2l0 0c-1,-1 -1,-1 -1,0 0,0 0,0 0,1l0 0c0,0 -1,1 -1,1l0 0c0,0 -1,0 -1,0 0,0 0,1 0,1l0 0c0,0 -1,1 -1,1l0 0c-1,0 -1,0 -1,0 -1,0 -1,0 -1,1l0 0c0,0 -1,0 -1,0l0 0c0,0 -1,0 -1,0 0,0 0,0 0,1l0 0c-1,0 -1,0 -2,0 0,0 0,-1 -1,-1l0 0 0 0 0 0c0,0 0,1 0,1 -1,0 -2,0 -2,0l0 0c0,-1 0,-1 -1,-1 0,0 0,0 0,0l0 0c-1,0 -1,0 -2,0l0 0c0,-1 0,-1 0,-1 0,0 -1,0 -1,0l0 0c0,0 -1,-1 -1,-1l0 0c0,0 0,-1 0,-1 -1,0 -1,0 -1,0l0 0c-1,0 -1,-1 -1,-1l0 0c0,-1 0,-1 0,-1 0,-1 -1,-1 -1,0l0 0c0,-1 0,-2 -1,-2l0 0c1,0 1,-1 1,-1 0,0 -1,0 -1,0l0 0c0,-1 0,-1 0,-2l0 0c0,0 0,0 0,-1 0,0 0,0 0,0l0 0c0,-1 0,-1 0,-2l0 0c0,0 1,0 1,0 0,-1 0,-1 -1,-1l0 0c1,-1 1,-1 1,-2l0 0c0,0 1,0 1,0 0,0 0,-1 0,-1l0 0c0,0 0,-1 1,-1l0 0c0,0 0,0 1,0 0,-1 0,-1 0,-1l0 0c0,-1 1,-1 1,-1l0 0c0,0 1,0 1,0 0,0 0,-1 0,-1l0 0c1,0 1,0 2,-1l0 0c0,1 0,1 1,1 0,0 0,-1 0,-1l0 0c1,0 1,0 2,0 0,0 0,0 0,0l0 0c0,0 0,0 0,0 0,0 0,0 0,0l0 0c1,0 1,0 1,0zm5 2l0 0zm2 2l0 0zm2 2l0 0zm1 3l0 0zm0 2l0 0zm0 3l0 0zm-1 3l0 0zm-2 2l0 0zm-2 2l0 0zm-3 1l0 0zm-3 0l0 0zm-3 0l0 0zm-2 -1l0 0zm-2 -2l0 0zm-2 -2l0 0zm-1 -3l0 0zm-1 -3l0 0zm1 -2l0 0zm1 -3l0 0zm2 -2l0 0zm2 -2l0 0zm3 -1l0 0z"/>
  <path class="fil53" d="M129 139c6,0 11,-5 11,-11 0,-6 -5,-10 -11,-10 -6,0 -10,4 -10,10 0,6 4,11 10,11z"/>
  <path class="fil54" d="M129 139c6,0 11,-5 11,-11 0,-6 -5,-10 -11,-10 -6,0 -10,4 -10,10 0,6 4,11 10,11z"/>
  <path class="fil55" d="M129 139c6,0 11,-5 11,-11 0,-5 -5,-10 -11,-10 -6,0 -10,5 -10,10 0,6 4,11 10,11z"/>
  <path class="fil56" d="M129 139c6,0 11,-5 11,-11 0,-5 -5,-10 -11,-10 -6,0 -10,5 -10,10 0,6 4,11 10,11z"/>
  <path class="fil57" d="M129 139c6,0 11,-5 11,-11 0,-5 -5,-10 -11,-10 -5,0 -10,5 -10,10 0,6 5,11 10,11z"/>
  <path class="fil58" d="M129 139c6,0 11,-5 11,-11 0,-5 -5,-10 -11,-10 -5,0 -10,5 -10,10 0,6 5,11 10,11z"/>
  <path class="fil59" d="M129 139c6,0 11,-5 11,-11 0,-5 -5,-10 -11,-10 -5,0 -10,5 -10,10 0,6 5,11 10,11z"/>
  <path class="fil60" d="M129 139c6,0 11,-5 11,-11 0,-5 -5,-10 -11,-10 -5,0 -10,5 -10,10 0,6 5,11 10,11z"/>
  <path class="fil61" d="M129 138c6,0 10,-4 10,-10 0,-5 -4,-10 -10,-10 -5,0 -10,5 -10,10 0,6 5,10 10,10z"/>
  <path class="fil62" d="M129 138c6,0 10,-4 10,-10 0,-5 -4,-10 -10,-10 -5,0 -10,5 -10,10 0,6 5,10 10,10z"/>
  <path class="fil63" d="M129 138c6,0 10,-4 10,-10 0,-5 -4,-10 -10,-10 -5,0 -10,5 -10,10 0,6 5,10 10,10z"/>
  <path class="fil64" d="M129 138c6,0 10,-4 10,-10 0,-5 -4,-10 -10,-10 -5,0 -10,5 -10,10 0,6 5,10 10,10z"/>
  <path class="fil43" d="M129 137c5,0 9,-4 9,-9 0,-5 -4,-8 -9,-8 -5,0 -9,3 -9,8 0,5 4,9 9,9z"/>
  <path class="fil65" d="M129 137c5,0 9,-4 9,-9 0,-4 -4,-8 -9,-8 -4,0 -8,4 -8,8 0,5 4,9 8,9z"/>
  <path class="fil66" d="M129 135c3,0 6,-3 6,-6 0,-3 -3,-6 -6,-6 -3,0 -6,3 -6,6 0,3 3,6 6,6z"/>
  <path class="fil47" d="M129 134c3,0 6,-3 6,-6 0,-3 -3,-5 -6,-5 -3,0 -5,2 -5,5 0,3 2,6 5,6z"/>
  <path class="fil67" d="M129 133c3,0 5,-2 5,-5 0,-2 -2,-4 -5,-4 -2,0 -4,2 -4,4 0,3 2,5 4,5z"/>
  <path class="fil43" d="M129 126c1,0 1,-1 1,-1 0,0 0,0 -1,0 0,0 0,0 0,0 0,0 0,1 0,1z"/>
  <path class="fil43" d="M132 126c0,0 0,0 0,0 0,1 -1,1 -1,0 0,0 0,0 0,0 0,0 1,0 1,0z"/>
  <path class="fil43" d="M133 128c0,1 0,1 0,1 -1,0 -1,0 -1,-1 0,0 0,0 1,0 0,0 0,0 0,0z"/>
  <path class="fil43" d="M132 131c0,0 -1,0 -1,0 0,0 0,0 0,-1 0,0 1,0 1,0 0,1 0,1 0,1z"/>
  <path class="fil43" d="M129 132c0,0 0,0 0,0 0,-1 0,-1 0,-1 1,0 1,0 1,1 0,0 0,0 -1,0z"/>
  <path class="fil43" d="M127 131c0,0 0,0 0,-1 0,0 0,0 0,0 1,1 1,1 0,1 0,0 0,0 0,0z"/>
  <path class="fil43" d="M126 128c0,0 0,0 0,0 0,0 1,0 1,0 0,1 -1,1 -1,1 0,0 0,0 0,-1z"/>
  <path class="fil43" d="M127 126c0,0 0,0 0,0 0,0 0,0 0,0 0,1 0,1 0,0 0,0 0,0 0,0z"/>
  <path class="fil68" d="M129 130c1,0 2,0 2,-2 0,-1 -1,-2 -2,-2 -1,0 -2,1 -2,2 0,2 1,2 2,2z"/>
  <path class="fil69" d="M115 100c0,0 2,14 2,15 1,0 2,-1 3,-2 0,-1 -2,-12 -2,-13 0,-1 -3,0 -3,0z"/>
  <path class="fil15" d="M119 113c0,0 0,-3 0,-5 -1,-4 -1,-8 -1,-8 0,-1 -2,0 -2,0l-1 0c0,0 3,-1 3,0 0,0 1,4 1,8 1,2 1,5 1,5l-1 0z"/>
  <path class="fil10" d="M116 100c0,0 1,14 1,14l0 0c0,0 1,0 1,1 0,0 0,0 0,-1 0,0 1,0 1,0l0 0c0,0 0,0 0,-1l1 0c0,1 -1,1 -1,2 0,0 0,0 -1,0l0 0c0,0 0,0 0,0 -1,0 -1,0 -1,0l0 0c-1,-1 -2,-15 -2,-15l1 0z"/>
  <path class="fil23" d="M160 122c0,0 -6,7 -7,10 -1,2 0,5 1,7 1,1 3,1 6,1 3,0 13,0 13,0l-10 -9 1 -9c0,0 -4,0 -4,0z"/>
  <path class="fil70" d="M30 110c0,0 5,3 7,4 3,1 8,-2 8,-5 0,-4 0,-15 0,-15 0,0 -2,5 -3,5 -1,1 -5,2 -5,2 0,0 -7,9 -7,9z"/>
  <path class="fil10" d="M44 70c0,0 0,0 0,0 0,0 0,0 0,0l0 7c0,1 0,1 0,1 0,0 0,0 0,-1l0 -7z"/>
  <polygon class="fil71" points="68,79 106,79 106,78 68,78 "/>
  <path class="fil24" d="M58 86l-2 7 0 1 3 -6 -1 -2 0 0zm-10 -10l1 1 -2 5 -1 -2 2 -4 0 0zm2 2l-2 5 1 1 2 -5 -1 -1 0 0zm2 2l1 1 -2 5 -1 -1 2 -5 0 0zm2 2l-2 6 1 1 2 -6 -1 -1 0 0zm2 2l1 1 -2 6 -1 -1 2 -6z"/>
  <path class="fil15" d="M43 70c0,0 0,0 0,0 1,0 1,0 1,0l0 8c0,0 0,0 0,0 -1,0 -1,0 -1,0l0 -8z"/>
  <path class="fil10" d="M58 106c0,0 0,0 0,0 0,0 1,0 1,0l6 23c0,0 0,1 0,1 -1,0 -1,-1 -1,-1l-6 -23z"/>
  <polygon class="fil24" points="58,106 58,105 62,105 63,106 "/>
  <polygon class="fil23" points="68,101 67,100 62,105 63,106 "/>
  <polygon class="fil72" points="63,100 58,105 62,105 67,100 "/>
 </g>
</svg>
