<?xml version="1.0" encoding="UTF-8"?>
<!DOCTYPE svg PUBLIC "-//W3C//DTD SVG 1.1//EN" "http://www.w3.org/Graphics/SVG/1.1/DTD/svg11.dtd">
<!-- Creator: CorelDRAW X8 -->
<svg xmlns="http://www.w3.org/2000/svg" xml:space="preserve" width="200px" height="150px" version="1.1" style="shape-rendering:geometricPrecision; text-rendering:geometricPrecision; image-rendering:optimizeQuality; fill-rule:evenodd; clip-rule:evenodd"
viewBox="0 0 200 150"
 xmlns:xlink="http://www.w3.org/1999/xlink">
 <defs>
  <style type="text/css">
   <![CDATA[
    .fil19 {fill:#2B2A29}
    .fil118 {fill:#F7EDCB}
    .fil27 {fill:#D2D4DD}
    .fil23 {fill:#BF984B}
    .fil16 {fill:#676E70}
    .fil25 {fill:#404342}
    .fil48 {fill:#2B2A29;fill-rule:nonzero}
    .fil6 {fill:#F7EDCB;fill-rule:nonzero}
    .fil12 {fill:#BF984B;fill-rule:nonzero}
    .fil21 {fill:url(#id0)}
    .fil84 {fill:url(#id1)}
    .fil42 {fill:url(#id2)}
    .fil56 {fill:url(#id3)}
    .fil74 {fill:url(#id4)}
    .fil36 {fill:url(#id5)}
    .fil47 {fill:url(#id6)}
    .fil9 {fill:url(#id7)}
    .fil82 {fill:url(#id8)}
    .fil58 {fill:url(#id9)}
    .fil83 {fill:url(#id10)}
    .fil10 {fill:url(#id11)}
    .fil93 {fill:url(#id12)}
    .fil113 {fill:url(#id13)}
    .fil55 {fill:url(#id14)}
    .fil117 {fill:url(#id15)}
    .fil106 {fill:url(#id16)}
    .fil37 {fill:url(#id17)}
    .fil102 {fill:url(#id18)}
    .fil22 {fill:url(#id19)}
    .fil31 {fill:url(#id20)}
    .fil46 {fill:url(#id21)}
    .fil57 {fill:url(#id22)}
    .fil7 {fill:url(#id23)}
    .fil98 {fill:url(#id24)}
    .fil1 {fill:url(#id25)}
    .fil80 {fill:url(#id26)}
    .fil107 {fill:url(#id27)}
    .fil115 {fill:url(#id28)}
    .fil91 {fill:url(#id29)}
    .fil4 {fill:url(#id30)}
    .fil64 {fill:url(#id31)}
    .fil90 {fill:url(#id32)}
    .fil88 {fill:url(#id33)}
    .fil51 {fill:url(#id34)}
    .fil68 {fill:url(#id35)}
    .fil8 {fill:url(#id36)}
    .fil66 {fill:url(#id37)}
    .fil28 {fill:url(#id38)}
    .fil32 {fill:url(#id39)}
    .fil81 {fill:url(#id40)}
    .fil14 {fill:url(#id41)}
    .fil116 {fill:url(#id42)}
    .fil77 {fill:url(#id43)}
    .fil100 {fill:url(#id44)}
    .fil76 {fill:url(#id45)}
    .fil109 {fill:url(#id46)}
    .fil52 {fill:url(#id47)}
    .fil105 {fill:url(#id48)}
    .fil78 {fill:url(#id49)}
    .fil79 {fill:url(#id50)}
    .fil72 {fill:url(#id51)}
    .fil20 {fill:url(#id52)}
    .fil60 {fill:url(#id53)}
    .fil11 {fill:url(#id54)}
    .fil45 {fill:url(#id55)}
    .fil85 {fill:url(#id56)}
    .fil38 {fill:url(#id57)}
    .fil40 {fill:url(#id58)}
    .fil29 {fill:url(#id59)}
    .fil119 {fill:url(#id60)}
    .fil54 {fill:url(#id61)}
    .fil33 {fill:url(#id62)}
    .fil94 {fill:url(#id63)}
    .fil44 {fill:url(#id64)}
    .fil35 {fill:url(#id65)}
    .fil87 {fill:url(#id66)}
    .fil92 {fill:url(#id67)}
    .fil5 {fill:url(#id68)}
    .fil63 {fill:url(#id69)}
    .fil15 {fill:url(#id70)}
    .fil34 {fill:url(#id71)}
    .fil89 {fill:url(#id72)}
    .fil39 {fill:url(#id73)}
    .fil70 {fill:url(#id74)}
    .fil59 {fill:url(#id75)}
    .fil24 {fill:url(#id76)}
    .fil67 {fill:url(#id77)}
    .fil114 {fill:url(#id78)}
    .fil71 {fill:url(#id79)}
    .fil0 {fill:url(#id80)}
    .fil49 {fill:url(#id81)}
    .fil97 {fill:url(#id82)}
    .fil104 {fill:url(#id83)}
    .fil3 {fill:url(#id84)}
    .fil41 {fill:url(#id85)}
    .fil43 {fill:url(#id86)}
    .fil65 {fill:url(#id87)}
    .fil69 {fill:url(#id88)}
    .fil73 {fill:url(#id89)}
    .fil17 {fill:url(#id90)}
    .fil62 {fill:url(#id91)}
    .fil96 {fill:url(#id92)}
    .fil75 {fill:url(#id93)}
    .fil18 {fill:url(#id94)}
    .fil13 {fill:url(#id95)}
    .fil86 {fill:url(#id96)}
    .fil26 {fill:url(#id97)}
    .fil110 {fill:url(#id98)}
    .fil2 {fill:url(#id99)}
    .fil103 {fill:url(#id100)}
    .fil108 {fill:url(#id101)}
    .fil99 {fill:url(#id102)}
    .fil95 {fill:url(#id103)}
    .fil61 {fill:url(#id104)}
    .fil111 {fill:url(#id105)}
    .fil101 {fill:url(#id106)}
    .fil50 {fill:url(#id107)}
    .fil53 {fill:url(#id108)}
    .fil30 {fill:url(#id109)}
    .fil112 {fill:url(#id110)}
   ]]>
  </style>
  <linearGradient id="id0" gradientUnits="userSpaceOnUse" x1="44.3521" y1="123.864" x2="44.3521" y2="137.561">
   <stop offset="0" style="stop-opacity:1; stop-color:#FAD60B"/>
   <stop offset="1" style="stop-opacity:1; stop-color:#F0B921"/>
  </linearGradient>
  <linearGradient id="id1" gradientUnits="userSpaceOnUse" xlink:href="#id0" x1="28.5245" y1="124.784" x2="28.5245" y2="122.504">
  </linearGradient>
  <linearGradient id="id2" gradientUnits="userSpaceOnUse" x1="50.7973" y1="136.628" x2="51.0074" y2="132.619">
   <stop offset="0" style="stop-opacity:1; stop-color:#FAD60B"/>
   <stop offset="1" style="stop-opacity:1; stop-color:#FEFEFE"/>
  </linearGradient>
  <linearGradient id="id3" gradientUnits="userSpaceOnUse" xlink:href="#id0" x1="67.9707" y1="137.591" x2="67.9707" y2="139.872">
  </linearGradient>
  <linearGradient id="id4" gradientUnits="userSpaceOnUse" xlink:href="#id0" x1="46.7366" y1="137.591" x2="46.7366" y2="139.872">
  </linearGradient>
  <linearGradient id="id5" gradientUnits="userSpaceOnUse" xlink:href="#id2" x1="56.922" y1="141.638" x2="57.5294" y2="130.055">
  </linearGradient>
  <linearGradient id="id6" gradientUnits="userSpaceOnUse" xlink:href="#id0" x1="86.4957" y1="127.551" x2="86.4957" y2="134.813">
  </linearGradient>
  <linearGradient id="id7" gradientUnits="userSpaceOnUse" x1="167.079" y1="96.982" x2="166.037" y2="99.963">
   <stop offset="0" style="stop-opacity:1; stop-color:#5F6262"/>
   <stop offset="1" style="stop-opacity:1; stop-color:#212220"/>
  </linearGradient>
  <linearGradient id="id8" gradientUnits="userSpaceOnUse" xlink:href="#id0" x1="24.2589" y1="126.392" x2="23.7479" y2="124.178">
  </linearGradient>
  <linearGradient id="id9" gradientUnits="userSpaceOnUse" xlink:href="#id0" x1="72.6967" y1="137.591" x2="72.6967" y2="139.872">
  </linearGradient>
  <linearGradient id="id10" gradientUnits="userSpaceOnUse" xlink:href="#id0" x1="26.1638" y1="124.784" x2="26.1638" y2="122.504">
  </linearGradient>
  <linearGradient id="id11" gradientUnits="userSpaceOnUse" xlink:href="#id0" x1="162.669" y1="85.476" x2="154.329" y2="124.714">
  </linearGradient>
  <linearGradient id="id12" gradientUnits="userSpaceOnUse" xlink:href="#id0" x1="49.7613" y1="124.784" x2="49.7613" y2="122.504">
  </linearGradient>
  <linearGradient id="id13" gradientUnits="userSpaceOnUse" xlink:href="#id0" x1="97.2031" y1="124.668" x2="99.4845" y2="124.788">
  </linearGradient>
  <linearGradient id="id14" gradientUnits="userSpaceOnUse" xlink:href="#id0" x1="65.607" y1="137.591" x2="65.607" y2="139.872">
  </linearGradient>
  <linearGradient id="id15" gradientUnits="userSpaceOnUse" xlink:href="#id7" x1="132.568" y1="138.981" x2="121.473" y2="144.155">
  </linearGradient>
  <linearGradient id="id16" gradientUnits="userSpaceOnUse" xlink:href="#id0" x1="80.4455" y1="124.784" x2="80.4455" y2="122.504">
  </linearGradient>
  <linearGradient id="id17" gradientUnits="userSpaceOnUse" xlink:href="#id0" x1="73.4907" y1="131.773" x2="73.4907" y2="136.466">
  </linearGradient>
  <linearGradient id="id18" gradientUnits="userSpaceOnUse" xlink:href="#id0" x1="71.0046" y1="124.784" x2="71.0046" y2="122.504">
  </linearGradient>
  <linearGradient id="id19" gradientUnits="userSpaceOnUse" xlink:href="#id2" x1="19.7673" y1="146.077" x2="20.9741" y2="123.04">
  </linearGradient>
  <linearGradient id="id20" gradientUnits="userSpaceOnUse" xlink:href="#id2" x1="83.316" y1="136.11" x2="83.7333" y2="128.136">
  </linearGradient>
  <linearGradient id="id21" gradientUnits="userSpaceOnUse" xlink:href="#id2" x1="42.4128" y1="136.628" x2="42.6229" y2="132.619">
  </linearGradient>
  <linearGradient id="id22" gradientUnits="userSpaceOnUse" xlink:href="#id0" x1="70.3345" y1="137.591" x2="70.3345" y2="139.872">
  </linearGradient>
  <linearGradient id="id23" gradientUnits="userSpaceOnUse" xlink:href="#id0" x1="177.99" y1="90.2507" x2="164.06" y2="153.167">
  </linearGradient>
  <linearGradient id="id24" gradientUnits="userSpaceOnUse" xlink:href="#id0" x1="61.5644" y1="124.784" x2="61.5644" y2="122.504">
  </linearGradient>
  <linearGradient id="id25" gradientUnits="userSpaceOnUse" x1="74.9769" y1="125.957" x2="48.9083" y2="125.957">
   <stop offset="0" style="stop-opacity:1; stop-color:#FEFEFE"/>
   <stop offset="0.180392" style="stop-opacity:1; stop-color:#C8C6C6"/>
   <stop offset="0.2" style="stop-opacity:1; stop-color:#FEFEFE"/>
   <stop offset="0.360784" style="stop-opacity:1; stop-color:#F3F3F5"/>
   <stop offset="0.54902" style="stop-opacity:1; stop-color:#F3F3F5"/>
   <stop offset="0.588235" style="stop-opacity:1; stop-color:#929294"/>
   <stop offset="0.85098" style="stop-opacity:1; stop-color:#5E6161"/>
   <stop offset="0.909804" style="stop-opacity:1; stop-color:#D19032"/>
   <stop offset="1" style="stop-opacity:1; stop-color:#F8EDC3"/>
  </linearGradient>
  <linearGradient id="id26" gradientUnits="userSpaceOnUse" xlink:href="#id0" x1="23.5091" y1="132.309" x2="21.6518" y2="130.959">
  </linearGradient>
  <linearGradient id="id27" gradientUnits="userSpaceOnUse" xlink:href="#id0" x1="82.8039" y1="124.784" x2="82.8039" y2="122.504">
  </linearGradient>
  <linearGradient id="id28" gradientUnits="userSpaceOnUse" xlink:href="#id0" x1="99.3847" y1="133.077" x2="100.647" y2="135.021">
  </linearGradient>
  <linearGradient id="id29" gradientUnits="userSpaceOnUse" xlink:href="#id0" x1="45.0433" y1="124.784" x2="45.0433" y2="122.504">
  </linearGradient>
  <linearGradient id="id30" gradientUnits="userSpaceOnUse" x1="176.299" y1="114.794" x2="176.672" y2="115.817">
   <stop offset="0" style="stop-opacity:1; stop-color:#808384"/>
   <stop offset="1" style="stop-opacity:1; stop-color:#FEFEFE"/>
  </linearGradient>
  <linearGradient id="id31" gradientUnits="userSpaceOnUse" xlink:href="#id0" x1="86.8714" y1="137.591" x2="86.8714" y2="139.872">
  </linearGradient>
  <linearGradient id="id32" gradientUnits="userSpaceOnUse" xlink:href="#id0" x1="42.6857" y1="124.784" x2="42.6857" y2="122.504">
  </linearGradient>
  <linearGradient id="id33" gradientUnits="userSpaceOnUse" xlink:href="#id0" x1="37.9639" y1="124.784" x2="37.9639" y2="122.504">
  </linearGradient>
  <linearGradient id="id34" gradientUnits="userSpaceOnUse" xlink:href="#id0" x1="56.1586" y1="137.591" x2="56.1586" y2="139.872">
  </linearGradient>
  <linearGradient id="id35" gradientUnits="userSpaceOnUse" xlink:href="#id0" x1="96.3199" y1="137.591" x2="96.3199" y2="139.872">
  </linearGradient>
  <linearGradient id="id36" gradientUnits="userSpaceOnUse" xlink:href="#id30" x1="119.778" y1="81.7014" x2="120.201" y2="80.6042">
  </linearGradient>
  <linearGradient id="id37" gradientUnits="userSpaceOnUse" xlink:href="#id0" x1="91.5966" y1="137.591" x2="91.5966" y2="139.872">
  </linearGradient>
  <linearGradient id="id38" gradientUnits="userSpaceOnUse" xlink:href="#id0" x1="103.293" y1="123.864" x2="103.293" y2="137.561">
  </linearGradient>
  <linearGradient id="id39" gradientUnits="userSpaceOnUse" xlink:href="#id2" x1="65.1939" y1="141.638" x2="65.8013" y2="130.055">
  </linearGradient>
  <linearGradient id="id40" gradientUnits="userSpaceOnUse" xlink:href="#id0" x1="23.2192" y1="129.18" x2="21.992" y2="127.216">
  </linearGradient>
  <linearGradient id="id41" gradientUnits="userSpaceOnUse" xlink:href="#id7" x1="95.1856" y1="91.3388" x2="97.3679" y2="93.3049">
  </linearGradient>
  <linearGradient id="id42" gradientUnits="userSpaceOnUse" xlink:href="#id0" x1="98.3691" y1="135.847" x2="98.9194" y2="138.054">
  </linearGradient>
  <linearGradient id="id43" gradientUnits="userSpaceOnUse" xlink:href="#id0" x1="28.0044" y1="139.515" x2="25.804" y2="140.188">
  </linearGradient>
  <linearGradient id="id44" gradientUnits="userSpaceOnUse" xlink:href="#id0" x1="66.2828" y1="124.784" x2="66.2828" y2="122.504">
  </linearGradient>
  <linearGradient id="id45" gradientUnits="userSpaceOnUse" xlink:href="#id0" x1="30.9778" y1="140.478" x2="29.1455" y2="141.809">
  </linearGradient>
  <linearGradient id="id46" gradientUnits="userSpaceOnUse" xlink:href="#id0" x1="87.9981" y1="122.281" x2="89.1195" y2="120.258">
  </linearGradient>
  <linearGradient id="id47" gradientUnits="userSpaceOnUse" xlink:href="#id0" x1="58.5223" y1="137.591" x2="58.5223" y2="139.872">
  </linearGradient>
  <linearGradient id="id48" gradientUnits="userSpaceOnUse" xlink:href="#id0" x1="78.0832" y1="124.784" x2="78.0832" y2="122.504">
  </linearGradient>
  <linearGradient id="id49" gradientUnits="userSpaceOnUse" xlink:href="#id0" x1="24.2544" y1="135.311" x2="22.097" y2="134.61">
  </linearGradient>
  <linearGradient id="id50" gradientUnits="userSpaceOnUse" xlink:href="#id0" x1="25.3728" y1="137.665" x2="23.0922" y2="137.507">
  </linearGradient>
  <linearGradient id="id51" gradientUnits="userSpaceOnUse" xlink:href="#id0" x1="42.0125" y1="137.591" x2="42.0125" y2="139.872">
  </linearGradient>
  <linearGradient id="id52" gradientUnits="userSpaceOnUse" xlink:href="#id7" x1="98.5332" y1="130.861" x2="98.5332" y2="137.318">
  </linearGradient>
  <linearGradient id="id53" gradientUnits="userSpaceOnUse" xlink:href="#id0" x1="77.4199" y1="137.591" x2="77.4199" y2="139.872">
  </linearGradient>
  <linearGradient id="id54" gradientUnits="userSpaceOnUse" xlink:href="#id0" x1="162.67" y1="85.7557" x2="154.329" y2="124.464">
  </linearGradient>
  <linearGradient id="id55" gradientUnits="userSpaceOnUse" xlink:href="#id0" x1="56.6635" y1="131.773" x2="56.6635" y2="136.466">
  </linearGradient>
  <linearGradient id="id56" gradientUnits="userSpaceOnUse" xlink:href="#id0" x1="30.8826" y1="124.784" x2="30.8826" y2="122.504">
  </linearGradient>
  <linearGradient id="id57" gradientUnits="userSpaceOnUse" xlink:href="#id2" x1="59.2377" y1="136.626" x2="59.4471" y2="132.618">
  </linearGradient>
  <linearGradient id="id58" gradientUnits="userSpaceOnUse" xlink:href="#id2" x1="48.4816" y1="141.638" x2="49.0889" y2="130.055">
  </linearGradient>
  <linearGradient id="id59" gradientUnits="userSpaceOnUse" xlink:href="#id2" x1="78.7114" y1="146.077" x2="79.9182" y2="123.04">
  </linearGradient>
  <linearGradient id="id60" gradientUnits="userSpaceOnUse" xlink:href="#id0" x1="112.011" y1="84.5799" x2="112.011" y2="88.1402">
  </linearGradient>
  <linearGradient id="id61" gradientUnits="userSpaceOnUse" xlink:href="#id0" x1="63.2474" y1="137.591" x2="63.2474" y2="139.872">
  </linearGradient>
  <linearGradient id="id62" gradientUnits="userSpaceOnUse" xlink:href="#id0" x1="81.7604" y1="131.773" x2="81.7604" y2="136.466">
  </linearGradient>
  <linearGradient id="id63" gradientUnits="userSpaceOnUse" xlink:href="#id0" x1="52.1235" y1="124.784" x2="52.1235" y2="122.504">
  </linearGradient>
  <linearGradient id="id64" gradientUnits="userSpaceOnUse" xlink:href="#id2" x1="40.0971" y1="141.638" x2="40.7044" y2="130.055">
  </linearGradient>
  <linearGradient id="id65" gradientUnits="userSpaceOnUse" xlink:href="#id2" x1="56.922" y1="141.638" x2="57.5294" y2="130.055">
  </linearGradient>
  <linearGradient id="id66" gradientUnits="userSpaceOnUse" xlink:href="#id0" x1="35.604" y1="124.784" x2="35.604" y2="122.504">
  </linearGradient>
  <linearGradient id="id67" gradientUnits="userSpaceOnUse" xlink:href="#id0" x1="47.404" y1="124.784" x2="47.404" y2="122.504">
  </linearGradient>
  <linearGradient id="id68" gradientUnits="userSpaceOnUse" xlink:href="#id7" x1="133.425" y1="132.569" x2="132.297" y2="129.672">
  </linearGradient>
  <linearGradient id="id69" gradientUnits="userSpaceOnUse" xlink:href="#id0" x1="84.5077" y1="137.591" x2="84.5077" y2="139.872">
  </linearGradient>
  <linearGradient id="id70" gradientUnits="userSpaceOnUse" xlink:href="#id0" x1="94.3931" y1="83.4419" x2="83.5783" y2="174.803">
  </linearGradient>
  <linearGradient id="id71" gradientUnits="userSpaceOnUse" xlink:href="#id2" x1="67.507" y1="136.628" x2="67.7175" y2="132.619">
  </linearGradient>
  <linearGradient id="id72" gradientUnits="userSpaceOnUse" xlink:href="#id0" x1="40.3235" y1="124.784" x2="40.3235" y2="122.504">
  </linearGradient>
  <linearGradient id="id73" gradientUnits="userSpaceOnUse" xlink:href="#id2" x1="48.4816" y1="141.638" x2="49.0889" y2="130.055">
  </linearGradient>
  <linearGradient id="id74" gradientUnits="userSpaceOnUse" xlink:href="#id0" x1="37.3448" y1="138.493" x2="36.9869" y2="140.75">
  </linearGradient>
  <linearGradient id="id75" gradientUnits="userSpaceOnUse" xlink:href="#id0" x1="75.0585" y1="137.591" x2="75.0585" y2="139.872">
  </linearGradient>
  <linearGradient id="id76" gradientUnits="userSpaceOnUse" xlink:href="#id0" x1="42.1728" y1="126.182" x2="42.1728" y2="135.515">
  </linearGradient>
  <linearGradient id="id77" gradientUnits="userSpaceOnUse" xlink:href="#id0" x1="93.9592" y1="137.591" x2="93.9592" y2="139.872">
  </linearGradient>
  <linearGradient id="id78" gradientUnits="userSpaceOnUse" xlink:href="#id0" x1="99.068" y1="129.991" x2="100.948" y2="131.307">
  </linearGradient>
  <linearGradient id="id79" gradientUnits="userSpaceOnUse" xlink:href="#id0" x1="39.6488" y1="137.591" x2="39.6488" y2="139.872">
  </linearGradient>
  <linearGradient id="id80" gradientUnits="userSpaceOnUse" xlink:href="#id25" x1="73.2829" y1="130.581" x2="50.546" y2="130.581">
  </linearGradient>
  <linearGradient id="id81" gradientUnits="userSpaceOnUse" xlink:href="#id0" x1="51.4345" y1="137.591" x2="51.4345" y2="139.872">
  </linearGradient>
  <linearGradient id="id82" gradientUnits="userSpaceOnUse" xlink:href="#id0" x1="59.2045" y1="124.784" x2="59.2045" y2="122.504">
  </linearGradient>
  <linearGradient id="id83" gradientUnits="userSpaceOnUse" xlink:href="#id0" x1="75.7237" y1="124.784" x2="75.7237" y2="122.504">
  </linearGradient>
  <linearGradient id="id84" gradientUnits="userSpaceOnUse" x1="25.798" y1="128.695" x2="25.798" y2="121.205">
   <stop offset="0" style="stop-opacity:1; stop-color:#D19032"/>
   <stop offset="1" style="stop-opacity:1; stop-color:#9A6433"/>
  </linearGradient>
  <linearGradient id="id85" gradientUnits="userSpaceOnUse" xlink:href="#id0" x1="65.048" y1="131.773" x2="65.048" y2="136.466">
  </linearGradient>
  <linearGradient id="id86" gradientUnits="userSpaceOnUse" xlink:href="#id2" x1="40.0971" y1="141.638" x2="40.7044" y2="130.055">
  </linearGradient>
  <linearGradient id="id87" gradientUnits="userSpaceOnUse" xlink:href="#id0" x1="89.2344" y1="137.591" x2="89.2344" y2="139.872">
  </linearGradient>
  <linearGradient id="id88" gradientUnits="userSpaceOnUse" xlink:href="#id0" x1="34.7063" y1="139.944" x2="33.6205" y2="141.988">
  </linearGradient>
  <linearGradient id="id89" gradientUnits="userSpaceOnUse" xlink:href="#id0" x1="44.374" y1="137.591" x2="44.374" y2="139.872">
  </linearGradient>
  <linearGradient id="id90" gradientUnits="userSpaceOnUse" x1="89.2041" y1="79.4628" x2="89.2041" y2="95.0704">
   <stop offset="0" style="stop-opacity:1; stop-color:#B5B3B1"/>
   <stop offset="1" style="stop-opacity:1; stop-color:#FEFEFE"/>
  </linearGradient>
  <linearGradient id="id91" gradientUnits="userSpaceOnUse" xlink:href="#id0" x1="82.1481" y1="137.591" x2="82.1481" y2="139.872">
  </linearGradient>
  <linearGradient id="id92" gradientUnits="userSpaceOnUse" xlink:href="#id0" x1="56.8449" y1="124.784" x2="56.8449" y2="122.504">
  </linearGradient>
  <linearGradient id="id93" gradientUnits="userSpaceOnUse" xlink:href="#id0" x1="49.1003" y1="137.591" x2="49.1003" y2="139.872">
  </linearGradient>
  <linearGradient id="id94" gradientUnits="userSpaceOnUse" x1="47.3413" y1="100.938" x2="47.3413" y2="93.2173">
   <stop offset="0" style="stop-opacity:1; stop-color:#CCC7C7"/>
   <stop offset="1" style="stop-opacity:1; stop-color:#7F7F7C"/>
  </linearGradient>
  <linearGradient id="id95" gradientUnits="userSpaceOnUse" xlink:href="#id30" x1="68.8517" y1="121.372" x2="67.8936" y2="120.414">
  </linearGradient>
  <linearGradient id="id96" gradientUnits="userSpaceOnUse" xlink:href="#id0" x1="33.2433" y1="124.784" x2="33.2433" y2="122.504">
  </linearGradient>
  <linearGradient id="id97" gradientUnits="userSpaceOnUse" xlink:href="#id2" x1="24.3723" y1="136.11" x2="24.7907" y2="128.136">
  </linearGradient>
  <linearGradient id="id98" gradientUnits="userSpaceOnUse" xlink:href="#id0" x1="91.7852" y1="121.796" x2="93.639" y2="120.498">
  </linearGradient>
  <linearGradient id="id99" gradientUnits="userSpaceOnUse" xlink:href="#id0" x1="188.484" y1="108.816" x2="177.686" y2="176.281">
  </linearGradient>
  <linearGradient id="id100" gradientUnits="userSpaceOnUse" xlink:href="#id0" x1="73.366" y1="124.784" x2="73.366" y2="122.504">
  </linearGradient>
  <linearGradient id="id101" gradientUnits="userSpaceOnUse" xlink:href="#id0" x1="85.1646" y1="124.784" x2="85.1646" y2="122.504">
  </linearGradient>
  <linearGradient id="id102" gradientUnits="userSpaceOnUse" xlink:href="#id0" x1="63.9251" y1="124.784" x2="63.9251" y2="122.504">
  </linearGradient>
  <linearGradient id="id103" gradientUnits="userSpaceOnUse" xlink:href="#id0" x1="54.4842" y1="124.784" x2="54.4842" y2="122.504">
  </linearGradient>
  <linearGradient id="id104" gradientUnits="userSpaceOnUse" xlink:href="#id0" x1="79.7829" y1="137.591" x2="79.7829" y2="139.872">
  </linearGradient>
  <linearGradient id="id105" gradientUnits="userSpaceOnUse" xlink:href="#id0" x1="94.7725" y1="122.781" x2="96.9839" y2="122.147">
  </linearGradient>
  <linearGradient id="id106" gradientUnits="userSpaceOnUse" xlink:href="#id0" x1="68.6431" y1="124.784" x2="68.6431" y2="122.504">
  </linearGradient>
  <linearGradient id="id107" gradientUnits="userSpaceOnUse" xlink:href="#id0" x1="53.796" y1="137.591" x2="53.796" y2="139.872">
  </linearGradient>
  <linearGradient id="id108" gradientUnits="userSpaceOnUse" xlink:href="#id0" x1="60.883" y1="137.591" x2="60.883" y2="139.872">
  </linearGradient>
  <linearGradient id="id109" gradientUnits="userSpaceOnUse" xlink:href="#id0" x1="101.114" y1="126.182" x2="101.114" y2="135.515">
  </linearGradient>
  <linearGradient id="id110" gradientUnits="userSpaceOnUse" xlink:href="#id0" x1="98.3185" y1="127.006" x2="100.492" y2="127.67">
  </linearGradient>
 </defs>
 <g id="Слой_x0020_1">
  <metadata id="CorelCorpID_0Corel-Layer"/>
  <polygon class="fil0" points="50,125 73,125 73,120 50,120 "/>
  <polygon class="fil1" points="49,121 75,121 75,119 49,119 "/>
  <path class="fil2" d="M180 104c0,0 -9,-1 -14,0 -4,1 -47,27 -47,27l0 3 57 -20c0,0 5,-5 6,-6 2,-2 2,-4 1,-4 -1,-1 -3,0 -3,0z"/>
  <polygon class="fil3" points="31,128 94,128 94,121 31,121 "/>
  <path class="fil4" d="M171 117c0,0 0,0 0,-1 0,0 0,0 0,0l-51 20c-1,0 -1,0 -1,0 0,1 1,1 1,1l51 -20z"/>
  <path class="fil5" d="M171 118c1,0 2,-1 1,-2 0,-1 -1,-1 -2,-1l-32 12c0,1 -1,2 0,2 0,1 1,1 1,1l32 -12z"/>
  <path class="fil6" d="M183 104c-1,-1 -2,0 -3,0 0,0 -9,-1 -14,0 -5,1 -47,26 -47,26l0 0 0 1 0 3 1 0 -1 -3c3,-2 43,-25 47,-26 5,-2 14,-1 14,-1l1 0 0 0c0,0 1,0 2,0l0 0z"/>
  <path class="fil7" d="M84 89c2,-2 6,-5 9,-7 4,-3 15,-3 28,3 14,5 44,18 44,18l4 3 -2 3 -7 -1c0,0 -41,-11 -48,-13 -8,-2 -20,0 -26,4 -1,-4 -2,-7 -2,-10z"/>
  <path class="fil8" d="M125 84c0,0 0,0 0,0 -1,0 0,1 0,1l56 20c0,0 1,0 1,-1 0,0 0,0 -1,0l-56 -20z"/>
  <path class="fil9" d="M126 83c-1,-1 -2,0 -3,1 0,0 1,1 1,2l36 12c0,1 1,0 2,-1 0,-1 0,-2 -1,-2l-35 -12z"/>
  <path class="fil10" d="M156 92l-2 5 -30 -11 -17 -5 1 -1c0,0 8,1 10,1 2,0 4,0 6,0 2,1 32,11 32,11z"/>
  <path class="fil11" d="M84 89c1,-1 3,-2 4,-3 2,-2 4,-3 5,-4 2,-1 7,-2 12,-1 5,0 10,1 16,4 13,6 43,18 44,18l4 3 0 0 -3 -3 0 0 0 0c-1,0 -31,-13 -45,-18 -6,-3 -11,-4 -16,-5l0 0c-5,0 -10,0 -12,2 -2,1 -3,2 -5,3 -2,1 -3,3 -5,4l1 0z"/>
  <path class="fil12" d="M167 108l-7 -1c0,0 -41,-11 -48,-13 -4,-1 -9,-1 -14,0 -5,1 -9,2 -13,5l1 0c3,-2 8,-4 12,-4 5,-1 10,-1 14,0 7,2 48,13 48,13l0 0 0 0 7 1 0 -1z"/>
  <path class="fil13" d="M73 117c0,1 0,1 0,1 0,0 0,0 0,0l31 -33c0,0 0,0 0,0 0,0 0,0 -1,0l-30 32z"/>
  <path class="fil14" d="M72 117c0,0 0,1 0,2 1,0 2,0 2,0l19 -21c1,0 1,-1 0,-2 0,0 -1,0 -2,0l-19 21z"/>
  <path class="fil15" d="M83 119l-67 0c0,0 0,-13 0,-17 0,-4 2,-5 7,-6 5,0 24,0 24,0 0,0 1,-12 2,-14 1,-3 4,-3 4,-3l24 0c0,0 3,0 5,4 3,10 7,27 1,36z"/>
  <path class="fil16" d="M50 80c1,-1 3,-1 3,-1l24 0c0,0 3,0 5,4 3,9 6,23 3,33l-35 -12 0 -24z"/>
  <path class="fil17" d="M56 82l4 0 0 18 -7 0 0 -16c0,-2 0,-2 3,-2l0 0zm6 0l14 0c0,0 2,0 4,3 1,4 4,14 4,23l-22 -8 0 -18z"/>
  <path class="fil18" d="M60 93l0 7 -7 0 0 -7 7 0 0 0zm22 0l-20 0 0 7 22 8c0,-5 -1,-10 -2,-15z"/>
  <path class="fil19" d="M60 95l0 5 -1 0 0 -5c0,0 0,0 1,0l0 0zm23 3c-1,0 -3,2 -3,2 -1,1 -2,1 -2,1l-1 -5 -2 1 0 1 -1 1 -1 1 1 2 -2 1 12 5c0,-4 0,-7 -1,-10l0 0zm-19 2c0,-2 -1,-4 -1,-5 0,0 0,0 -1,0l0 5 2 0z"/>
  <path class="fil6" d="M47 97c0,-1 0,-1 0,-1 0,0 0,0 0,1l0 19 -31 0c0,0 0,0 0,0 0,0 0,0 0,0l31 0 0 0 0 0 37 0c1,0 1,0 1,0 0,0 0,0 -1,0l-37 0 0 -19z"/>
  <path class="fil12" d="M85 116c0,0 0,0 0,0 0,-1 0,-1 0,-1l-69 0c0,0 0,0 0,1 0,0 0,0 0,0l69 0z"/>
  <path class="fil12" d="M47 96c0,0 0,0 0,0 0,0 0,0 0,0l0 20c0,0 0,0 0,0 0,0 0,0 0,0l0 -20z"/>
  <polygon class="fil20" points="28,137 93,137 93,126 28,126 "/>
  <path class="fil21" d="M36 125l-1 0 0 1 1 0 0 -1 0 0zm-10 2l0 1 1 1 0 -1 -1 -1 0 0zm3 -2l-1 0 1 1 1 0 -1 -1 0 0zm4 -1l-1 0 0 1 1 0 0 -1zm-8 6l0 2 1 0 0 -2 -1 0 0 0zm1 4l0 1 1 0 0 -1 -1 0 0 0zm2 3l1 0 1 0 -1 -1 -1 1 0 0zm3 1l2 0 0 -1 -2 0 0 1 0 0zm4 -1l1 0 0 -1 -1 1 0 0 0 0zm3 -2l0 -1 0 0 -1 1 1 0 0 0zm1 -3l0 -1 -1 0 0 1 1 0 0 0zm-1 -4l0 -1 -1 1 1 1 0 -1z"/>
  <path class="fil22" d="M32 137c3,0 6,-3 6,-6 0,-3 -3,-6 -6,-6 -3,0 -6,3 -6,6 0,3 3,6 6,6z"/>
  <path class="fil23" d="M32 137c3,0 6,-3 6,-6 0,-3 -3,-5 -6,-5 -3,0 -5,2 -5,5 0,3 2,6 5,6z"/>
  <path class="fil24" d="M32 136c3,0 5,-2 5,-5 0,-2 -2,-5 -5,-5 -2,0 -5,3 -5,5 0,3 3,5 5,5z"/>
  <path class="fil25" d="M32 128c0,0 1,0 1,0 0,0 -1,0 -1,0 0,0 0,0 0,0 0,0 0,0 0,0z"/>
  <path class="fil25" d="M30 129c-1,0 -1,0 0,0 0,0 0,0 0,0 0,0 0,0 0,0 0,-1 0,-1 0,0z"/>
  <path class="fil25" d="M29 131c0,0 0,1 0,1 0,0 0,-1 0,-1 0,0 0,0 0,0 0,0 0,0 0,0z"/>
  <path class="fil25" d="M30 134c0,0 0,0 0,0 0,0 0,-1 0,-1 0,0 0,0 0,0 -1,0 -1,1 0,1z"/>
  <path class="fil25" d="M32 135c0,0 1,0 1,-1 0,0 -1,0 -1,0 0,0 0,0 0,0 0,1 0,1 0,1z"/>
  <path class="fil25" d="M35 134c0,0 0,-1 0,-1 0,0 -1,0 -1,0 0,0 0,1 0,1 0,0 1,0 1,0z"/>
  <path class="fil25" d="M36 131c0,0 0,0 -1,0 0,0 0,0 0,0 0,0 0,1 0,1 1,0 1,-1 1,-1z"/>
  <path class="fil25" d="M35 129c0,-1 -1,-1 -1,0 0,0 0,0 0,0 0,0 1,0 1,0 0,0 0,0 0,0z"/>
  <path class="fil26" d="M32 133c1,0 2,-1 2,-2 0,-1 -1,-2 -2,-2 -1,0 -2,1 -2,2 0,1 1,2 2,2z"/>
  <path class="fil27" d="M32 131c0,0 0,0 0,0 0,0 0,0 0,0 0,0 0,0 0,0 0,0 0,0 0,0z"/>
  <path class="fil28" d="M95 125l-1 0 0 1 1 0 0 -1 0 0zm-10 2l0 1 1 1 0 -1 -1 -1 0 0zm3 -2l-1 0 1 1 1 0 -1 -1 0 0zm4 -1l-2 0 0 1 2 0 0 -1zm-8 6l0 2 1 0 0 -2 -1 0 0 0zm1 4l0 1 1 0 0 -1 -1 0 0 0zm2 3l1 0 1 0 -1 -1 -1 1 0 0zm3 1l2 0 0 -1 -2 0 0 1 0 0zm4 -1l1 0 0 -1 -2 1 1 0 0 0zm3 -2l0 -1 0 0 -1 1 1 0 0 0zm1 -3l0 -1 -1 0 0 1 1 0 0 0zm-1 -4l0 -1 -1 1 1 1 0 -1z"/>
  <path class="fil29" d="M91 137c3,0 6,-3 6,-6 0,-3 -3,-6 -6,-6 -3,0 -6,3 -6,6 0,3 3,6 6,6z"/>
  <path class="fil23" d="M91 137c3,0 6,-3 6,-6 0,-3 -3,-5 -6,-5 -3,0 -5,2 -5,5 0,3 2,6 5,6z"/>
  <path class="fil30" d="M91 136c3,0 5,-2 5,-5 0,-2 -2,-5 -5,-5 -3,0 -5,3 -5,5 0,3 2,5 5,5z"/>
  <path class="fil25" d="M91 128c0,0 1,0 1,0 0,0 -1,0 -1,0 0,0 0,0 0,0 0,0 0,0 0,0z"/>
  <path class="fil25" d="M89 129c-1,0 -1,0 0,0 0,0 0,0 0,0 0,0 0,0 0,0 0,-1 0,-1 0,0z"/>
  <path class="fil25" d="M87 131c0,0 1,1 1,1 0,0 0,-1 0,-1 0,0 0,0 0,0 0,0 -1,0 -1,0z"/>
  <path class="fil25" d="M89 134c0,0 0,0 0,0 0,0 0,-1 0,-1 0,0 0,0 0,0 -1,0 -1,1 0,1z"/>
  <path class="fil25" d="M91 135c0,0 0,0 0,-1 0,0 0,0 0,0 0,0 0,0 0,0 0,1 0,1 0,1z"/>
  <path class="fil25" d="M94 134c0,0 0,-1 0,-1 -1,0 -1,0 -1,0 0,0 0,1 0,1 0,0 0,0 1,0z"/>
  <path class="fil25" d="M95 131c0,0 -1,0 -1,0 0,0 0,0 0,0 0,0 0,1 0,1 0,0 1,-1 1,-1z"/>
  <path class="fil25" d="M94 129c-1,-1 -1,-1 -1,0 0,0 0,0 0,0 0,0 0,0 1,0 0,0 0,0 0,0z"/>
  <path class="fil31" d="M91 133c1,0 2,-1 2,-2 0,-1 -1,-2 -2,-2 -1,0 -2,1 -2,2 0,1 1,2 2,2z"/>
  <path class="fil27" d="M91 131c0,0 0,0 0,0 0,0 0,0 0,0 0,0 0,0 0,0 0,0 0,0 0,0z"/>
  <path class="fil32" d="M74 137c2,0 3,-1 3,-3 0,-1 -1,-3 -3,-3 -2,0 -3,2 -3,3 0,2 1,3 3,3z"/>
  <path class="fil23" d="M74 137c2,0 3,-1 3,-3 0,-1 -1,-3 -3,-3 -1,0 -3,2 -3,3 0,2 2,3 3,3z"/>
  <path class="fil33" d="M74 137c1,0 2,-1 2,-3 0,-1 -1,-2 -2,-2 -1,0 -2,1 -2,2 0,2 1,3 2,3z"/>
  <path class="fil34" d="M74 135c1,0 1,0 1,-1 0,0 0,-1 -1,-1 -1,0 -1,1 -1,1 0,1 0,1 1,1z"/>
  <path class="fil35" d="M66 137c1,0 3,-1 3,-3 0,-1 -2,-3 -3,-3 -2,0 -3,2 -3,3 0,2 1,3 3,3z"/>
  <path class="fil36" d="M66 137c1,0 3,-1 3,-3 0,-1 -2,-3 -3,-3 -2,0 -3,2 -3,3 0,2 1,3 3,3z"/>
  <path class="fil37" d="M66 137c1,0 2,-1 2,-3 0,-1 -1,-2 -2,-2 -2,0 -3,1 -3,2 0,2 1,3 3,3z"/>
  <path class="fil38" d="M66 135c0,0 1,0 1,-1 0,0 -1,-1 -1,-1 -1,0 -1,1 -1,1 0,1 0,1 1,1z"/>
  <path class="fil39" d="M57 137c2,0 3,-1 3,-3 0,-1 -1,-3 -3,-3 -1,0 -3,2 -3,3 0,2 2,3 3,3z"/>
  <path class="fil40" d="M57 137c2,0 3,-1 3,-3 0,-1 -1,-3 -3,-3 -1,0 -2,2 -2,3 0,2 1,3 2,3z"/>
  <path class="fil41" d="M57 137c2,0 3,-1 3,-3 0,-1 -1,-2 -3,-2 -1,0 -2,1 -2,2 0,2 1,3 2,3z"/>
  <path class="fil42" d="M57 135c1,0 1,0 1,-1 0,0 0,-1 -1,-1 0,0 -1,1 -1,1 0,1 1,1 1,1z"/>
  <path class="fil43" d="M49 137c2,0 3,-1 3,-3 0,-1 -1,-3 -3,-3 -2,0 -3,2 -3,3 0,2 1,3 3,3z"/>
  <path class="fil44" d="M49 137c2,0 3,-1 3,-3 0,-1 -1,-3 -3,-3 -2,0 -3,2 -3,3 0,2 1,3 3,3z"/>
  <path class="fil45" d="M49 137c1,0 2,-1 2,-3 0,-1 -1,-2 -2,-2 -1,0 -2,1 -2,2 0,2 1,3 2,3z"/>
  <path class="fil46" d="M49 135c1,0 1,0 1,-1 0,0 0,-1 -1,-1 -1,0 -1,1 -1,1 0,1 0,1 1,1z"/>
  <polygon class="fil47" points="81,128 43,128 43,132 43,132 43,132 43,132 43,132 47,135 50,135 51,133 54,133 56,135 59,135 60,133 63,133 64,135 67,135 69,133 71,133 73,135 76,135 77,133 80,133 81,132 "/>
  <path class="fil48" d="M90 123l-58 0c-2,0 -4,1 -6,2l0 0c-1,2 -2,4 -2,6 0,3 1,5 2,6l0 0c2,2 4,3 6,3l58 0c3,0 5,-1 6,-3l0 0c2,-1 3,-3 3,-6 0,-2 -1,-4 -3,-6l0 0c-1,-1 -3,-2 -6,-2l0 0zm-58 2l58 0c2,0 4,0 5,2l0 0c1,1 2,2 2,4 0,2 -1,4 -2,5 -1,1 -3,2 -5,2l-58 0c-2,0 -3,-1 -4,-2l0 0c-2,-1 -2,-3 -2,-5 0,-2 0,-3 2,-4 1,-2 2,-2 4,-2z"/>
  <polygon class="fil49" points="46,138 44,138 44,140 45,140 45,139 46,139 46,139 45,139 45,138 46,138 "/>
  <polygon class="fil50" points="48,138 47,138 47,140 48,140 48,139 48,139 48,139 48,139 48,138 48,138 "/>
  <polygon class="fil51" points="51,138 49,138 49,140 50,140 50,139 51,139 51,139 50,139 50,138 51,138 "/>
  <polygon class="fil52" points="53,138 51,138 51,140 52,140 52,139 53,139 53,139 52,139 52,138 53,138 "/>
  <polygon class="fil53" points="56,138 54,138 54,140 55,140 55,139 56,139 56,139 55,139 55,138 56,138 "/>
  <polygon class="fil54" points="58,138 56,138 56,140 57,140 57,139 58,139 58,139 57,139 57,138 58,138 "/>
  <polygon class="fil55" points="60,138 59,138 59,140 59,140 59,139 60,139 60,139 59,139 59,138 60,138 "/>
  <polygon class="fil56" points="63,138 61,138 61,140 62,140 62,139 63,139 63,139 62,139 62,138 63,138 "/>
  <polygon class="fil57" points="65,138 63,138 63,140 64,140 64,139 65,139 65,139 64,139 64,138 65,138 "/>
  <polygon class="fil58" points="67,138 66,138 66,140 66,140 66,139 67,139 67,139 66,139 66,138 67,138 "/>
  <polygon class="fil59" points="70,138 68,138 68,140 69,140 69,139 70,139 70,139 69,139 69,138 70,138 "/>
  <polygon class="fil60" points="72,138 70,138 70,140 71,140 71,139 72,139 72,139 71,139 71,138 72,138 "/>
  <polygon class="fil61" points="74,138 73,138 73,140 74,140 74,139 74,139 74,139 74,139 74,138 74,138 "/>
  <polygon class="fil62" points="77,138 75,138 75,140 76,140 76,139 77,139 77,139 76,139 76,138 77,138 "/>
  <polygon class="fil63" points="79,138 77,138 77,140 78,140 78,139 79,139 79,139 78,139 78,138 79,138 "/>
  <polygon class="fil64" points="82,138 80,138 80,140 81,140 81,139 82,139 82,139 81,139 81,138 82,138 "/>
  <polygon class="fil65" points="84,138 82,138 82,140 83,140 83,139 84,139 84,139 83,139 83,138 84,138 "/>
  <polygon class="fil66" points="86,138 85,138 85,140 85,140 85,139 86,139 86,139 85,139 85,138 86,138 "/>
  <polygon class="fil67" points="89,138 87,138 87,140 88,140 88,139 89,139 89,139 88,139 88,138 89,138 "/>
  <polygon class="fil68" points="91,138 89,138 89,140 90,140 90,139 91,139 91,139 90,139 90,138 91,138 "/>
  <polygon class="fil69" points="30,138 28,137 27,139 28,139 28,139 29,139 29,139 29,138 29,138 30,138 "/>
  <polygon class="fil70" points="32,138 30,137 30,140 31,140 31,139 32,139 32,139 31,139 31,138 32,138 "/>
  <polygon class="fil71" points="34,138 33,138 33,140 33,140 33,139 34,139 34,139 33,139 33,138 34,138 "/>
  <polygon class="fil72" points="37,138 35,138 35,140 36,140 36,139 37,139 37,139 36,139 36,138 37,138 "/>
  <polygon class="fil73" points="39,138 37,138 37,140 38,140 38,139 39,139 39,139 38,139 38,138 39,138 "/>
  <polygon class="fil74" points="41,138 40,138 40,140 41,140 41,139 41,139 41,139 41,139 41,138 41,138 "/>
  <polygon class="fil75" points="44,138 42,138 42,140 43,140 43,139 44,139 44,139 43,139 43,138 44,138 "/>
  <polygon class="fil76" points="28,136 27,135 25,136 25,137 26,137 26,137 27,137 26,136 27,136 27,137 "/>
  <polygon class="fil77" points="26,134 26,133 24,133 24,134 24,134 25,135 25,135 25,134 25,134 26,135 "/>
  <polygon class="fil78" points="26,130 26,129 24,128 24,129 24,129 24,130 25,130 25,129 26,129 25,130 "/>
  <polygon class="fil79" points="26,132 26,131 24,130 23,131 24,131 24,132 24,132 24,131 25,131 25,132 "/>
  <polygon class="fil80" points="27,128 28,127 26,125 25,126 26,126 25,127 26,127 26,126 27,127 26,128 "/>
  <polygon class="fil81" points="28,126 29,125 28,123 27,124 28,124 27,125 27,125 28,125 28,125 27,126 "/>
  <polygon class="fil82" points="29,125 31,125 31,123 30,123 30,123 29,123 29,124 30,124 30,124 29,125 "/>
  <polygon class="fil83" points="31,125 33,125 33,122 32,122 32,123 31,123 31,123 32,123 32,124 31,124 "/>
  <polygon class="fil84" points="34,125 36,125 36,122 35,122 35,123 34,123 34,123 35,123 35,124 34,124 "/>
  <polygon class="fil85" points="36,125 38,125 38,122 37,122 37,123 36,123 36,123 37,123 37,124 36,124 "/>
  <polygon class="fil86" points="39,125 40,125 40,122 39,122 39,123 39,123 39,123 39,123 39,124 39,124 "/>
  <polygon class="fil87" points="41,125 43,125 43,122 42,122 42,123 41,123 41,123 42,123 42,124 41,124 "/>
  <polygon class="fil88" points="43,125 45,125 45,122 44,122 44,123 43,123 43,123 44,123 44,124 43,124 "/>
  <polygon class="fil89" points="46,125 47,125 47,122 47,122 47,123 46,123 46,123 47,123 47,124 46,124 "/>
  <polygon class="fil90" points="48,125 50,125 50,122 49,122 49,123 48,123 48,123 49,123 49,124 48,124 "/>
  <polygon class="fil91" points="50,125 52,125 52,122 51,122 51,123 50,123 50,123 51,123 51,124 50,124 "/>
  <polygon class="fil92" points="53,125 54,125 54,122 54,122 54,123 53,123 53,123 54,123 54,124 53,124 "/>
  <polygon class="fil93" points="55,125 57,125 57,122 56,122 56,123 55,123 55,123 56,123 56,124 55,124 "/>
  <polygon class="fil94" points="57,125 59,125 59,122 58,122 58,123 57,123 57,123 58,123 58,124 57,124 "/>
  <polygon class="fil95" points="60,125 62,125 62,122 61,122 61,123 60,123 60,123 61,123 61,124 60,124 "/>
  <polygon class="fil96" points="62,125 64,125 64,122 63,122 63,123 62,123 62,123 63,123 63,124 62,124 "/>
  <polygon class="fil97" points="65,125 66,125 66,122 65,122 65,123 65,123 65,123 65,123 65,124 65,124 "/>
  <polygon class="fil98" points="67,125 69,125 69,122 68,122 68,123 67,123 67,123 68,123 68,124 67,124 "/>
  <polygon class="fil99" points="69,125 71,125 71,122 70,122 70,123 69,123 69,123 70,123 70,124 69,124 "/>
  <polygon class="fil100" points="72,125 73,125 73,122 73,122 73,123 72,123 72,123 73,123 73,124 72,124 "/>
  <polygon class="fil101" points="74,125 76,125 76,122 75,122 75,123 74,123 74,123 75,123 75,124 74,124 "/>
  <polygon class="fil102" points="76,125 78,125 78,122 77,122 77,123 76,123 76,123 77,123 77,124 76,124 "/>
  <polygon class="fil103" points="79,125 80,125 80,122 80,122 80,123 79,123 79,123 80,123 80,124 79,124 "/>
  <polygon class="fil104" points="81,125 83,125 83,122 82,122 82,123 81,123 81,123 82,123 82,124 81,124 "/>
  <polygon class="fil105" points="83,125 85,125 85,122 84,122 84,123 83,123 83,123 84,123 84,124 83,124 "/>
  <polygon class="fil106" points="86,125 87,125 87,122 87,122 87,123 86,123 86,123 87,123 87,124 86,124 "/>
  <polygon class="fil107" points="88,125 90,125 90,122 89,122 89,123 88,123 88,123 89,123 89,124 88,124 "/>
  <polygon class="fil108" points="90,125 92,125 92,122 91,122 91,123 90,123 90,123 91,123 91,124 90,124 "/>
  <polygon class="fil109" points="93,125 94,126 95,124 95,123 94,124 94,123 93,124 94,124 94,125 93,124 "/>
  <polygon class="fil110" points="95,126 96,128 98,126 97,126 97,126 96,125 96,125 96,126 96,126 95,126 "/>
  <polygon class="fil111" points="96,128 97,130 99,129 99,128 98,128 98,127 98,128 98,128 97,129 97,128 "/>
  <polygon class="fil112" points="97,132 96,134 98,134 99,134 98,134 99,133 98,133 98,133 97,133 97,132 "/>
  <polygon class="fil113" points="97,130 97,132 99,132 99,131 99,131 99,130 98,130 98,131 98,131 98,130 "/>
  <polygon class="fil114" points="96,134 95,136 97,137 97,136 97,136 98,135 97,135 97,136 96,135 97,135 "/>
  <polygon class="fil115" points="95,136 94,137 95,139 95,138 95,138 96,138 96,137 95,138 95,137 95,137 "/>
  <polygon class="fil116" points="93,137 92,138 92,140 93,140 93,139 94,139 94,138 93,139 93,138 93,138 "/>
  <polygon class="fil117" points="125,132 119,139 107,131 111,125 113,129 112,132 118,137 120,135 113,132 115,129 119,131 "/>
  <path class="fil16" d="M119 131l7 -14c0,0 0,-3 2,-4 2,-1 5,-3 5,-3l-1 -1c0,0 -4,1 -7,2 -4,1 -11,0 -14,2 -4,2 -6,6 -3,10 2,3 4,6 4,7 0,1 2,1 2,1l5 0z"/>
  <polygon class="fil19" points="42,109 40,109 45,113 45,111 "/>
  <polygon class="fil19" points="42,109 40,109 45,113 45,111 "/>
  <polygon class="fil19" points="42,109 40,109 45,113 45,111 "/>
  <polygon class="fil19" points="38,109 36,109 43,115 44,115 "/>
  <polygon class="fil19" points="35,109 33,109 39,115 41,115 "/>
  <polygon class="fil19" points="31,109 29,109 35,115 37,115 "/>
  <polygon class="fil19" points="27,109 25,109 31,115 33,115 "/>
  <polygon class="fil19" points="23,109 21,109 27,115 29,115 "/>
  <polygon class="fil19" points="20,109 18,109 24,115 26,115 "/>
  <polygon class="fil19" points="17,110 17,112 20,115 22,115 "/>
  <path class="fil118" d="M104 88c2,0 3,-1 3,-3 0,-2 -1,-4 -3,-4 -2,0 -3,2 -3,4 0,2 1,3 3,3z"/>
  <path class="fil119" d="M104 87c2,0 3,-1 3,-2 0,-2 -1,-3 -3,-3 -1,0 -3,1 -3,3 0,1 2,2 3,2z"/>
  <path class="fil19" d="M150 114l5 5 1 -1 -5 -4 -1 0 0 0zm-13 7l1 -1 4 4 -1 0 -4 -3 0 0zm3 -1l4 3 1 0 -4 -4 -1 1 0 0zm2 -2l4 4 2 -1 -5 -3 -1 0 0 0zm3 -1l1 -1 5 4 -2 1 -4 -4 0 0zm2 -1l2 -1 5 4 -2 1 -5 -4z"/>
 </g>
</svg>
