<?xml version="1.0" encoding="UTF-8"?>
<!DOCTYPE svg PUBLIC "-//W3C//DTD SVG 1.1//EN" "http://www.w3.org/Graphics/SVG/1.1/DTD/svg11.dtd">
<!-- Creator: CorelDRAW X8 -->
<svg xmlns="http://www.w3.org/2000/svg" xml:space="preserve" width="200px" height="150px" version="1.1" style="shape-rendering:geometricPrecision; text-rendering:geometricPrecision; image-rendering:optimizeQuality; fill-rule:evenodd; clip-rule:evenodd"
viewBox="0 0 200 150"
 xmlns:xlink="http://www.w3.org/1999/xlink">
 <defs>
  <style type="text/css">
   <![CDATA[
    .fil39 {fill:#FEFEFE}
    .fil15 {fill:#2B2A29}
    .fil43 {fill:#F7EDCB}
    .fil20 {fill:#BF984B}
    .fil28 {fill:#676E70}
    .fil25 {fill:#404342}
    .fil30 {fill:#2B2A29;fill-rule:nonzero}
    .fil26 {fill:#F7EDCB;fill-rule:nonzero}
    .fil41 {fill:#BF984B;fill-rule:nonzero}
    .fil27 {fill:#91773F;fill-rule:nonzero}
    .fil29 {fill:#9A6433;fill-rule:nonzero}
    .fil2 {fill:#676E70;fill-rule:nonzero}
    .fil3 {fill:url(#id0)}
    .fil8 {fill:url(#id1)}
    .fil32 {fill:url(#id2)}
    .fil40 {fill:url(#id3)}
    .fil37 {fill:url(#id4)}
    .fil34 {fill:url(#id5)}
    .fil0 {fill:url(#id6)}
    .fil10 {fill:url(#id7)}
    .fil7 {fill:url(#id8)}
    .fil22 {fill:url(#id9)}
    .fil36 {fill:url(#id10)}
    .fil31 {fill:url(#id11)}
    .fil35 {fill:url(#id12)}
    .fil9 {fill:url(#id13)}
    .fil12 {fill:url(#id14)}
    .fil42 {fill:url(#id15)}
    .fil1 {fill:url(#id16)}
    .fil19 {fill:url(#id17)}
    .fil6 {fill:url(#id18)}
    .fil18 {fill:url(#id19)}
    .fil4 {fill:url(#id20)}
    .fil16 {fill:url(#id21)}
    .fil21 {fill:url(#id22)}
    .fil5 {fill:url(#id23)}
    .fil44 {fill:url(#id24)}
    .fil47 {fill:url(#id25)}
    .fil50 {fill:url(#id26)}
    .fil38 {fill:url(#id27)}
    .fil33 {fill:url(#id28)}
    .fil45 {fill:url(#id29)}
    .fil46 {fill:url(#id30)}
    .fil23 {fill:url(#id31)}
    .fil17 {fill:url(#id32)}
    .fil11 {fill:url(#id33)}
    .fil49 {fill:url(#id34)}
    .fil48 {fill:url(#id35)}
    .fil14 {fill:url(#id36)}
    .fil13 {fill:url(#id37)}
    .fil24 {fill:url(#id38)}
   ]]>
  </style>
  <linearGradient id="id0" gradientUnits="userSpaceOnUse" x1="52.3227" y1="70.2044" x2="54.5802" y2="70.2044">
   <stop offset="0" style="stop-opacity:1; stop-color:#FEFEFE"/>
   <stop offset="0.180392" style="stop-opacity:1; stop-color:#C8C6C6"/>
   <stop offset="0.2" style="stop-opacity:1; stop-color:#FEFEFE"/>
   <stop offset="0.360784" style="stop-opacity:1; stop-color:#F3F3F5"/>
   <stop offset="0.54902" style="stop-opacity:1; stop-color:#F3F3F5"/>
   <stop offset="0.588235" style="stop-opacity:1; stop-color:#929294"/>
   <stop offset="0.85098" style="stop-opacity:1; stop-color:#5E6161"/>
   <stop offset="0.909804" style="stop-opacity:1; stop-color:#D19032"/>
   <stop offset="1" style="stop-opacity:1; stop-color:#F8EDC3"/>
  </linearGradient>
  <linearGradient id="id1" gradientUnits="userSpaceOnUse" x1="88.0389" y1="80.5127" x2="89.039" y2="87.5574">
   <stop offset="0" style="stop-opacity:1; stop-color:#FAD60B"/>
   <stop offset="1" style="stop-opacity:1; stop-color:#FEFEFE"/>
  </linearGradient>
  <linearGradient id="id2" gradientUnits="userSpaceOnUse" x1="160.606" y1="102.075" x2="167.135" y2="176.713">
   <stop offset="0" style="stop-opacity:1; stop-color:#FAD60B"/>
   <stop offset="1" style="stop-opacity:1; stop-color:#F0B921"/>
  </linearGradient>
  <linearGradient id="id3" gradientUnits="userSpaceOnUse" xlink:href="#id2" x1="172.682" y1="109.47" x2="183.583" y2="137.87">
  </linearGradient>
  <linearGradient id="id4" gradientUnits="userSpaceOnUse" xlink:href="#id1" x1="129.914" y1="134.953" x2="129.914" y2="116.015">
  </linearGradient>
  <linearGradient id="id5" gradientUnits="userSpaceOnUse" x1="156.703" y1="121.021" x2="156.703" y2="132.332">
   <stop offset="0" style="stop-opacity:1; stop-color:#D19032"/>
   <stop offset="1" style="stop-opacity:1; stop-color:#F7CA16"/>
  </linearGradient>
  <linearGradient id="id6" gradientUnits="userSpaceOnUse" xlink:href="#id2" x1="32.5788" y1="113.152" x2="34.3227" y2="120.145">
  </linearGradient>
  <linearGradient id="id7" gradientUnits="userSpaceOnUse" xlink:href="#id2" x1="87.1201" y1="85.8033" x2="89.9608" y2="94.054">
  </linearGradient>
  <linearGradient id="id8" gradientUnits="userSpaceOnUse" xlink:href="#id2" x1="108.309" y1="78.1139" x2="122.465" y2="150.72">
  </linearGradient>
  <linearGradient id="id9" gradientUnits="userSpaceOnUse" xlink:href="#id2" x1="77.9797" y1="112.623" x2="80.8729" y2="145.699">
  </linearGradient>
  <linearGradient id="id10" gradientUnits="userSpaceOnUse" xlink:href="#id1" x1="119.011" y1="165.17" x2="116.791" y2="101.608">
  </linearGradient>
  <linearGradient id="id11" gradientUnits="userSpaceOnUse" xlink:href="#id2" x1="162.028" y1="99.4527" x2="169.492" y2="184.77">
  </linearGradient>
  <linearGradient id="id12" gradientUnits="userSpaceOnUse" xlink:href="#id2" x1="151.946" y1="112.626" x2="154.838" y2="145.695">
  </linearGradient>
  <linearGradient id="id13" gradientUnits="userSpaceOnUse" x1="37.9571" y1="115.508" x2="37.9571" y2="99.7849">
   <stop offset="0" style="stop-opacity:1; stop-color:#D19032"/>
   <stop offset="1" style="stop-opacity:1; stop-color:#9A6433"/>
  </linearGradient>
  <linearGradient id="id14" gradientUnits="userSpaceOnUse" xlink:href="#id2" x1="154.879" y1="84.1305" x2="164.271" y2="105.227">
  </linearGradient>
  <linearGradient id="id15" gradientUnits="userSpaceOnUse" xlink:href="#id2" x1="104.092" y1="106.369" x2="106.153" y2="109.801">
  </linearGradient>
  <linearGradient id="id16" gradientUnits="userSpaceOnUse" x1="168.966" y1="113.944" x2="173.263" y2="113.944">
   <stop offset="0" style="stop-opacity:1; stop-color:#5F6262"/>
   <stop offset="1" style="stop-opacity:1; stop-color:#212220"/>
  </linearGradient>
  <linearGradient id="id17" gradientUnits="userSpaceOnUse" xlink:href="#id1" x1="48.1233" y1="156.098" x2="46.3665" y2="105.796">
  </linearGradient>
  <linearGradient id="id18" gradientUnits="userSpaceOnUse" xlink:href="#id13" x1="73.3928" y1="123.227" x2="73.3928" y2="115.996">
  </linearGradient>
  <linearGradient id="id19" gradientUnits="userSpaceOnUse" xlink:href="#id2" x1="86.6424" y1="102.075" x2="93.173" y2="176.719">
  </linearGradient>
  <linearGradient id="id20" gradientUnits="userSpaceOnUse" xlink:href="#id0" x1="52.3295" y1="70.2037" x2="54.5863" y2="70.2037">
  </linearGradient>
  <linearGradient id="id21" gradientUnits="userSpaceOnUse" xlink:href="#id2" x1="103.28" y1="56.1816" x2="107.624" y2="59.4528">
  </linearGradient>
  <linearGradient id="id22" gradientUnits="userSpaceOnUse" xlink:href="#id5" x1="82.7377" y1="121.021" x2="82.7377" y2="132.332">
  </linearGradient>
  <linearGradient id="id23" gradientUnits="userSpaceOnUse" xlink:href="#id0" x1="52.3167" y1="70.2037" x2="54.5749" y2="70.2037">
  </linearGradient>
  <linearGradient id="id24" gradientUnits="userSpaceOnUse" xlink:href="#id13" x1="84.1335" y1="114.252" x2="84.1335" y2="113.569">
  </linearGradient>
  <linearGradient id="id25" gradientUnits="userSpaceOnUse" xlink:href="#id13" x1="84.1335" y1="109.513" x2="84.1335" y2="108.829">
  </linearGradient>
  <linearGradient id="id26" gradientUnits="userSpaceOnUse" xlink:href="#id13" x1="84.1335" y1="104.776" x2="84.1335" y2="104.092">
  </linearGradient>
  <linearGradient id="id27" gradientUnits="userSpaceOnUse" xlink:href="#id2" x1="176.886" y1="120.962" x2="178.778" y2="138.973">
  </linearGradient>
  <linearGradient id="id28" gradientUnits="userSpaceOnUse" xlink:href="#id1" x1="122.089" y1="156.098" x2="120.332" y2="105.796">
  </linearGradient>
  <linearGradient id="id29" gradientUnits="userSpaceOnUse" xlink:href="#id2" x1="104.092" y1="101.631" x2="106.154" y2="105.062">
  </linearGradient>
  <linearGradient id="id30" gradientUnits="userSpaceOnUse" xlink:href="#id2" x1="104.092" y1="101.633" x2="106.154" y2="105.062">
  </linearGradient>
  <linearGradient id="id31" gradientUnits="userSpaceOnUse" xlink:href="#id1" x1="45.0452" y1="165.165" x2="42.8251" y2="101.607">
  </linearGradient>
  <linearGradient id="id32" gradientUnits="userSpaceOnUse" xlink:href="#id2" x1="88.0654" y1="99.4557" x2="95.5296" y2="184.773">
  </linearGradient>
  <linearGradient id="id33" gradientUnits="userSpaceOnUse" xlink:href="#id2" x1="154.88" y1="84.1305" x2="164.272" y2="105.227">
  </linearGradient>
  <linearGradient id="id34" gradientUnits="userSpaceOnUse" xlink:href="#id2" x1="104.089" y1="96.8894" x2="106.151" y2="100.322">
  </linearGradient>
  <linearGradient id="id35" gradientUnits="userSpaceOnUse" xlink:href="#id2" x1="104.089" y1="96.894" x2="106.151" y2="100.325">
  </linearGradient>
  <linearGradient id="id36" gradientUnits="userSpaceOnUse" x1="80.7161" y1="90.8622" x2="80.7161" y2="83.011">
   <stop offset="0" style="stop-opacity:1; stop-color:#CCC7C7"/>
   <stop offset="1" style="stop-opacity:1; stop-color:#7F7F7C"/>
  </linearGradient>
  <linearGradient id="id37" gradientUnits="userSpaceOnUse" x1="117.509" y1="66.6524" x2="117.509" y2="81.7743">
   <stop offset="0" style="stop-opacity:1; stop-color:#B5B3B1"/>
   <stop offset="1" style="stop-opacity:1; stop-color:#FEFEFE"/>
  </linearGradient>
  <linearGradient id="id38" gradientUnits="userSpaceOnUse" xlink:href="#id1" x1="55.9518" y1="134.953" x2="55.9518" y2="116.015">
  </linearGradient>
 </defs>
 <g id="Слой_x0020_1">
  <metadata id="CorelCorpID_0Corel-Layer"/>
  <polygon class="fil0" points="18,119 28,119 28,116 18,116 "/>
  <polygon class="fil1" points="170,130 174,130 174,119 170,119 "/>
  <path class="fil2" d="M88 118c0,0 -1,0 -1,-1 0,0 1,-1 1,-1l23 0 0 -5 -13 0c0,0 -1,0 -1,0l0 -2c0,0 1,0 1,0l17 0 -1 -1 -17 0c-1,0 -1,-1 -1,-1 0,0 0,0 0,-1l2 -3c0,0 1,0 1,0l0 0 11 0 0 -9c0,0 0,-1 1,-1 0,0 0,1 0,1l0 10c0,0 0,1 0,1l-12 0 -1 1 17 0 0 0c0,0 0,0 0,0l2 3c0,0 0,0 0,0 0,1 -1,1 -1,1l-4 0c0,0 0,0 0,1l0 6c0,1 0,1 0,1l-24 0z"/>
  <path class="fil3" d="M55 98c0,0 -1,1 -2,1 0,0 -1,-1 -1,-1l0 -22 0 0 3 0 0 22z"/>
  <path class="fil4" d="M74 75c0,0 0,0 0,0 0,0 1,0 1,0l0 14c0,0 -1,1 -1,1 0,0 0,-1 0,-1l0 -14z"/>
  <path class="fil5" d="M69 79c0,0 1,0 1,0 0,0 0,0 0,0l0 14c0,0 0,1 0,1 0,0 -1,-1 -1,-1l0 -14z"/>
  <polygon class="fil6" points="79,114 91,114 91,119 99,119 99,123 101,123 101,120 122,120 122,125 101,125 101,124 98,124 98,125 82,125 "/>
  <path class="fil7" d="M45 120l-19 0 0 -25c0,0 19,-6 33,-7 14,-1 25,-1 25,-1l0 12 23 0 0 2 -2 0 0 5 -3 0 0 9 -12 0c0,0 -45,4 -45,5z"/>
  <path class="fil8" d="M26 97l0 -2c0,0 19,-6 33,-7 14,-1 25,-1 25,-1l0 3c-25,-1 -46,4 -58,7z"/>
  <path class="fil9" d="M43 120c3,-6 6,-13 8,-15 3,-4 7,-7 11,-8 4,0 14,-1 14,-1l13 11 0 8c-6,1 -44,4 -44,5l-2 0z"/>
  <path class="fil10" d="M43 123c0,0 -1,0 -1,0 -1,0 -1,-1 -1,-1 0,0 7,-19 14,-23 7,-4 21,-4 21,-4 1,0 1,0 1,0l0 0 11 11c1,0 1,1 0,1 0,1 0,1 -1,0l-11 -10c-2,0 -14,0 -20,3 -6,4 -13,23 -13,23z"/>
  <path class="fil11" d="M105 111l0 10 59 0 0 -4 -10 0 -13 -3 0 -11c0,0 -5,-4 -4,-5 0,0 -7,0 -7,0l-6 -5 -7 0 0 10 -8 0 0 8 -4 0z"/>
  <path class="fil12" d="M83 99l2 -31 23 0c2,9 4,18 4,27l-5 4 -24 0z"/>
  <path class="fil13" d="M86 69l6 0 0 26 -6 0 0 -26zm19 0l3 26 4 -4c0,-7 -2,-15 -4,-22l-3 0 0 0zm-12 20l13 0 0 9 -13 0 0 -9zm0 -20l11 0 2 19 -13 0 0 -19z"/>
  <path class="fil14" d="M92 83l0 12 -6 0 0 -12 6 0 0 0zm19 0l-4 0 1 12 4 -4c0,-2 0,-5 -1,-8l0 0zm-6 0l-12 0 0 5 13 0 -1 -5 0 0zm-12 6l13 0 0 9 -13 0 0 -9z"/>
  <polygon class="fil15" points="92,82 91,80 89,81 91,87 86,87 86,92 92,92 "/>
  <path class="fil15" d="M105 83l-2 3 0 0 2 -1 0 -2 0 0zm-11 5l-1 -2 0 2 1 0z"/>
  <path class="fil15" d="M106 91l-2 2 -4 0 0 -3c0,0 -1,0 -3,0 -2,0 -3,0 -3,0l0 -1 -1 0 0 9 13 0 0 -7z"/>
  <path class="fil15" d="M112 87l-5 -3 0 3 0 1 0 0 1 7 4 -4c0,-1 0,-2 0,-4l0 0zm-5 -4l1 -2 0 0 -2 1 1 1z"/>
  <polygon class="fil16" points="85,68 108,68 108,66 85,66 "/>
  <path class="fil17" d="M66 107c8,0 14,6 14,14 0,8 -6,15 -14,15 -8,0 -15,-7 -15,-15 0,-8 7,-14 15,-14l0 0zm-10 -1l0 3 3 -2 -2 -2 -1 1 0 0zm-7 7l2 2 2 -3 -3 -1 -1 2 0 0zm-2 10l0 -2 3 -1 0 3 -3 0 0 0zm3 9l3 -1 -2 -3 -2 2 1 2 0 0zm7 6l2 -2 -3 -2 0 3 1 1 0 0zm10 2l-2 0 -1 -3 4 0 -1 3 0 0zm9 -3l-1 -3 -3 2 2 2 2 -1 0 0zm7 -7l-2 -2 -2 3 3 1 1 -2 0 0zm2 -10l0 2 -3 1 0 -3 3 0 0 0zm-11 -15l-2 2 3 2 1 -3 -2 -1 0 0zm8 6l-3 1 2 3 2 -2 -1 -2 0 0zm-17 -8l2 0 1 3 -4 0 1 -3z"/>
  <path class="fil18" d="M66 138c9,0 16,-7 16,-17 0,-9 -7,-16 -16,-16 -9,0 -17,7 -17,16 0,10 8,17 17,17z"/>
  <path class="fil19" d="M66 135c7,0 13,-6 13,-14 0,-7 -6,-13 -13,-13 -8,0 -13,6 -13,13 0,8 5,14 13,14z"/>
  <path class="fil20" d="M66 134c7,0 12,-6 12,-13 0,-6 -5,-12 -12,-12 -7,0 -13,6 -13,12 0,7 6,13 13,13z"/>
  <path class="fil21" d="M66 120c5,0 10,3 11,6 -1,5 -6,8 -11,8 -6,0 -10,-3 -12,-8 2,-3 6,-6 12,-6z"/>
  <path class="fil15" d="M66 131c5,0 9,-5 9,-10 0,-5 -4,-9 -9,-9 -5,0 -9,4 -9,9 0,5 4,10 9,10z"/>
  <path class="fil22" d="M66 129c4,0 7,-4 7,-8 0,-4 -3,-7 -7,-7 -4,0 -8,3 -8,7 0,4 4,8 8,8z"/>
  <path class="fil23" d="M66 105c4,0 9,2 12,5 3,3 4,7 4,11 0,5 -1,9 -4,12l0 0c-3,3 -8,5 -12,5 -5,0 -9,-2 -12,-5 -3,-3 -5,-7 -5,-12 0,-4 2,-8 5,-11l0 0 0 0 0 0c0,0 0,0 0,0l0 0 0 0 0 0 0 0c3,-3 7,-5 12,-5l0 0zm12 28l0 0zm-1 -23c-3,-3 -7,-5 -11,-5 -5,0 -9,2 -12,5 -3,3 -4,7 -4,11 0,5 1,9 4,12 3,3 7,5 12,5 4,0 8,-2 11,-5l0 0c3,-3 5,-7 5,-12 0,-4 -2,-8 -5,-11l0 0z"/>
  <path class="fil24" d="M66 126c2,0 4,-2 4,-5 0,-2 -2,-4 -4,-4 -3,0 -5,2 -5,4 0,3 2,5 5,5z"/>
  <path class="fil25" d="M66 119c0,0 0,0 0,-1 0,0 0,0 0,0 0,0 -1,0 -1,0 0,1 1,1 1,1z"/>
  <path class="fil25" d="M68 119c0,0 0,0 0,1 0,0 0,0 0,0 0,-1 0,-1 0,-1 0,0 0,0 0,0z"/>
  <path class="fil25" d="M69 121c0,1 0,1 0,1 0,0 -1,0 -1,-1 0,0 1,0 1,0 0,0 0,0 0,0z"/>
  <path class="fil25" d="M68 124c0,0 0,0 0,0 0,0 0,0 0,-1 0,0 0,0 0,0 0,1 0,1 0,1z"/>
  <path class="fil25" d="M66 125c0,0 -1,0 -1,0 0,-1 1,-1 1,-1 0,0 0,0 0,1 0,0 0,0 0,0z"/>
  <path class="fil25" d="M63 124c0,0 0,0 0,-1 0,0 1,0 1,0 0,1 0,1 0,1 0,0 -1,0 -1,0z"/>
  <path class="fil25" d="M62 121c0,0 0,0 1,0 0,0 0,0 0,0 0,1 0,1 0,1 -1,0 -1,0 -1,-1z"/>
  <path class="fil25" d="M63 119c0,0 1,0 1,0 0,0 0,0 0,1 0,0 -1,0 -1,0 0,-1 0,-1 0,-1z"/>
  <path class="fil26" d="M27 111c0,0 0,0 -1,0l0 0c1,0 1,0 1,0l17 0c0,-2 2,-15 10,-16 7,-2 26,-2 29,-3l0 1c-3,0 -22,1 -29,2 -8,2 -10,15 -10,16 0,0 0,0 0,0l-17 0z"/>
  <path class="fil27" d="M26 110l17 0c1,-2 3,-14 10,-16 8,-1 30,-2 30,-2l0 0 0 1c-1,0 -22,0 -30,2 -7,2 -9,15 -9,15 0,1 0,1 0,1l-18 0 0 -1z"/>
  <polygon class="fil28" points="33,114 42,114 42,98 33,98 "/>
  <path class="fil26" d="M41 122l0 0 0 0c0,0 7,-19 14,-23 2,-2 5,-2 9,-3 6,-1 12,-1 12,-1l0 0c1,0 1,0 1,0 0,0 0,0 0,0l0 0 0 0 12 11 -1 0 -11 -10 0 0 0 -1c0,0 0,0 0,0 0,0 0,0 -1,0l0 0c0,0 -6,0 -12,2 -3,0 -6,1 -9,2 -6,4 -13,23 -13,23l0 0 -1 0z"/>
  <path class="fil29" d="M87 107l-11 -10c-1,0 -7,0 -12,1 -3,1 -6,1 -8,3 -6,3 -13,21 -13,22l0 0 0 -1 0 0 0 0c0,0 7,-18 13,-22 2,-1 5,-2 8,-3 5,-1 11,-1 12,-1l0 0 0 0 12 11 -1 0z"/>
  <path class="fil30" d="M33 99c0,0 1,-1 1,-1 0,0 0,1 0,1l0 15c0,0 0,0 0,0 0,0 -1,0 -1,0l0 -15z"/>
  <path class="fil30" d="M34 99c0,0 1,-1 1,-1 0,0 0,1 0,1l0 15c0,0 0,0 0,0 0,0 -1,0 -1,0l0 -15z"/>
  <path class="fil30" d="M35 99c0,0 0,-1 1,-1 0,0 0,1 0,1l0 15c0,0 0,0 0,0 -1,0 -1,0 -1,0l0 -15z"/>
  <path class="fil30" d="M36 99c0,0 0,-1 1,-1 0,0 0,1 0,1l0 15c0,0 0,0 0,0 -1,0 -1,0 -1,0l0 -15z"/>
  <path class="fil30" d="M37 99c0,0 0,-1 1,-1 0,0 0,1 0,1l0 15c0,0 0,0 0,0 -1,0 -1,0 -1,0l0 -15z"/>
  <path class="fil30" d="M38 99c0,0 0,-1 1,-1 0,0 0,1 0,1l0 15c0,0 0,0 0,0 -1,0 -1,0 -1,0l0 -15z"/>
  <path class="fil30" d="M39 99c0,0 0,-1 1,-1 0,0 0,1 0,1l0 15c0,0 0,0 0,0 -1,0 -1,0 -1,0l0 -15z"/>
  <path class="fil30" d="M40 99c0,0 0,-1 1,-1 0,0 0,1 0,1l0 15c0,0 0,0 0,0 -1,0 -1,0 -1,0l0 -15z"/>
  <path class="fil30" d="M41 99c0,0 0,-1 1,-1 0,0 0,1 0,1l0 15c0,0 0,0 0,0 -1,0 -1,0 -1,0l0 -15z"/>
  <path class="fil26" d="M164 121c0,0 0,1 0,1 0,0 0,-1 0,-1l0 -3 -10 0c0,0 0,0 0,0l-13 -4c0,0 0,0 0,0l0 -11c-1,-1 -5,-4 -5,-5 0,0 -6,1 -6,1 0,0 0,0 0,0l0 0 -6 -6 -7 0 0 10c0,1 0,1 0,1l-7 0 0 7c0,0 -1,0 -1,0l-3 0 0 10c0,0 0,1 -1,1 0,0 0,-1 0,-1l0 -10c0,0 0,0 0,0l4 0 0 -8c0,0 0,0 0,0l7 0 0 -10c0,-1 0,-1 1,-1l7 0 0 0c0,0 0,0 0,0l6 6c1,0 8,0 7,1 -1,0 4,3 4,4 0,0 0,0 0,0l0 11 13 3 10 0c0,0 0,0 0,0l0 4z"/>
  <path class="fil31" d="M140 107c8,0 14,6 14,14 0,8 -6,15 -14,15 -8,0 -15,-7 -15,-15 0,-8 7,-14 15,-14l0 0zm-11 -1l1 3 3 -2 -2 -2 -2 1 0 0zm-6 7l2 2 2 -3 -3 -1 -1 2 0 0zm-2 10l0 -2 3 -1 0 3 -3 0 0 0zm3 9l3 -1 -2 -3 -2 2 1 2 0 0zm7 6l2 -2 -3 -2 -1 3 2 1 0 0zm10 2l-2 0 -1 -3 4 0 -1 3 0 0zm9 -3l-1 -3 -3 2 2 2 2 -1 0 0zm6 -7l-2 -2 -1 3 2 1 1 -2 0 0zm3 -10l0 2 -3 1 0 -3 3 0 0 0zm-11 -15l-2 2 3 2 1 -3 -2 -1 0 0zm7 6l-2 1 1 3 2 -2 -1 -2 0 0zm-16 -8l2 0 1 3 -4 0 1 -3z"/>
  <path class="fil32" d="M140 138c9,0 16,-7 16,-17 0,-9 -7,-16 -16,-16 -9,0 -17,7 -17,16 0,10 8,17 17,17z"/>
  <path class="fil33" d="M140 135c7,0 13,-6 13,-14 0,-7 -6,-13 -13,-13 -8,0 -14,6 -14,13 0,8 6,14 14,14z"/>
  <path class="fil20" d="M140 134c7,0 12,-6 12,-13 0,-6 -5,-12 -12,-12 -7,0 -13,6 -13,12 0,7 6,13 13,13z"/>
  <path class="fil34" d="M140 120c5,0 10,3 11,6 -1,5 -6,8 -11,8 -6,0 -10,-3 -12,-8 2,-3 6,-6 12,-6z"/>
  <path class="fil15" d="M140 131c5,0 9,-5 9,-10 0,-5 -4,-9 -9,-9 -5,0 -9,4 -9,9 0,5 4,10 9,10z"/>
  <path class="fil35" d="M140 129c4,0 7,-4 7,-8 0,-4 -3,-7 -7,-7 -4,0 -8,3 -8,7 0,4 4,8 8,8z"/>
  <path class="fil36" d="M140 105c4,0 9,2 12,5 3,3 4,7 4,11 0,5 -1,9 -4,12l0 0c-3,3 -8,5 -12,5 -5,0 -9,-2 -12,-5 -3,-3 -5,-7 -5,-12 0,-4 2,-8 5,-11l0 0 0 0 0 0c0,0 0,0 0,0 3,-3 7,-5 12,-5l0 0zm12 28l0 0zm-1 -23c-3,-3 -7,-5 -11,-5 -5,0 -9,2 -12,5 -3,3 -4,7 -4,11 0,5 1,9 4,12 3,3 7,5 12,5 4,0 8,-2 11,-5l0 0c3,-3 5,-7 5,-12 0,-4 -2,-8 -5,-11l0 0z"/>
  <path class="fil37" d="M140 126c2,0 4,-2 4,-5 0,-2 -2,-4 -4,-4 -3,0 -5,2 -5,4 0,3 2,5 5,5z"/>
  <path class="fil25" d="M140 119c0,0 0,0 0,-1 0,0 0,0 0,0 -1,0 -1,0 -1,0 0,1 0,1 1,1z"/>
  <path class="fil25" d="M142 119c0,0 0,0 0,1 0,0 0,0 0,0 -1,-1 -1,-1 0,-1 0,0 0,0 0,0z"/>
  <path class="fil25" d="M143 121c0,1 0,1 0,1 0,0 -1,0 -1,-1 0,0 1,0 1,0 0,0 0,0 0,0z"/>
  <path class="fil25" d="M142 124c0,0 0,0 0,0 -1,0 -1,0 0,-1 0,0 0,0 0,0 0,1 0,1 0,1z"/>
  <path class="fil25" d="M140 125c0,0 -1,0 -1,0 0,-1 1,-1 1,-1 0,0 0,0 0,1 0,0 0,0 0,0z"/>
  <path class="fil25" d="M137 124c0,0 0,0 0,-1 0,0 1,0 1,0 0,1 0,1 0,1 0,0 -1,0 -1,0z"/>
  <path class="fil25" d="M136 121c0,0 0,0 1,0 0,0 0,0 0,0 0,1 0,1 0,1 -1,0 -1,0 -1,-1z"/>
  <path class="fil25" d="M137 119c0,0 1,0 1,0 0,0 0,0 0,1 0,0 -1,0 -1,0 0,-1 0,-1 0,-1z"/>
  <polygon class="fil38" points="162,129 162,125 168,123 172,122 172,130 "/>
  <path class="fil2" d="M175 121c1,0 1,0 1,1 0,0 0,1 0,1l-28 7c0,0 -1,-1 -1,-1 0,0 1,-1 1,-1l27 -7z"/>
  <path class="fil2" d="M172 117c0,0 1,0 1,0 0,1 0,1 -1,1l-27 11c0,0 0,-1 -1,-1 0,0 0,-1 1,-1l27 -10z"/>
  <path class="fil39" d="M147 106l1 -1 1 0 -2 1c-2,0 -3,-1 -5,-1l0 0c1,0 3,1 5,1l0 0zm7 6l1 -1 1 0 -2 1 0 0 0 0zm3 8l2 0 0 1 -2 -1 0 0 0 0zm-9 18l0 0 -1 -1 0 0 1 1 0 0zm-9 2l0 0 -1 -2 0 0 1 2 0 0zm-8 -2l0 0 -2 -1 1 -2c-1,0 -1,-1 -2,-2 -1,0 -1,-1 -2,-2l0 0c1,1 2,2 2,2 1,1 2,2 2,2l0 2 1 1 0 0zm-7 -6l0 0 -1 -2 2 -2c-1,-1 -2,-3 -2,-5l0 0c1,2 1,4 2,6l-2 1 1 2 0 0zm-3 -9l0 0 0 -2 2 -1c0,-2 1,-4 1,-5l-1 -2 1 -2 2 1c1,-2 2,-3 4,-4l-1 -2 2 -1 0 0 -1 1 0 2c-1,1 -2,2 -4,4l-2 -1 -1 2 2 2c-1,1 -1,3 -2,5l-2 1 0 2zm12 -17c2,-1 3,-1 5,-1l1 -2 2 0 0 0 -2 0 -1 2c-1,0 -3,1 -5,1l0 0z"/>
  <polygon class="fil40" points="114,121 115,127 119,129 124,130 176,134 172,129 126,124 119,121 "/>
  <polygon class="fil26" points="172,130 126,125 126,125 126,125 119,121 114,121 114,121 120,121 120,121 126,124 172,129 "/>
  <polygon class="fil41" points="115,123 115,127 119,129 124,129 176,133 176,134 124,130 124,130 119,129 119,129 119,129 115,127 115,127 115,127 114,123 "/>
  <path class="fil28" d="M169 116c0,1 4,7 4,7l0 10 10 4 1 -2 -5 -8 -1 -9 2 -6 -11 4z"/>
  <path class="fil2" d="M131 85c0,0 1,0 1,0 0,0 0,0 0,0l0 14c0,1 0,1 0,1 0,0 -1,0 -1,-1l0 -14z"/>
  <path class="fil2" d="M29 119l9 0c0,0 0,1 0,1l0 8c0,0 0,0 0,0l-9 0c0,0 -1,0 -1,0l0 -8c0,0 1,-1 1,-1l0 0zm8 1l-8 0 0 7 8 0 0 -7z"/>
  <polygon class="fil42" points="89,113 101,113 101,112 89,112 "/>
  <polygon class="fil43" points="89,112 101,112 101,112 89,112 "/>
  <polygon class="fil44" points="89,114 101,114 101,113 89,113 "/>
  <polygon class="fil45" points="89,109 101,109 101,107 89,107 "/>
  <polygon class="fil46" points="89,107 101,107 101,107 89,107 "/>
  <polygon class="fil47" points="89,110 101,110 101,109 89,109 "/>
  <polygon class="fil48" points="89,104 101,104 101,102 89,102 "/>
  <polygon class="fil49" points="89,103 101,103 101,102 89,102 "/>
  <polygon class="fil50" points="89,105 101,105 101,104 89,104 "/>
  <path class="fil2" d="M28 117c0,0 0,0 0,0 0,0 0,0 0,0 0,0 -3,1 -3,-1l0 -17c0,0 0,0 0,0 0,0 1,-1 2,-1 1,0 1,0 1,0 0,0 0,0 -1,0 -1,0 -1,1 -1,1l0 17c0,1 2,1 2,1z"/>
  <polygon class="fil28" points="24,115 26,115 26,101 24,101 "/>
  <path class="fil2" d="M91 115l9 0c1,0 1,1 1,1l0 8c0,0 0,0 -1,0l-9 0c0,0 0,0 0,0l0 -8c0,0 0,-1 0,-1l0 0zm9 1l-8 0 0 7 8 0 0 -7z"/>
  <path class="fil30" d="M102 109c0,0 0,0 0,0 -1,0 -1,0 -1,0l0 -22c0,-3 5,-2 5,-2 1,0 1,0 1,0 0,1 -1,1 -1,1 0,0 -4,-1 -4,1l0 22z"/>
  <path class="fil30" d="M89 109c0,0 0,0 0,0 0,0 0,0 0,0l0 -22c0,-3 -5,-2 -5,-2 0,0 0,0 0,0 0,1 0,1 0,1 0,0 5,-1 5,1l0 22z"/>
 </g>
</svg>
