<?xml version="1.0" encoding="UTF-8"?>
<!DOCTYPE svg PUBLIC "-//W3C//DTD SVG 1.1//EN" "http://www.w3.org/Graphics/SVG/1.1/DTD/svg11.dtd">
<!-- Creator: CorelDRAW X8 -->
<svg xmlns="http://www.w3.org/2000/svg" xml:space="preserve" width="200px" height="150px" version="1.1" style="shape-rendering:geometricPrecision; text-rendering:geometricPrecision; image-rendering:optimizeQuality; fill-rule:evenodd; clip-rule:evenodd"
viewBox="0 0 200 150"
 xmlns:xlink="http://www.w3.org/1999/xlink">
 <defs>
  <style type="text/css">
   <![CDATA[
    .fil53 {fill:#2B2A29}
    .fil2 {fill:#BF984B}
    .fil7 {fill:#9A6433}
    .fil1 {fill:#676E70}
    .fil23 {fill:#404342}
    .fil80 {fill:#F7EDCB;fill-rule:nonzero}
    .fil79 {fill:#BF984B;fill-rule:nonzero}
    .fil0 {fill:#676E70;fill-rule:nonzero}
    .fil52 {fill:url(#id0)}
    .fil41 {fill:url(#id1)}
    .fil5 {fill:url(#id2)}
    .fil11 {fill:url(#id3)}
    .fil37 {fill:url(#id4)}
    .fil69 {fill:url(#id5)}
    .fil21 {fill:url(#id6)}
    .fil58 {fill:url(#id7)}
    .fil82 {fill:url(#id8)}
    .fil6 {fill:url(#id9)}
    .fil84 {fill:url(#id10)}
    .fil75 {fill:url(#id11)}
    .fil12 {fill:url(#id12)}
    .fil39 {fill:url(#id13)}
    .fil22 {fill:url(#id14)}
    .fil20 {fill:url(#id15)}
    .fil49 {fill:url(#id16)}
    .fil50 {fill:url(#id17)}
    .fil46 {fill:url(#id18)}
    .fil55 {fill:url(#id19)}
    .fil27 {fill:url(#id20)}
    .fil33 {fill:url(#id21)}
    .fil71 {fill:url(#id22)}
    .fil85 {fill:url(#id23)}
    .fil63 {fill:url(#id24)}
    .fil77 {fill:url(#id25)}
    .fil56 {fill:url(#id26)}
    .fil34 {fill:url(#id27)}
    .fil10 {fill:url(#id28)}
    .fil18 {fill:url(#id29)}
    .fil76 {fill:url(#id30)}
    .fil62 {fill:url(#id31)}
    .fil17 {fill:url(#id32)}
    .fil59 {fill:url(#id33)}
    .fil31 {fill:url(#id34)}
    .fil26 {fill:url(#id35)}
    .fil64 {fill:url(#id36)}
    .fil24 {fill:url(#id37)}
    .fil83 {fill:url(#id38)}
    .fil73 {fill:url(#id39)}
    .fil68 {fill:url(#id40)}
    .fil72 {fill:url(#id41)}
    .fil29 {fill:url(#id42)}
    .fil40 {fill:url(#id43)}
    .fil74 {fill:url(#id44)}
    .fil65 {fill:url(#id45)}
    .fil8 {fill:url(#id46)}
    .fil47 {fill:url(#id47)}
    .fil66 {fill:url(#id48)}
    .fil43 {fill:url(#id49)}
    .fil13 {fill:url(#id50)}
    .fil36 {fill:url(#id51)}
    .fil9 {fill:url(#id52)}
    .fil4 {fill:url(#id53)}
    .fil14 {fill:url(#id54)}
    .fil25 {fill:url(#id55)}
    .fil19 {fill:url(#id56)}
    .fil48 {fill:url(#id57)}
    .fil81 {fill:url(#id58)}
    .fil42 {fill:url(#id59)}
    .fil15 {fill:url(#id60)}
    .fil16 {fill:url(#id61)}
    .fil38 {fill:url(#id62)}
    .fil60 {fill:url(#id63)}
    .fil30 {fill:url(#id64)}
    .fil61 {fill:url(#id65)}
    .fil78 {fill:url(#id66)}
    .fil44 {fill:url(#id67)}
    .fil67 {fill:url(#id68)}
    .fil54 {fill:url(#id69)}
    .fil45 {fill:url(#id70)}
    .fil70 {fill:url(#id71)}
    .fil3 {fill:url(#id72)}
    .fil32 {fill:url(#id73)}
    .fil35 {fill:url(#id74)}
    .fil51 {fill:url(#id75)}
    .fil28 {fill:url(#id76)}
    .fil57 {fill:url(#id77)}
   ]]>
  </style>
  <linearGradient id="id0" gradientUnits="userSpaceOnUse" x1="86.2085" y1="102.66" x2="86.2085" y2="94.1459">
   <stop offset="0" style="stop-opacity:1; stop-color:#CCC7C7"/>
   <stop offset="1" style="stop-opacity:1; stop-color:#7F7F7C"/>
  </linearGradient>
  <linearGradient id="id1" gradientUnits="userSpaceOnUse" x1="134.364" y1="138.242" x2="134.364" y2="117.153">
   <stop offset="0" style="stop-opacity:1; stop-color:#373938"/>
   <stop offset="1" style="stop-opacity:1; stop-color:#7A7B7B"/>
  </linearGradient>
  <linearGradient id="id2" gradientUnits="userSpaceOnUse" x1="75.1125" y1="78.6577" x2="76.7381" y2="82.4856">
   <stop offset="0" style="stop-opacity:1; stop-color:#FAD60B"/>
   <stop offset="1" style="stop-opacity:1; stop-color:#FEFEFE"/>
  </linearGradient>
  <linearGradient id="id3" gradientUnits="userSpaceOnUse" x1="137.487" y1="116.956" x2="137.487" y2="139.775">
   <stop offset="0" style="stop-opacity:1; stop-color:#373938"/>
   <stop offset="1" style="stop-opacity:1; stop-color:#BAB9B9"/>
  </linearGradient>
  <linearGradient id="id4" gradientUnits="userSpaceOnUse" x1="130.854" y1="121.627" x2="147.092" y2="107.556">
   <stop offset="0" style="stop-opacity:1; stop-color:#373938"/>
   <stop offset="1" style="stop-opacity:1; stop-color:#8A8B8B"/>
  </linearGradient>
  <linearGradient id="id5" gradientUnits="userSpaceOnUse" x1="1.93852" y1="115.895" x2="20.4325" y2="107.448">
   <stop offset="0" style="stop-opacity:1; stop-color:#373938"/>
   <stop offset="1" style="stop-opacity:1; stop-color:#90908F"/>
  </linearGradient>
  <linearGradient id="id6" gradientUnits="userSpaceOnUse" x1="101.619" y1="132.637" x2="107.361" y2="113.078">
   <stop offset="0" style="stop-opacity:1; stop-color:#373938"/>
   <stop offset="1" style="stop-opacity:1; stop-color:#7F7F7F"/>
  </linearGradient>
  <linearGradient id="id7" gradientUnits="userSpaceOnUse" x1="80.9013" y1="99.766" x2="80.1813" y2="79.6782">
   <stop offset="0" style="stop-opacity:1; stop-color:#5F6262"/>
   <stop offset="1" style="stop-opacity:1; stop-color:#212220"/>
  </linearGradient>
  <linearGradient id="id8" gradientUnits="userSpaceOnUse" xlink:href="#id7" x1="62.315" y1="110.005" x2="60.0356" y2="110.586">
  </linearGradient>
  <linearGradient id="id9" gradientUnits="userSpaceOnUse" x1="173.945" y1="118.109" x2="173.945" y2="121.791">
   <stop offset="0" style="stop-opacity:1; stop-color:#D19032"/>
   <stop offset="1" style="stop-opacity:1; stop-color:#F4C617"/>
  </linearGradient>
  <linearGradient id="id10" gradientUnits="userSpaceOnUse" x1="58.9346" y1="123.249" x2="56.7844" y2="121.799">
   <stop offset="0" style="stop-opacity:1; stop-color:#FAD60B"/>
   <stop offset="1" style="stop-opacity:1; stop-color:#F0B921"/>
  </linearGradient>
  <linearGradient id="id11" gradientUnits="userSpaceOnUse" xlink:href="#id1" x1="6.85645" y1="134.426" x2="6.85645" y2="121.974">
  </linearGradient>
  <linearGradient id="id12" gradientUnits="userSpaceOnUse" x1="135.079" y1="112.805" x2="141.205" y2="133.67">
   <stop offset="0" style="stop-opacity:1; stop-color:#373938"/>
   <stop offset="1" style="stop-opacity:1; stop-color:#B4B3B4"/>
  </linearGradient>
  <linearGradient id="id13" gradientUnits="userSpaceOnUse" xlink:href="#id6" x1="130.902" y1="132.634" x2="136.645" y2="113.076">
  </linearGradient>
  <linearGradient id="id14" gradientUnits="userSpaceOnUse" xlink:href="#id1" x1="105.079" y1="138.242" x2="105.079" y2="117.153">
  </linearGradient>
  <linearGradient id="id15" gradientUnits="userSpaceOnUse" x1="100.616" y1="127.014" x2="111.915" y2="109.433">
   <stop offset="0" style="stop-opacity:1; stop-color:#373938"/>
   <stop offset="1" style="stop-opacity:1; stop-color:#858483"/>
  </linearGradient>
  <linearGradient id="id16" gradientUnits="userSpaceOnUse" xlink:href="#id7" x1="81.9981" y1="89.8463" x2="93.6723" y2="88.6195">
  </linearGradient>
  <linearGradient id="id17" gradientUnits="userSpaceOnUse" x1="81.0566" y1="90.1298" x2="82.2816" y2="97.8668">
   <stop offset="0" style="stop-opacity:1; stop-color:#5F6262"/>
   <stop offset="1" style="stop-opacity:1; stop-color:#FEFEFE"/>
  </linearGradient>
  <linearGradient id="id18" gradientUnits="userSpaceOnUse" xlink:href="#id9" x1="169.234" y1="112.646" x2="181.818" y2="112.866">
  </linearGradient>
  <linearGradient id="id19" gradientUnits="userSpaceOnUse" xlink:href="#id10" x1="68.902" y1="117.717" x2="68.902" y2="120.164">
  </linearGradient>
  <linearGradient id="id20" gradientUnits="userSpaceOnUse" xlink:href="#id2" x1="113.643" y1="133.862" x2="113.343" y2="125.245">
  </linearGradient>
  <linearGradient id="id21" gradientUnits="userSpaceOnUse" x1="148.435" y1="107.359" x2="167.335" y2="115.989">
   <stop offset="0" style="stop-opacity:1; stop-color:#373938"/>
   <stop offset="1" style="stop-opacity:1; stop-color:#A3A1A0"/>
  </linearGradient>
  <linearGradient id="id22" gradientUnits="userSpaceOnUse" xlink:href="#id15" x1="-1.9423" y1="127.011" x2="9.35585" y2="109.43">
  </linearGradient>
  <linearGradient id="id23" gradientUnits="userSpaceOnUse" xlink:href="#id7" x1="142.225" y1="63.0887" x2="120.197" y2="110.399">
  </linearGradient>
  <linearGradient id="id24" gradientUnits="userSpaceOnUse" xlink:href="#id12" x1="32.5191" y1="112.805" x2="38.6453" y2="133.67">
  </linearGradient>
  <linearGradient id="id25" gradientUnits="userSpaceOnUse" xlink:href="#id2" x1="11.0846" y1="133.862" x2="10.7838" y2="125.245">
  </linearGradient>
  <linearGradient id="id26" gradientUnits="userSpaceOnUse" xlink:href="#id9" x1="56.7686" y1="138.108" x2="54.4298" y2="126.711">
  </linearGradient>
  <linearGradient id="id27" gradientUnits="userSpaceOnUse" x1="142.09" y1="109.449" x2="163.675" y2="112.553">
   <stop offset="0" style="stop-opacity:1; stop-color:#373938"/>
   <stop offset="1" style="stop-opacity:1; stop-color:#9B9A9A"/>
  </linearGradient>
  <linearGradient id="id28" gradientUnits="userSpaceOnUse" xlink:href="#id3" x1="102.853" y1="141.633" x2="103.751" y2="115.938">
  </linearGradient>
  <linearGradient id="id29" gradientUnits="userSpaceOnUse" xlink:href="#id5" x1="104.498" y1="115.895" x2="122.992" y2="107.448">
  </linearGradient>
  <linearGradient id="id30" gradientUnits="userSpaceOnUse" xlink:href="#id10" x1="28.4448" y1="122.463" x2="28.4448" y2="132.541">
  </linearGradient>
  <linearGradient id="id31" gradientUnits="userSpaceOnUse" xlink:href="#id3" x1="34.9278" y1="116.956" x2="34.9278" y2="139.775">
  </linearGradient>
  <linearGradient id="id32" gradientUnits="userSpaceOnUse" x1="108.013" y1="112.537" x2="129.446" y2="109.455">
   <stop offset="0" style="stop-opacity:1; stop-color:#373938"/>
   <stop offset="1" style="stop-opacity:1; stop-color:#979695"/>
  </linearGradient>
  <linearGradient id="id33" gradientUnits="userSpaceOnUse" xlink:href="#id7" x1="80.9066" y1="99.4289" x2="80.1892" y2="79.2515">
  </linearGradient>
  <linearGradient id="id34" gradientUnits="userSpaceOnUse" x1="159.643" y1="109.17" x2="171.522" y2="127.656">
   <stop offset="0" style="stop-opacity:1; stop-color:#373938"/>
   <stop offset="1" style="stop-opacity:1; stop-color:#AFADAE"/>
  </linearGradient>
  <linearGradient id="id35" gradientUnits="userSpaceOnUse" xlink:href="#id10" x1="131.004" y1="122.463" x2="131.004" y2="132.541">
  </linearGradient>
  <linearGradient id="id36" gradientUnits="userSpaceOnUse" xlink:href="#id34" x1="27.7973" y1="109.173" x2="39.6756" y2="127.656">
  </linearGradient>
  <linearGradient id="id37" gradientUnits="userSpaceOnUse" xlink:href="#id3" x1="134.865" y1="118.828" x2="134.865" y2="136.722">
  </linearGradient>
  <linearGradient id="id38" gradientUnits="userSpaceOnUse" xlink:href="#id7" x1="62.4753" y1="111.102" x2="60.403" y2="111.618">
  </linearGradient>
  <linearGradient id="id39" gradientUnits="userSpaceOnUse" xlink:href="#id1" x1="2.51792" y1="138.242" x2="2.51792" y2="117.153">
  </linearGradient>
  <linearGradient id="id40" gradientUnits="userSpaceOnUse" xlink:href="#id32" x1="5.45235" y1="112.537" x2="26.8823" y2="109.455">
  </linearGradient>
  <linearGradient id="id41" gradientUnits="userSpaceOnUse" xlink:href="#id6" x1="-0.942615" y1="132.634" x2="4.80001" y2="113.075">
  </linearGradient>
  <linearGradient id="id42" gradientUnits="userSpaceOnUse" xlink:href="#id3" x1="166.773" y1="116.956" x2="166.773" y2="139.775">
  </linearGradient>
  <linearGradient id="id43" gradientUnits="userSpaceOnUse" xlink:href="#id1" x1="134.364" y1="138.242" x2="134.364" y2="117.153">
  </linearGradient>
  <linearGradient id="id44" gradientUnits="userSpaceOnUse" xlink:href="#id3" x1="32.3063" y1="118.828" x2="32.3063" y2="136.722">
  </linearGradient>
  <linearGradient id="id45" gradientUnits="userSpaceOnUse" x1="21.8" y1="107.383" x2="38.6336" y2="121.97">
   <stop offset="0" style="stop-opacity:1; stop-color:#373938"/>
   <stop offset="1" style="stop-opacity:1; stop-color:#A7A7A8"/>
  </linearGradient>
  <linearGradient id="id46" gradientUnits="userSpaceOnUse" xlink:href="#id2" x1="174.679" y1="87.7116" x2="175.675" y2="106.432">
  </linearGradient>
  <linearGradient id="id47" gradientUnits="userSpaceOnUse" xlink:href="#id10" x1="189.359" y1="112.243" x2="185.66" y2="133.214">
  </linearGradient>
  <linearGradient id="id48" gradientUnits="userSpaceOnUse" xlink:href="#id21" x1="16.5944" y1="107.359" x2="35.4943" y2="115.989">
  </linearGradient>
  <linearGradient id="id49" gradientUnits="userSpaceOnUse" xlink:href="#id1" x1="138.701" y1="134.426" x2="138.701" y2="121.972">
  </linearGradient>
  <linearGradient id="id50" gradientUnits="userSpaceOnUse" xlink:href="#id34" x1="130.357" y1="109.173" x2="142.236" y2="127.656">
  </linearGradient>
  <linearGradient id="id51" gradientUnits="userSpaceOnUse" xlink:href="#id5" x1="133.783" y1="115.895" x2="152.277" y2="107.449">
  </linearGradient>
  <linearGradient id="id52" gradientUnits="userSpaceOnUse" xlink:href="#id10" x1="175.659" y1="96.8388" x2="175.659" y2="119.171">
  </linearGradient>
  <linearGradient id="id53" gradientUnits="userSpaceOnUse" xlink:href="#id10" x1="129.477" y1="94.7533" x2="129.477" y2="127.99">
  </linearGradient>
  <linearGradient id="id54" gradientUnits="userSpaceOnUse" xlink:href="#id45" x1="124.36" y1="107.383" x2="141.192" y2="121.969">
  </linearGradient>
  <linearGradient id="id55" gradientUnits="userSpaceOnUse" xlink:href="#id1" x1="109.418" y1="134.426" x2="109.418" y2="121.974">
  </linearGradient>
  <linearGradient id="id56" gradientUnits="userSpaceOnUse" xlink:href="#id4" x1="101.568" y1="121.63" x2="117.807" y2="107.558">
  </linearGradient>
  <linearGradient id="id57" gradientUnits="userSpaceOnUse" xlink:href="#id10" x1="200.898" y1="117.464" x2="200.898" y2="139.503">
  </linearGradient>
  <linearGradient id="id58" gradientUnits="userSpaceOnUse" x1="53.8799" y1="80.1601" x2="55.3274" y2="79.8766">
   <stop offset="0" style="stop-opacity:1; stop-color:#808384"/>
   <stop offset="1" style="stop-opacity:1; stop-color:#FEFEFE"/>
  </linearGradient>
  <linearGradient id="id59" gradientUnits="userSpaceOnUse" xlink:href="#id3" x1="164.151" y1="118.828" x2="164.151" y2="136.725">
  </linearGradient>
  <linearGradient id="id60" gradientUnits="userSpaceOnUse" xlink:href="#id21" x1="119.154" y1="107.361" x2="138.05" y2="115.99">
  </linearGradient>
  <linearGradient id="id61" gradientUnits="userSpaceOnUse" xlink:href="#id27" x1="112.806" y1="109.449" x2="134.389" y2="112.553">
  </linearGradient>
  <linearGradient id="id62" gradientUnits="userSpaceOnUse" xlink:href="#id15" x1="129.901" y1="127.011" x2="141.199" y2="109.43">
  </linearGradient>
  <linearGradient id="id63" gradientUnits="userSpaceOnUse" xlink:href="#id7" x1="80.8979" y1="99.74" x2="80.1782" y2="79.1245">
  </linearGradient>
  <linearGradient id="id64" gradientUnits="userSpaceOnUse" xlink:href="#id12" x1="164.365" y1="112.805" x2="170.491" y2="133.67">
  </linearGradient>
  <linearGradient id="id65" gradientUnits="userSpaceOnUse" xlink:href="#id3" x1="0.294048" y1="141.633" x2="1.19093" y2="115.939">
  </linearGradient>
  <linearGradient id="id66" gradientUnits="userSpaceOnUse" x1="66.3644" y1="86.2297" x2="87.0101" y2="112.761">
   <stop offset="0" style="stop-opacity:1; stop-color:#FAD60B"/>
   <stop offset="0.529412" style="stop-opacity:1; stop-color:#F4C717"/>
   <stop offset="0.588235" style="stop-opacity:1; stop-color:#D19032"/>
   <stop offset="0.74902" style="stop-opacity:1; stop-color:#F3C01E"/>
   <stop offset="1" style="stop-opacity:1; stop-color:#F0B921"/>
  </linearGradient>
  <linearGradient id="id67" gradientUnits="userSpaceOnUse" xlink:href="#id10" x1="160.29" y1="122.463" x2="160.29" y2="132.541">
  </linearGradient>
  <linearGradient id="id68" gradientUnits="userSpaceOnUse" xlink:href="#id27" x1="10.2448" y1="109.449" x2="31.8301" y2="112.553">
  </linearGradient>
  <linearGradient id="id69" gradientUnits="userSpaceOnUse" xlink:href="#id10" x1="70.1084" y1="117.717" x2="70.1084" y2="120.164">
  </linearGradient>
  <linearGradient id="id70" gradientUnits="userSpaceOnUse" xlink:href="#id2" x1="142.928" y1="133.862" x2="142.627" y2="125.245">
  </linearGradient>
  <linearGradient id="id71" gradientUnits="userSpaceOnUse" xlink:href="#id4" x1="-0.990993" y1="121.627" x2="15.2474" y2="107.555">
  </linearGradient>
  <linearGradient id="id72" gradientUnits="userSpaceOnUse" xlink:href="#id10" x1="127.139" y1="80.7085" x2="127.139" y2="82.5627">
  </linearGradient>
  <linearGradient id="id73" gradientUnits="userSpaceOnUse" xlink:href="#id45" x1="153.643" y1="107.383" x2="170.477" y2="121.97">
  </linearGradient>
  <linearGradient id="id74" gradientUnits="userSpaceOnUse" xlink:href="#id32" x1="137.296" y1="112.537" x2="158.727" y2="109.455">
  </linearGradient>
  <linearGradient id="id75" gradientUnits="userSpaceOnUse" x1="127.069" y1="80.4919" x2="127.069" y2="96.869">
   <stop offset="0" style="stop-opacity:1; stop-color:#B5B3B1"/>
   <stop offset="1" style="stop-opacity:1; stop-color:#FEFEFE"/>
  </linearGradient>
  <linearGradient id="id76" gradientUnits="userSpaceOnUse" xlink:href="#id3" x1="132.137" y1="141.633" x2="133.033" y2="115.938">
  </linearGradient>
  <linearGradient id="id77" gradientUnits="userSpaceOnUse" xlink:href="#id10" x1="67.6567" y1="125.051" x2="67.6567" y2="137.896">
  </linearGradient>
 </defs>
 <g id="Слой_x0020_1">
  <metadata id="CorelCorpID_0Corel-Layer"/>
  <path class="fil0" d="M141 96c0,0 0,1 0,1 -1,0 -1,-1 -1,-1l0 -11c0,0 0,-1 1,-1 0,0 0,1 0,1l0 11z"/>
  <path class="fil1" d="M127 91l5 0 0 1 11 0c2,0 2,4 2,4 0,0 -1,0 -1,0 0,0 0,0 0,0 0,0 1,-3 -1,-3l-11 0 0 0 -1 0 0 2 -3 0 0 -2 -1 0 0 -2z"/>
  <path class="fil2" d="M68 109c0,0 -25,-1 -31,0 -5,1 -10,9 -10,9l-10 1 3 -10c0,0 16,-6 25,-6 8,1 27,3 27,3l-4 3z"/>
  <polygon class="fil3" points="88,83 122,83 122,81 88,81 "/>
  <path class="fil4" d="M110 129l-22 -16 -8 -6c0,0 -37,0 -40,0 -3,0 -11,4 -14,5 -3,2 -5,7 -5,7l-4 -1 1 -13 6 -3 52 -6 14 0 29 14 3 4 2 0 0 11 -14 4z"/>
  <polygon class="fil5" points="18,107 18,105 24,102 76,96 77,96 77,98 26,103 "/>
  <polygon class="fil6" points="122,122 169,122 169,117 122,117 "/>
  <polygon class="fil7" points="122,132 151,132 153,129 169,129 169,122 122,122 "/>
  <path class="fil8" d="M125 120c0,-1 0,-25 0,-25 0,0 18,-1 27,0 9,1 18,3 18,3l1 16 -2 4 -43 0 -1 2z"/>
  <path class="fil9" d="M125 120l0 0 0 0 0 0 0 0 0 -1 0 0 0 0 0 0 0 0 0 0 0 0 0 -1 0 0 0 0 0 0 0 0 0 0 0 -1 0 0 0 0 0 0 0 -1 0 0 0 0 0 0 0 -1 0 0 0 0 0 -1 0 0 0 0 0 0 0 -1 0 0 0 0 0 0 0 -1 0 0 0 0 0 0 0 -1 0 0 0 0 0 -1 0 0 0 0 0 -1 0 0 0 0 0 0 0 -1 0 0 0 0 0 0 0 -1 0 0 0 0 0 -1 0 0 0 0 0 -1 0 0 0 0 0 0 0 -1 0 0 0 0 0 0 0 -1 0 0 0 0 0 0 0 -1 0 0 0 0 0 0 0 -1 0 0 0 0 0 0 0 0 0 -1 0 0 0 0 0 0 0 -1 0 0 0 0 0 0 0 0 0 0 0 -1 0 0 0 0 0 0 0 0 0 0 0 -1 0 0 0 0 0 0 0 0 0 0c0,0 18,0 27,0 9,1 18,4 18,4l1 14 -2 3 -43 0 -1 2z"/>
  <path class="fil10" d="M122 115c0,0 1,1 1,1l0 0c0,0 0,0 1,0l0 0c0,1 1,0 1,0l0 0c0,0 1,0 1,1l0 0c0,0 0,0 1,1l0 0c0,0 0,0 1,-1l0 0c0,1 1,1 1,2l0 0c0,0 0,0 0,0l0 0c0,1 1,1 1,0l0 0c0,1 1,1 1,2l0 0c0,0 0,1 0,1l0 0c0,0 1,0 1,0l0 0c0,1 0,1 1,2l0 0c-1,0 -1,0 -1,1l0 0c0,0 1,0 1,0l0 0c0,1 0,1 0,2l0 0c0,0 0,0 0,1l0 0c0,0 0,0 0,0l0 0c0,1 0,2 0,2l0 0c0,0 -1,0 -1,1l0 0c0,0 0,1 1,1l0 0c-1,0 -1,1 -1,1l0 0c0,0 -1,0 -1,1l0 0c0,0 0,0 0,1l0 0c0,0 -1,1 -1,1l0 0c0,0 -1,0 -1,0l0 0c0,0 0,1 0,1l0 0c0,0 -1,1 -1,1l0 0c-1,0 -1,0 -1,0l0 0c-1,0 -1,1 -1,1l0 0c0,0 -1,0 -1,1l0 0c0,-1 -1,-1 -1,-1l0 0c-1,0 -1,1 -1,1l0 0c0,0 -1,0 -1,0 0,0 -1,0 -1,0l0 0 0 0 0 0 0 0 0 0c-1,0 -1,0 -1,0 0,0 -1,0 -2,0l0 0c0,0 0,-1 0,-1l0 0c-1,0 -1,0 -1,1l0 0c-1,-1 -1,-1 -2,-1l0 0c0,0 0,-1 0,-1l0 0c0,0 -1,0 -1,0l0 0c0,0 -1,-1 -1,-1l0 0c0,0 0,-1 0,-1l0 0c-1,0 -1,0 -1,0l0 0c-1,0 -1,-1 -2,-1l0 0c1,-1 1,-1 1,-1l0 0c0,-1 -1,-1 -1,-1l0 0c-1,0 -1,-1 -1,-1l0 0c0,0 1,-1 1,-1l0 0c-1,-1 -1,-1 -1,-1l0 0c0,0 -1,-1 -1,-2l0 0c1,0 1,0 1,0l0 0c0,-1 0,-1 -1,-1l0 0c0,-1 1,-1 1,-2l0 0c0,0 0,0 1,0l0 0c0,-1 -1,-1 -1,-1l0 0c0,-1 1,-1 1,-2l0 0c0,0 1,0 1,0l0 0c0,0 0,-1 -1,-1l0 0c1,-1 1,-1 2,-2l0 0c0,1 0,1 1,0l0 0c0,0 0,0 0,0l0 0c0,-1 1,-1 1,-2l0 0c0,1 1,1 1,1l0 0c0,-1 0,-1 0,-1l0 0c1,-1 1,-1 2,-1l0 0c0,0 1,1 1,0l0 0c0,0 0,0 0,0l0 0c1,0 2,-1 2,-1 0,1 0,1 1,1l0 0c0,0 0,0 0,0 0,0 0,0 0,0l0 0c0,0 1,0 1,-1z"/>
  <path class="fil11" d="M121 139c6,0 11,-5 11,-11 0,-7 -5,-12 -11,-12 -7,0 -12,5 -12,12 0,6 5,11 12,11z"/>
  <path class="fil12" d="M121 139c6,0 11,-5 11,-11 0,-7 -5,-12 -11,-12 -6,0 -12,5 -12,12 0,6 6,11 12,11z"/>
  <path class="fil13" d="M121 139c6,0 11,-5 11,-11 0,-6 -5,-12 -11,-12 -6,0 -12,6 -12,12 0,6 6,11 12,11z"/>
  <path class="fil14" d="M121 139c6,0 11,-5 11,-11 0,-6 -5,-12 -11,-12 -6,0 -11,6 -11,12 0,6 5,11 11,11z"/>
  <path class="fil15" d="M121 139c6,0 11,-5 11,-11 0,-6 -5,-11 -11,-11 -6,0 -11,5 -11,11 0,6 5,11 11,11z"/>
  <path class="fil16" d="M121 139c6,0 11,-5 11,-11 0,-6 -5,-11 -11,-11 -6,0 -11,5 -11,11 0,6 5,11 11,11z"/>
  <path class="fil17" d="M121 139c6,0 11,-5 11,-11 0,-6 -5,-11 -11,-11 -6,0 -11,5 -11,11 0,6 5,11 11,11z"/>
  <path class="fil18" d="M121 139c6,0 11,-5 11,-11 0,-6 -5,-11 -11,-11 -6,0 -11,5 -11,11 0,6 5,11 11,11z"/>
  <path class="fil19" d="M121 139c6,0 11,-5 11,-11 0,-6 -5,-11 -11,-11 -6,0 -11,5 -11,11 0,6 5,11 11,11z"/>
  <path class="fil20" d="M121 139c6,0 11,-5 11,-11 0,-6 -5,-11 -11,-11 -6,0 -11,5 -11,11 0,6 5,11 11,11z"/>
  <path class="fil21" d="M121 139c6,0 11,-5 11,-11 0,-6 -5,-11 -11,-11 -6,0 -11,5 -11,11 0,6 5,11 11,11z"/>
  <path class="fil22" d="M121 138c6,0 11,-4 11,-10 0,-6 -5,-11 -11,-11 -6,0 -11,5 -11,11 0,6 5,10 11,10z"/>
  <path class="fil23" d="M121 137c5,0 9,-4 9,-9 0,-5 -4,-10 -9,-10 -5,0 -10,5 -10,10 0,5 5,9 10,9z"/>
  <path class="fil24" d="M121 137c5,0 9,-4 9,-9 0,-5 -4,-9 -9,-9 -5,0 -9,4 -9,9 0,5 4,9 9,9z"/>
  <path class="fil25" d="M121 135c3,0 6,-3 6,-7 0,-3 -3,-6 -6,-6 -4,0 -6,3 -6,6 0,4 2,7 6,7z"/>
  <path class="fil2" d="M121 134c3,0 6,-3 6,-6 0,-4 -3,-6 -6,-6 -3,0 -6,2 -6,6 0,3 3,6 6,6z"/>
  <path class="fil26" d="M121 133c3,0 5,-2 5,-5 0,-3 -2,-5 -5,-5 -3,0 -5,2 -5,5 0,3 2,5 5,5z"/>
  <path class="fil23" d="M121 125c0,0 0,0 0,-1 0,0 0,0 0,0 0,0 -1,0 -1,0 0,1 1,1 1,1z"/>
  <path class="fil23" d="M124 125c0,0 0,1 0,1 -1,0 -1,0 -1,0 0,0 0,-1 0,-1 0,0 0,0 1,0z"/>
  <path class="fil23" d="M125 128c0,0 0,0 -1,0 0,0 0,0 0,0 0,0 0,-1 0,-1 1,0 1,1 1,1z"/>
  <path class="fil23" d="M124 131c-1,0 -1,0 -1,0 0,-1 0,-1 0,-1 0,0 0,0 1,0 0,0 0,0 0,1z"/>
  <path class="fil23" d="M121 132c0,0 -1,0 -1,-1 0,0 1,0 1,0 0,0 0,0 0,0 0,1 0,1 0,1z"/>
  <path class="fil23" d="M118 131c0,-1 0,-1 0,-1 0,0 1,0 1,0 0,0 0,0 0,1 0,0 -1,0 -1,0z"/>
  <path class="fil23" d="M117 128c0,0 0,-1 0,-1 1,0 1,1 1,1 0,0 0,0 -1,0 0,0 0,0 0,0z"/>
  <path class="fil23" d="M118 125c0,0 1,0 1,0 0,0 0,1 0,1 0,0 -1,0 -1,0 0,0 0,-1 0,-1z"/>
  <path class="fil27" d="M121 130c1,0 2,-1 2,-2 0,-1 -1,-2 -2,-2 -1,0 -2,1 -2,2 0,1 1,2 2,2z"/>
  <path class="fil28" d="M151 115c0,0 1,1 2,1l0 0c0,0 0,0 0,0l0 0c0,1 1,0 1,0l0 0c1,0 1,0 2,1l0 0c-1,0 0,0 0,1l0 0c0,0 1,0 1,-1l0 0c0,1 1,1 1,2l0 0c0,0 0,0 0,0l0 0c1,1 1,1 1,0l0 0c1,1 1,1 1,2l0 0c0,0 0,1 0,1l0 0c0,0 1,0 1,0l0 0c0,1 1,1 1,2l0 0c0,0 -1,0 -1,1l0 0c0,0 1,0 1,0l0 0c0,1 0,1 1,2l-1 0c0,0 0,0 0,1l0 0c0,0 0,0 0,0l1 0c-1,1 -1,2 -1,2l0 0c0,0 0,0 -1,1l0 0c0,0 1,1 1,1l0 0c0,0 -1,1 -1,1l0 0c0,0 -1,0 -1,1l0 0c0,0 0,0 0,1l1 0c-1,0 -1,1 -2,1l0 0c0,0 0,0 -1,0l0 0c0,0 0,1 0,1l0 0c0,0 -1,1 -1,1l0 0c0,0 -1,0 -1,0l0 0c0,0 0,1 0,1l0 0c-1,0 -1,0 -2,1l0 0c0,-1 -1,-1 -1,-1l0 0c0,0 0,1 0,1l0 0c-1,0 -2,0 -2,0 0,0 0,0 -1,0l0 0 0 0 0 0 0 0 0 0c0,0 -1,0 -1,0 0,0 -1,0 -1,0l0 0c0,0 -1,-1 -1,-1l0 0c0,0 -1,0 -1,1l0 0c0,-1 -1,-1 -1,-1l0 0c0,0 0,-1 -1,-1l0 0c0,0 0,0 -1,0l0 0c0,0 -1,-1 -1,-1l0 0c0,0 0,-1 0,-1l0 0c0,0 -1,0 -1,0l0 0c-1,0 -1,-1 -1,-1l0 0c0,-1 0,-1 0,-1l0 0c0,-1 -1,-1 -1,-1l0 0c0,0 0,-1 -1,-1l0 0c1,0 1,-1 1,-1l0 0c0,-1 -1,-1 -1,-1l0 0c0,0 0,-1 0,-2l0 0c0,0 0,0 0,0l0 0c0,-1 0,-1 0,-1l0 0c0,-1 0,-1 0,-2l0 0c0,0 1,0 1,0l0 0c0,-1 0,-1 -1,-1l0 0c1,-1 1,-1 1,-2l0 0c0,0 1,0 1,0l0 0c0,0 0,-1 0,-1l0 0c0,-1 0,-1 1,-2l0 0c0,1 1,1 1,0l0 0c0,0 0,0 0,0l0 0c0,-1 1,-1 1,-2l0 0c1,1 1,1 1,1l0 0c1,-1 1,-1 1,-1l0 0c0,-1 1,-1 1,-1l0 0c0,0 1,1 1,0l0 0c1,0 1,0 1,0l0 0c0,0 1,-1 1,-1 0,1 1,1 1,1l0 0c0,0 0,0 0,0 0,0 0,0 0,0l0 0c1,0 1,0 1,-1z"/>
  <path class="fil29" d="M150 139c6,0 12,-5 12,-11 0,-7 -6,-12 -12,-12 -6,0 -11,5 -11,12 0,6 5,11 11,11z"/>
  <path class="fil30" d="M150 139c6,0 12,-5 12,-11 0,-7 -6,-12 -12,-12 -6,0 -11,5 -11,12 0,6 5,11 11,11z"/>
  <path class="fil31" d="M150 139c6,0 12,-5 12,-11 0,-6 -6,-12 -12,-12 -6,0 -11,6 -11,12 0,6 5,11 11,11z"/>
  <path class="fil32" d="M150 139c6,0 11,-5 11,-11 0,-6 -5,-12 -11,-12 -6,0 -11,6 -11,12 0,6 5,11 11,11z"/>
  <path class="fil33" d="M150 139c6,0 11,-5 11,-11 0,-6 -5,-11 -11,-11 -6,0 -11,5 -11,11 0,6 5,11 11,11z"/>
  <path class="fil34" d="M150 139c6,0 11,-5 11,-11 0,-6 -5,-11 -11,-11 -6,0 -11,5 -11,11 0,6 5,11 11,11z"/>
  <path class="fil35" d="M150 139c6,0 11,-5 11,-11 0,-6 -5,-11 -11,-11 -6,0 -11,5 -11,11 0,6 5,11 11,11z"/>
  <path class="fil36" d="M150 139c6,0 11,-5 11,-11 0,-6 -5,-11 -11,-11 -6,0 -11,5 -11,11 0,6 5,11 11,11z"/>
  <path class="fil37" d="M150 139c6,0 11,-5 11,-11 0,-6 -5,-11 -11,-11 -6,0 -11,5 -11,11 0,6 5,11 11,11z"/>
  <path class="fil38" d="M150 139c6,0 11,-5 11,-11 0,-6 -5,-11 -11,-11 -6,0 -11,5 -11,11 0,6 5,11 11,11z"/>
  <path class="fil39" d="M150 139c6,0 11,-5 11,-11 0,-6 -5,-11 -11,-11 -6,0 -11,5 -11,11 0,6 5,11 11,11z"/>
  <path class="fil40" d="M150 138c6,0 11,-4 11,-10 0,-6 -5,-11 -11,-11 -6,0 -11,5 -11,11 0,6 5,10 11,10z"/>
  <path class="fil41" d="M150 137c5,0 10,-4 10,-9 0,-5 -5,-10 -10,-10 -5,0 -9,5 -9,10 0,5 4,9 9,9z"/>
  <path class="fil42" d="M150 137c5,0 9,-4 9,-9 0,-5 -4,-9 -9,-9 -5,0 -9,4 -9,9 0,5 4,9 9,9z"/>
  <path class="fil43" d="M150 135c4,0 6,-3 6,-7 0,-3 -2,-6 -6,-6 -3,0 -6,3 -6,6 0,4 3,7 6,7z"/>
  <path class="fil2" d="M150 134c3,0 6,-3 6,-6 0,-4 -3,-6 -6,-6 -3,0 -6,2 -6,6 0,3 3,6 6,6z"/>
  <path class="fil44" d="M150 133c3,0 5,-2 5,-5 0,-3 -2,-5 -5,-5 -3,0 -5,2 -5,5 0,3 2,5 5,5z"/>
  <path class="fil23" d="M150 125c0,0 1,0 1,-1 0,0 -1,0 -1,0 0,0 0,0 0,0 0,1 0,1 0,1z"/>
  <path class="fil23" d="M153 125c0,0 0,1 0,1 0,0 -1,0 -1,0 0,0 0,-1 0,-1 0,0 1,0 1,0z"/>
  <path class="fil23" d="M154 128c0,0 0,0 0,0 -1,0 -1,0 -1,0 0,0 0,-1 1,-1 0,0 0,1 0,1z"/>
  <path class="fil23" d="M153 131c0,0 -1,0 -1,0 0,-1 0,-1 0,-1 0,0 1,0 1,0 0,0 0,0 0,1z"/>
  <path class="fil23" d="M150 132c0,0 0,0 0,-1 0,0 0,0 0,0 0,0 1,0 1,0 0,1 -1,1 -1,1z"/>
  <path class="fil23" d="M147 131c0,-1 0,-1 0,-1 1,0 1,0 1,0 0,0 0,0 0,1 0,0 0,0 -1,0z"/>
  <path class="fil23" d="M146 128c0,0 0,-1 1,-1 0,0 0,1 0,1 0,0 0,0 0,0 -1,0 -1,0 -1,0z"/>
  <path class="fil23" d="M147 125c1,0 1,0 1,0 0,0 0,1 0,1 0,0 0,0 -1,0 0,0 0,-1 0,-1z"/>
  <path class="fil45" d="M150 130c1,0 2,-1 2,-2 0,-1 -1,-2 -2,-2 -1,0 -2,1 -2,2 0,1 1,2 2,2z"/>
  <polygon class="fil46" points="168,118 185,118 184,120 172,120 172,127 185,127 185,131 173,131 172,130 169,130 168,129 "/>
  <path class="fil47" d="M177 118c1,0 5,-7 5,-7l2 0 -3 7 -4 0z"/>
  <path class="fil48" d="M183 120c0,0 1,-2 2,-2 1,0 4,5 4,6 0,2 0,5 0,5l7 0 0 8 -6 3 2 -4 0 -4 -5 0c0,0 -3,0 -5,-2 -1,-1 -2,-2 -1,-2 0,-1 4,0 4,0l0 -5 -2 -3z"/>
  <polygon class="fil49" points="31,101 76,96 89,96 90,108 86,109 74,104 32,104 "/>
  <polygon class="fil50" points="31,101 76,96 77,96 77,98 31,103 "/>
  <polygon class="fil1" points="89,83 92,111 119,111 119,97 123,82 "/>
  <path class="fil51" d="M90 84l3 26 12 0 0 -27 -15 1 0 0zm17 12l11 0 4 -13 -15 0 0 13z"/>
  <path class="fil52" d="M91 94l2 16 12 0 0 -16 -14 0 0 0zm16 0l12 0 -1 2 -11 0 0 -2z"/>
  <path class="fil53" d="M91 93l2 17 12 0 0 -4 -2 0 0 -7 -2 0 1 7 -1 1 -6 1c0,0 -2,-5 -2,-5 0,-1 2,-3 2,-3l-1 -4c0,0 -1,-1 -1,-1 0,0 -1,-2 -1,-2l-1 0 0 0zm22 3c1,-2 1,-5 1,-5 0,0 0,-2 1,-2 1,0 2,1 2,1l-1 6 -3 0z"/>
  <path class="fil0" d="M90 112c0,0 1,0 1,0 1,0 1,0 1,0l0 2 5 0 0 -2c0,0 1,0 1,0 1,0 1,0 1,0l0 14c0,1 0,1 -1,1 0,0 -1,0 -1,-1l0 0 -5 0 0 0c0,1 0,1 -1,1 0,0 -1,0 -1,-1l0 -14zm2 3l0 4 5 0 0 -4 -5 0 0 0zm0 6l0 4 5 0 0 -4 -5 0z"/>
  <polygon class="fil54" points="24,120 65,120 65,118 24,118 "/>
  <path class="fil55" d="M66 123l-14 0 0 -3 21 0 0 0c0,1 6,5 4,9 -3,5 -5,5 -5,5 0,0 0,0 1,-2 1,-1 2,-6 -2,-7 -1,-1 -3,-2 -5,-2z"/>
  <path class="fil56" d="M61 126l19 -3c0,0 2,3 1,5 -1,2 -3,5 -3,5l-16 5c0,0 3,-4 2,-7 0,-3 -3,-5 -3,-5z"/>
  <path class="fil57" d="M61 127c-1,-1 -1,-1 0,-1 0,-1 0,-1 1,-1 0,0 6,5 1,13 -1,0 -1,0 -1,0 -1,0 -1,0 -1,-1 5,-6 0,-10 0,-10z"/>
  <path class="fil58" d="M89 82c0,0 0,0 0,1 0,0 0,0 0,0 0,0 -3,-1 -3,0 0,2 2,21 2,21l0 0 0 0c0,0 0,2 4,2 0,0 0,0 0,0 0,0 0,0 0,0 -4,0 -5,-2 -5,-2l0 0c0,-1 -2,-19 -2,-21 0,-1 4,-1 4,-1z"/>
  <path class="fil59" d="M86 85c0,0 0,0 0,1 0,0 0,0 0,0 0,0 -6,-1 -7,-1 0,0 0,0 0,0 0,0 0,-1 0,-1 1,1 7,1 7,1z"/>
  <path class="fil60" d="M78 84c0,0 0,-1 1,-1 0,0 1,1 1,1l0 8c0,0 -1,1 -1,1 0,0 -1,-1 -1,-1l0 -8z"/>
  <path class="fil61" d="M19 115c1,0 1,1 2,1l0 0c0,0 0,0 0,0l0 0c1,1 1,0 1,0l0 0c1,0 1,0 2,1l0 0c0,0 0,0 0,1l0 0c0,0 1,0 1,-1l0 0c1,1 1,1 2,2l0 0c-1,0 -1,0 0,0l0 0c0,1 0,1 0,0l0 0c1,1 1,1 2,2l0 0c-1,0 -1,1 -1,1l0 0c1,0 1,0 1,0l0 0c1,1 1,1 1,2l0 0c0,0 -1,0 0,1l0 0c0,0 0,0 0,0l0 0c1,1 1,1 1,2l0 0c-1,0 -1,0 -1,1l0 0c0,0 0,0 1,0l0 0c0,1 0,2 -1,2l0 0c0,0 0,0 0,1l0 0c-1,0 0,1 0,1l0 0c0,0 0,1 -1,1l0 0c0,0 0,0 -1,1l0 0c0,0 0,0 1,1l0 0c-1,0 -1,1 -1,1l-1 0c0,0 0,0 0,0l0 0c-1,0 -1,1 0,1l0 0c-1,0 -1,1 -2,1l0 0c0,0 -1,0 -1,0l0 0c0,0 0,1 0,1l0 0c-1,0 -1,0 -2,1l0 0c0,-1 0,-1 -1,-1l0 0c0,0 0,1 0,1l0 0c-1,0 -1,0 -2,0 0,0 0,0 -1,0l0 0 0 0 0 0 0 0 0 0c0,0 0,0 0,0 -1,0 -2,0 -2,0l0 0c0,0 0,-1 -1,-1l0 0c0,0 0,0 -1,1l0 0c0,-1 -1,-1 -1,-1l0 0c0,0 0,-1 -1,-1l0 0c0,0 0,0 0,0l0 0c-1,0 -2,-1 -2,-1l0 0c0,0 0,-1 0,-1l0 0c0,0 -1,0 -1,0l0 0c0,0 -1,-1 -1,-1l0 0c0,-1 0,-1 0,-1l0 0c0,-1 0,-1 -1,-1l0 0c0,0 0,-1 -1,-1l1 0c0,0 0,-1 0,-1l0 0c0,-1 0,-1 -1,-1l0 0c0,0 0,-1 0,-2l0 0c0,0 1,0 1,0l0 0c0,-1 -1,-1 -1,-1l0 0c0,-1 0,-1 0,-2l0 0c1,0 1,0 1,0l0 0c0,-1 0,-1 0,-1l-1 0c1,-1 1,-1 1,-2l0 0c1,0 1,0 1,0l0 0c0,0 0,-1 0,-1l0 0c0,-1 1,-1 1,-2l0 0c0,1 1,1 1,0l0 0c0,0 0,0 0,0l0 0c1,-1 1,-1 2,-2l0 0c0,1 0,1 0,1l0 0c1,-1 1,-1 1,-1l0 0c0,-1 1,-1 1,-1l0 0c1,0 1,1 1,0l0 0c1,0 1,0 1,0l0 0c0,0 1,-1 2,-1 0,1 0,1 0,1l0 0c0,0 0,0 0,0 0,0 0,0 0,0l0 0c1,0 1,0 1,-1z"/>
  <path class="fil62" d="M18 139c7,0 12,-5 12,-11 0,-7 -5,-12 -12,-12 -6,0 -11,5 -11,12 0,6 5,11 11,11z"/>
  <path class="fil63" d="M18 139c7,0 12,-5 12,-11 0,-7 -5,-12 -12,-12 -6,0 -11,5 -11,12 0,6 5,11 11,11z"/>
  <path class="fil64" d="M18 139c7,0 12,-5 12,-11 0,-6 -5,-12 -12,-12 -6,0 -11,6 -11,12 0,6 5,11 11,11z"/>
  <path class="fil65" d="M18 139c7,0 12,-5 12,-11 0,-6 -5,-12 -12,-12 -6,0 -11,6 -11,12 0,6 5,11 11,11z"/>
  <path class="fil66" d="M18 139c6,0 12,-5 12,-11 0,-6 -6,-11 -12,-11 -6,0 -11,5 -11,11 0,6 5,11 11,11z"/>
  <path class="fil67" d="M18 139c6,0 11,-5 11,-11 0,-6 -5,-11 -11,-11 -6,0 -11,5 -11,11 0,6 5,11 11,11z"/>
  <path class="fil68" d="M18 139c6,0 11,-5 11,-11 0,-6 -5,-11 -11,-11 -6,0 -11,5 -11,11 0,6 5,11 11,11z"/>
  <path class="fil69" d="M18 139c6,0 11,-5 11,-11 0,-6 -5,-11 -11,-11 -6,0 -11,5 -11,11 0,6 5,11 11,11z"/>
  <path class="fil70" d="M18 139c6,0 11,-5 11,-11 0,-6 -5,-11 -11,-11 -6,0 -11,5 -11,11 0,6 5,11 11,11z"/>
  <path class="fil71" d="M18 139c6,0 11,-5 11,-11 0,-6 -5,-11 -11,-11 -6,0 -11,5 -11,11 0,6 5,11 11,11z"/>
  <path class="fil72" d="M18 139c6,0 11,-5 11,-11 0,-6 -5,-11 -11,-11 -6,0 -10,5 -10,11 0,6 4,11 10,11z"/>
  <path class="fil73" d="M18 138c6,0 11,-4 11,-10 0,-6 -5,-11 -11,-11 -6,0 -10,5 -10,11 0,6 4,10 10,10z"/>
  <path class="fil23" d="M18 137c6,0 10,-4 10,-9 0,-5 -4,-10 -10,-10 -5,0 -9,5 -9,10 0,5 4,9 9,9z"/>
  <path class="fil74" d="M18 137c5,0 9,-4 9,-9 0,-5 -4,-9 -9,-9 -5,0 -9,4 -9,9 0,5 4,9 9,9z"/>
  <path class="fil75" d="M18 135c4,0 7,-3 7,-7 0,-3 -3,-6 -7,-6 -3,0 -6,3 -6,6 0,4 3,7 6,7z"/>
  <path class="fil2" d="M18 134c4,0 6,-3 6,-6 0,-4 -2,-6 -6,-6 -3,0 -6,2 -6,6 0,3 3,6 6,6z"/>
  <path class="fil76" d="M18 133c3,0 5,-2 5,-5 0,-3 -2,-5 -5,-5 -3,0 -5,2 -5,5 0,3 2,5 5,5z"/>
  <path class="fil23" d="M18 125c1,0 1,0 1,-1 0,0 0,0 -1,0 0,0 0,0 0,0 0,1 0,1 0,1z"/>
  <path class="fil23" d="M21 125c0,0 0,1 0,1 0,0 0,0 -1,0 0,0 0,-1 0,-1 1,0 1,0 1,0z"/>
  <path class="fil23" d="M22 128c0,0 0,0 0,0 -1,0 -1,0 -1,0 0,0 0,-1 1,-1 0,0 0,1 0,1z"/>
  <path class="fil23" d="M21 131c0,0 0,0 -1,0 0,-1 0,-1 0,-1 1,0 1,0 1,0 0,0 0,0 0,1z"/>
  <path class="fil23" d="M18 132c0,0 0,0 0,-1 0,0 0,0 0,0 1,0 1,0 1,0 0,1 0,1 -1,1z"/>
  <path class="fil23" d="M16 131c-1,-1 -1,-1 0,-1 0,0 0,0 0,0 0,0 0,0 0,1 0,0 0,0 0,0z"/>
  <path class="fil23" d="M14 128c0,0 1,-1 1,-1 0,0 0,1 0,1 0,0 0,0 0,0 0,0 -1,0 -1,0z"/>
  <path class="fil23" d="M16 125c0,0 0,0 0,0 0,0 0,1 0,1 0,0 0,0 0,0 -1,0 -1,-1 0,-1z"/>
  <path class="fil77" d="M18 130c2,0 3,-1 3,-2 0,-1 -1,-2 -3,-2 -1,0 -2,1 -2,2 0,1 1,2 2,2z"/>
  <path class="fil78" d="M59 101l3 3c0,0 1,0 3,0 2,1 2,5 2,5l-3 12 5 0 4 -15c0,0 -1,-5 -4,-6 -2,-1 -10,1 -10,1z"/>
  <path class="fil79" d="M142 95c0,0 0,0 0,0 1,0 1,0 1,0l0 23c0,0 0,0 -1,0 0,0 0,0 0,0l0 -23z"/>
  <path class="fil80" d="M143 95c0,0 0,0 0,0 0,0 0,0 0,0l0 23c0,0 0,0 0,0 0,0 0,0 0,0l0 -23z"/>
  <path class="fil80" d="M69 121c0,0 0,0 0,0 0,0 0,0 0,-1l4 -14c0,-1 -2,-5 -4,-6 -2,-1 -10,1 -10,1 0,0 -1,0 -1,0 0,0 0,0 1,0 0,0 8,-2 10,-1 3,1 4,6 4,6l0 0c0,0 0,0 0,0l-4 15z"/>
  <path class="fil81" d="M56 85c0,0 -1,0 -1,0 0,0 0,0 0,1l7 31c0,1 0,1 0,1 1,0 1,-1 1,-1l-7 -32z"/>
  <path class="fil82" d="M56 85c0,-1 -1,-1 -1,-1 -1,0 -1,1 -1,1l4 20c0,0 1,1 2,1 0,-1 1,-1 1,-2l-5 -19z"/>
  <path class="fil83" d="M65 119c1,-1 0,-3 -1,-3 -1,-1 -3,-1 -4,0 -1,2 0,3 1,4 1,1 3,1 4,-1z"/>
  <path class="fil84" d="M64 119c1,-1 1,-2 0,-3 -1,-1 -3,0 -3,1 -1,1 -1,2 0,3 1,0 3,0 3,-1z"/>
  <path class="fil85" d="M90 83c0,0 0,0 0,0 -1,0 -1,0 -1,0 0,0 0,-2 0,-4l0 0c0,0 0,-1 1,-1 1,0 3,0 5,0 2,0 3,0 4,0 2,0 4,0 7,0 6,0 16,0 17,0 1,0 1,1 1,2 -1,1 -2,2 -3,4 0,1 -1,2 -1,2 -1,1 -1,5 -2,8 -1,4 -1,8 -1,10 0,2 -1,3 -1,4 -1,1 -2,1 -2,1 -1,0 -1,0 -1,0 0,0 0,-1 1,-1 0,0 1,0 1,-1 1,0 1,-1 1,-3 0,-2 0,-6 1,-10 1,-3 2,-7 2,-8 0,-1 1,-2 2,-3 1,-1 2,-3 2,-3 0,-1 0,-1 0,-1 -1,0 -11,0 -17,0 -3,0 -5,0 -7,0 -1,0 -2,0 -4,0 -2,0 -4,0 -5,0 0,0 -1,0 -1,0l0 0c1,2 1,4 1,4z"/>
 </g>
</svg>
