<?xml version="1.0" encoding="UTF-8"?>
<!DOCTYPE svg PUBLIC "-//W3C//DTD SVG 1.1//EN" "http://www.w3.org/Graphics/SVG/1.1/DTD/svg11.dtd">
<!-- Creator: CorelDRAW X8 -->
<svg xmlns="http://www.w3.org/2000/svg" xml:space="preserve" width="150px" height="50px" version="1.1" style="shape-rendering:geometricPrecision; text-rendering:geometricPrecision; image-rendering:optimizeQuality; fill-rule:evenodd; clip-rule:evenodd"
viewBox="0 0 150 50"
 xmlns:xlink="http://www.w3.org/1999/xlink">
 <defs>
  <style type="text/css">
   <![CDATA[
    .fil0 {fill:#E31E24}
    .fil1 {fill:#E31E24;fill-rule:nonzero}
   ]]>
  </style>
 </defs>
 <g id="Слой_x0020_1">
  <metadata id="CorelCorpID_0Corel-Layer"/>
  <path class="fil0" d="M128 30c5,0 11,0 17,0 1,0 1,-1 1,-2 0,-1 0,-1 -1,-1 -5,0 -11,0 -16,0 -2,0 -3,-1 -2,-3 0,-1 1,-2 1,-4 1,-1 2,-2 3,-2 5,0 9,0 14,0 1,0 1,0 1,-1 0,-1 0,-1 -1,-1 -4,0 -8,-1 -12,0 -1,0 -2,-2 -2,-3 1,-1 1,-2 1,-3 1,-2 2,-3 4,-3 3,0 6,0 9,0 0,0 1,0 1,0 0,-1 0,-2 0,-2 0,0 -1,-1 -1,-1 -8,0 -17,0 -25,0 -1,0 -2,1 -2,2 -2,4 -4,9 -5,13 -1,1 -1,1 -2,1 -1,0 -2,0 -2,-1 -2,-4 -3,-8 -5,-12 -1,-3 -1,-3 -3,-3 -1,0 -2,1 -2,2 -2,4 -4,8 -5,13 -1,1 -1,1 -2,2 -1,0 -2,-1 -2,-2 -2,-5 -4,-9 -5,-13 -1,-1 -1,-2 -2,-2 -10,0 -19,0 -29,0 -1,0 -1,0 -2,2 -3,7 -5,14 -8,20 0,1 -1,2 -2,2 -2,1 -3,-1 -3,-3 0,-6 0,-13 0,-19 0,-1 -1,-2 -2,-2 -2,0 -5,0 -8,0 -1,0 -1,1 -1,2 0,1 0,3 0,5 0,2 -1,3 -3,3 -3,0 -5,0 -8,0 -2,0 -3,-1 -3,-3 0,-2 0,-3 0,-5 0,-1 0,-2 -1,-2 -3,0 -6,0 -8,0 -1,0 -1,1 -1,2 0,7 0,15 0,22 0,1 0,2 1,2 2,0 5,0 8,0 1,0 1,-1 1,-2 0,-2 0,-3 0,-5 0,-2 1,-3 3,-3 3,0 5,0 8,0 2,0 3,1 3,3 0,2 0,3 0,5 0,1 0,2 1,2 8,0 15,0 22,0 1,0 1,-1 2,-2 0,-1 1,-2 3,-2 4,0 8,0 12,0 1,0 2,1 3,2 0,1 1,2 2,2 6,0 13,0 19,0 1,0 2,-1 2,-2 2,-4 4,-8 5,-13 1,-1 1,-1 2,-1 1,0 2,0 2,1 2,5 3,9 5,13 1,1 1,2 2,2 6,0 12,0 18,0zm-86 -9c0,-1 1,-1 1,-2 2,-5 4,-10 6,-16 1,-1 2,-2 3,-2 11,0 22,0 32,0 2,0 3,1 3,2 2,4 3,7 4,10 0,0 0,1 1,1 0,-1 0,-1 0,-2 2,-3 3,-6 4,-9 0,-1 2,-2 3,-2 1,0 3,0 4,0 2,0 3,1 3,2 2,3 3,7 4,10 0,0 1,1 1,1 1,-2 2,-5 2,-7 1,-1 2,-3 2,-4 1,-1 2,-2 3,-2 10,0 19,0 29,0 2,0 3,1 3,3 0,1 0,2 0,3 0,2 -1,4 -4,4 -3,0 -6,0 -9,0 -1,0 -2,0 -2,1 1,0 1,0 1,0 4,0 7,0 10,0 3,0 4,1 4,4 0,0 0,1 0,2 0,2 -1,4 -4,4 -4,0 -9,0 -13,0 -2,0 -2,0 -2,1 0,0 1,0 1,0 5,0 10,0 14,0 3,0 4,2 4,4 0,1 0,2 0,3 0,2 -1,3 -3,3 0,0 -1,0 -1,0 -12,0 -25,0 -37,0 -2,0 -3,0 -4,-3 -1,-3 -2,-6 -3,-9 -1,0 -1,0 -1,-1 0,1 0,1 0,1 -2,3 -3,7 -4,10 -1,1 -2,2 -3,2 -8,0 -15,0 -22,0 -2,0 -3,-1 -4,-2 0,-1 -1,-2 -2,-1 -3,0 -6,0 -9,0 -1,0 -1,0 -1,1 -1,2 -2,2 -4,2 -8,0 -16,0 -24,0 -2,0 -4,-1 -3,-4 0,-1 0,-3 0,-5 0,-1 -1,-1 -2,-1 -1,0 -3,0 -4,0 -1,0 -1,0 -1,1 0,2 0,4 0,5 0,3 -2,4 -4,4 -3,0 -7,0 -11,0 -2,0 -3,-1 -3,-3 0,-4 0,-8 0,-12l0 -1c0,-5 0,-9 0,-13 0,-2 1,-3 3,-3 4,0 8,0 11,0 2,0 4,1 4,3 0,2 0,4 0,6 0,1 0,1 1,1 1,0 3,0 4,0 1,0 2,0 2,-1 0,-2 0,-4 0,-6 0,-2 1,-3 3,-3 3,0 7,0 11,0 2,0 3,1 3,3 0,5 0,10 0,16 0,0 0,0 0,1 0,0 0,0 0,0z"/>
  <path class="fil0" d="M62 14c0,0 0,0 0,0 -1,2 -2,4 -3,6 2,0 4,0 5,0 0,-2 -1,-4 -2,-6zm0 9c-2,0 -3,0 -5,0 -1,0 -2,-1 -2,-2 2,-4 4,-8 5,-13 1,0 1,-1 2,-1 1,0 1,1 2,1 1,5 3,9 5,13 0,1 -1,2 -2,2 -2,1 -3,0 -5,0 0,0 0,0 0,0z"/>
  <polygon class="fil1" points="59,38 59,42 63,42 63,38 66,38 66,48 63,48 63,44 59,44 59,48 56,48 56,38 "/>
  <path class="fil1" d="M71 48l0 -4 -4 -6 4 0 1 2c0,1 0,2 1,2l0 0c0,0 0,-1 1,-2l1 -2 3 0 -4 6 0 4 -3 0z"/>
  <path class="fil1" d="M82 46c0,0 1,0 1,0 2,0 4,-1 4,-3 0,-2 -1,-3 -4,-3 0,0 -1,0 -1,0l0 6zm-3 -8c1,0 3,0 4,0 2,0 4,0 5,1 1,1 2,2 2,4 0,2 -1,3 -2,4 -1,1 -3,1 -6,1 -1,0 -2,0 -3,0l0 -10z"/>
  <path class="fil1" d="M94 43l2 0c1,0 2,-1 2,-2 0,-1 -1,-1 -2,-1 -1,0 -1,0 -2,0l0 3zm-2 -5c1,0 2,0 3,0 2,0 3,0 4,1 1,0 1,1 1,2 0,1 -1,2 -2,2l0 0c1,1 2,1 2,2 0,1 1,3 1,3l-3 0c0,0 0,-1 -1,-2 0,-2 -1,-2 -2,-2l-1 0 0 4 -2 0 0 -10z"/>
  <path class="fil1" d="M108 44l0 -2c-1,-1 -1,-2 -1,-2l0 0c0,0 0,1 -1,2l0 2 2 0zm-3 2l-1 2 -2 0 3 -10 4 0 4 10 -3 0 -1 -2 -4 0z"/>
  <path class="fil1" d="M116 38l0 6c0,2 1,2 3,2 1,0 2,0 2,-2l0 -6 3 0 0 6c0,3 -2,4 -6,4 -3,0 -4,-1 -4,-4l0 -6 2 0z"/>
  <polygon class="fil1" points="126,38 129,38 129,46 133,46 133,48 126,48 "/>
  <polygon class="fil1" points="135,48 138,48 138,38 135,38 "/>
  <path class="fil1" d="M140 38l3 0 0 4 0 0c0,0 0,0 1,-1l2 -3 4 0 -4 4 4 6 0 0 -3 0 -3 -4 -1 1 0 3 -3 0 0 -10z"/>
 </g>
</svg>
