<?xml version="1.0" encoding="UTF-8"?>
<!DOCTYPE svg PUBLIC "-//W3C//DTD SVG 1.1//EN" "http://www.w3.org/Graphics/SVG/1.1/DTD/svg11.dtd">
<!-- Creator: CorelDRAW X8 -->
<svg xmlns="http://www.w3.org/2000/svg" xml:space="preserve" width="150px" height="50px" version="1.1" style="shape-rendering:geometricPrecision; text-rendering:geometricPrecision; image-rendering:optimizeQuality; fill-rule:evenodd; clip-rule:evenodd"
viewBox="0 0 150 50"
 xmlns:xlink="http://www.w3.org/1999/xlink">
 <defs>
  <style type="text/css">
   <![CDATA[
    .fil0 {fill:black}
   ]]>
  </style>
 </defs>
 <g id="Слой_x0020_1">
  <metadata id="CorelCorpID_0Corel-Layer"/>
  <path class="fil0" d="M97 45c0,0 0,-1 0,-1 0,0 0,0 0,0l4 -4c0,-1 0,-1 1,-1 0,-1 0,-1 0,-1l0 7 4 0 0 -13c0,0 -1,0 -1,0l-2 0c0,0 0,0 -1,0 0,1 0,1 -1,2 0,0 0,0 0,0l-5 6c0,0 0,0 0,-1 0,0 0,0 0,0 -1,-1 -6,-7 -6,-7l-4 0 0 13 4 0 0 -7c0,0 0,0 0,0 1,1 1,1 1,2l1 0c0,1 0,1 0,1l1 1c0,0 0,0 1,0l0 1c0,0 1,1 2,2l1 0z"/>
  <path class="fil0" d="M39 42l-7 0 0 -7 7 0c1,0 2,0 2,1 0,0 0,2 0,3 0,1 0,2 0,2 -1,1 -2,1 -2,1zm-11 3c0,0 12,0 12,0 1,0 2,0 4,-1 1,-1 1,-3 1,-5 0,-2 0,-4 -1,-6 -1,-1 -3,-1 -4,-1 -2,0 -4,0 -6,0 0,0 -6,0 -6,0l0 13z"/>
  <path class="fil0" d="M77 42l-4 0c-1,0 -2,0 -3,-1 0,0 0,-2 0,-2 0,-1 0,-3 0,-3 0,-1 1,-1 2,-1l5 0c1,0 2,0 2,1 1,0 1,2 1,3 0,0 0,2 -1,2 0,1 -1,1 -2,1zm-6 -10c-1,0 -2,0 -3,1 -1,0 -2,1 -2,2 0,1 0,2 0,3 0,2 0,4 1,5 0,1 0,1 0,1 1,1 2,1 4,1 2,0 5,0 7,0 2,0 3,0 4,0 2,-2 2,-4 2,-6 0,-2 0,-5 -2,-6 -1,-1 -2,-1 -3,-1 -1,0 -3,0 -4,0 -1,0 -1,0 -2,0 -1,0 -1,0 -2,0z"/>
  <path class="fil0" d="M51 35c1,0 2,0 3,0 1,0 2,0 2,0 1,0 2,0 3,0 1,0 1,1 1,2 0,0 0,1 0,1 0,0 -1,0 -1,0 -1,1 -2,1 -3,1 0,0 -1,0 -2,0 -1,0 -2,0 -3,0l0 -4zm11 5c0,0 1,0 2,-1 0,-2 0,-4 0,-5 -1,-1 -1,-1 -1,-1 -2,-1 -4,-1 -6,-1l-10 0 0 13 4 0 0 -3c1,0 2,0 3,0 1,0 2,0 3,0 1,0 2,0 3,0 0,1 0,2 0,3l4 0c0,-1 0,-1 0,-2 0,0 0,-1 0,-1 -1,-2 -2,-2 -2,-2z"/>
  <polygon class="fil0" points="109,45 124,45 124,42 113,42 113,40 123,40 123,37 113,37 113,35 124,35 124,32 109,32 "/>
  <path class="fil0" d="M134 38c0,0 1,0 1,-1 1,0 8,-5 8,-5 -1,0 -3,0 -4,0 -2,0 -1,0 -2,0l-6 5c0,0 0,0 0,0 -1,0 -1,0 -1,0l0 -5 -4 0 0 13 4 0 0 -5c0,0 1,0 1,0 0,0 0,0 0,0l2 2c1,0 2,1 3,2 0,0 1,0 1,0 0,1 1,1 1,1l6 0c0,0 0,0 0,0 -1,-1 -1,-1 -1,-1 0,0 -1,0 -1,-1 -1,0 -2,-1 -3,-1 -1,-1 -1,-2 -2,-2l-3 -2z"/>
  <polygon class="fil0" points="6,40 15,40 15,45 19,45 19,35 15,33 15,37 6,37 6,32 2,32 2,45 6,45 "/>
  <path class="fil0" d="M22 45l4 0 0 -7c0,-1 -1,-1 -1,-1l-1 0c-1,-1 -2,-1 -2,-1l0 9z"/>
  <polygon class="fil0" points="26,31 15,31 26,36 "/>
 </g>
</svg>
