<?xml version="1.0" encoding="UTF-8"?>
<!DOCTYPE svg PUBLIC "-//W3C//DTD SVG 1.1//EN" "http://www.w3.org/Graphics/SVG/1.1/DTD/svg11.dtd">
<!-- Creator: CorelDRAW X8 -->
<svg xmlns="http://www.w3.org/2000/svg" xml:space="preserve" width="150px" height="50px" version="1.1" style="shape-rendering:geometricPrecision; text-rendering:geometricPrecision; image-rendering:optimizeQuality; fill-rule:evenodd; clip-rule:evenodd"
viewBox="0 0 150 50"
 xmlns:xlink="http://www.w3.org/1999/xlink">
 <defs>
  <style type="text/css">
   <![CDATA[
    .fil0 {fill:#E8112D}
   ]]>
  </style>
 </defs>
 <g id="Слой_x0020_1">
  <metadata id="CorelCorpID_0Corel-Layer"/>
  <polygon class="fil0" points="113,23 119,23 119,32 131,32 131,23 137,23 137,45 131,45 131,35 119,35 119,45 113,45 "/>
  <polygon class="fil0" points="2,23 8,23 8,32 20,32 20,23 26,23 26,45 20,45 20,35 8,35 8,45 2,45 "/>
  <polygon class="fil0" points="31,45 37,45 37,23 31,23 "/>
  <polygon class="fil0" points="142,45 148,45 148,23 142,23 "/>
  <polygon class="fil0" points="39,23 62,23 62,27 54,27 54,45 48,45 48,27 39,27 "/>
  <path class="fil0" d="M67 37l5 -10 4 10 -9 0zm10 3l2 5 7 0 -11 -22 -7 0 -11 22 7 0 2 -5 11 0z"/>
  <path class="fil0" d="M104 30l6 0c0,-4 -4,-7 -12,-8 -6,0 -13,3 -13,12 0,9 7,12 13,12 6,0 12,-2 12,-9l-6 0c0,4 -3,5 -6,5 -2,0 -7,0 -7,-8 0,-7 4,-8 7,-8 3,0 6,1 6,4z"/>
 </g>
</svg>
