<?xml version="1.0" encoding="UTF-8"?>
<!DOCTYPE svg PUBLIC "-//W3C//DTD SVG 1.1//EN" "http://www.w3.org/Graphics/SVG/1.1/DTD/svg11.dtd">
<!-- Creator: CorelDRAW X8 -->
<svg xmlns="http://www.w3.org/2000/svg" xml:space="preserve" width="150px" height="50px" version="1.1" style="shape-rendering:geometricPrecision; text-rendering:geometricPrecision; image-rendering:optimizeQuality; fill-rule:evenodd; clip-rule:evenodd"
viewBox="0 0 150 50"
 xmlns:xlink="http://www.w3.org/1999/xlink">
 <defs>
  <style type="text/css">
   <![CDATA[
    .fil1 {fill:#004394}
    .fil3 {fill:#004494}
    .fil0 {fill:#009038}
    .fil2 {fill:#F9BA00}
   ]]>
  </style>
 </defs>
 <g id="Слой_x0020_1">
  <metadata id="CorelCorpID_0Corel-Layer"/>
  <polygon class="fil0" points="14,19 4,37 26,37 15,17 "/>
  <polygon class="fil1" points="87,25 93,37 99,37 99,19 94,19 95,31 89,19 83,19 83,37 87,37 "/>
  <path class="fil1" d="M107 33l0 -10c2,0 3,0 5,1 1,1 2,2 2,4 0,2 -1,3 -2,4 -2,1 -3,1 -5,1zm-5 -13l0 17 7 0c5,0 9,-3 9,-9 0,-10 -8,-9 -16,-9l0 1z"/>
  <path class="fil1" d="M40 29l0 8 5 0 0 -18 -5 0c0,2 0,6 0,7 -1,0 -4,0 -5,0l0 -7c-1,0 -4,0 -5,0l0 18c1,0 4,0 5,0l0 -8 5 0z"/>
  <path class="fil1" d="M44 41c0,0 1,2 1,2l-2 0 1 -2zm-3 4l2 0 0 -1 2 0c0,0 0,0 0,0 0,0 0,1 0,1l2 0c0,0 -1,-2 -1,-3l-1 -2c0,0 0,0 0,0l-2 0 -2 5z"/>
  <path class="fil1" d="M65 30c0,8 10,8 13,5 1,-1 2,-2 2,-5l0 -11c-1,0 -4,0 -5,0 0,3 0,6 0,9 0,3 0,5 -3,5 -2,0 -3,-1 -3,-3l0 -11 -4 0 0 11z"/>
  <path class="fil1" d="M53 37l4 0c0,-2 0,-4 0,-6 0,-1 0,-1 1,-2 0,-1 1,-2 1,-2l4 -8 -5 0 -3 7c-1,0 -3,-6 -4,-7l-5 0 6 11c1,0 1,0 1,1 0,2 0,4 0,6z"/>
  <polygon class="fil1" points="139,37 143,37 143,19 139,19 139,19 "/>
  <path class="fil2" d="M4 37l10 -18 -1 -2c-1,0 -3,5 -3,5l-9 15 3 0z"/>
  <path class="fil1" d="M64 42c0,0 2,2 2,3l2 0 0 -5 -2 0 0 3c0,-1 -1,-3 -2,-3l-1 0 0 5 1 0 0 -3z"/>
  <path class="fil1" d="M70 41c2,0 2,0 2,1 0,2 0,2 -2,2l0 -3zm-1 4c2,0 5,0 5,-3 0,-3 -3,-2 -5,-2l0 5z"/>
  <path class="fil1" d="M92 41c0,0 1,0 1,0 0,1 -1,1 -1,1l0 0 0 -1zm2 2c0,0 0,0 0,-1 1,0 1,-2 0,-2 -1,-1 -3,0 -4,0l0 5 2 0 0 -2 0 0 1 2 2 0 -1 -2z"/>
  <path class="fil1" d="M130 41c1,-1 2,2 0,3 0,0 -1,-1 -1,-1 0,-1 0,-2 1,-2zm-3 2c1,3 6,3 6,-1 -1,-4 -6,-3 -6,1z"/>
  <path class="fil1" d="M124 41c0,0 1,0 1,0 0,1 -1,1 -1,1l0 -1zm2 2c0,0 0,0 0,-1 1,0 1,-2 0,-2 0,0 -1,0 -2,0 0,0 -2,0 -2,0l0 5c0,0 1,0 2,0l0 -2 0 0c0,0 1,2 1,2l2 0 -1 -2z"/>
  <polygon class="fil1" points="32,43 34,43 34,45 35,45 35,40 34,40 33,42 32,42 32,40 30,40 30,45 32,45 "/>
  <path class="fil1" d="M84 41c0,0 1,0 1,-1 -1,0 -1,-1 -2,-1 -3,0 -3,3 -2,4 1,0 2,0 2,0 0,1 -1,1 -2,0l-1 1c0,0 0,0 0,0l0 0c0,0 0,0 0,0 1,2 6,2 5,-1 0,-1 -1,-1 -2,-2 -2,0 0,-1 1,0z"/>
  <path class="fil1" d="M75 40c0,2 -1,5 2,5 3,0 2,-3 2,-5l-1 0c0,0 0,1 0,2 0,1 0,2 -1,2 -1,0 -1,-1 -1,-2 0,-1 0,-2 0,-2l-1 0z"/>
  <path class="fil1" d="M107 41c0,0 1,0 1,-1 -1,-1 -3,-1 -4,0 0,0 -1,1 0,2 0,1 1,1 2,1 1,0 0,1 -1,1 -1,0 -1,-1 -1,-1 0,0 -1,1 -1,1 1,1 4,2 5,0 0,0 0,-2 -1,-2 0,-1 -2,0 -2,-1 0,0 1,0 2,0l0 0z"/>
  <path class="fil1" d="M116 40c0,1 0,3 0,3 0,2 1,2 3,2 1,0 2,-1 2,-2 0,0 0,-3 0,-3l-2 0c0,2 1,4 -1,4 0,0 0,-1 0,-1l0 -3 -2 0z"/>
  <path class="fil1" d="M100 41l3 0 -1 -1 -4 0c0,0 0,4 0,5l5 0 0 -1 -3 0 0 -1 2 0 0 -1 -2 0 0 -1z"/>
  <path class="fil1" d="M141 41l2 0 0 -1 -4 0c0,0 0,4 0,5l4 0 0 -1 -2 0 0 -1 2 0 0 -1 -2 0 0 -1z"/>
  <path class="fil1" d="M113 41c0,0 2,0 2,0l0 -1 -4 0 0 5 4 0 0 -1 -2 0 0 -1 2 0 0 -1 -2 0 0 -1z"/>
  <path class="fil3" d="M38 41c0,0 2,0 2,0l0 -1 -4 0 0 5 5 0 0 -1 -3 0 0 -1 2 0 0 -1 -2 0 0 -1z"/>
  <path class="fil1" d="M135 41c1,0 2,0 2,0 0,1 -1,1 -2,1l0 -1zm0 2c1,0 2,0 3,0 1,-1 1,-3 -1,-3 -1,0 -2,0 -3,0l0 5 1 0 0 -2z"/>
  <path class="fil1" d="M51 40l-1 0c-1,0 -1,1 -1,1 0,1 0,2 0,2 -1,-1 -1,-2 -1,-3l-2 0 2 5 2 0 1 -5z"/>
  <path class="fil1" d="M51 40c0,0 1,0 1,0l1 2c0,1 0,1 0,1 0,1 0,1 0,2l2 0c0,-2 0,-2 1,-3 0,0 1,-2 1,-2 -2,0 -1,-1 -3,1 0,0 0,0 0,-1 -1,-1 0,0 -3,0z"/>
  <polygon class="fil1" points="85,41 87,41 87,45 88,45 88,41 90,41 89,40 85,40 85,41 "/>
  <polygon class="fil1" points="60,45 62,45 62,40 60,40 "/>
  <polygon class="fil3" points="96,45 97,45 97,40 96,40 "/>
  <path class="fil1" d="M128 23c0,0 2,7 2,7l-5 0 3 -7zm-10 14l5 0 1 -4 7 0c0,0 0,1 0,2 0,0 1,2 1,2l5 0c0,-1 -3,-8 -3,-9l-3 -6c0,-1 0,-2 -1,-3l-5 0 -7 18z"/>
 </g>
</svg>
