<?xml version="1.0" encoding="utf-8"?>
<!DOCTYPE svg PUBLIC "-//W3C//DTD SVG 1.1//EN" "http://www.w3.org/Graphics/SVG/1.1/DTD/svg11.dtd">
<svg xmlns="http://www.w3.org/2000/svg" xmlns:xlink="http://www.w3.org/1999/xlink" version="1.1" baseProfile="full" width="186.667" height="30.6667" viewBox="0 0 186.67 30.67" enable-background="new 0 0 186.67 30.67" xml:space="preserve">
	<path fill="#EC1C24" fill-opacity="1" fill-rule="evenodd" stroke-linejoin="round" d="M 9.35795,28.9924C 9.35795,30.046 8.85364,30.6041 7.7275,30.6041L 1.64341,30.6013C 0.546875,30.6013 0,30.075 0,29.0059L 0,1.73067C 0,0.661617 0.52004,0.126184 1.64341,0.126184L 7.71454,0.126184C 8.81292,0.126184 9.35795,0.6353 9.35795,1.73067L 9.35795,28.9924 Z "/>
	<path fill="#EC1C24" fill-opacity="1" fill-rule="evenodd" stroke-linejoin="round" d="M 17.8923,28.9924L 17.8905,25.3605C 17.8905,24.2697 18.429,23.756 19.5358,23.756C 19.5358,23.756 45.25,23.756 45.9634,23.756C 46.4428,23.756 46.6787,23.5863 46.7861,23.2705C 46.8832,22.9855 46.8073,22.5199 46.1956,22.3266C 45.5812,22.1297 24.8065,15.6591 23.9219,15.3679C 19.5885,13.9349 17.9571,11.2269 17.9571,7.91355C 17.9571,3.72175 20.8312,0.126184 27.5085,0.126184C 34.356,0.126184 51.6126,0.126184 51.6126,0.126184C 52.7471,0.126184 53.2412,0.661617 53.2412,1.73339L 53.2393,5.48142C 53.2393,6.58768 52.7193,7.08136 51.6293,7.08136C 51.6293,7.08136 28.4023,7.07047 27.8212,7.07047C 27.2956,7.07047 27.0375,7.20387 26.9569,7.4961C 26.8718,7.79739 26.8903,8.22211 27.5233,8.41359C 28.3218,8.65227 45.7201,14.0529 48.9245,15.0711C 53.8639,16.6393 55.7183,18.8863 55.7183,23.1035C 55.7183,28.1402 52.1807,30.5197 46.1096,30.6013C 43.8203,30.6322 19.5478,30.605 19.5478,30.605C 18.3892,30.605 17.8923,30.1694 17.8923,28.9924 Z "/>
	<path fill="#EC1C24" fill-opacity="1" fill-rule="evenodd" stroke-linejoin="round" d="M 70.7902,0.126184C 71.885,0.126184 72.4244,0.620781 72.4244,1.71796C 72.4244,1.71796 72.4253,16.1401 72.4253,19.0061C 72.4253,21.873 73.1387,23.5645 77.1381,23.6925C 78.0634,23.7242 79.4939,23.7388 80.7256,23.7388C 81.9563,23.7388 83.6635,23.7242 84.5889,23.6925C 88.5882,23.5645 89.0259,21.873 89.0268,19.0061C 89.0268,16.1401 89.0286,1.71796 89.0286,1.71796C 89.0286,0.6353 89.5052,0.121647 90.6665,0.121647L 96.8336,0.126184C 97.963,0.126184 98.4567,0.648005 98.4567,1.73067C 98.4567,1.73067 98.4567,16.9896 98.4567,20.4599C 98.4567,25.4885 97.6039,30.4126 87.8358,30.575C 84.4778,30.6304 80.7256,30.6667 80.7256,30.6667C 80.7256,30.6667 76.7336,30.6131 73.3747,30.575C 64.1584,30.4661 63.0497,25.2706 63.0497,20.4599C 63.0497,16.9896 63.0452,1.71796 63.0452,1.71796C 63.0452,0.648005 63.5365,0.126184 64.6617,0.126184L 70.7902,0.126184 Z "/>
	<path fill="#EC1C24" fill-opacity="1" fill-rule="evenodd" stroke-linejoin="round" d="M 158.77,0.126184C 159.863,0.126184 160.402,0.620781 160.402,1.71796C 160.402,1.71796 160.403,16.1401 160.403,19.0061C 160.403,21.873 161.116,23.5645 165.116,23.6925C 166.04,23.7242 167.471,23.7388 168.703,23.7388C 169.935,23.7388 171.642,23.7242 172.567,23.6925C 176.566,23.5645 177.004,21.873 177.004,19.0061C 177.004,16.1401 177.007,1.71796 177.007,1.71796C 177.007,0.6353 177.484,0.121647 178.644,0.121647L 184.812,0.126184C 185.942,0.126184 186.435,0.648005 186.435,1.73067C 186.435,1.73067 186.435,16.9896 186.435,20.4599C 186.435,25.4885 185.583,30.4126 175.813,30.575C 172.455,30.6304 168.703,30.6667 168.703,30.6667C 168.703,30.6667 164.711,30.6131 161.353,30.575C 152.136,30.4661 151.028,25.2706 151.028,20.4599C 151.028,16.9896 151.023,1.71796 151.023,1.71796C 151.023,0.648005 151.514,0.126184 152.641,0.126184L 158.77,0.126184 Z "/>
	<path fill="#EC1C24" fill-opacity="1" fill-rule="evenodd" stroke-linejoin="round" d="M 143.604,28.9914C 143.604,30.1694 143.108,30.605 141.95,30.605C 141.95,30.605 117.677,30.6322 115.387,30.6013C 109.316,30.5197 105.778,28.1402 105.778,23.1035C 105.778,18.8863 107.633,16.6393 112.572,15.0711C 115.777,14.0529 133.176,8.65227 133.973,8.41359C 134.607,8.22211 134.625,7.79739 134.539,7.4961C 134.459,7.20387 134.202,7.07047 133.676,7.07047C 133.094,7.07047 109.868,7.08136 109.868,7.08136C 108.777,7.08136 108.258,6.58768 108.258,5.48142L 108.255,1.73339C 108.255,0.661617 108.75,0.126184 109.884,0.126184C 109.884,0.126184 127.141,0.126184 133.988,0.126184C 140.666,0.126184 143.54,3.72175 143.54,7.91355C 143.54,11.2269 141.908,13.9349 137.574,15.3679C 136.691,15.6591 115.915,22.1297 115.302,22.3266C 114.69,22.5199 114.613,22.9855 114.711,23.2705C 114.819,23.5863 115.055,23.756 115.533,23.756C 116.247,23.756 141.961,23.756 141.961,23.756C 143.066,23.756 143.607,24.2697 143.607,25.3605L 143.604,28.9914 Z "/>
</svg>
