<?xml version="1.0" encoding="UTF-8"?>
<!DOCTYPE svg PUBLIC "-//W3C//DTD SVG 1.1//EN" "http://www.w3.org/Graphics/SVG/1.1/DTD/svg11.dtd">
<!-- Creator: CorelDRAW X8 -->
<svg xmlns="http://www.w3.org/2000/svg" xml:space="preserve" width="150px" height="50px" version="1.1" style="shape-rendering:geometricPrecision; text-rendering:geometricPrecision; image-rendering:optimizeQuality; fill-rule:evenodd; clip-rule:evenodd"
viewBox="0 0 150 50"
 xmlns:xlink="http://www.w3.org/1999/xlink">
 <defs>
  <style type="text/css">
   <![CDATA[
    .str0 {stroke:#34302F;stroke-width:0.0151181}
    .fil6 {fill:none;fill-rule:nonzero}
    .fil4 {fill:#34302F}
    .fil3 {fill:#FEFEFE;fill-rule:nonzero}
    .fil1 {fill:#34302F;fill-rule:nonzero}
    .fil5 {fill:#34302F;fill-rule:nonzero}
    .fil2 {fill:#31418C;fill-rule:nonzero}
    .fil0 {fill:#FBB135;fill-rule:nonzero}
   ]]>
  </style>
 </defs>
 <g id="Слой_x0020_1">
  <metadata id="CorelCorpID_0Corel-Layer"/>
  <polygon class="fil0" points="18,45 134,45 134,0 18,0 "/>
  <path class="fil1" d="M127 38c0,1 -1,1 -1,1l-101 0c0,0 -1,0 -1,-1l0 -30c0,-1 1,-2 1,-2l101 0c0,0 1,1 1,2l0 30z"/>
  <path class="fil2" d="M116 27c0,0 0,0 0,0 0,0 0,0 0,0 0,0 0,0 0,0z"/>
  <path class="fil3" d="M50 34c-2,1 -4,2 -8,2l-5 0c-7,0 -10,-2 -10,-8l0 -4 7 0c0,1 0,1 0,1 0,3 1,4 4,4l3 0c3,0 4,-1 4,-3l0 -16 7 0 0 18c0,2 -1,4 -2,6z"/>
  <path class="fil3" d="M80 19c0,-2 -1,-3 -4,-3l-6 0c-5,0 -6,0 -6,5l0 3c0,5 2,5 6,5l5 0c4,0 5,0 5,-3l0 -1 8 0c0,1 0,2 0,2 0,4 -1,6 -2,7 -2,2 -5,2 -9,2l-9 0c-4,0 -6,0 -9,-2 -2,-2 -2,-4 -2,-8l0 -7c0,-8 3,-10 11,-10l9 0c4,0 7,0 9,2 1,1 2,3 2,6 0,1 0,1 0,2l-8 0 0 0z"/>
  <path class="fil3" d="M116 27c0,-1 -1,-2 -2,-2l-14 0 0 5 14 0c2,0 2,-1 2,-3zm-1 -9c0,-2 0,-3 -1,-3l-14 0 0 5 14 0c1,0 1,-1 1,-2zm-22 17l0 -25 22 0c5,0 8,2 8,7 0,3 -1,4 -3,5 3,1 4,3 4,6 0,5 -2,7 -8,7l-23 0z"/>
  <polygon class="fil0" points="27,20 38,20 38,9 27,9 "/>
  <path class="fil4" d="M34 13c0,0 1,0 1,0 0,0 0,0 0,0 0,0 0,1 0,1 0,0 0,0 0,0 0,0 1,0 1,1 0,0 0,0 0,0 0,0 0,1 0,1 -1,0 -1,0 -1,0l-1 -3zm0 0c0,0 1,0 1,0 0,0 0,0 0,1 0,0 0,0 0,0 0,0 0,0 0,0 0,0 0,0 0,0l-1 -1zm1 2c0,0 0,0 0,0 0,0 0,0 0,0 0,0 0,0 0,0 0,0 0,0 0,0 0,0 0,0 0,0l0 0z"/>
  <path class="fil5" d="M30 12l1 0 1 1 -1 0c0,0 1,3 1,3 0,0 0,1 0,1 0,0 -1,0 -1,0 0,0 0,0 0,0l-1 -2 1 0c0,0 0,1 0,1 0,0 0,0 0,0 0,0 0,0 0,0 0,0 0,-3 0,-3l-1 0 0 -1z"/>
  <path class="fil6 str0" d="M30 12l1 0 1 1 -1 0c0,0 1,3 1,3 0,0 0,1 0,1 0,0 -1,0 -1,0 0,0 0,0 0,0l-1 -2 1 0c0,0 0,1 0,1 0,0 0,0 0,0 0,0 0,0 0,0 0,0 0,-3 0,-3l-1 0 0 -1z"/>
  <path class="fil5" d="M32 12c0,0 1,1 1,1 0,0 0,0 0,0 0,0 1,1 1,1l-1 0c0,0 0,0 0,0 0,-1 0,-1 0,-1 0,0 0,0 0,0 0,1 0,2 0,2 0,1 0,1 0,1 1,0 1,0 1,-1 0,0 -1,0 -1,0l1 0c0,0 0,1 0,1 0,0 0,0 0,0 0,0 0,0 0,0 0,0 -1,1 -1,1 0,0 0,0 0,-1 0,0 -1,-3 -1,-3 0,0 0,-1 0,-1z"/>
  <path class="fil6 str0" d="M32 12c0,0 1,1 1,1 0,0 0,0 0,0 0,0 1,1 1,1l-1 0c0,0 0,0 0,0 0,-1 0,-1 0,-1 0,0 0,0 0,0 0,1 0,2 0,2 0,1 0,1 0,1 1,0 1,0 1,-1 0,0 -1,0 -1,0l1 0c0,0 0,1 0,1 0,0 0,0 0,0 0,0 0,0 0,0 0,0 -1,1 -1,1 0,0 0,0 0,-1 0,0 -1,-3 -1,-3 0,0 0,-1 0,-1z"/>
  <path class="fil4" d="M29 11c0,0 6,1 6,1 0,0 0,0 1,1 0,0 0,2 0,2 1,1 0,1 0,1 0,0 -5,2 -5,2 0,0 -1,0 -1,-1 0,0 -1,-4 -1,-5 0,0 0,0 0,0 0,-1 0,-1 0,-1zm0 1c1,0 5,0 6,1 0,0 0,0 0,0 0,0 1,2 1,2 0,0 0,1 0,1 0,0 -5,2 -5,2 0,0 0,0 -1,-1 0,0 -1,-4 -1,-5 0,0 0,0 0,0 0,0 0,0 0,0 0,0 0,0 0,0z"/>
 </g>
</svg>
