<?xml version="1.0" encoding="UTF-8"?>
<!DOCTYPE svg PUBLIC "-//W3C//DTD SVG 1.1//EN" "http://www.w3.org/Graphics/SVG/1.1/DTD/svg11.dtd">
<!-- Creator: CorelDRAW X8 -->
<svg xmlns="http://www.w3.org/2000/svg" xml:space="preserve" width="150px" height="50px" version="1.1" style="shape-rendering:geometricPrecision; text-rendering:geometricPrecision; image-rendering:optimizeQuality; fill-rule:evenodd; clip-rule:evenodd"
viewBox="0 0 150 50"
 xmlns:xlink="http://www.w3.org/1999/xlink">
 <defs>
  <style type="text/css">
   <![CDATA[
    .fil0 {fill:#2B2A29}
   ]]>
  </style>
 </defs>
 <g id="Слой_x0020_1">
  <metadata id="CorelCorpID_0Corel-Layer"/>
  <path class="fil0" d="M15 25l4 0 0 0c6,0 16,3 11,7l19 0 0 0c0,-2 -3,-6 -11,-8 8,-1 11,-5 11,-7l-19 0 0 0c5,4 -7,7 -11,7l-4 0 0 -7 -15 0 0 15 15 0 0 -7z"/>
  <path class="fil0" d="M115 30c1,0 2,0 2,-1 0,-2 -7,0 -7,-4 0,-3 2,-4 5,-4 2,0 5,0 5,3l-4 0 0 0c0,0 0,0 0,0 0,-1 -1,-1 -1,-1 -1,0 -1,1 -1,1 0,2 7,0 7,5 0,2 -2,4 -6,4 -3,0 -5,-1 -5,-4l3 0 0 0c0,0 1,1 2,1l0 0z"/>
  <polygon class="fil0" points="146,32 146,22 150,22 150,32 146,32 "/>
  <polygon class="fil0" points="146,17 150,17 150,20 146,20 "/>
  <polygon class="fil0" points="89,27 91,32 95,32 99,21 94,21 93,27 93,27 91,21 87,21 86,27 85,27 84,21 79,21 83,32 87,32 89,27 "/>
  <polygon class="fil0" points="54,17 54,32 58,32 58,28 60,26 64,32 69,32 63,23 68,17 63,17 58,22 58,17 54,17 "/>
  <polygon class="fil0" points="138,29 138,33 133,33 133,17 138,17 138,25 140,22 145,22 141,26 146,33 141,33 138,29 138,29 "/>
  <path class="fil0" d="M80 31l0 -5c0,-3 -1,-5 -5,-5 -4,0 -6,2 -6,4l4 0 0 0c0,-1 1,-1 2,-1 0,0 1,0 1,0 0,3 -8,1 -8,5 0,3 2,4 4,4 2,0 3,-1 4,-1l0 0 0 0 4 0 0 0c0,0 0,-1 0,-1l0 0zm-6 -1c-1,0 -2,0 -2,-1l0 0c0,-1 2,-1 4,-2 0,2 -1,3 -2,3l0 0z"/>
  <path class="fil0" d="M133 31l0 -5c0,-3 -1,-5 -6,-5 -4,0 -5,2 -5,4l3 0 0 0c1,-1 2,-1 2,-1 1,0 2,0 2,0 0,3 -8,1 -8,5 0,3 2,4 4,4 2,0 3,-1 4,-1l0 0 0 0 4 0 0 0c0,0 0,-1 0,-1l0 0zm-6 -1c-1,0 -2,0 -2,-1l0 0c0,-1 2,-1 4,-2 0,2 -1,3 -2,3l0 0z"/>
  <path class="fil0" d="M109 31l0 -5c0,-3 -1,-5 -5,-5 -4,0 -6,2 -6,4l4 0 0 0c0,-1 1,-1 2,-1 0,0 1,0 1,0 0,3 -7,1 -7,5 0,3 1,4 3,4 2,0 3,-1 4,-1l0 0 1 0 3 0 0 0c0,0 0,-1 0,-1l0 0zm-6 -1c-1,0 -1,0 -1,-1l0 0c0,-1 1,-1 3,-2 0,2 0,3 -2,3l0 0z"/>
 </g>
</svg>
