<?xml version="1.0" encoding="UTF-8"?>
<!DOCTYPE svg PUBLIC "-//W3C//DTD SVG 1.1//EN" "http://www.w3.org/Graphics/SVG/1.1/DTD/svg11.dtd">
<!-- Creator: CorelDRAW X8 -->
<svg xmlns="http://www.w3.org/2000/svg" xml:space="preserve" width="150px" height="50px" version="1.1" style="shape-rendering:geometricPrecision; text-rendering:geometricPrecision; image-rendering:optimizeQuality; fill-rule:evenodd; clip-rule:evenodd"
viewBox="0 0 150 50"
 xmlns:xlink="http://www.w3.org/1999/xlink">
 <defs>
  <style type="text/css">
   <![CDATA[
    .fil0 {fill:#0E1371}
    .fil2 {fill:#7F80B2}
    .fil1 {fill:#FDFDFD}
   ]]>
  </style>
 </defs>
 <g id="Слой_x0020_1">
  <metadata id="CorelCorpID_0Corel-Layer"/>
  <g id="_1251169077488">
   <path class="fil0" d="M83 36l3 9 8 0 -7 -19 -7 0 -7 18 -2 -18 -7 0 -3 7 -2 -7 -7 0 -3 19 7 0 1 -7c0,1 1,2 1,3 0,1 1,3 1,4l5 0 1 -7c1,0 1,3 1,3 0,1 0,3 1,4l14 0 2 -9z"/>
   <path class="fil0" d="M29 45c0,-1 -2,-4 -2,-5 0,-1 -1,-1 -1,-2 -2,-3 -2,-2 -1,-4l3 -6c0,0 1,-1 1,-2l-9 0 -4 9 0 -9 -8 0 0 19 8 0 0 -10c0,1 2,4 2,5 1,2 2,3 2,5l9 0z"/>
   <path class="fil0" d="M35 36c0,-4 5,-5 6,-1 1,4 -5,5 -6,1zm2 -11c-5,1 -9,5 -9,11 1,6 5,10 11,10 5,-1 10,-6 9,-11 0,-6 -5,-10 -11,-10z"/>
   <path class="fil0" d="M144 26l-8 0c0,1 0,9 0,10 0,1 1,3 -1,3 -1,0 -1,-1 -1,-3 0,-3 0,-7 0,-10l-7 0c-1,1 0,6 0,7 0,2 -1,5 0,7 1,4 4,6 8,6 5,0 8,-2 9,-6 0,-2 0,-5 0,-7 0,-2 0,-5 0,-7z"/>
   <path class="fil0" d="M111 27c0,0 0,0 0,1 0,0 0,0 0,0 0,0 -1,1 -1,2 -1,1 -1,2 0,3 1,4 4,4 6,5 2,1 1,4 -5,1 0,-1 0,-1 -1,-1 0,1 -1,2 -1,3 0,0 -1,1 -1,2 1,1 3,2 4,2 2,0 4,1 6,0 6,0 8,-6 5,-10 0,-1 -2,-1 -3,-2 -1,0 -2,0 -3,-1 0,0 0,-1 1,-1 1,0 3,0 3,1 1,0 1,0 1,0l3 -5c-3,-1 -7,-2 -11,-1 -1,0 -2,1 -3,1z"/>
   <path class="fil0" d="M104 26l-12 0 0 7 4 0c0,1 0,10 0,12l8 0c0,-1 0,-8 0,-9 0,-2 0,-7 0,-8 0,-1 6,-1 7,-1l0 -7 -7 0 0 5c0,1 0,1 0,1z"/>
   <path class="fil1" d="M150 29l0 0c0,0 0,0 0,0 0,1 1,1 1,2l-1 -1c0,-1 0,-1 -1,-1l0 2 -1 0 0 -4c1,0 3,0 3,1 -1,0 -1,1 -1,1zm-1 -3c-3,1 -2,6 1,5 3,0 2,-5 -1,-5z"/>
   <path class="fil2" d="M104 26c0,0 0,0 0,-1l0 -5 7 0 0 7c-1,0 -7,0 -7,1 0,1 0,6 0,8 0,1 0,8 0,9 0,0 0,0 0,0 0,0 0,-1 0,-1l0 -8c0,-3 0,-6 0,-8l7 0c0,0 0,0 0,0 0,0 0,0 0,0 0,-1 0,-1 0,-1 0,0 0,0 0,0l0 -1c0,-2 0,-5 0,-6 0,0 -7,0 -7,0l0 6z"/>
   <path class="fil1" d="M149 29c1,0 1,-1 1,-1 0,-1 -1,-1 -1,-1l0 2 0 0z"/>
  </g>
 </g>
</svg>
