<?xml version="1.0" encoding="utf-8"?>
<!DOCTYPE svg PUBLIC "-//W3C//DTD SVG 1.1//EN" "http://www.w3.org/Graphics/SVG/1.1/DTD/svg11.dtd">
<svg xmlns="http://www.w3.org/2000/svg" xmlns:xlink="http://www.w3.org/1999/xlink" version="1.1" baseProfile="full" width="180" height="65" viewBox="0 0 180.00 65.00" enable-background="new 0 0 180.00 65.00" xml:space="preserve">
	<path fill="#22B499" fill-opacity="1" fill-rule="evenodd" stroke-linejoin="round" d="M 9.15482,14.0938L 2.50002,14.0938L 2.50002,40.7732L 9.15482,40.7732M 174.12,50.5067C 175.134,50.5067 176.015,49.6221 176.015,48.5604C 176.015,47.4983 175.134,46.6135 174.12,46.6135C 174.076,46.6135 174.076,46.6135 174.032,46.6135C 171.476,46.6135 171.52,50.5067 174.032,50.5067C 174.076,50.5067 174.076,50.5067 174.12,50.5067 Z M 174.12,46.0823C 175.442,46.1266 176.5,47.1886 176.5,48.5604C 176.5,49.8876 175.442,50.9936 174.12,51.0378C 174.076,51.0378 174.076,51.0378 174.032,51.0378C 172.71,51.0378 171.608,49.8876 171.608,48.5604C 171.608,47.1886 172.71,46.0823 174.032,46.0823C 174.076,46.0823 174.076,46.0823 174.12,46.0823 Z M 174.12,49.2236L 174.384,49.8434L 175.266,49.8434L 174.693,48.6488C 175.046,48.5604 175.222,48.2945 175.222,47.9408C 175.222,47.3212 174.605,47.1886 174.12,47.1446L 174.076,47.1446L 172.974,47.1446L 172.974,49.8434L 173.811,49.8434L 173.811,48.8256L 173.9,48.8256M 174.12,47.6752C 174.252,47.7197 174.384,47.8081 174.384,47.985C 174.384,48.2061 174.252,48.2945 174.12,48.2945C 174.076,48.2945 174.032,48.3387 173.988,48.3387L 173.811,48.3387L 173.811,47.6752L 173.944,47.6752C 173.988,47.6752 174.032,47.6752 174.12,47.6752 Z M 108.76,24.8008C 115.988,24.8008 121.894,30.7299 121.894,37.9417C 121.894,45.1975 115.988,51.0823 108.76,51.0823C 108.187,51.0823 107.658,51.0823 107.129,50.9936L 107.129,44.2242C 107.658,44.3571 108.187,44.4455 108.76,44.4455C 112.33,44.4455 115.239,41.5254 115.239,37.9417C 115.239,34.3577 112.33,31.4818 108.76,31.4818C 105.19,31.4818 102.281,34.3577 102.281,37.9417C 102.281,38.6936 102.413,39.4459 102.678,40.1096L 95.8023,40.1096C 95.7142,39.4016 95.6262,38.6936 95.6262,37.9417C 95.6262,30.7299 101.532,24.8008 108.76,24.8008 Z M 35.5107,51.1704L 27.0486,51.1704L 11.1822,32.9865L 27.6658,14.0938L 36.1719,14.0938L 19.6442,32.9865M 40.2267,25.1548C 40.2267,29.4759 40.2267,33.7972 40.2267,38.1186C 40.2267,38.8263 40.3588,39.4901 40.579,40.1096L 34.8491,40.1096L 33.7475,40.1096C 33.6154,39.4901 33.5713,38.7821 33.5713,38.1186L 33.5713,37.9417L 33.5713,25.1548M 155.389,24.8008C 162.617,24.8008 168.523,30.7299 168.523,37.9417C 168.523,37.9859 168.523,38.0743 168.523,38.1186L 168.523,51.0823L 161.868,51.0823L 161.868,49.4007C 159.928,50.4624 157.725,51.0823 155.389,51.0823C 154.86,51.0823 154.287,51.0823 153.759,50.9936L 153.759,44.2242C 154.287,44.3571 154.816,44.4455 155.389,44.4455C 158.783,44.4455 161.603,41.7907 161.868,38.4723L 161.868,38.1186C 161.868,38.0743 161.868,37.9859 161.868,37.9417C 161.868,34.3577 158.959,31.4818 155.389,31.4818C 151.819,31.4818 148.91,34.3577 148.91,37.9417C 148.91,38.6936 149.087,39.4459 149.307,40.1096L 142.476,40.1096C 142.344,39.4016 142.299,38.6936 142.299,37.9417C 142.299,30.7299 148.161,24.8008 155.389,24.8008 Z M 133.661,14.0938L 126.962,14.0938L 126.962,51.1262L 133.661,51.1262L 133.661,31.0836L 140.492,31.0836L 140.492,24.4029L 133.661,24.4029M 72.0914,14.0938L 65.436,14.0938L 65.436,37.9417L 65.436,38.1186C 65.436,38.7821 65.5241,39.4901 65.6124,40.1096L 72.488,40.1096C 72.2235,39.4901 72.0914,38.8263 72.0914,38.1186L 72.0914,37.4106C 72.3556,34.0922 75.1764,31.4818 78.57,31.4818C 82.1398,31.4818 85.0046,34.3577 85.0046,37.9417C 85.0046,41.5254 82.1398,44.4455 78.57,44.4455C 77.9972,44.4455 77.424,44.3571 76.9395,44.2242L 76.9395,50.9936C 77.4681,51.0823 77.9972,51.0823 78.57,51.0823C 85.7979,51.0823 91.6157,45.1975 91.6157,37.9417C 91.6157,30.7299 85.7979,24.8008 78.57,24.8008C 76.2343,24.8008 74.0304,25.4204 72.0914,26.5266M 53.1399,25.1548L 59.7947,25.1548L 59.7947,37.9417L 59.7947,38.1186C 59.6626,44.18 53.8449,51.0823 46.6613,51.0823C 46.1322,51.0823 45.5594,51.0823 45.0303,50.9936L 45.0303,44.2242C 45.5594,44.3571 46.0882,44.4455 46.6613,44.4455C 50.143,44.4455 52.9638,40.1539 53.1399,38.1186C 53.1399,33.7827 53.1399,29.491 53.1399,25.1548 Z "/>
</svg>
