<?xml version="1.0" encoding="UTF-8"?>
<!DOCTYPE svg PUBLIC "-//W3C//DTD SVG 1.1//EN" "http://www.w3.org/Graphics/SVG/1.1/DTD/svg11.dtd">
<!-- Creator: CorelDRAW X8 -->
<svg xmlns="http://www.w3.org/2000/svg" xml:space="preserve" width="150px" height="50px" version="1.1" style="shape-rendering:geometricPrecision; text-rendering:geometricPrecision; image-rendering:optimizeQuality; fill-rule:evenodd; clip-rule:evenodd"
viewBox="0 0 150 50"
 xmlns:xlink="http://www.w3.org/1999/xlink">
 <defs>
  <style type="text/css">
   <![CDATA[
    .fil0 {fill:#E33044;fill-rule:nonzero}
   ]]>
  </style>
 </defs>
 <g id="Слой_x0020_1">
  <metadata id="CorelCorpID_0Corel-Layer"/>
  <path class="fil0" d="M94 8c-2,0 -5,1 -7,3 -11,10 -11,10 -11,10 -2,1 -5,2 -7,2 -4,0 -4,0 -4,0 10,-8 10,-8 10,-8 -3,-4 -3,-4 -3,-4 -1,-2 -3,-3 -5,-3 -26,0 -26,0 -26,0 -2,0 -5,1 -7,3 -13,11 -13,11 -13,11 -2,2 -4,3 -7,3 -4,0 -4,0 -4,0 20,-17 20,-17 20,-17 -21,0 -21,0 -21,0 -9,33 -9,33 -9,33 16,0 16,0 16,0 4,-14 4,-14 4,-14 8,12 8,12 8,12 1,2 3,2 5,2 14,0 14,0 14,0 -10,-16 -10,-16 -10,-16 16,-14 16,-14 16,-14 13,20 13,20 13,20 -3,10 -3,10 -3,10 16,0 16,0 16,0 3,-10 3,-10 3,-10 26,-21 26,-21 26,-21 -9,31 -9,31 -9,31 4,0 4,0 4,0 3,0 5,-1 7,-2 13,-11 13,-11 13,-11 2,-2 4,-3 7,-3 2,0 4,0 4,0 -20,16 -20,16 -20,16 16,0 16,0 16,0 8,0 14,-3 16,-8 1,-5 -3,-8 -8,-8 0,0 0,0 0,0 5,-1 10,-4 12,-9 1,-4 -2,-8 -7,-8 -3,0 -5,1 -7,3 -12,10 -12,10 -12,10 -1,1 -4,2 -7,2 -4,0 -4,0 -4,0 18,-15 18,-15 18,-15 -37,0 -37,0 -37,0l0 0z"/>
 </g>
</svg>
