<?xml version="1.0" encoding="UTF-8"?>
<!DOCTYPE svg PUBLIC "-//W3C//DTD SVG 1.1//EN" "http://www.w3.org/Graphics/SVG/1.1/DTD/svg11.dtd">
<!-- Creator: CorelDRAW X8 -->
<svg xmlns="http://www.w3.org/2000/svg" xml:space="preserve" width="150px" height="50px" version="1.1" style="shape-rendering:geometricPrecision; text-rendering:geometricPrecision; image-rendering:optimizeQuality; fill-rule:evenodd; clip-rule:evenodd"
viewBox="0 0 150 50"
 xmlns:xlink="http://www.w3.org/1999/xlink">
 <defs>
  <style type="text/css">
   <![CDATA[
    .fil0 {fill:#2B2A29}
   ]]>
  </style>
 </defs>
 <g id="Слой_x0020_1">
  <metadata id="CorelCorpID_0Corel-Layer"/>
  <path class="fil0" d="M127 14l15 0c5,0 6,4 6,6 0,5 -4,6 -4,6l6 9 -11 0 -3 -6 0 6 -20 0 -2 -6 0 6 -10 0 0 -21 15 0c5,0 7,4 7,6 0,5 -4,6 -4,6l5 8 0 -20zm-76 4l0 4 2 0c0,0 1,0 1,-1 0,0 1,-1 0,-2 0,-1 -1,-1 -1,-1l-2 0zm-9 -4c0,0 13,0 16,0 4,0 5,4 5,6 0,3 -2,4 -2,4 0,0 3,1 3,5 0,6 -6,6 -7,6l-15 0 0 -21zm61 21l0 -5 -4 0 0 -4 4 0 0 -4 -4 0 0 -4 4 0 0 -4 -14 0 0 21 14 0zm-25 0l10 0 0 -21 -10 0 0 8 -4 0 0 -8 -10 0 0 21 10 0 0 -9 4 0 0 9zm-37 0l0 -5 -5 0 0 -4 5 0 0 -4 -5 0 0 -4 5 0 0 -4 -15 0 0 21 15 0zm-26 -21l10 0 0 21 -10 0 0 -21zm-1 21l0 -6 -4 0 0 -15 -10 0 0 21 14 0zm100 -17l0 5 1 0c1,0 2,0 2,-1 0,-1 0,-2 0,-3 0,0 -1,-1 -2,-1l-1 0zm22 0l0 5 1 0c2,0 2,0 2,-1 1,-1 1,-2 0,-3 0,0 0,-1 -2,-1l-1 0zm-85 9l0 4 2 0c0,0 1,-1 1,-1 1,-1 1,-2 0,-2 0,-2 -1,-1 -1,-1l-2 0z"/>
 </g>
</svg>
