<?xml version="1.0" encoding="UTF-8"?>
<!DOCTYPE svg PUBLIC "-//W3C//DTD SVG 1.1//EN" "http://www.w3.org/Graphics/SVG/1.1/DTD/svg11.dtd">
<!-- Creator: CorelDRAW X8 -->
<svg xmlns="http://www.w3.org/2000/svg" xml:space="preserve" width="150px" height="50px" version="1.1" style="shape-rendering:geometricPrecision; text-rendering:geometricPrecision; image-rendering:optimizeQuality; fill-rule:evenodd; clip-rule:evenodd"
viewBox="0 0 150 50"
 xmlns:xlink="http://www.w3.org/1999/xlink">
 <defs>
  <style type="text/css">
   <![CDATA[
    .fil0 {fill:#2B2A29}
   ]]>
  </style>
 </defs>
 <g id="Слой_x0020_1">
  <metadata id="CorelCorpID_0Corel-Layer"/>
  <path class="fil0" d="M64 22c0,-3 3,-4 5,-4 3,0 4,1 4,4 0,2 -3,4 -5,4 -3,0 -4,-2 -4,-4zm86 10l0 -1c0,-3 -3,-4 -6,-4 -6,0 -13,4 -15,11 0,0 0,1 0,1 -2,2 -4,3 -5,3 -1,0 -2,-1 -1,-2 4,-7 7,-14 11,-20 -3,0 -6,0 -9,0 -2,3 -3,7 -5,11 -1,-2 -2,-4 -6,-4 -7,0 -12,6 -13,10 0,1 -1,2 -1,2 -2,2 -4,3 -5,3 -1,0 -1,-1 0,-2 1,-2 2,-4 3,-6 1,-3 0,-6 -4,-6 -4,0 -7,2 -11,5 0,-2 1,-3 2,-5 -3,0 -6,0 -9,0 -1,2 -2,4 -3,5 -2,6 -7,9 -9,9 -1,0 -2,-1 -1,-2 2,-4 4,-8 6,-12 -3,0 -6,0 -9,0 -1,2 -2,5 -3,7 -1,2 -5,6 -10,6 -3,0 -7,-1 -11,-2 6,-4 12,-9 18,-16 11,-13 19,-18 31,-18 16,0 22,6 22,11 0,4 -2,5 -4,6 0,1 1,1 1,1 7,0 11,-3 11,-7 -1,-7 -13,-13 -31,-13l-1 0c-16,0 -30,7 -40,17 -5,6 -10,12 -15,16 -4,-1 -9,-2 -13,-2 -9,0 -15,2 -15,6l0 0c0,0 0,0 0,0 0,3 7,6 14,6 5,0 9,-1 14,-3 4,1 9,3 13,3 5,0 10,-3 13,-6 -1,3 0,6 4,6 3,0 8,-2 12,-6 -1,2 -2,4 -3,5 3,0 6,0 9,0 0,0 1,-1 1,-1 2,-4 6,-12 11,-12 1,0 1,1 1,3 -1,1 -2,3 -3,5 -2,3 0,6 3,6 3,0 7,-2 11,-5 1,3 3,5 6,5 3,0 7,-3 9,-4 0,2 0,4 3,4 3,0 7,-2 11,-5 0,3 3,5 8,5 4,0 9,-2 13,-4 0,-1 0,-1 0,-2 -3,2 -6,3 -9,3 -3,0 -4,-2 -3,-5 2,0 11,-1 12,-6 0,0 0,0 0,0zm-5 -3c-3,0 -6,5 -7,8 3,-1 7,-3 8,-6 0,0 0,-1 0,-1 0,-1 -1,-1 -1,-1zm-122 11c-4,-2 -8,-4 -12,-4 -3,0 -4,2 -4,3 0,2 3,4 7,4 3,0 6,-1 9,-3zm93 -10c-3,0 -6,6 -7,8 0,2 0,4 2,4 4,0 7,-7 7,-10 0,-1 0,-2 -2,-2z"/>
 </g>
</svg>
