<?xml version="1.0" encoding="UTF-8"?>
<!DOCTYPE svg PUBLIC "-//W3C//DTD SVG 1.1//EN" "http://www.w3.org/Graphics/SVG/1.1/DTD/svg11.dtd">
<!-- Creator: CorelDRAW X8 -->
<svg xmlns="http://www.w3.org/2000/svg" xml:space="preserve" width="150px" height="50px" version="1.1" style="shape-rendering:geometricPrecision; text-rendering:geometricPrecision; image-rendering:optimizeQuality; fill-rule:evenodd; clip-rule:evenodd"
viewBox="0 0 150 50"
 xmlns:xlink="http://www.w3.org/1999/xlink">
 <defs>
  <style type="text/css">
   <![CDATA[
    .fil1 {fill:none;fill-rule:nonzero}
    .fil3 {fill:#FEFEFE}
    .fil2 {fill:#F18917;fill-rule:nonzero}
    .fil0 {fill:#264796;fill-rule:nonzero}
   ]]>
  </style>
 </defs>
 <g id="Слой_x0020_1">
  <metadata id="CorelCorpID_0Corel-Layer"/>
  <g id="_1251183223632">
   <g>
    <g>
     <polygon class="fil0" points="12,1 138,1 138,45 12,45 "/>
    </g>
    <g>
     <polygon class="fil1" points="12,1 138,1 138,45 12,45 "/>
    </g>
   </g>
   <g>
    <path class="fil2" d="M32 19l6 0c1,0 1,1 1,1l0 7 -7 -8z"/>
    <path class="fil3" d="M58 30l0 -2 -5 0 0 -11 -6 0 0 12c0,0 0,1 2,1l0 0 5 0 4 0zm32 0l0 0 -7 0c-2,0 -5,-2 -5,-4l0 -4c0,-3 3,-5 5,-5l9 0 0 3 -8 0 0 8 3 0 0 -3 -1 0 0 -2 6 0 0 6c0,0 0,1 -1,1l-1 0zm40 0l0 0 -6 0c-2,0 -4,-2 -4,-4l0 -3c0,-2 2,-4 4,-4l8 0 0 3 -8 0 0 6 4 0 0 -2 -2 0 0 -2 6 0 0 5c0,0 0,1 -1,1l-1 0zm-53 -10l0 0 0 6c0,2 -2,4 -4,4l-4 0c-2,0 -3,-2 -3,-4l0 -6 4 0 0 8 2 0 0 -8 5 0zm30 -1l0 0 4 0 3 5 0 -5 5 0 0 11 -4 0 -3 -6 0 6 -5 0 0 -11zm-9 6l0 0c0,-2 1,-3 2,-3 1,0 2,1 2,3 0,2 -1,3 -2,3 -1,0 -2,-1 -2,-3zm-5 0l0 0c0,-3 3,-6 7,-6 3,0 6,3 6,6 0,3 -3,5 -6,5 -4,0 -7,-2 -7,-5zm-34 -5l0 0 5 0 0 10 -5 0 0 -10z"/>
    <path class="fil3" d="M29 27l-2 0c-1,0 -2,-1 -2,-2l0 -9c0,-2 1,-3 3,-3l11 0 0 4 -10 0 0 6 4 0 4 4 -8 0zm10 2l0 0 -13 0c-2,0 -3,-1 -3,-3l0 -13 -5 0 0 13c0,4 4,7 8,7l13 0 0 -4z"/>
   </g>
  </g>
 </g>
</svg>
