<?xml version="1.0" encoding="utf-8"?>
<!DOCTYPE svg PUBLIC "-//W3C//DTD SVG 1.1//EN" "http://www.w3.org/Graphics/SVG/1.1/DTD/svg11.dtd">
<svg xmlns="http://www.w3.org/2000/svg" xmlns:xlink="http://www.w3.org/1999/xlink" version="1.1" baseProfile="full" width="300" height="100" viewBox="0 0 300.00 100.00" enable-background="new 0 0 300.00 100.00" xml:space="preserve">
	<rect x="9.96064" y="55.2665" fill="#000000" fill-opacity="1" stroke-width="0.2" stroke-linejoin="round" width="14.0465" height="9.30736"/>
	<rect x="28.5518" y="64.9971" fill="#000000" fill-opacity="1" stroke-width="0.2" stroke-linejoin="round" width="11.8713" height="1.06369"/>
	<rect x="9.53796" y="64.08" fill="#000000" fill-opacity="1" stroke-width="0.2" stroke-linejoin="round" width="32.5779" height="0.917107"/>
	<path fill="#909190" fill-opacity="1" stroke-width="0.2" stroke-linejoin="round" stroke="#000000" stroke-opacity="1" d="M 88.9081,27.6882L 88.8928,27.8826L 87.9874,39.3772L 86.7214,39.2785L 87.6696,27.9021"/>
	<path fill="#FFFFFF" fill-opacity="1" stroke-width="0.2" stroke-linejoin="round" stroke="#000000" stroke-opacity="1" d="M 69.9857,21.5897L 82.308,17.6695L 82.308,16.8082L 69.7962,21.0282L 69.9857,21.5897 Z "/>
	<path fill="#909190" fill-opacity="1" stroke-width="0.2" stroke-linejoin="round" stroke="#000000" stroke-opacity="1" d="M 80.7348,53.8786L 67.8645,53.8786L 69.0409,58.6513C 69.0409,58.6513 70.3454,61.9519 73.8679,61.8524C 77.3905,61.7528 78.2083,59.5481 78.2083,59.5481L 80.7348,53.8786 Z "/>
	<path fill="none" stroke-width="0.2" stroke-linejoin="round" stroke="#000000" stroke-opacity="1" d="M 67.8645,53.8786L 68.8755,54.443L 69.8456,58.3798C 71.0407,61.0611 74.1076,60.9995 74.1076,60.9995L 74.2865,61.7869"/>
	<path fill="#909190" fill-opacity="1" stroke-width="0.2" stroke-linejoin="round" stroke="#000000" stroke-opacity="1" d="M 80.7348,53.8786C 80.7884,53.7187 81.1951,51.7327 81.1951,51.7327L 68.1063,51.7632L 67.8057,50.9073L 67.0405,49.4191C 67.0405,49.4191 66.6531,49.4482 66.6734,49.5477C 66.6937,49.6471 67.0077,51.1888 67.0077,51.1888L 67.7397,53.4811L 67.9325,53.8786L 80.7348,53.8786 Z "/>
	<path fill="#909190" fill-opacity="1" stroke-width="0.2" stroke-linejoin="round" stroke="#000000" stroke-opacity="1" d="M 70.387,51.7579C 70.387,51.7147 69.6921,49.9864 69.6921,49.9864L 67.3397,49.8703L 67.8058,50.8711L 68.1062,51.7633L 70.387,51.7579 Z "/>
	<path fill="#FAC11C" fill-opacity="1" stroke-width="0.2" stroke-linejoin="round" stroke="#000000" stroke-opacity="1" d="M 85.622,28.378C 85.7417,28.378 89.1154,27.8474 89.1154,27.8474C 89.1154,27.8474 90.099,27.5962 89.6837,26.5992L 83.6421,16.0388C 83.6421,16.0388 83.0658,15.286 82.2711,16.1578C 82.2711,16.2349 80.1901,22.2281 80.1901,22.2281L 85.622,28.378 Z "/>
	<path fill="#FAC11C" fill-opacity="1" stroke-width="0.2" stroke-linejoin="round" stroke="#000000" stroke-opacity="1" d="M 88.0626,23.7547L 84.6797,17.829L 81.27,20.6708C 81.27,20.6708 79.8056,21.7974 79.8056,23.6161C 79.8056,26.3437 79.9552,50.6959 79.9552,50.6959C 79.9552,50.6959 81.6499,51.5172 81.8653,51.3019C 82.0806,51.0865 82.3002,50.1467 82.3002,50.1467L 88.0626,23.7547 Z "/>
	<path fill="#FAC11C" fill-opacity="1" stroke-width="0.2" stroke-linejoin="round" stroke="#000000" stroke-opacity="1" d="M 81.2979,22.7422L 78.0929,22.3523L 75.1995,22.9844L 76.1029,27.1179C 76.1029,27.1179 78.6251,26.698 78.9964,26.4857C 79.3674,26.2733 81.9397,24.9012 81.9397,24.6953C 81.9397,24.4894 81.2979,22.7422 81.2979,22.7422 Z "/>
	<path fill="#FAC11C" fill-opacity="1" stroke-width="0.2" stroke-linejoin="round" stroke="#000000" stroke-opacity="1" d="M 80.6567,23.6817C 80.6567,24.2864 81.147,24.7765 81.7516,24.7765C 82.3563,24.7765 82.8463,24.2864 82.8463,23.6817C 82.8463,23.0772 82.3563,22.5871 81.7516,22.5871C 81.147,22.5871 80.6567,23.0772 80.6567,23.6817 Z "/>
	<path fill="#000000" fill-opacity="1" stroke-width="0.2" stroke-linejoin="round" stroke="#FAC11C" stroke-opacity="1" d="M 80.8363,23.6817C 80.8363,24.1874 81.2461,24.5971 81.7516,24.5971C 82.257,24.5971 82.667,24.1874 82.667,23.6817C 82.667,23.1762 82.257,22.7665 81.7516,22.7665C 81.2461,22.7665 80.8363,23.1762 80.8363,23.6817 Z "/>
	<path fill="#000000" fill-opacity="1" stroke-width="0.2" stroke-linejoin="round" d="M 87.9038,26.6839C 87.9038,27.0124 88.17,27.2787 88.4985,27.2787C 88.8271,27.2787 89.0935,27.0124 89.0935,26.6839C 89.0935,26.3554 88.8271,26.0889 88.4985,26.0889C 88.17,26.0889 87.9038,26.3554 87.9038,26.6839 Z "/>
	<path fill="#000000" fill-opacity="1" stroke-width="0.2" stroke-linejoin="round" d="M 82.4391,16.8154C 82.4391,17.1436 82.7051,17.4094 83.0329,17.4094C 83.3611,17.4094 83.627,17.1436 83.627,16.8154C 83.627,16.4874 83.3611,16.2215 83.0329,16.2215C 82.7051,16.2215 82.4391,16.4874 82.4391,16.8154 Z "/>
	<path fill="#FAC11C" fill-opacity="1" stroke-width="0.2" stroke-linejoin="round" stroke="#000000" stroke-opacity="1" d="M 82.2491,53.8786C 82.2491,53.8786 83.1533,56.2187 83.0302,56.4122C 82.9071,56.6054 82.4401,57.4803 81.5003,56.7281C 80.5606,55.976 80,55.5615 80,55.5615C 80,55.5615 80.7348,53.9605 80.7348,53.8786C 80.7348,53.7965 81.0869,53.0621 80.6924,52.3974L 79.6771,51.2973C 79.6771,51.2973 79.3583,49.824 80.5871,49.4779C 82.1743,49.031 82.493,50.5217 82.3002,51.2127C 82.1076,51.9036 81.7775,51.9866 82.2491,53.8786 Z "/>
	<path fill="#000000" fill-opacity="1" stroke-width="0.2" stroke-linejoin="round" d="M 80.68,50.5841C 80.68,50.7695 80.8303,50.9198 81.0157,50.9198C 81.2011,50.9198 81.3514,50.7695 81.3514,50.5841C 81.3514,50.3987 81.2011,50.2484 81.0157,50.2484C 80.8303,50.2484 80.68,50.3987 80.68,50.5841 Z "/>
	<path fill="#FAC11C" fill-opacity="1" stroke-width="0.2" stroke-linejoin="round" stroke="#000000" stroke-opacity="1" d="M 58.367,26.7507L 57.6682,24.7672C 57.6682,24.7672 57.4847,24.2861 56.826,24.7043C 56.1675,25.1224 49.4473,29.1914 48.7833,30.0708C 48.1193,30.9503 58.367,26.7507 58.367,26.7507 Z "/>
	<path fill="#FAC11C" fill-opacity="1" stroke-width="0.2" stroke-linejoin="round" stroke="#000000" stroke-opacity="1" d="M 76.1029,27.1179L 75.455,27.161L 61.1958,32.4038C 61.1958,32.4038 50.1082,35.5828 46.2862,43.5083L 42.8625,48.861L 37.5965,47.4308C 37.5965,47.4308 41.4986,34.4609 48.3274,30.1128C 55.1561,25.7646 58.8642,26.2319 58.8642,26.2319L 74.6121,23.3816L 75.1994,22.9845L 76.1029,27.1179 Z "/>
	<line fill="none" stroke-width="0.2" stroke-linejoin="round" stroke="#000000" stroke-opacity="1" x1="58.8643" y1="26.2319" x2="61.1958" y2="32.4038"/>
	<path fill="none" stroke-width="0.43" stroke-linejoin="miter" stroke="#000000" stroke-opacity="1" d="M 88.4985,26.6839C 88.4985,26.6839 87.6882,29.0778 86.201,27.5905C 84.7141,26.1034 84.6796,19.7834 78.7497,21.0656C 72.8199,22.3478 73.0425,24.6001 70.6855,25.2581C 68.3283,25.9161 57.7389,28.7399 57.7389,28.7399C 57.7389,28.7399 55.6317,29.6341 54.0838,31.4165C 52.5359,33.199 48.9193,33.3157 48.412,32.8086"/>
	<path fill="#000000" fill-opacity="1" stroke-width="0.43" stroke-linejoin="miter" d="M 56.545,25.6408C 56.545,25.9401 56.7877,26.1826 57.0867,26.1826C 57.3859,26.1826 57.6284,25.9401 57.6284,25.6408C 57.6284,25.3419 57.3859,25.0991 57.0867,25.0991C 56.7877,25.0991 56.545,25.3419 56.545,25.6408 Z "/>
	<path fill="none" stroke-width="0.43" stroke-linejoin="miter" stroke="#000000" stroke-opacity="1" d="M 71.2528,25.4584L 76.7854,23.8844C 76.7854,23.8844 80.3973,23.1993 80.1503,27.0388C 79.903,30.8784 81.6144,32.2146 82.2687,33.3226C 82.9229,34.4305 83.5769,34.8787 82.2433,40.9718"/>
	<path fill="#909190" fill-opacity="1" stroke-width="0.2" stroke-linejoin="miter" stroke="#000000" stroke-opacity="1" d="M 70.7424,26.1736L 71.9264,25.7909L 71.492,24.4474L 70.3082,24.8302L 70.7424,26.1736 Z "/>
	<path fill="#909190" fill-opacity="1" stroke-width="0.2" stroke-linejoin="miter" stroke="#000000" stroke-opacity="1" d="M 70.874,25.8417L 71.6368,25.5952L 71.3681,24.7641L 70.6055,25.0109L 70.874,25.8417 Z "/>
	<path fill="#909190" fill-opacity="1" stroke-width="0.2" stroke-linejoin="miter" stroke="#000000" stroke-opacity="1" d="M 81.7913,41.4053L 83.0319,41.5L 83.1394,40.0924L 81.8988,39.9976L 81.7913,41.4053 Z "/>
	<path fill="#909190" fill-opacity="1" stroke-width="0.2" stroke-linejoin="miter" stroke="#000000" stroke-opacity="1" d="M 82.0387,41.1482L 82.8381,41.2094L 82.9046,40.3385L 82.1053,40.2775L 82.0387,41.1482 Z "/>
	<path fill="#909190" fill-opacity="1" stroke-width="0.2" stroke-linejoin="miter" stroke="#000000" stroke-opacity="1" d="M 88.2005,39.9035C 88.2005,39.9035 88.0907,39.8978 87.9257,39.8887C 87.4282,39.8608 86.4291,39.8006 86.4291,39.7649C 86.4291,39.7173 86.4684,39.2586 86.4684,39.2586L 88.2401,39.3973L 88.2005,39.9035 Z "/>
	<path fill="#909190" fill-opacity="1" stroke-width="0.2" stroke-linejoin="miter" stroke="#000000" stroke-opacity="1" d="M 87.5836,40.1944L 86.9932,40.1484L 86.7002,39.8061L 87.9257,39.8887L 87.5836,40.1944 Z "/>
	<path fill="#FFFFFF" fill-opacity="1" stroke-width="0.2" stroke-linejoin="miter" stroke="#000000" stroke-opacity="1" d="M 82.0926,55.7787L 86.031,50.8255L 86.1993,50.436L 86.9932,40.1484L 87.5836,40.1944L 86.7836,50.552L 86.3886,51.4116L 82.6031,56.1911"/>
	<path fill="#000000" fill-opacity="1" stroke-width="0.2" stroke-linejoin="miter" d="M 81.816,56.0318C 81.816,56.2991 82.0326,56.5156 82.2999,56.5156C 82.5671,56.5156 82.7837,56.2991 82.7837,56.0318C 82.7837,55.7647 82.5671,55.5479 82.2999,55.5479C 82.0326,55.5479 81.816,55.7647 81.816,56.0318 Z "/>
	<path fill="#FFFFFF" fill-opacity="1" stroke-width="0.2" stroke-linejoin="miter" stroke="#000000" stroke-opacity="1" d="M 85.882,50.8729C 85.882,51.1975 86.1453,51.4608 86.4698,51.4608C 86.7947,51.4608 87.0577,51.1975 87.0577,50.8729C 87.0577,50.548 86.7947,50.2851 86.4698,50.2851C 86.1453,50.2851 85.882,50.548 85.882,50.8729 Z "/>
	<path fill="#FFFFFF" fill-opacity="1" stroke-width="0.2" stroke-linejoin="miter" stroke="#000000" stroke-opacity="1" d="M 80.6287,47.6304C 80.6287,47.9552 80.892,48.2182 81.2166,48.2182C 81.5415,48.2182 81.8047,47.9552 81.8047,47.6304C 81.8047,47.3057 81.5415,47.0426 81.2166,47.0426C 80.892,47.0426 80.6287,47.3057 80.6287,47.6304 Z "/>
	<path fill="#FFFFFF" fill-opacity="1" stroke-width="0.2" stroke-linejoin="miter" d="M 86.2024,50.3687L 81.8033,47.6006C 81.8033,47.6006 81.3724,48.2121 81.4521,48.1691C 81.532,48.1264 85.9018,51.022 85.9018,51.022"/>
	<path fill="none" stroke-width="0.2" stroke-linejoin="miter" stroke="#000000" stroke-opacity="1" d="M 86.2024,50.3687L 81.8033,47.6006C 81.8033,47.6006 81.3724,48.2121 81.4521,48.1691C 81.532,48.1264 85.9018,51.022 85.9018,51.022"/>
	<path fill="#000000" fill-opacity="1" stroke-width="0.2" stroke-linejoin="miter" d="M 86.1666,50.8831C 86.1666,51.0666 86.3151,51.2152 86.4985,51.2152C 86.6819,51.2152 86.8306,51.0666 86.8306,50.8831C 86.8306,50.6996 86.6819,50.5511 86.4985,50.5511C 86.3151,50.5511 86.1666,50.6996 86.1666,50.8831 Z "/>
	<path fill="#000000" fill-opacity="1" stroke-width="0.2" stroke-linejoin="miter" d="M 80.8961,47.6258C 80.8961,47.8158 81.0501,47.9699 81.2401,47.9699C 81.43,47.9699 81.5841,47.8158 81.5841,47.6258C 81.5841,47.4359 81.43,47.2818 81.2401,47.2818C 81.0501,47.2818 80.8961,47.4359 80.8961,47.6258 Z "/>
	<path fill="#909190" fill-opacity="1" stroke-width="0.2" stroke-linejoin="miter" stroke="#000000" stroke-opacity="1" d="M 58.1156,25.9431L 68.8115,22.3434L 68.4051,21.1411L 57.6682,24.7671L 58.1156,25.9431 Z "/>
	<path fill="#909190" fill-opacity="1" stroke-width="0.2" stroke-linejoin="miter" stroke="#000000" stroke-opacity="1" d="M 69.8546,22.2593L 69.2863,20.5756L 68.324,20.9007L 68.8924,22.5839L 69.8546,22.2593 Z "/>
	<path fill="#909190" fill-opacity="1" stroke-width="0.2" stroke-linejoin="miter" stroke="#000000" stroke-opacity="1" d="M 69.9857,21.5897L 69.7832,22.048L 69.3712,20.8273L 69.7962,21.0282L 69.9857,21.5897 Z "/>
	<path fill="none" stroke-width="0.43" stroke-linejoin="miter" stroke="#000000" stroke-opacity="1" d="M 68.6325,21.8136C 68.6325,21.8136 65.5065,22.4876 63.8766,23.5203C 62.2467,24.5529 58.0338,23.1319 57.1054,23.4248C 56.1773,23.7177 47.4428,29.8989 45.2476,30.0451C 43.0522,30.191 42.5139,30.8594 39.7202,39.9321C 36.9264,49.005 36.3521,47.5998 36.3521,47.5998"/>
	<path fill="#FAC11C" fill-opacity="1" stroke-width="0.2" stroke-linejoin="miter" stroke="#000000" stroke-opacity="1" d="M 46.7012,32.8228C 46.7012,33.7052 47.4162,34.4206 48.2984,34.4206C 49.1807,34.4206 49.896,33.7052 49.896,32.8228C 49.896,31.9407 49.1807,31.2254 48.2984,31.2254C 47.4162,31.2254 46.7012,31.9407 46.7012,32.8228 Z "/>
	<path fill="#FFFFFF" fill-opacity="1" stroke-width="0.2" stroke-linejoin="miter" stroke="#000000" stroke-opacity="1" d="M 48.7339,33.3675L 46.1929,43.4L 45.2083,43.1503L 47.7494,33.1183L 48.7339,33.3675 Z "/>
	<path fill="#000000" fill-opacity="1" stroke-width="0.2" stroke-linejoin="miter" d="M 47.5473,32.8228C 47.5473,33.2376 47.8838,33.5741 48.2984,33.5741C 48.7133,33.5741 49.0498,33.2376 49.0498,32.8228C 49.0498,32.4081 48.7133,32.0716 48.2984,32.0716C 47.8838,32.0716 47.5473,32.4081 47.5473,32.8228 Z "/>
	<path fill="#909190" fill-opacity="1" stroke-width="0.2" stroke-linejoin="miter" stroke="#000000" stroke-opacity="1" d="M 46.0858,44.8567L 44.6097,44.4829L 42.9087,51.1584L 43.6744,54.5801L 46.0858,44.8567 Z "/>
	<path fill="#909190" fill-opacity="1" stroke-width="0.2" stroke-linejoin="miter" stroke="#000000" stroke-opacity="1" d="M 46.5813,43.9351L 46.332,44.9191C 46.332,44.9191 44.3194,44.5958 44.3636,44.4204C 44.4079,44.2451 44.6121,43.436 44.6121,43.436L 46.5813,43.9351 Z "/>
	<path fill="#909190" fill-opacity="1" stroke-width="0.2" stroke-linejoin="miter" stroke="#000000" stroke-opacity="1" d="M 46.2748,43.4208L 46.2862,43.8604L 44.8588,43.4985L 45.1263,43.1299L 46.2748,43.4208 Z "/>
	<path fill="#000000" fill-opacity="1" stroke-width="0.2" stroke-linejoin="miter" d="M 43.1838,47.1025L 44.3589,57.8047L 44.3589,60.9224L 44.3589,62.8819L 30.8005,62.8819L 30.9446,47.03L 43.1838,47.1025 Z "/>
	<rect x="10.2148" y="54.8426" fill="#909190" fill-opacity="1" stroke-width="0.2" stroke-linejoin="miter" stroke="#000000" stroke-opacity="1" width="13.5386" height="3.26638"/>
	<rect x="10.2148" y="58.109" fill="#909190" fill-opacity="1" stroke-width="0.2" stroke-linejoin="miter" stroke="#000000" stroke-opacity="1" width="13.5386" height="2.62354"/>
	<rect x="10.2148" y="60.7325" fill="#909190" fill-opacity="1" stroke-width="0.2" stroke-linejoin="miter" stroke="#000000" stroke-opacity="1" width="13.5386" height="2.14929"/>
	<rect x="10.2148" y="62.8818" fill="#909190" fill-opacity="1" stroke-width="0.2" stroke-linejoin="miter" stroke="#000000" stroke-opacity="1" width="13.5386" height="1.69202"/>
	<path fill="#909190" fill-opacity="1" stroke-width="0.2" stroke-linejoin="miter" stroke="#000000" stroke-opacity="1" d="M 5.29596,58.109C 5.29596,58.109 5.3489,55.968 5.3489,55.9175C 5.56129,54.9336 6.54858,54.8426 6.54858,54.8426L 9.96064,54.8426L 9.96064,58.109L 5.29596,58.109 Z "/>
	<path fill="#909190" fill-opacity="1" stroke-width="0.2" stroke-linejoin="miter" stroke="#000000" stroke-opacity="1" d="M 9.96067,60.7326L 5.23184,60.7326L 5.296,58.109L 9.96067,58.109L 9.96067,60.7326 Z "/>
	<path fill="#909190" fill-opacity="1" stroke-width="0.2" stroke-linejoin="miter" stroke="#000000" stroke-opacity="1" d="M 9.96067,62.8818L 9.96067,60.7326L 5.23184,60.7326C 5.23184,60.9574 5.17908,62.8818 5.17908,62.8818L 9.96067,62.8818 Z "/>
	<path fill="#909190" fill-opacity="1" stroke-width="0.2" stroke-linejoin="miter" stroke="#000000" stroke-opacity="1" d="M 5.65249,64.5739C 5.68918,64.5811 9.96065,64.5739 9.96065,64.5739L 9.96065,62.8819L 5.17906,62.8819L 4.90944,63.5922C 4.90944,63.5922 4.62504,64.374 5.65249,64.5739 Z "/>
	<path fill="#000000" fill-opacity="1" stroke-width="0.2" stroke-linejoin="miter" d="M 22.3323,54.8426L 22.3323,53.1506L 21.4857,52.3045L 9.6392,52.3045L 8.79347,53.1506L 8.79347,54.8426L 22.3323,54.8426 Z "/>
	<path fill="#000000" fill-opacity="1" stroke-width="0.2" stroke-linejoin="miter" d="M 11.8729,52.3001L 11.3903,52.3046L 11.3903,51.924L 11.061,51.7332L 11.061,51.0992L 11.8729,51.5674L 11.8729,52.3001 Z "/>
	<path fill="#000000" fill-opacity="1" stroke-width="0.2" stroke-linejoin="miter" d="M 22.6909,54.8426L 22.7626,54.5344L 22.5989,53.9938L 22.3323,53.9938L 22.3432,54.5167C 22.3432,54.5167 22.6439,54.5098 22.6371,54.5167C 22.6304,54.5234 22.5265,54.6826 22.5265,54.6826L 22.5226,54.8554L 22.6909,54.8426 Z "/>
	<path fill="#FFFFFF" fill-opacity="1" stroke-width="0.2" stroke-linejoin="miter" d="M 22.4106,54.2317C 22.4106,54.2762 22.4467,54.3125 22.4914,54.3125C 22.5359,54.3125 22.572,54.2762 22.572,54.2317C 22.572,54.1872 22.5359,54.151 22.4914,54.151C 22.4467,54.151 22.4106,54.1872 22.4106,54.2317 Z "/>
	<path fill="#909190" fill-opacity="1" stroke-width="0.2" stroke-linejoin="miter" d="M 18.1856,52.4234L 18.0163,52.4234L 17.9321,53.0151L 18.2701,53.0151L 18.1856,52.4234 Z "/>
	<path fill="#909190" fill-opacity="1" stroke-width="0.2" stroke-linejoin="miter" d="M 17.678,52.4234L 17.5088,52.4234L 17.4246,53.0151L 17.7626,53.0151L 17.678,52.4234 Z "/>
	<path fill="#909190" fill-opacity="1" stroke-width="0.2" stroke-linejoin="miter" d="M 17.1507,52.4234L 16.9813,52.4234L 16.897,53.0151L 17.2351,53.0151L 17.1507,52.4234 Z "/>
	<path fill="#909190" fill-opacity="1" stroke-width="0.2" stroke-linejoin="miter" d="M 16.6541,52.4234L 16.4847,52.4234L 16.4005,53.0151L 16.7385,53.0151L 16.6541,52.4234 Z "/>
	<path fill="#909190" fill-opacity="1" stroke-width="0.2" stroke-linejoin="miter" d="M 16.1397,52.4234L 15.9702,52.4234L 15.8859,53.0151L 16.2241,53.0151L 16.1397,52.4234 Z "/>
	<path fill="#909190" fill-opacity="1" stroke-width="0.2" stroke-linejoin="miter" d="M 15.6132,52.4234L 15.4438,52.4234L 15.3595,53.0151L 15.6975,53.0151L 15.6132,52.4234 Z "/>
	<path fill="#909190" fill-opacity="1" stroke-width="0.2" stroke-linejoin="miter" d="M 15.0687,52.4234L 14.8994,52.4234L 14.815,53.0151L 15.1532,53.0151L 15.0687,52.4234 Z "/>
	<path fill="#909190" fill-opacity="1" stroke-width="0.2" stroke-linejoin="miter" d="M 14.4706,52.4234L 14.3012,52.4234L 14.2168,53.0151L 14.5549,53.0151L 14.4706,52.4234 Z "/>
	<path fill="#FAC11C" fill-opacity="1" stroke-width="0.2" stroke-linejoin="miter" stroke="#000000" stroke-opacity="1" d="M 30.0109,46.984C 30.0109,47.2542 30.23,47.4731 30.5002,47.4731L 43.0601,47.4731C 43.3305,47.4731 43.5495,47.2542 43.5495,46.984C 43.5495,46.7137 43.3305,46.4947 43.0601,46.4947L 30.5002,46.4947C 30.23,46.4947 30.0109,46.7137 30.0109,46.984 Z "/>
	<path fill="#FAC11C" fill-opacity="1" stroke-width="0.2" stroke-linejoin="miter" stroke="#000000" stroke-opacity="1" d="M 24.0071,64.5739L 24.0071,62.8819L 44.359,62.8819L 44.6289,63.5922C 44.6289,63.5922 44.8561,64.4482 44.002,64.5632L 24.0071,64.5739 Z "/>
	<path fill="#FAC11C" fill-opacity="1" stroke-width="0.2" stroke-linejoin="miter" stroke="#000000" stroke-opacity="1" d="M 24.0071,60.7326L 34.9237,60.7326L 34.9747,62.2945C 34.9747,62.2945 35.1675,62.7125 35.5998,62.7125L 43.5118,62.7125C 43.5118,62.7125 44.009,62.8391 44.184,62.0957L 44.1894,60.8924L 44.359,60.9224L 44.359,62.8819L 24.0071,62.8819L 24.0071,60.7326 Z "/>
	<path fill="#FAC11C" fill-opacity="1" stroke-width="0.2" stroke-linejoin="miter" stroke="#000000" stroke-opacity="1" d="M 24.0071,58.109L 24.0071,60.7326L 34.9237,60.7326L 34.9237,59.2341C 34.9237,59.2341 33.5262,59.1298 32.6173,58.109L 24.0071,58.109 Z "/>
	<path fill="#FAC11C" fill-opacity="1" stroke-width="0.2" stroke-linejoin="miter" stroke="#000000" stroke-opacity="1" d="M 24.0071,54.8426L 30.2691,54.8426L 30.5003,47.4732L 31.3879,47.4732L 31.7322,55.8007C 31.7322,55.8007 32.2085,57.849 32.6173,58.109L 24.0071,58.109L 24.0071,54.8426 Z "/>
	<path fill="#FAC11C" fill-opacity="1" stroke-width="0.2" stroke-linejoin="miter" stroke="#000000" stroke-opacity="1" d="M 35.7061,47.9382L 42.2628,47.9758C 42.2628,47.9758 42.8625,47.904 42.8625,48.3826C 42.8625,48.8609 43.8514,57.8329 43.8514,57.8329L 43.8453,62.0939C 43.8453,62.0939 43.8023,62.3625 43.5708,62.3684C 43.3394,62.3744 35.5413,62.3684 35.5413,62.3684C 35.5413,62.3684 35.4011,62.5007 35.2664,62.0939L 35.2615,48.2768C 35.2615,48.2768 35.2872,47.9486 35.7061,47.9382 Z "/>
	<path fill="#FFFFFF" fill-opacity="1" stroke-width="0.2" stroke-linejoin="miter" stroke="#000000" stroke-opacity="1" d="M 42.7167,56.4765L 36.2765,56.4765C 36.2765,56.4765 35.948,56.4846 35.9434,56.7558C 35.9383,57.027 35.9383,58.7027 35.9383,58.7027C 35.9383,58.7027 35.862,58.9623 36.1606,59.0208C 36.4591,59.0794 42.7757,60.21 42.7757,60.21C 42.7757,60.21 43.0916,60.3038 43.1736,59.8767C 43.2558,59.4497 43.1953,58.0679 43.1736,57.8703C 43.152,57.6725 43.0533,56.7773 43.0533,56.7773C 43.0533,56.7773 43.0212,56.4765 42.7167,56.4765 Z "/>
	<path fill="#FFFFFF" fill-opacity="1" stroke-width="0.2" stroke-linejoin="miter" stroke="#000000" stroke-opacity="1" d="M 42.6123,55.6237L 36.2765,55.6299C 36.2765,55.6299 35.9384,55.5837 35.9384,55.2914L 35.9384,48.954C 35.9384,48.954 35.9816,48.6205 36.2177,48.6205L 41.7661,48.6205C 41.7661,48.6205 42.1515,48.5963 42.1867,48.9167C 42.2222,49.2373 42.886,55.2542 42.886,55.2542C 42.886,55.2542 42.8842,55.6027 42.6123,55.6237 Z "/>
	<path fill="#FFFFFF" fill-opacity="1" stroke-width="0.2" stroke-linejoin="miter" stroke="#000000" stroke-opacity="1" d="M 34.4997,48.0225L 34.4881,57.7978C 34.4881,57.7978 34.254,58.5987 33.5952,58.369C 32.9363,58.1397 32.2136,56.7922 32.175,56.0565C 32.1362,55.321 31.8354,48.0401 31.8354,48.0401C 31.8354,48.0401 31.7684,47.74 32.1817,47.6066L 34.1598,47.6082C 34.1598,47.6082 34.4657,47.6864 34.4997,48.0225 Z "/>
	<line fill="none" stroke-width="0.2" stroke-linejoin="miter" stroke="#FFFFFF" stroke-opacity="1" x1="41.9127" y1="57.288" x2="41.9857" y2="59.4241"/>
	<path fill="#000000" fill-opacity="1" stroke-width="0.2" stroke-linejoin="miter" d="M 13.2083,69.6084C 13.2083,71.8189 15.0004,73.6109 17.2107,73.6109L 51.6551,73.6109C 53.8654,73.6109 55.6575,71.8189 55.6575,69.6084C 55.6575,67.3979 53.8654,65.6059 51.6551,65.6059L 17.2107,65.6059C 15.0004,65.6059 13.2083,67.3979 13.2083,69.6084 Z "/>
	<line fill="none" stroke-width="0.2" stroke-linejoin="miter" stroke="#FFFFFF" stroke-opacity="1" x1="41.6585" y1="56.7889" x2="41.6585" y2="58.71"/>
	<line fill="none" stroke-width="0.2" stroke-linejoin="miter" stroke="#FFFFFF" stroke-opacity="1" x1="41.3369" y1="57.9656" x2="41.3369" y2="59.1412"/>
	<line fill="none" stroke-width="0.2" stroke-linejoin="miter" stroke="#FFFFFF" stroke-opacity="1" x1="37.8505" y1="50.5619" x2="37.8505" y2="53.3031"/>
	<line fill="none" stroke-width="0.2" stroke-linejoin="miter" stroke="#FFFFFF" stroke-opacity="1" x1="37.6045" y1="51.6613" x2="37.6045" y2="54.3352"/>
	<line fill="none" stroke-width="0.2" stroke-linejoin="miter" stroke="#FFFFFF" stroke-opacity="1" x1="37.3513" y1="52.516" x2="37.3513" y2="53.3031"/>
	<line fill="none" stroke-width="0.2" stroke-linejoin="miter" stroke="#FFFFFF" stroke-opacity="1" x1="33.1031" y1="48.387" x2="33.1031" y2="51.1279"/>
	<line fill="none" stroke-width="0.2" stroke-linejoin="miter" stroke="#FFFFFF" stroke-opacity="1" x1="32.8587" y1="49.487" x2="32.8587" y2="52.1604"/>
	<line fill="none" stroke-width="0.2" stroke-linejoin="miter" stroke="#FFFFFF" stroke-opacity="1" x1="32.6041" y1="50.3412" x2="32.6041" y2="51.1279"/>
	<path fill="#909190" fill-opacity="1" stroke-width="0.2" stroke-linejoin="miter" stroke="#000000" stroke-opacity="1" d="M 48.4617,68.5978L 48.4617,71.1742L 20.9781,71.1742L 20.9781,68.5978L 23.4151,67.866L 23.94,66.9429L 43.8453,66.9429L 44.5358,67.9086L 48.4617,68.5978 Z "/>
	<rect x="48.3771" y="66.9429" fill="#000000" fill-opacity="1" stroke-width="0.2" stroke-linejoin="miter" width="0.338261" height="5.75429"/>
	<rect x="20.7244" y="66.827" fill="#000000" fill-opacity="1" stroke-width="0.2" stroke-linejoin="miter" width="0.304401" height="5.87021"/>
	<rect x="21.0288" y="71.4481" fill="#000000" fill-opacity="1" stroke-width="0.2" stroke-linejoin="miter" width="27.3483" height="0.253738"/>
	<g>
		<path fill="#FAC11C" fill-opacity="1" stroke-linejoin="round" d="M 122.988,39.7789L 122.988,24.4189L 128.041,24.4189C 129.957,24.4189 131.204,24.4955 131.784,24.6489C 132.678,24.88 133.426,25.3833 134.029,26.1589C 134.633,26.9344 134.934,27.9355 134.934,29.1622C 134.934,30.1067 134.757,30.9016 134.403,31.5472C 134.048,32.1928 133.599,32.6994 133.054,33.0672C 132.51,33.435 131.956,33.6789 131.391,33.7989C 130.627,33.9455 129.518,34.0189 128.064,34.0189L 125.974,34.0189L 125.974,39.7789L 122.988,39.7789 Z M 125.974,26.9789L 125.974,31.4589L 127.828,31.4589C 129.163,31.4589 130.056,31.3761 130.506,31.2105C 130.956,31.045 131.309,30.7867 131.564,30.4355C 131.82,30.0844 131.948,29.6755 131.948,29.2089C 131.948,28.6333 131.768,28.1589 131.409,27.7855C 131.051,27.4122 130.597,27.1789 130.048,27.0855C 129.643,27.0144 128.831,26.9789 127.611,26.9789L 125.974,26.9789 Z "/>
		<path fill="#FAC11C" fill-opacity="1" stroke-linejoin="round" d="M 137.281,39.7789L 137.281,24.4189L 148.801,24.4189L 148.801,26.9789L 140.268,26.9789L 140.268,30.3922L 148.161,30.3922L 148.161,32.9522L 140.268,32.9522L 140.268,37.2189L 149.014,37.2189L 149.014,39.7789L 137.281,39.7789 Z "/>
		<path fill="#FAC11C" fill-opacity="1" stroke-linejoin="round" d="M 151.361,39.7789L 151.361,24.4189L 156.471,24.4189L 158.934,34.8955L 161.398,24.4189L 166.508,24.4189L 166.508,39.7789L 163.521,39.7789L 163.414,27.6889L 160.681,39.7789L 157.188,39.7789L 154.454,27.6889L 154.348,39.7789L 151.361,39.7789 Z "/>
		<path fill="#FAC11C" fill-opacity="1" stroke-linejoin="round" d="M 169.281,24.4189L 181.014,24.4189L 181.014,26.9789L 172.268,26.9789L 172.268,30.6055L 176.541,30.6055C 177.721,30.6055 178.7,30.7444 179.478,31.0222C 180.256,31.3 180.919,31.8144 181.469,32.5655C 182.019,33.3167 182.294,34.1955 182.294,35.2022C 182.294,36.2378 182.022,37.1239 181.476,37.8605C 180.931,38.5972 180.309,39.1011 179.611,39.3722C 178.913,39.6433 177.92,39.7789 176.631,39.7789L 169.281,39.7789L 169.281,24.4189 Z M 172.268,37.2189L 175.531,37.2189C 176.576,37.2189 177.309,37.1716 177.733,37.0772C 178.156,36.9828 178.524,36.7689 178.838,36.4355C 179.151,36.1022 179.308,35.6911 179.308,35.2022C 179.308,34.4911 179.034,33.9739 178.486,33.6505C 177.938,33.3272 177.003,33.1655 175.681,33.1655L 172.268,33.1655L 172.268,37.2189 Z "/>
		<path fill="#FAC11C" fill-opacity="1" stroke-linejoin="round" d="M 197.868,39.7789L 194.711,39.7789L 193.491,36.3655L 187.548,36.3655L 186.334,39.7789L 183.148,39.7789L 188.838,24.4189L 192.138,24.4189L 197.868,39.7789 Z M 192.571,33.8055L 190.508,28.0455L 188.458,33.8055L 192.571,33.8055 Z "/>
		<path fill="#FAC11C" fill-opacity="1" stroke-linejoin="round" d="M 201.494,28.6855L 198.508,28.0455C 199.174,25.4855 201.073,24.2055 204.204,24.2055C 206.056,24.2055 207.453,24.5867 208.398,25.3489C 209.342,26.1111 209.814,27.0055 209.814,28.0322C 209.814,28.7367 209.606,29.3728 209.189,29.9405C 208.773,30.5083 208.148,31.0067 207.314,31.4355C 208.361,31.7933 209.146,32.2994 209.669,32.9539C 210.193,33.6083 210.454,34.4144 210.454,35.3722C 210.454,36.75 209.946,37.8644 208.929,38.7155C 207.913,39.5667 206.391,39.9922 204.364,39.9922C 202.711,39.9922 201.407,39.7222 200.451,39.1822C 199.496,38.6422 198.777,37.6322 198.294,36.1522L 201.281,35.2989C 201.594,36.1922 202.012,36.7711 202.533,37.0355C 203.054,37.3 203.696,37.4322 204.458,37.4322C 205.507,37.4322 206.271,37.2055 206.749,36.7522C 207.228,36.2989 207.468,35.7811 207.468,35.1989C 207.468,34.5255 207.194,33.9828 206.646,33.5705C 206.098,33.1583 205.274,32.9522 204.174,32.9522L 203.414,32.9522L 203.414,30.8189L 203.784,30.8189C 204.769,30.8189 205.522,30.6194 206.044,30.2205C 206.567,29.8217 206.828,29.2911 206.828,28.6289C 206.828,28.1067 206.604,27.6655 206.156,27.3055C 205.708,26.9455 205.067,26.7655 204.231,26.7655C 202.804,26.7655 201.892,27.4055 201.494,28.6855 Z "/>
		<path fill="#FAC11C" fill-opacity="1" stroke-linejoin="round" d="M 226.028,39.7789L 222.871,39.7789L 221.651,36.3655L 215.708,36.3655L 214.494,39.7789L 211.308,39.7789L 216.998,24.4189L 220.298,24.4189L 226.028,39.7789 Z M 220.731,33.8055L 218.668,28.0455L 216.618,33.8055L 220.731,33.8055 Z "/>
		<path fill="#000000" fill-opacity="1" stroke-linejoin="round" d="M 104.428,59.6189L 107.414,60.4722C 106.952,62.1322 106.182,63.365 105.104,64.1705C 104.027,64.9761 102.66,65.3789 101.004,65.3789C 98.9555,65.3789 97.2716,64.6955 95.9528,63.3289C 94.6339,61.9622 93.9744,60.0944 93.9744,57.7255C 93.9744,55.2189 94.6289,53.2722 95.9378,51.8855C 97.2467,50.4989 98.9678,49.8055 101.101,49.8055C 102.966,49.8055 104.479,50.3589 105.641,51.4655C 106.334,52.1211 106.854,53.0611 107.201,54.2855L 104.214,54.9255C 104.028,54.1344 103.639,53.51 103.048,53.0522C 102.457,52.5944 101.739,52.3655 100.894,52.3655C 99.7255,52.3655 98.7778,52.7694 98.0511,53.5772C 97.3244,54.385 96.9611,55.6922 96.9611,57.4989C 96.9611,59.4167 97.3244,60.7828 98.0511,61.5972C 98.7778,62.4117 99.7222,62.8189 100.884,62.8189C 101.742,62.8189 102.48,62.5616 103.098,62.0472C 103.716,61.5328 104.159,60.7233 104.428,59.6189 Z "/>
		<path fill="#000000" fill-opacity="1" stroke-linejoin="round" d="M 109.974,50.0189L 122.348,50.0189L 122.348,65.3789L 119.361,65.3789L 119.361,52.5789L 112.961,52.5789L 112.961,65.3789L 109.974,65.3789L 109.974,50.0189 Z "/>
		<path fill="#000000" fill-opacity="1" stroke-linejoin="round" d="M 125.334,65.3789L 125.334,50.0189L 136.854,50.0189L 136.854,52.5789L 128.321,52.5789L 128.321,55.9922L 136.214,55.9922L 136.214,58.5522L 128.321,58.5522L 128.321,62.8189L 137.068,62.8189L 137.068,65.3789L 125.334,65.3789 Z "/>
		<path fill="#000000" fill-opacity="1" stroke-linejoin="round" d="M 139.628,50.0189L 142.614,50.0189L 142.614,62.8189L 148.801,62.8189L 148.801,50.0189L 151.788,50.0189L 151.788,62.8189L 153.068,62.8189L 153.068,68.7922L 150.508,68.7922L 150.508,65.3789L 139.628,65.3789L 139.628,50.0189 Z "/>
		<path fill="#000000" fill-opacity="1" stroke-linejoin="round" d="M 158.828,65.3789L 158.828,52.5789L 154.348,52.5789L 154.348,50.0189L 166.294,50.0189L 166.294,52.5789L 161.814,52.5789L 161.814,65.3789L 158.828,65.3789 Z "/>
		<path fill="#000000" fill-opacity="1" stroke-linejoin="round" d="M 168.214,65.3789L 168.214,50.0189L 179.734,50.0189L 179.734,52.5789L 171.201,52.5789L 171.201,55.9922L 179.094,55.9922L 179.094,58.5522L 171.201,58.5522L 171.201,62.8189L 179.948,62.8189L 179.948,65.3789L 168.214,65.3789 Z "/>
		<path fill="#000000" fill-opacity="1" stroke-linejoin="round" d="M 181.121,65.3789L 186.411,57.2055L 181.761,50.0189L 185.261,50.0189L 188.161,54.4989L 191.058,50.0189L 194.561,50.0189L 189.911,57.2055L 195.201,65.3789L 191.698,65.3789L 188.161,59.9089L 184.621,65.3789L 181.121,65.3789 Z "/>
		<path fill="#000000" fill-opacity="1" stroke-linejoin="round" d="M 196.801,65.3789L 196.801,50.0189L 199.788,50.0189L 199.788,55.9922L 206.188,55.9922L 206.188,50.0189L 209.174,50.0189L 209.174,65.3789L 206.188,65.3789L 206.188,58.5522L 199.788,58.5522L 199.788,65.3789L 196.801,65.3789 Z "/>
		<path fill="#000000" fill-opacity="1" stroke-linejoin="round" d="M 212.161,50.0189L 215.148,50.0189L 215.148,60.0989L 221.334,50.0189L 224.534,50.0189L 224.534,65.3789L 221.548,65.3789L 221.548,55.2955L 215.361,65.3789L 212.161,65.3789L 212.161,50.0189 Z "/>
		<path fill="#000000" fill-opacity="1" stroke-linejoin="round" d="M 227.521,50.0189L 230.508,50.0189L 230.508,56.6322C 231.223,56.5633 231.708,56.3861 231.961,56.1005C 232.214,55.815 232.606,55.0222 233.134,53.7222C 233.799,52.0667 234.468,51.0378 235.141,50.6355C 235.806,50.2311 236.879,50.0289 238.361,50.0289C 238.434,50.0289 238.59,50.0255 238.828,50.0189L 238.828,52.1522L 238.384,52.1422C 237.747,52.1422 237.28,52.2228 236.984,52.3839C 236.689,52.545 236.45,52.7905 236.268,53.1205C 236.086,53.4505 235.814,54.1289 235.454,55.1555C 235.266,55.7022 235.061,56.1589 234.839,56.5255C 234.618,56.8922 234.227,57.2367 233.664,57.5589C 234.367,57.7544 234.947,58.1472 235.404,58.7372C 235.862,59.3272 236.364,60.1611 236.911,61.2389L 239.041,65.3789L 235.234,65.3789L 233.308,61.5555C 233.277,61.5022 233.214,61.3978 233.121,61.2422C 233.083,61.1889 232.949,60.9444 232.718,60.5089C 232.309,59.74 231.973,59.2589 231.711,59.0655C 231.449,58.8722 231.048,58.7722 230.508,58.7655L 230.508,65.3789L 227.521,65.3789L 227.521,50.0189 Z "/>
		<path fill="#000000" fill-opacity="1" stroke-linejoin="round" d="M 240.534,50.0189L 243.521,50.0189L 243.521,60.0989L 249.708,50.0189L 252.908,50.0189L 252.908,65.3789L 249.921,65.3789L 249.921,55.2955L 243.734,65.3789L 240.534,65.3789L 240.534,50.0189 Z "/>
	</g>
	<path fill="#FAC11C" fill-opacity="1" stroke-linejoin="round" d="M 78.3552,73.7714L 279.815,73.7714L 78.3552,73.7714 Z "/>
	<rect x="93.942" y="71.1881" fill="#FAC11C" fill-opacity="1" stroke-linejoin="round" width="159" height="2.58334"/>
</svg>
