<?xml version="1.0" encoding="UTF-8"?>
<!DOCTYPE svg PUBLIC "-//W3C//DTD SVG 1.1//EN" "http://www.w3.org/Graphics/SVG/1.1/DTD/svg11.dtd">
<!-- Creator: CorelDRAW X8 -->
<svg xmlns="http://www.w3.org/2000/svg" xml:space="preserve" width="150px" height="50px" version="1.1" style="shape-rendering:geometricPrecision; text-rendering:geometricPrecision; image-rendering:optimizeQuality; fill-rule:evenodd; clip-rule:evenodd"
viewBox="0 0 150 50"
 xmlns:xlink="http://www.w3.org/1999/xlink">
 <defs>
  <style type="text/css">
   <![CDATA[
    .fil0 {fill:#101010}
    .fil1 {fill:#3B3178}
   ]]>
  </style>
 </defs>
 <g id="Слой_x0020_1">
  <metadata id="CorelCorpID_0Corel-Layer"/>
  <path class="fil0" d="M41 45l9 0 2 -15c1,0 3,-1 3,1l-1 14 9 0c1,-3 1,-6 1,-10 1,-3 1,-6 -2,-8 -3,-2 -14,-1 -19,-1l-2 19z"/>
  <path class="fil0" d="M101 45l10 0 1 -15 4 0c0,3 -1,12 -1,15l9 0c0,-7 3,-15 -1,-18 -3,-2 -15,-1 -20,-1l-2 19z"/>
  <path class="fil0" d="M90 26l-8 0c-1,1 -4,5 -5,6l0 -6 -10 0 -2 19 10 0 1 -6 4 6 9 0 -6 -10 7 -9z"/>
  <path class="fil0" d="M149 26c-13,0 -22,-2 -23,9 -1,12 7,10 21,10l1 -11 -9 0 0 7c-2,0 -3,0 -4,-1 0,-2 0,-4 0,-5 1,-3 0,-4 2,-5 1,0 9,0 12,0l0 -4z"/>
  <polygon class="fil0" points="1,45 17,45 17,41 12,41 13,26 3,26 "/>
  <polygon class="fil0" points="89,45 99,45 101,26 91,26 "/>
  <path class="fil1" d="M92 17l0 8 14 -3c0,-2 1,-8 1,-9l-15 4z"/>
  <path class="fil0" d="M29 29c2,0 2,2 2,4l-1 4c0,2 0,4 -2,4 -2,0 -2,-2 -2,-4l1 -4c0,-1 0,-1 0,-1l0 0 0 0c0,-2 1,-3 2,-3zm11 7c1,-8 -3,-11 -10,-11 -8,0 -12,3 -13,9 -1,8 4,11 11,11 7,0 11,-3 12,-9z"/>
 </g>
</svg>
