<?xml version="1.0" encoding="UTF-8"?>
<!DOCTYPE svg PUBLIC "-//W3C//DTD SVG 1.1//EN" "http://www.w3.org/Graphics/SVG/1.1/DTD/svg11.dtd">
<!-- Creator: CorelDRAW X8 -->
<svg xmlns="http://www.w3.org/2000/svg" xml:space="preserve" width="200px" height="150px" version="1.1" style="shape-rendering:geometricPrecision; text-rendering:geometricPrecision; image-rendering:optimizeQuality; fill-rule:evenodd; clip-rule:evenodd"
viewBox="0 0 200 150"
 xmlns:xlink="http://www.w3.org/1999/xlink">
 <defs>
  <style type="text/css">
   <![CDATA[
    .fil14 {fill:#2B2A29}
    .fil27 {fill:#D2D4DD}
    .fil7 {fill:#BF984B}
    .fil19 {fill:#676E70}
    .fil9 {fill:#404342}
    .fil20 {fill:#2B2A29;fill-rule:nonzero}
    .fil114 {fill:#F7EDCB;fill-rule:nonzero}
    .fil115 {fill:#BF984B;fill-rule:nonzero}
    .fil116 {fill:#91773F;fill-rule:nonzero}
    .fil107 {fill:url(#id0)}
    .fil30 {fill:url(#id1)}
    .fil98 {fill:url(#id2)}
    .fil63 {fill:url(#id3)}
    .fil94 {fill:url(#id4)}
    .fil74 {fill:url(#id5)}
    .fil16 {fill:url(#id6)}
    .fil59 {fill:url(#id7)}
    .fil18 {fill:url(#id8)}
    .fil50 {fill:url(#id9)}
    .fil60 {fill:url(#id10)}
    .fil42 {fill:url(#id11)}
    .fil46 {fill:url(#id12)}
    .fil8 {fill:url(#id13)}
    .fil103 {fill:url(#id14)}
    .fil78 {fill:url(#id15)}
    .fil54 {fill:url(#id16)}
    .fil76 {fill:url(#id17)}
    .fil52 {fill:url(#id18)}
    .fil84 {fill:url(#id19)}
    .fil72 {fill:url(#id20)}
    .fil77 {fill:url(#id21)}
    .fil11 {fill:url(#id22)}
    .fil26 {fill:url(#id23)}
    .fil6 {fill:url(#id24)}
    .fil44 {fill:url(#id25)}
    .fil58 {fill:url(#id26)}
    .fil48 {fill:url(#id27)}
    .fil25 {fill:url(#id28)}
    .fil3 {fill:url(#id29)}
    .fil17 {fill:url(#id30)}
    .fil62 {fill:url(#id31)}
    .fil29 {fill:url(#id32)}
    .fil100 {fill:url(#id33)}
    .fil38 {fill:url(#id34)}
    .fil90 {fill:url(#id35)}
    .fil102 {fill:url(#id36)}
    .fil28 {fill:url(#id37)}
    .fil97 {fill:url(#id38)}
    .fil0 {fill:url(#id39)}
    .fil92 {fill:url(#id40)}
    .fil88 {fill:url(#id41)}
    .fil5 {fill:url(#id42)}
    .fil87 {fill:url(#id43)}
    .fil22 {fill:url(#id44)}
    .fil66 {fill:url(#id45)}
    .fil36 {fill:url(#id46)}
    .fil69 {fill:url(#id47)}
    .fil57 {fill:url(#id48)}
    .fil40 {fill:url(#id49)}
    .fil93 {fill:url(#id50)}
    .fil15 {fill:url(#id51)}
    .fil108 {fill:url(#id52)}
    .fil53 {fill:url(#id53)}
    .fil119 {fill:url(#id54)}
    .fil10 {fill:url(#id55)}
    .fil43 {fill:url(#id56)}
    .fil70 {fill:url(#id57)}
    .fil80 {fill:url(#id58)}
    .fil105 {fill:url(#id59)}
    .fil45 {fill:url(#id60)}
    .fil55 {fill:url(#id61)}
    .fil31 {fill:url(#id62)}
    .fil32 {fill:url(#id63)}
    .fil82 {fill:url(#id64)}
    .fil79 {fill:url(#id65)}
    .fil23 {fill:url(#id66)}
    .fil73 {fill:url(#id67)}
    .fil68 {fill:url(#id68)}
    .fil21 {fill:url(#id69)}
    .fil61 {fill:url(#id70)}
    .fil113 {fill:url(#id71)}
    .fil118 {fill:url(#id72)}
    .fil89 {fill:url(#id73)}
    .fil49 {fill:url(#id74)}
    .fil112 {fill:url(#id75)}
    .fil111 {fill:url(#id76)}
    .fil39 {fill:url(#id77)}
    .fil86 {fill:url(#id78)}
    .fil75 {fill:url(#id79)}
    .fil67 {fill:url(#id80)}
    .fil95 {fill:url(#id81)}
    .fil96 {fill:url(#id82)}
    .fil83 {fill:url(#id83)}
    .fil117 {fill:url(#id84)}
    .fil104 {fill:url(#id85)}
    .fil51 {fill:url(#id86)}
    .fil24 {fill:url(#id87)}
    .fil91 {fill:url(#id88)}
    .fil47 {fill:url(#id89)}
    .fil33 {fill:url(#id90)}
    .fil37 {fill:url(#id91)}
    .fil41 {fill:url(#id92)}
    .fil99 {fill:url(#id93)}
    .fil101 {fill:url(#id94)}
    .fil4 {fill:url(#id95)}
    .fil1 {fill:url(#id96)}
    .fil85 {fill:url(#id97)}
    .fil110 {fill:url(#id98)}
    .fil34 {fill:url(#id99)}
    .fil2 {fill:url(#id100)}
    .fil106 {fill:url(#id101)}
    .fil35 {fill:url(#id102)}
    .fil71 {fill:url(#id103)}
    .fil109 {fill:url(#id104)}
    .fil81 {fill:url(#id105)}
    .fil56 {fill:url(#id106)}
    .fil65 {fill:url(#id107)}
    .fil12 {fill:url(#id108)}
    .fil64 {fill:url(#id109)}
    .fil13 {fill:url(#id110)}
   ]]>
  </style>
  <linearGradient id="id0" gradientUnits="userSpaceOnUse" x1="127.959" y1="126.987" x2="130.259" y2="127.027">
   <stop offset="0" style="stop-opacity:1; stop-color:#FAD60B"/>
   <stop offset="1" style="stop-opacity:1; stop-color:#F0B921"/>
  </linearGradient>
  <linearGradient id="id1" gradientUnits="userSpaceOnUse" x1="73.6843" y1="138.344" x2="73.5448" y2="134.342">
   <stop offset="0" style="stop-opacity:1; stop-color:#FAD60B"/>
   <stop offset="1" style="stop-opacity:1; stop-color:#FEFEFE"/>
  </linearGradient>
  <linearGradient id="id2" gradientUnits="userSpaceOnUse" xlink:href="#id0" x1="104.943" y1="121.451" x2="105.717" y2="119.323">
  </linearGradient>
  <linearGradient id="id3" gradientUnits="userSpaceOnUse" xlink:href="#id0" x1="89.9302" y1="137.765" x2="89.9302" y2="140.041">
  </linearGradient>
  <linearGradient id="id4" gradientUnits="userSpaceOnUse" xlink:href="#id0" x1="95.6683" y1="118.507" x2="96.4423" y2="116.38">
  </linearGradient>
  <linearGradient id="id5" gradientUnits="userSpaceOnUse" xlink:href="#id0" x1="63.8057" y1="136.419" x2="61.832" y2="135.325">
  </linearGradient>
  <linearGradient id="id6" gradientUnits="userSpaceOnUse" x1="119.751" y1="76.8776" x2="119.751" y2="95.2196">
   <stop offset="0" style="stop-opacity:1; stop-color:#B5B3B1"/>
   <stop offset="1" style="stop-opacity:1; stop-color:#FEFEFE"/>
  </linearGradient>
  <linearGradient id="id7" gradientUnits="userSpaceOnUse" xlink:href="#id0" x1="99.2014" y1="137.765" x2="99.2014" y2="140.041">
  </linearGradient>
  <linearGradient id="id8" gradientUnits="userSpaceOnUse" x1="81.6863" y1="100.757" x2="81.6863" y2="90.1521">
   <stop offset="0" style="stop-opacity:1; stop-color:#CCC7C7"/>
   <stop offset="1" style="stop-opacity:1; stop-color:#7F7F7C"/>
  </linearGradient>
  <linearGradient id="id9" gradientUnits="userSpaceOnUse" xlink:href="#id0" x1="120.052" y1="137.765" x2="120.052" y2="140.041">
  </linearGradient>
  <linearGradient id="id10" gradientUnits="userSpaceOnUse" xlink:href="#id0" x1="96.8808" y1="137.765" x2="96.8808" y2="140.041">
  </linearGradient>
  <linearGradient id="id11" gradientUnits="userSpaceOnUse" xlink:href="#id1" x1="98.7248" y1="138.346" x2="98.5842" y2="134.34">
  </linearGradient>
  <linearGradient id="id12" gradientUnits="userSpaceOnUse" xlink:href="#id1" x1="107.766" y1="138.341" x2="107.626" y2="134.344">
  </linearGradient>
  <linearGradient id="id13" gradientUnits="userSpaceOnUse" xlink:href="#id0" x1="80.4723" y1="128.626" x2="80.4723" y2="136.972">
  </linearGradient>
  <linearGradient id="id14" gradientUnits="userSpaceOnUse" xlink:href="#id0" x1="116.487" y1="125.257" x2="117.262" y2="123.129">
  </linearGradient>
  <linearGradient id="id15" gradientUnits="userSpaceOnUse" xlink:href="#id0" x1="68.8143" y1="129.311" x2="66.7738" y2="128.179">
  </linearGradient>
  <linearGradient id="id16" gradientUnits="userSpaceOnUse" xlink:href="#id0" x1="110.788" y1="137.765" x2="110.788" y2="140.041">
  </linearGradient>
  <linearGradient id="id17" gradientUnits="userSpaceOnUse" xlink:href="#id0" x1="66.3263" y1="132.874" x2="64.2838" y2="131.742">
  </linearGradient>
  <linearGradient id="id18" gradientUnits="userSpaceOnUse" xlink:href="#id0" x1="115.42" y1="137.765" x2="115.42" y2="140.041">
  </linearGradient>
  <linearGradient id="id19" gradientUnits="userSpaceOnUse" xlink:href="#id0" x1="73.6045" y1="116.87" x2="72.7942" y2="114.759">
  </linearGradient>
  <linearGradient id="id20" gradientUnits="userSpaceOnUse" xlink:href="#id0" x1="67.888" y1="140.103" x2="65.6743" y2="140.738">
  </linearGradient>
  <linearGradient id="id21" gradientUnits="userSpaceOnUse" xlink:href="#id0" x1="67.569" y1="131.093" x2="65.5295" y2="129.963">
  </linearGradient>
  <linearGradient id="id22" gradientUnits="userSpaceOnUse" xlink:href="#id1" x1="112.642" y1="147.334" x2="111.921" y2="126.717">
  </linearGradient>
  <linearGradient id="id23" gradientUnits="userSpaceOnUse" xlink:href="#id1" x1="73.7727" y1="126.148" x2="73.4941" y2="118.186">
  </linearGradient>
  <linearGradient id="id24" gradientUnits="userSpaceOnUse" xlink:href="#id1" x1="60.5901" y1="147.334" x2="59.8704" y2="126.717">
  </linearGradient>
  <linearGradient id="id25" gradientUnits="userSpaceOnUse" xlink:href="#id1" x1="105.921" y1="143.515" x2="105.518" y2="131.954">
  </linearGradient>
  <linearGradient id="id26" gradientUnits="userSpaceOnUse" xlink:href="#id0" x1="101.518" y1="137.765" x2="101.518" y2="140.041">
  </linearGradient>
  <linearGradient id="id27" gradientUnits="userSpaceOnUse" xlink:href="#id0" x1="124.691" y1="137.765" x2="124.691" y2="140.041">
  </linearGradient>
  <linearGradient id="id28" gradientUnits="userSpaceOnUse" xlink:href="#id0" x1="91.0489" y1="115.595" x2="91.0489" y2="124.905">
  </linearGradient>
  <linearGradient id="id29" gradientUnits="userSpaceOnUse" x1="60.8694" y1="134.063" x2="52.0166" y2="124.896">
   <stop offset="0" style="stop-opacity:1; stop-color:#D19032"/>
   <stop offset="0.721569" style="stop-opacity:1; stop-color:#B67A32"/>
   <stop offset="1" style="stop-opacity:1; stop-color:#9A6433"/>
  </linearGradient>
  <linearGradient id="id30" gradientUnits="userSpaceOnUse" xlink:href="#id8" x1="110.18" y1="99.7109" x2="110.18" y2="90.1566">
  </linearGradient>
  <linearGradient id="id31" gradientUnits="userSpaceOnUse" xlink:href="#id0" x1="92.247" y1="137.765" x2="92.247" y2="140.041">
  </linearGradient>
  <linearGradient id="id32" gradientUnits="userSpaceOnUse" xlink:href="#id0" x1="87.6659" y1="132.946" x2="87.6659" y2="137.627">
  </linearGradient>
  <linearGradient id="id33" gradientUnits="userSpaceOnUse" xlink:href="#id0" x1="109.575" y1="122.922" x2="110.349" y2="120.796">
  </linearGradient>
  <linearGradient id="id34" gradientUnits="userSpaceOnUse" xlink:href="#id1" x1="90.3561" y1="138.344" x2="90.2167" y2="134.342">
  </linearGradient>
  <linearGradient id="id35" gradientUnits="userSpaceOnUse" xlink:href="#id0" x1="86.3994" y1="115.564" x2="87.1734" y2="113.437">
  </linearGradient>
  <linearGradient id="id36" gradientUnits="userSpaceOnUse" xlink:href="#id0" x1="114.213" y1="124.395" x2="114.987" y2="122.268">
  </linearGradient>
  <linearGradient id="id37" gradientUnits="userSpaceOnUse" xlink:href="#id1" x1="71.8376" y1="143.518" x2="71.4339" y2="131.953">
  </linearGradient>
  <linearGradient id="id38" gradientUnits="userSpaceOnUse" xlink:href="#id0" x1="102.625" y1="120.713" x2="103.398" y2="118.588">
  </linearGradient>
  <linearGradient id="id39" gradientUnits="userSpaceOnUse" x1="137.333" y1="116.226" x2="140.591" y2="117.886">
   <stop offset="0" style="stop-opacity:1; stop-color:#5F6262"/>
   <stop offset="1" style="stop-opacity:1; stop-color:#212220"/>
  </linearGradient>
  <linearGradient id="id40" gradientUnits="userSpaceOnUse" xlink:href="#id0" x1="91.0361" y1="117.035" x2="91.8094" y2="114.909">
  </linearGradient>
  <linearGradient id="id41" gradientUnits="userSpaceOnUse" xlink:href="#id0" x1="81.7645" y1="114.094" x2="82.5393" y2="111.966">
  </linearGradient>
  <linearGradient id="id42" gradientUnits="userSpaceOnUse" x1="59.531" y1="132.469" x2="51.4032" y2="124.053">
   <stop offset="0" style="stop-opacity:1; stop-color:#D19032"/>
   <stop offset="1" style="stop-opacity:1; stop-color:#9A6433"/>
  </linearGradient>
  <linearGradient id="id43" gradientUnits="userSpaceOnUse" xlink:href="#id0" x1="79.4477" y1="113.359" x2="80.2217" y2="111.233">
  </linearGradient>
  <linearGradient id="id44" gradientUnits="userSpaceOnUse" xlink:href="#id39" x1="125.968" y1="124.24" x2="125.968" y2="131.205">
  </linearGradient>
  <linearGradient id="id45" gradientUnits="userSpaceOnUse" xlink:href="#id0" x1="82.9793" y1="137.765" x2="82.9793" y2="140.041">
  </linearGradient>
  <linearGradient id="id46" gradientUnits="userSpaceOnUse" xlink:href="#id1" x1="88.5132" y1="143.518" x2="88.1088" y2="131.952">
  </linearGradient>
  <linearGradient id="id47" gradientUnits="userSpaceOnUse" xlink:href="#id0" x1="76.0283" y1="137.765" x2="76.0283" y2="140.041">
  </linearGradient>
  <linearGradient id="id48" gradientUnits="userSpaceOnUse" xlink:href="#id0" x1="103.835" y1="137.765" x2="103.835" y2="140.041">
  </linearGradient>
  <linearGradient id="id49" gradientUnits="userSpaceOnUse" xlink:href="#id1" x1="96.8747" y1="143.526" x2="96.4703" y2="131.956">
  </linearGradient>
  <linearGradient id="id50" gradientUnits="userSpaceOnUse" xlink:href="#id0" x1="93.3544" y1="117.772" x2="94.1285" y2="115.645">
  </linearGradient>
  <linearGradient id="id51" gradientUnits="userSpaceOnUse" xlink:href="#id6" x1="124.161" y1="75.8847" x2="124.161" y2="93.6836">
  </linearGradient>
  <linearGradient id="id52" gradientUnits="userSpaceOnUse" xlink:href="#id0" x1="129.732" y1="129.238" x2="131.837" y2="130.088">
  </linearGradient>
  <linearGradient id="id53" gradientUnits="userSpaceOnUse" xlink:href="#id0" x1="113.101" y1="137.765" x2="113.101" y2="140.041">
  </linearGradient>
  <linearGradient id="id54" gradientUnits="userSpaceOnUse" xlink:href="#id0" x1="116.346" y1="64.4811" x2="121.103" y2="69.2376">
  </linearGradient>
  <linearGradient id="id55" gradientUnits="userSpaceOnUse" xlink:href="#id1" x1="63.8824" y1="138.104" x2="63.6337" y2="130.969">
  </linearGradient>
  <linearGradient id="id56" gradientUnits="userSpaceOnUse" xlink:href="#id1" x1="105.921" y1="143.515" x2="105.518" y2="131.955">
  </linearGradient>
  <linearGradient id="id57" gradientUnits="userSpaceOnUse" xlink:href="#id0" x1="73.8422" y1="139.765" x2="72.8853" y2="141.816">
  </linearGradient>
  <linearGradient id="id58" gradientUnits="userSpaceOnUse" xlink:href="#id0" x1="71.3005" y1="125.749" x2="69.2596" y2="124.618">
  </linearGradient>
  <linearGradient id="id59" gradientUnits="userSpaceOnUse" xlink:href="#id0" x1="121.989" y1="125.77" x2="123.555" y2="124.09">
  </linearGradient>
  <linearGradient id="id60" gradientUnits="userSpaceOnUse" xlink:href="#id0" x1="121.747" y1="132.946" x2="121.747" y2="137.628">
  </linearGradient>
  <linearGradient id="id61" gradientUnits="userSpaceOnUse" xlink:href="#id0" x1="108.469" y1="137.765" x2="108.469" y2="140.041">
  </linearGradient>
  <linearGradient id="id62" gradientUnits="userSpaceOnUse" xlink:href="#id1" x1="80.0913" y1="143.515" x2="79.6877" y2="131.955">
  </linearGradient>
  <linearGradient id="id63" gradientUnits="userSpaceOnUse" xlink:href="#id1" x1="80.0921" y1="143.515" x2="79.6877" y2="131.954">
  </linearGradient>
  <linearGradient id="id64" gradientUnits="userSpaceOnUse" xlink:href="#id0" x1="73.7493" y1="122.164" x2="71.7756" y2="121.069">
  </linearGradient>
  <linearGradient id="id65" gradientUnits="userSpaceOnUse" xlink:href="#id0" x1="70.02" y1="127.508" x2="68.0471" y2="126.414">
  </linearGradient>
  <linearGradient id="id66" gradientUnits="userSpaceOnUse" xlink:href="#id0" x1="93.2603" y1="113.28" x2="93.2603" y2="126.946">
  </linearGradient>
  <linearGradient id="id67" gradientUnits="userSpaceOnUse" xlink:href="#id0" x1="66.4325" y1="138.58" x2="64.1542" y2="138.7">
  </linearGradient>
  <linearGradient id="id68" gradientUnits="userSpaceOnUse" xlink:href="#id0" x1="78.3448" y1="137.765" x2="78.3448" y2="140.041">
  </linearGradient>
  <linearGradient id="id69" gradientUnits="userSpaceOnUse" xlink:href="#id0" x1="132.553" y1="72.1853" x2="148.458" y2="185.357">
  </linearGradient>
  <linearGradient id="id70" gradientUnits="userSpaceOnUse" xlink:href="#id0" x1="94.5654" y1="137.765" x2="94.5654" y2="140.041">
  </linearGradient>
  <linearGradient id="id71" gradientUnits="userSpaceOnUse" xlink:href="#id0" x1="128.91" y1="128.466" x2="128.91" y2="134.927">
  </linearGradient>
  <linearGradient id="id72" gradientUnits="userSpaceOnUse" xlink:href="#id0" x1="82.5272" y1="88.5556" x2="87.4765" y2="162.785">
  </linearGradient>
  <linearGradient id="id73" gradientUnits="userSpaceOnUse" xlink:href="#id0" x1="84.0829" y1="114.829" x2="84.8569" y2="112.703">
  </linearGradient>
  <linearGradient id="id74" gradientUnits="userSpaceOnUse" xlink:href="#id0" x1="122.373" y1="137.765" x2="122.373" y2="140.041">
  </linearGradient>
  <linearGradient id="id75" gradientUnits="userSpaceOnUse" xlink:href="#id0" x1="116.701" y1="128.732" x2="116.701" y2="135.979">
  </linearGradient>
  <linearGradient id="id76" gradientUnits="userSpaceOnUse" xlink:href="#id0" x1="129.438" y1="137.335" x2="129.596" y2="139.591">
  </linearGradient>
  <linearGradient id="id77" gradientUnits="userSpaceOnUse" xlink:href="#id1" x1="96.8747" y1="143.525" x2="96.4711" y2="131.956">
  </linearGradient>
  <linearGradient id="id78" gradientUnits="userSpaceOnUse" xlink:href="#id0" x1="77.1293" y1="112.623" x2="77.9041" y2="110.494">
  </linearGradient>
  <linearGradient id="id79" gradientUnits="userSpaceOnUse" xlink:href="#id0" x1="65.0828" y1="134.657" x2="63.0422" y2="133.526">
  </linearGradient>
  <linearGradient id="id80" gradientUnits="userSpaceOnUse" xlink:href="#id0" x1="80.6639" y1="137.765" x2="80.6639" y2="140.041">
  </linearGradient>
  <linearGradient id="id81" gradientUnits="userSpaceOnUse" xlink:href="#id0" x1="97.9874" y1="119.242" x2="98.7626" y2="117.114">
  </linearGradient>
  <linearGradient id="id82" gradientUnits="userSpaceOnUse" xlink:href="#id0" x1="100.309" y1="119.979" x2="101.082" y2="117.853">
  </linearGradient>
  <linearGradient id="id83" gradientUnits="userSpaceOnUse" xlink:href="#id0" x1="73.6105" y1="119.92" x2="71.9574" y2="118.324">
  </linearGradient>
  <linearGradient id="id84" gradientUnits="userSpaceOnUse" xlink:href="#id0" x1="50.8011" y1="87.1061" x2="55.5255" y2="87.5249">
  </linearGradient>
  <linearGradient id="id85" gradientUnits="userSpaceOnUse" xlink:href="#id0" x1="118.937" y1="125.437" x2="120.064" y2="123.403">
  </linearGradient>
  <linearGradient id="id86" gradientUnits="userSpaceOnUse" xlink:href="#id0" x1="117.736" y1="137.765" x2="117.736" y2="140.041">
  </linearGradient>
  <linearGradient id="id87" gradientUnits="userSpaceOnUse" xlink:href="#id1" x1="70.0971" y1="136.446" x2="69.2936" y2="113.444">
  </linearGradient>
  <linearGradient id="id88" gradientUnits="userSpaceOnUse" xlink:href="#id0" x1="88.7177" y1="116.301" x2="89.4925" y2="114.172">
  </linearGradient>
  <linearGradient id="id89" gradientUnits="userSpaceOnUse" xlink:href="#id0" x1="127.006" y1="137.765" x2="127.006" y2="140.041">
  </linearGradient>
  <linearGradient id="id90" gradientUnits="userSpaceOnUse" xlink:href="#id0" x1="95.9166" y1="132.946" x2="95.9166" y2="137.627">
  </linearGradient>
  <linearGradient id="id91" gradientUnits="userSpaceOnUse" xlink:href="#id0" x1="104.338" y1="132.946" x2="104.338" y2="137.627">
  </linearGradient>
  <linearGradient id="id92" gradientUnits="userSpaceOnUse" xlink:href="#id0" x1="112.703" y1="132.946" x2="112.703" y2="137.627">
  </linearGradient>
  <linearGradient id="id93" gradientUnits="userSpaceOnUse" xlink:href="#id0" x1="107.26" y1="122.188" x2="108.033" y2="120.062">
  </linearGradient>
  <linearGradient id="id94" gradientUnits="userSpaceOnUse" xlink:href="#id0" x1="111.895" y1="123.657" x2="112.669" y2="121.53">
  </linearGradient>
  <linearGradient id="id95" gradientUnits="userSpaceOnUse" xlink:href="#id42" x1="62.7591" y1="129.218" x2="62.4681" y2="121.253">
  </linearGradient>
  <linearGradient id="id96" gradientUnits="userSpaceOnUse" xlink:href="#id39" x1="137.333" y1="116.226" x2="140.591" y2="117.886">
  </linearGradient>
  <linearGradient id="id97" gradientUnits="userSpaceOnUse" xlink:href="#id0" x1="74.9353" y1="113.751" x2="75.2176" y2="111.457">
  </linearGradient>
  <linearGradient id="id98" gradientUnits="userSpaceOnUse" xlink:href="#id0" x1="130.447" y1="134.021" x2="131.669" y2="135.975">
  </linearGradient>
  <linearGradient id="id99" gradientUnits="userSpaceOnUse" xlink:href="#id1" x1="81.935" y1="138.344" x2="81.7955" y2="134.342">
  </linearGradient>
  <linearGradient id="id100" gradientUnits="userSpaceOnUse" xlink:href="#id39" x1="124.369" y1="103.494" x2="117.767" y2="124.899">
  </linearGradient>
  <linearGradient id="id101" gradientUnits="userSpaceOnUse" xlink:href="#id0" x1="124.877" y1="125.919" x2="126.912" y2="124.927">
  </linearGradient>
  <linearGradient id="id102" gradientUnits="userSpaceOnUse" xlink:href="#id1" x1="88.5125" y1="143.518" x2="88.1088" y2="131.953">
  </linearGradient>
  <linearGradient id="id103" gradientUnits="userSpaceOnUse" xlink:href="#id0" x1="70.6962" y1="140.976" x2="68.8393" y2="142.325">
  </linearGradient>
  <linearGradient id="id104" gradientUnits="userSpaceOnUse" xlink:href="#id0" x1="130.573" y1="131.568" x2="132.306" y2="133.074">
  </linearGradient>
  <linearGradient id="id105" gradientUnits="userSpaceOnUse" xlink:href="#id0" x1="72.5406" y1="123.966" x2="70.5008" y2="122.835">
  </linearGradient>
  <linearGradient id="id106" gradientUnits="userSpaceOnUse" xlink:href="#id0" x1="106.151" y1="137.765" x2="106.151" y2="140.041">
  </linearGradient>
  <linearGradient id="id107" gradientUnits="userSpaceOnUse" xlink:href="#id0" x1="85.2976" y1="137.765" x2="85.2976" y2="140.041">
  </linearGradient>
  <linearGradient id="id108" gradientUnits="userSpaceOnUse" xlink:href="#id0" x1="132.529" y1="128.626" x2="132.529" y2="136.972">
  </linearGradient>
  <linearGradient id="id109" gradientUnits="userSpaceOnUse" xlink:href="#id0" x1="87.6114" y1="137.765" x2="87.6114" y2="140.041">
  </linearGradient>
  <linearGradient id="id110" gradientUnits="userSpaceOnUse" xlink:href="#id1" x1="115.941" y1="138.107" x2="115.692" y2="130.972">
  </linearGradient>
 </defs>
 <g id="Слой_x0020_1">
  <metadata id="CorelCorpID_0Corel-Layer"/>
  <polygon class="fil0" points="133,124 137,122 138,123 133,135 132,135 132,129 "/>
  <path class="fil1" d="M138 122l-7 15 0 2 24 -1 0 0 3 0 0 -1 -4 0c0,0 -16,-15 -16,-15z"/>
  <path class="fil2" d="M77 101c0,0 7,-22 7,-25 1,-2 6,-2 13,-2 6,0 23,0 23,0l0 5c0,0 -2,0 -3,2 0,2 0,27 0,27l-6 9 -31 -10 -3 -6z"/>
  <path class="fil3" d="M65 95l15 2c0,0 -1,7 2,9 2,1 40,13 40,13l0 4 -2 5 -58 -1 -5 -6 8 -26z"/>
  <path class="fil4" d="M68 127c3,-4 9,-12 10,-13 2,-1 10,2 16,3 4,2 21,7 27,9l-1 2 -52 -1z"/>
  <path class="fil5" d="M122 119l-1 -1 1 1 0 0 0 0zm-61 7c2,-2 13,-14 15,-15 2,0 7,1 4,-3 -1,-2 -2,-4 -4,-6 1,0 3,1 4,2 -1,-3 0,-7 0,-7l-15 -2 -8 26 4 5z"/>
  <path class="fil6" d="M71 138c3,0 5,-2 5,-5 0,-3 -2,-5 -5,-5 -3,0 -5,2 -5,5 0,3 2,5 5,5z"/>
  <path class="fil7" d="M71 138c3,0 5,-2 5,-5 0,-3 -2,-5 -5,-5 -3,0 -5,2 -5,5 0,3 2,5 5,5z"/>
  <path class="fil8" d="M71 137c2,0 4,-2 4,-4 0,-2 -2,-4 -4,-4 -2,0 -4,2 -4,4 0,2 2,4 4,4z"/>
  <path class="fil9" d="M71 131c0,0 0,-1 0,-1 0,0 0,0 0,0 0,0 0,0 0,0 0,0 0,1 0,1z"/>
  <path class="fil9" d="M73 131c0,0 0,0 0,0 0,0 0,0 0,0 0,0 0,0 0,0 0,0 0,0 0,0z"/>
  <path class="fil9" d="M74 133c0,0 0,0 0,0 0,0 -1,0 -1,0 0,0 1,0 1,0 0,0 0,0 0,0z"/>
  <path class="fil9" d="M73 135c0,0 0,0 0,0 0,0 0,0 0,0 0,0 0,0 0,0 0,0 0,0 0,0z"/>
  <path class="fil9" d="M71 136c0,0 0,0 0,0 0,0 0,0 0,0 0,0 0,0 0,0 0,0 0,0 0,0z"/>
  <path class="fil9" d="M69 135c0,0 0,0 0,0 0,0 0,0 0,0 0,0 0,0 0,0 0,1 0,1 0,0z"/>
  <path class="fil9" d="M68 133c0,0 0,0 0,0 0,0 0,0 0,0 0,0 0,0 0,0 0,0 0,0 0,0z"/>
  <path class="fil9" d="M69 131c0,0 0,0 0,0 0,0 0,0 0,0 0,0 0,0 0,0 0,0 0,0 0,0z"/>
  <path class="fil10" d="M71 135c1,0 2,-1 2,-2 0,-1 -1,-2 -2,-2 -1,0 -2,1 -2,2 0,1 1,2 2,2z"/>
  <path class="fil11" d="M123 138c3,0 5,-2 5,-5 0,-3 -2,-5 -5,-5 -3,0 -5,2 -5,5 0,3 2,5 5,5z"/>
  <path class="fil7" d="M123 138c3,0 5,-2 5,-5 0,-3 -2,-5 -5,-5 -3,0 -5,2 -5,5 0,3 2,5 5,5z"/>
  <path class="fil12" d="M123 137c2,0 4,-2 4,-4 0,-2 -2,-4 -4,-4 -2,0 -4,2 -4,4 0,2 2,4 4,4z"/>
  <path class="fil9" d="M123 131c0,0 0,-1 0,-1 0,0 0,0 0,0 0,0 0,0 0,0 0,0 0,1 0,1z"/>
  <path class="fil9" d="M125 131c0,0 0,0 0,0 0,0 0,0 0,0 0,0 0,0 0,0 0,0 0,0 0,0z"/>
  <path class="fil9" d="M126 133c0,0 0,0 0,0 0,0 -1,0 -1,0 0,0 1,0 1,0 0,0 0,0 0,0z"/>
  <path class="fil9" d="M125 135c0,0 0,0 0,0 0,0 0,0 0,0 0,0 0,0 0,0 0,0 0,0 0,0z"/>
  <path class="fil9" d="M123 136c0,0 0,0 0,0 0,0 0,0 0,0 0,0 0,0 0,0 0,0 0,0 0,0z"/>
  <path class="fil9" d="M121 135c0,0 0,0 0,0 0,0 0,0 0,0 0,0 0,0 0,0 0,1 0,1 0,0z"/>
  <path class="fil9" d="M120 133c0,0 0,0 0,0 0,0 1,0 1,0 0,0 -1,0 -1,0 0,0 0,0 0,0z"/>
  <path class="fil9" d="M121 131c0,0 0,0 0,0 0,0 0,0 0,0 0,0 0,0 0,0 0,0 0,0 0,0z"/>
  <path class="fil13" d="M123 135c1,0 2,-1 2,-2 0,-1 -1,-2 -2,-2 -1,0 -2,1 -2,2 0,1 1,2 2,2z"/>
  <polygon class="fil14" points="115,108 118,108 118,78 115,78 "/>
  <polygon class="fil14" points="86,79 114,79 114,110 87,95 "/>
  <polygon class="fil15" points="116,108 119,108 119,79 116,79 "/>
  <polygon class="fil16" points="87,80 114,80 114,110 87,96 "/>
  <polygon class="fil17" points="116,108 119,108 119,90 116,90 "/>
  <polygon class="fil18" points="114,90 114,110 87,96 87,90 "/>
  <path class="fil19" d="M54 80c0,0 -5,-6 -5,-7 -1,0 -4,0 -3,3 1,3 3,9 3,9l5 8 8 -3 -8 -10z"/>
  <polygon class="fil20" points="87,82 89,80 90,80 87,82 "/>
  <polygon class="fil20" points="87,85 92,80 93,80 87,85 "/>
  <polygon class="fil20" points="87,88 95,80 96,80 87,89 "/>
  <polygon class="fil20" points="87,91 98,80 99,80 87,92 "/>
  <polygon class="fil20" points="87,94 101,80 102,80 87,95 "/>
  <polygon class="fil20" points="88,96 105,80 105,80 88,96 "/>
  <polygon class="fil20" points="90,97 108,80 108,80 90,98 "/>
  <polygon class="fil20" points="92,98 111,80 111,80 92,99 "/>
  <polygon class="fil20" points="94,99 114,80 114,80 94,100 "/>
  <polygon class="fil20" points="96,101 114,82 114,83 96,101 "/>
  <polygon class="fil20" points="98,102 114,85 114,86 98,102 "/>
  <polygon class="fil20" points="100,103 114,88 114,89 100,103 "/>
  <polygon class="fil20" points="102,104 114,91 114,92 102,104 "/>
  <polygon class="fil20" points="104,105 114,94 114,95 104,105 "/>
  <polygon class="fil20" points="106,106 114,97 114,98 106,106 "/>
  <polygon class="fil20" points="108,107 114,100 114,101 108,107 "/>
  <polygon class="fil20" points="110,108 114,104 114,104 110,108 "/>
  <polygon class="fil20" points="112,109 114,107 114,107 112,109 "/>
  <polygon class="fil20" points="114,110 114,110 114,110 114,110 "/>
  <polygon class="fil20" points="87,94 91,98 92,99 87,93 "/>
  <polygon class="fil20" points="87,91 98,101 99,102 87,90 "/>
  <polygon class="fil20" points="87,88 104,105 105,105 87,87 "/>
  <polygon class="fil20" points="87,85 110,108 111,109 87,84 "/>
  <polygon class="fil20" points="87,82 114,109 114,109 87,81 "/>
  <polygon class="fil20" points="88,80 114,106 114,106 89,80 "/>
  <polygon class="fil20" points="91,80 114,103 114,102 92,80 "/>
  <polygon class="fil20" points="94,80 114,100 114,99 95,80 "/>
  <polygon class="fil20" points="97,80 114,97 114,96 98,80 "/>
  <polygon class="fil20" points="100,80 114,94 114,93 101,80 "/>
  <polygon class="fil20" points="103,80 114,91 114,90 104,80 "/>
  <polygon class="fil20" points="107,80 114,88 114,87 107,80 "/>
  <polygon class="fil20" points="110,80 114,85 114,84 110,80 "/>
  <polygon class="fil20" points="113,80 114,81 114,81 113,80 "/>
  <path class="fil21" d="M54 80c0,0 5,4 14,6 8,1 23,2 23,2l30 15 12 11 1 12 -2 4 -2 -1 0 -6 -2 -5 -6 -6 -34 -15c0,0 -3,2 -5,2 -1,0 -4,-2 -6,-2 -1,0 -7,0 -7,0l-9 -4 -7 -13z"/>
  <polygon class="fil22" points="70,129 74,122 78,119 88,121 92,125 94,125 94,122 99,122 121,126 121,131 70,130 "/>
  <path class="fil23" d="M77 115l1 -1 1 1 -1 1 -1 -1 0 0zm10 2l0 1 -1 0 0 -1 1 0 0 0zm-3 -3l1 1 0 1 -2 -1 1 -1 0 0zm-4 0l2 0 0 1 -2 0 0 -1zm8 6l0 1 -1 0 0 -1 1 0 0 0zm-1 3l0 1 -1 0 1 -1 0 0 0 0zm-2 3l-1 1 0 -1 1 -1 0 1 0 0zm-3 1l-2 0 0 -1 2 0 0 1zm-4 0l-1 -1 1 -1 1 1 -1 1 0 0zm-3 -3l0 -1 1 0 0 1 -1 0 0 0zm-1 -3l0 -1 1 0 0 1 -1 0 0 0zm1 -3l0 -1 1 0 0 1 -1 0z"/>
  <path class="fil24" d="M81 127c3,0 6,-3 6,-6 0,-4 -3,-7 -6,-7 -3,0 -6,3 -6,7 0,3 3,6 6,6z"/>
  <path class="fil7" d="M81 126c3,0 6,-2 6,-5 0,-4 -3,-6 -6,-6 -3,0 -6,2 -6,6 0,3 3,5 6,5z"/>
  <path class="fil25" d="M81 125c3,0 5,-2 5,-4 0,-3 -2,-5 -5,-5 -3,0 -5,2 -5,5 0,2 2,4 5,4z"/>
  <path class="fil9" d="M81 118c0,0 0,0 0,-1 0,0 0,0 0,0 0,0 0,0 0,0 0,1 0,1 0,1z"/>
  <path class="fil9" d="M84 118c0,0 0,0 0,1 -1,0 -1,0 -1,0 0,-1 0,-1 0,-1 0,0 0,0 1,0z"/>
  <path class="fil9" d="M85 121c0,0 -1,0 -1,0 0,0 0,0 0,0 0,-1 0,-1 0,-1 0,0 1,0 1,1z"/>
  <path class="fil9" d="M84 123c-1,0 -1,0 -1,0 0,0 0,0 0,0 0,-1 0,-1 1,0 0,0 0,0 0,0z"/>
  <path class="fil9" d="M81 124c0,0 0,0 0,0 0,0 0,-1 0,-1 0,0 0,1 0,1 0,0 0,0 0,0z"/>
  <path class="fil9" d="M79 123c-1,0 -1,0 0,0 0,-1 0,-1 0,0 0,0 0,0 0,0 0,0 0,0 0,0z"/>
  <path class="fil9" d="M77 121c0,-1 1,-1 1,-1 0,0 0,0 0,1 0,0 0,0 0,0 0,0 -1,0 -1,0z"/>
  <path class="fil9" d="M78 118c1,0 1,0 1,0 0,0 0,0 0,1 0,0 0,0 -1,0 0,-1 0,-1 0,-1z"/>
  <path class="fil26" d="M81 123c1,0 2,-1 2,-2 0,-2 -1,-3 -2,-3 -1,0 -2,1 -2,3 0,1 1,2 2,2z"/>
  <path class="fil27" d="M81 121c0,0 0,0 0,0 0,-1 0,-1 0,-1 0,0 0,0 0,1 0,0 0,0 0,0z"/>
  <path class="fil28" d="M80 138c2,0 3,-1 3,-3 0,-1 -1,-3 -3,-3 -2,0 -3,2 -3,3 0,2 1,3 3,3z"/>
  <path class="fil7" d="M80 138c2,0 3,-1 3,-3 0,-1 -1,-2 -3,-2 -2,0 -3,1 -3,2 0,2 1,3 3,3z"/>
  <path class="fil29" d="M80 138c1,0 2,-1 2,-3 0,-1 -1,-2 -2,-2 -1,0 -2,1 -2,2 0,2 1,3 2,3z"/>
  <path class="fil30" d="M80 136c1,0 1,0 1,-1 0,0 0,-1 -1,-1 -1,0 -1,1 -1,1 0,1 0,1 1,1z"/>
  <path class="fil31" d="M88 138c2,0 3,-1 3,-3 0,-1 -1,-3 -3,-3 -1,0 -3,2 -3,3 0,2 2,3 3,3z"/>
  <path class="fil32" d="M88 138c2,0 3,-1 3,-3 0,-1 -1,-2 -3,-2 -1,0 -3,1 -3,2 0,2 2,3 3,3z"/>
  <path class="fil33" d="M88 138c2,0 3,-1 3,-3 0,-1 -1,-2 -3,-2 -1,0 -2,1 -2,2 0,2 1,3 2,3z"/>
  <path class="fil34" d="M88 136c1,0 1,0 1,-1 0,0 0,-1 -1,-1 0,0 -1,1 -1,1 0,1 1,1 1,1z"/>
  <path class="fil35" d="M97 138c1,0 3,-1 3,-3 0,-1 -2,-3 -3,-3 -2,0 -3,2 -3,3 0,2 1,3 3,3z"/>
  <path class="fil36" d="M97 138c1,0 2,-1 2,-3 0,-1 -1,-2 -2,-2 -2,0 -3,1 -3,2 0,2 1,3 3,3z"/>
  <path class="fil37" d="M97 138c1,0 2,-1 2,-3 0,-1 -1,-2 -2,-2 -2,0 -3,1 -3,2 0,2 1,3 3,3z"/>
  <path class="fil38" d="M97 136c0,0 1,0 1,-1 0,0 -1,-1 -1,-1 -1,0 -1,1 -1,1 0,1 0,1 1,1z"/>
  <path class="fil39" d="M105 138c2,0 3,-1 3,-3 0,-1 -1,-3 -3,-3 -2,0 -3,2 -3,3 0,2 1,3 3,3z"/>
  <path class="fil40" d="M105 138c2,0 3,-1 3,-3 0,-1 -1,-2 -3,-2 -2,0 -3,1 -3,2 0,2 1,3 3,3z"/>
  <path class="fil41" d="M105 138c1,0 2,-1 2,-3 0,-1 -1,-2 -2,-2 -1,0 -2,1 -2,2 0,2 1,3 2,3z"/>
  <path class="fil42" d="M105 136c1,0 1,0 1,-1 0,0 0,-1 -1,-1 -1,0 -1,1 -1,1 0,1 0,1 1,1z"/>
  <path class="fil43" d="M114 138c2,0 3,-1 3,-3 0,-1 -1,-3 -3,-3 -2,0 -3,2 -3,3 0,2 1,3 3,3z"/>
  <path class="fil44" d="M114 138c2,0 3,-1 3,-3 0,-1 -1,-2 -3,-2 -1,0 -3,1 -3,2 0,2 2,3 3,3z"/>
  <path class="fil45" d="M114 138c1,0 2,-1 2,-3 0,-1 -1,-2 -2,-2 -1,0 -2,1 -2,2 0,2 1,3 2,3z"/>
  <path class="fil46" d="M114 136c1,0 1,0 1,-1 0,0 0,-1 -1,-1 -1,0 -1,1 -1,1 0,1 0,1 1,1z"/>
  <path class="fil20" d="M76 117c0,1 -9,13 -10,14l0 0c0,1 0,1 0,2l0 0c0,1 0,1 0,2 1,1 1,2 2,2 1,1 2,1 3,1 4,0 40,0 50,0l0 0 3 0 0 0c1,0 1,-1 2,-1 1,-1 2,-2 2,-3l0 0c1,-2 -1,-4 -2,-5 -2,-1 -5,-2 -7,-3l-8 -2 0 0c-9,-3 -24,-8 -28,-9 -2,-1 -3,-1 -4,0 -1,0 -2,1 -2,1 0,0 0,0 0,0 0,1 0,1 -1,1l0 0zm-11 14c1,-2 9,-14 10,-15 0,0 1,-1 1,-1 0,-1 1,-1 2,-2 1,0 3,-1 6,0 3,1 18,6 28,9l0 0 0 0 8 3c2,0 5,1 7,3 2,1 3,4 2,7l0 0c0,1 -1,2 -2,3 -1,1 -2,1 -3,1l0 0 -3 0 0 0c-10,1 -46,1 -50,0 -2,0 -3,0 -4,-1 -1,0 -2,-1 -2,-2 0,-1 -1,-2 -1,-3l0 0c0,-1 1,-2 1,-2l0 0zm-1 2l0 0 0 0z"/>
  <polygon class="fil47" points="120,138 122,138 122,140 121,140 121,140 120,140 120,139 121,139 121,138 120,138 "/>
  <polygon class="fil48" points="118,138 119,138 119,140 119,140 119,140 118,140 118,139 119,139 119,138 118,138 "/>
  <polygon class="fil49" points="115,138 117,138 117,140 116,140 116,140 115,140 115,139 116,139 116,138 115,138 "/>
  <polygon class="fil50" points="113,138 115,138 115,140 114,140 114,140 113,140 113,139 114,139 114,138 113,138 "/>
  <polygon class="fil51" points="111,138 112,138 112,140 112,140 112,140 111,140 111,139 112,139 112,138 111,138 "/>
  <polygon class="fil52" points="108,138 110,138 110,140 109,140 109,140 108,140 108,139 109,139 109,138 108,138 "/>
  <polygon class="fil53" points="106,138 108,138 108,140 107,140 107,140 106,140 106,139 107,139 107,138 106,138 "/>
  <polygon class="fil54" points="104,138 105,138 105,140 105,140 105,140 104,140 104,139 105,139 105,138 104,138 "/>
  <polygon class="fil55" points="101,138 103,138 103,140 102,140 102,140 101,140 101,139 102,139 102,138 101,138 "/>
  <polygon class="fil56" points="99,138 101,138 101,140 100,140 100,140 99,140 99,139 100,139 100,138 99,138 "/>
  <polygon class="fil57" points="97,138 99,138 99,140 98,140 98,140 97,140 97,139 98,139 98,138 97,138 "/>
  <polygon class="fil58" points="94,138 96,138 96,140 95,140 95,140 94,140 94,139 95,139 95,138 94,138 "/>
  <polygon class="fil59" points="92,138 94,138 94,140 93,140 93,140 92,140 92,139 93,139 93,138 92,138 "/>
  <polygon class="fil60" points="90,138 92,138 92,140 91,140 91,140 90,140 90,139 91,139 91,138 90,138 "/>
  <polygon class="fil61" points="88,138 89,138 89,140 88,140 88,140 88,140 88,139 88,139 88,138 88,138 "/>
  <polygon class="fil62" points="85,138 87,138 87,140 86,140 86,140 85,140 85,139 86,139 86,138 85,138 "/>
  <polygon class="fil63" points="83,138 85,138 85,140 84,140 84,140 83,140 83,139 84,139 84,138 83,138 "/>
  <polygon class="fil64" points="81,138 82,138 82,140 81,140 81,140 81,140 81,139 81,139 81,138 81,138 "/>
  <polygon class="fil65" points="78,138 80,138 80,140 79,140 79,140 78,140 78,139 79,139 79,138 78,138 "/>
  <polygon class="fil66" points="76,138 78,138 78,140 77,140 77,140 76,140 76,139 77,139 77,138 76,138 "/>
  <polygon class="fil67" points="74,138 75,138 75,140 75,140 75,140 74,140 74,139 75,139 75,138 74,138 "/>
  <polygon class="fil68" points="71,138 73,138 73,140 72,140 72,140 71,140 71,139 72,139 72,138 71,138 "/>
  <polygon class="fil69" points="69,138 71,138 71,140 70,140 70,140 69,140 69,139 70,139 70,138 69,138 "/>
  <polygon class="fil70" points="67,137 69,138 68,140 67,139 67,139 67,138 67,138 68,138 68,138 67,137 "/>
  <polygon class="fil71" points="67,135 68,137 66,138 65,137 66,137 65,136 65,136 66,137 66,136 66,136 "/>
  <polygon class="fil72" points="66,133 66,135 64,136 64,135 64,135 64,134 65,134 65,135 65,134 65,134 "/>
  <polygon class="fil73" points="66,132 66,133 64,133 64,133 64,132 64,132 65,132 65,132 65,132 65,132 "/>
  <polygon class="fil74" points="67,130 66,132 64,131 65,130 65,130 66,129 66,130 66,130 66,131 67,130 "/>
  <polygon class="fil75" points="68,128 68,130 66,129 66,128 66,128 67,128 67,128 67,129 67,129 68,128 "/>
  <polygon class="fil76" points="70,127 69,128 67,127 67,126 68,127 68,126 69,126 68,127 69,127 69,126 "/>
  <polygon class="fil77" points="71,125 70,126 68,125 68,125 69,125 69,124 70,124 69,125 70,125 70,125 "/>
  <polygon class="fil78" points="72,123 71,125 69,124 70,123 70,123 71,122 71,122 71,123 71,124 72,123 "/>
  <polygon class="fil79" points="73,121 73,123 71,122 71,121 71,121 72,120 72,121 72,121 72,122 73,121 "/>
  <polygon class="fil80" points="75,120 74,121 72,120 72,119 73,119 73,119 74,119 73,120 74,120 74,119 "/>
  <polygon class="fil81" points="76,118 75,119 73,118 73,117 74,118 74,117 75,117 74,118 75,118 75,117 "/>
  <polygon class="fil82" points="77,116 76,117 74,116 75,116 75,116 76,115 76,115 76,116 76,116 77,116 "/>
  <polygon class="fil83" points="78,115 77,116 76,114 76,114 77,114 77,114 78,114 77,115 77,115 78,114 "/>
  <polygon class="fil84" points="80,114 79,115 78,113 79,112 79,113 80,113 80,113 79,113 79,114 80,114 "/>
  <polygon class="fil85" points="82,115 80,114 81,112 81,112 81,113 82,113 82,113 81,113 81,114 82,114 "/>
  <polygon class="fil86" points="84,115 82,114 83,112 84,113 84,113 84,113 84,114 83,113 83,114 84,114 "/>
  <polygon class="fil87" points="86,116 84,115 85,113 86,113 86,114 87,114 87,115 86,114 85,115 86,115 "/>
  <polygon class="fil88" points="88,116 87,116 88,114 88,114 88,114 89,115 89,115 88,115 88,116 89,116 "/>
  <polygon class="fil89" points="91,117 89,117 90,114 91,115 91,115 91,116 91,116 90,116 90,116 91,117 "/>
  <polygon class="fil90" points="93,118 91,117 92,115 93,115 93,116 94,116 93,117 93,116 92,117 93,117 "/>
  <polygon class="fil91" points="95,119 94,118 95,116 95,116 95,117 96,117 96,117 95,117 95,118 96,118 "/>
  <polygon class="fil92" points="98,119 96,119 97,117 98,117 97,117 98,118 98,118 97,118 97,118 98,119 "/>
  <polygon class="fil93" points="100,120 98,120 99,117 100,118 100,118 101,118 100,119 100,119 99,119 100,120 "/>
  <polygon class="fil94" points="102,121 101,120 101,118 102,118 102,119 103,119 103,120 102,119 102,120 103,120 "/>
  <polygon class="fil95" points="105,122 103,121 104,119 105,119 104,120 105,120 105,120 104,120 104,121 105,121 "/>
  <polygon class="fil96" points="107,122 105,122 106,120 107,120 107,120 108,121 107,121 107,121 106,121 107,122 "/>
  <polygon class="fil97" points="109,123 108,122 108,120 109,121 109,121 110,121 110,122 109,122 109,122 109,122 "/>
  <polygon class="fil98" points="112,124 110,123 111,121 112,121 111,122 112,122 112,123 111,122 111,123 112,123 "/>
  <polygon class="fil99" points="114,125 112,124 113,122 114,122 114,123 115,123 114,123 114,123 113,124 114,124 "/>
  <polygon class="fil100" points="116,125 115,125 115,123 116,123 116,123 117,124 117,124 116,124 116,124 116,125 "/>
  <polygon class="fil101" points="119,126 117,125 118,123 118,124 118,124 119,124 119,125 118,125 118,125 119,125 "/>
  <polygon class="fil102" points="121,127 119,126 120,124 121,124 121,125 121,125 121,126 120,125 120,126 121,126 "/>
  <polygon class="fil103" points="123,128 122,127 122,125 123,125 123,126 124,126 124,126 123,126 123,127 123,127 "/>
  <polygon class="fil104" points="125,129 124,128 125,126 125,126 125,127 126,127 126,128 125,127 125,128 125,128 "/>
  <polygon class="fil105" points="127,131 126,129 127,128 128,128 128,129 128,129 128,130 127,129 127,129 128,130 "/>
  <polygon class="fil106" points="128,132 127,131 129,130 130,130 129,131 130,131 129,132 129,131 128,131 129,132 "/>
  <polygon class="fil107" points="128,134 128,132 130,132 130,133 130,133 130,134 129,134 129,133 129,133 129,134 "/>
  <polygon class="fil108" points="127,136 128,134 130,135 130,136 129,136 129,136 128,136 129,135 128,135 128,136 "/>
  <polygon class="fil109" points="126,137 127,136 129,137 128,138 128,137 127,138 127,138 128,137 127,137 126,137 "/>
  <polygon class="fil110" points="125,138 126,137 127,139 126,139 126,139 125,139 125,139 126,138 126,138 125,138 "/>
  <polygon class="fil111" points="122,138 124,138 124,140 123,140 123,140 123,140 122,139 123,139 123,138 122,139 "/>
  <polygon class="fil112" points="69,129 111,129 111,133 111,133 111,133 107,136 104,136 103,135 100,135 98,136 95,136 94,135 91,135 90,136 87,136 85,135 83,135 81,136 78,136 77,135 70,135 69,133 69,133 "/>
  <polygon class="fil113" points="114,129 114,133 113,134 113,135 123,134 124,130 118,129 "/>
  <path class="fil114" d="M124 131l-6 -2 -4 0 0 4 0 0 -1 1 -1 0 2 -2 0 -3 0 0 4 -1 0 0 0 0 6 2 0 1 0 0zm-55 -2l42 0 0 0 -42 0 0 0z"/>
  <path class="fil115" d="M113 135l10 -2 0 -3 1 0 0 4 -1 0 0 0 -10 1 0 0 0 0zm-1 -6l0 4 0 0 0 0 0 0 -1 0 -3 3 -1 0 -3 0 0 0 -1 -1 -3 0 -2 1 0 0 -3 0 0 0 -2 -1 -2 0 -1 1 0 0 -4 0 0 0 -1 -1 -2 0 -2 1 0 0 -3 0 0 0 -1 -1 -7 0 0 0 -1 -2 0 0 0 0 0 -4 0 0 0 4 1 1 7 0 0 0 1 2 3 0 2 -2 0 0 2 0 0 0 2 2 3 0 1 -2 0 0 3 0 0 0 1 2 3 0 2 -2 0 0 3 0 0 0 1 2 3 0 4 -3 0 0 0 0 0 -4 1 0z"/>
  <path class="fil114" d="M54 80c0,0 6,4 14,6 8,1 23,2 23,2l0 0 0 0 31 15 0 0 0 0 11 11 0 0 0 0 1 12 0 0 0 0 -2 4 0 -1 1 -3 0 -12 -12 -11 -30 -15c-1,0 -16,-1 -23,-2 -9,-1 -14,-6 -14,-6l0 0z"/>
  <path class="fil116" d="M132 130l-2 -1 -1 0 0 0 1 -6 -3 -5 -5 -5 -34 -15c0,0 -3,1 -5,1 -1,0 -2,-1 -3,-1 -1,-1 -2,-1 -3,-1l-7 0 0 0 -10 -4 1 0 9 3 7 0c1,0 2,1 3,2 1,0 2,1 3,1 2,0 5,-2 5,-2l0 0 0 0 34 15 0 0 0 0 6 6 0 0 0 0 2 4 0 0 0 1 0 6 2 0 0 1z"/>
  <path class="fil117" d="M54 93c0,0 -5,0 -6,3 0,3 0,24 0,25 0,0 5,1 5,1 0,0 1,-29 1,-29z"/>
  <path class="fil118" d="M53 93l-2 31 7 0c0,0 14,-15 16,-16 2,0 7,1 4,-3 -3,-4 -5,-9 -10,-12 -5,-2 -9,-4 -12,-3 -2,1 -3,3 -3,3z"/>
  <path class="fil114" d="M79 107c-1,-1 -3,-4 -3,-5 -2,-3 -4,-6 -8,-8 -3,-2 -5,-3 -7,-3 -2,-1 -3,-1 -5,0 -2,0 -3,2 -3,2l-2 31 0 0 2 -31 0 0 0 0c0,0 1,-2 3,-3 1,0 3,0 5,0 2,1 5,2 7,3 4,2 6,6 8,9 1,1 2,4 3,5l0 0z"/>
  <path class="fil116" d="M51 123l7 0c1,-1 14,-14 16,-15 1,0 2,0 2,0 1,0 2,0 3,0l0 0c-1,0 -2,0 -3,0 0,0 -1,0 -2,1 -2,0 -15,15 -15,15l-1 0 -7 0 0 -1z"/>
  <path class="fil14" d="M55 98l5 -5c1,0 1,0 2,0l-7 7 0 -2z"/>
  <path class="fil14" d="M55 98l5 -5c1,0 1,0 2,0l-7 7 0 -2z"/>
  <path class="fil14" d="M55 98l5 -5c1,0 1,0 2,0l-7 7 0 -2z"/>
  <path class="fil14" d="M55 102l8 -8c0,0 1,0 1,0l-9 10 0 -2z"/>
  <path class="fil14" d="M55 105l10 -10c1,0 1,0 1,0l-12 12 1 -2z"/>
  <path class="fil14" d="M54 109l13 -13c1,0 1,0 1,0l-14 15 0 -2z"/>
  <path class="fil14" d="M54 112l15 -15c0,0 1,1 1,1l-16 16 0 -2z"/>
  <path class="fil14" d="M54 116l17 -17c0,0 0,0 0,1l-17 17 0 -1z"/>
  <path class="fil14" d="M53 119l19 -18c0,0 1,0 1,1l-18 17 -2 0 0 0z"/>
  <path class="fil14" d="M57 119l16 -16c1,0 1,0 1,1l-16 15 -1 0z"/>
  <path class="fil116" d="M88 89c2,0 3,0 3,1l0 0c1,1 1,2 1,3 0,1 0,2 -1,3l0 0c0,0 -1,1 -3,1 -1,0 -2,-1 -2,-1l0 0c-1,-1 -2,-2 -2,-3 0,-1 1,-2 2,-3l0 0c0,-1 1,-1 2,-1l0 0zm3 1c-1,0 -2,-1 -3,-1 -1,0 -2,1 -2,1l0 0c-1,1 -1,2 -1,3 0,1 0,2 1,2 0,1 1,1 2,1 1,0 2,0 3,-1 1,0 1,-1 1,-2 0,-1 0,-2 -1,-3z"/>
  <path class="fil116" d="M132 124c0,0 1,0 1,1l0 0 0 0c0,0 1,0 1,1 0,0 -1,1 -1,1l0 0 0 0c0,0 -1,1 -1,1 -1,0 -1,-1 -2,-1l0 0 0 0c0,0 0,-1 0,-1 0,-1 0,-1 0,-1l0 0 0 0c1,-1 1,-1 2,-1l0 0zm1 1c-1,0 -1,-1 -1,-1 -1,0 -1,1 -1,1l0 0 0 0c-1,0 -1,0 -1,1 0,0 0,1 1,1l0 0 0 0c0,0 0,0 1,0 0,0 0,0 1,0l0 0 0 0c0,0 0,-1 0,-1 0,-1 0,-1 0,-1l0 0 0 0z"/>
  <polygon class="fil14" points="100,94 101,94 96,100 95,99 "/>
  <polygon class="fil14" points="100,94 101,94 96,100 95,99 "/>
  <polygon class="fil14" points="100,94 101,94 96,100 95,99 "/>
  <polygon class="fil14" points="103,95 104,96 98,101 97,100 "/>
  <polygon class="fil14" points="105,96 106,97 101,102 100,102 "/>
  <polygon class="fil14" points="107,97 108,98 103,103 102,103 "/>
  <polygon class="fil14" points="110,98 111,99 106,104 104,104 "/>
  <polygon class="fil14" points="112,100 113,100 108,105 107,105 "/>
  <polygon class="fil14" points="114,101 116,101 110,106 109,106 "/>
  <polygon class="fil14" points="117,102 118,102 113,108 112,107 "/>
  <polygon class="fil119" points="93,77 120,77 120,75 93,75 "/>
 </g>
</svg>
