<?xml version="1.0" encoding="UTF-8"?>
<!DOCTYPE svg PUBLIC "-//W3C//DTD SVG 1.1//EN" "http://www.w3.org/Graphics/SVG/1.1/DTD/svg11.dtd">
<!-- Creator: CorelDRAW X8 -->
<svg xmlns="http://www.w3.org/2000/svg" xml:space="preserve" width="150px" height="50px" version="1.1" style="shape-rendering:geometricPrecision; text-rendering:geometricPrecision; image-rendering:optimizeQuality; fill-rule:evenodd; clip-rule:evenodd"
viewBox="0 0 150 50"
 xmlns:xlink="http://www.w3.org/1999/xlink">
 <defs>
  <style type="text/css">
   <![CDATA[
    .fil1 {fill:#252422;fill-rule:nonzero}
    .fil0 {fill:black;fill-rule:nonzero}
   ]]>
  </style>
 </defs>
 <g id="Слой_x0020_1">
  <metadata id="CorelCorpID_0Corel-Layer"/>
  <g>
   <path class="fil0" d="M0 13c0,0 3,0 9,0 4,0 20,29 20,29l0 -29 6 0 0 34c0,0 -3,0 -9,0 -5,0 -20,-28 -20,-28l0 28 -6 0 0 -34z"/>
   <path id="1" class="fil1" d="M9 13l0 0 0 0 -1 0 0 0 -1 0 0 0 -1 0 0 0 0 0 -1 0 0 0 -1 0 0 0 0 0 -1 0 0 0 0 0 -1 0 0 0 0 0 0 0 0 0 -1 1 0 0 0 0 0 0 0 0 0 0 0 0 -1 0 0 0 0 0 0 0 0 0 0 -1 0 0 0 0 0 0 0 0 1 0 0 0 0 0 0 0 0 0 0 0 0 0 1 0 0 0 0 0 0 0 0 0 1 0 0 0 0 0 1 0 0 0 0 0 1 0 0 0 1 0 0 0 0 0 1 0 0 0 1 0 0 0 1 0 0 0zm0 0l0 0 0 0 0 0zm20 29l1 0 -1 0 0 0 0 0 0 0 0 -1 -1 -1 0 0 -1 -1 0 -1 -1 -1 -1 -1 0 -2 -1 -1 -1 -1 -1 -2 -1 -1 0 -1 -1 -2 -1 -1 -1 -1 -1 -2 -1 -1 -1 -1 0 -1 -1 -1 -1 -1 -1 -1 -1 -1 0 0 -1 -1 0 0 -1 0 0 -1 0 0 0 0 1 0 0 1 1 0 1 1 0 1 1 1 1 1 1 1 1 1 1 1 0 1 1 1 1 2 1 1 1 1 1 2 1 1 0 2 1 1 1 1 1 1 0 1 1 2 1 1 0 0 1 1 0 1 0 0 0 1 1 0 0 0 -1 0zm1 0l0 1 -1 -1 1 0zm0 -29l0 29 -1 0 0 -29 0 0 1 0zm-1 0l0 0 0 0 0 0zm6 0l-6 0 0 0 6 0 0 0 0 0zm0 0l0 0 0 0 0 0zm-1 34l0 -34 1 0 0 34 0 0 -1 0zm1 0l0 0 0 0 0 0zm-8 0l-1 0 0 0 1 0 0 0 1 0 0 0 1 0 0 0 1 0 0 0 0 0 1 0 0 0 0 0 1 0 0 0 0 0 1 0 0 0 0 0 0 0 0 0 1 0 0 0 0 0 0 0 0 0 0 0 0 0 0 0 1 0 0 0 0 0 0 0 0 0 0 0 0 0 0 0 -1 0 0 0 0 0 0 0 0 0 0 0 0 0 0 0 -1 0 0 0 0 0 0 0 0 0 -1 0 0 0 0 0 -1 0 0 0 0 0 -1 0 0 0 0 0 -1 0 0 0 -1 0 0 0 -1 0 0 0 0 0 0 0zm-21 -28l0 0 0 0 0 0 0 0 1 0 0 1 0 1 1 0 0 1 1 1 0 1 1 1 1 1 0 2 1 1 1 1 1 2 0 1 1 1 1 2 1 1 1 1 1 1 1 1 0 2 1 1 1 1 1 0 0 1 1 1 1 0 0 1 1 0 0 0 1 0 -1 0 -1 0 0 0 -1 -1 -1 -1 -1 0 0 -1 -1 -1 -1 -1 -1 -1 -1 -1 -1 -2 0 -1 -1 -1 -1 -2 -1 -1 -1 -1 -1 -2 0 -1 -1 -1 -1 -1 -1 -2 0 -1 -1 -1 0 -1 -1 0 0 -1 -1 -1 0 0 0 -1 0 0 0 0 0 0zm0 0l0 -1 0 1 0 0zm0 28l0 -28 0 0 0 28 0 0 0 0zm0 0l0 0 0 0 0 0zm-6 0l6 0 0 0 -6 0 0 0 0 0zm0 0l0 0 0 0 0 0zm1 -34l0 34 -1 0 0 -34 0 0 1 0zm-1 0l0 0 0 0 0 0z"/>
  </g>
  <g>
   <path class="fil0" d="M75 47l-9 0 -12 -24 -10 19 16 0 2 5c0,0 -18,0 -21,0 -3,0 -6,-3 -4,-6 2,-4 17,-32 17,-32l21 38z"/>
   <path id="1" class="fil1" d="M66 47l9 0 0 0 -9 0 0 0 0 0zm0 0l0 0 0 0 0 0zm-12 -24l12 24 0 0 -12 -24 0 0 0 0zm0 0l0 0 0 0 0 0zm-10 19l10 -19 0 0 -9 20 -1 0 0 -1zm0 1l0 0 0 -1 0 1zm16 0l-16 0 0 -1 16 0 0 0 0 1zm0 -1l0 0 0 0 0 0zm2 5l-2 -4 0 -1 2 5 0 0 0 0zm0 0l1 0 -1 0 0 0zm-21 0l0 0 0 0 0 0 0 0 1 0 0 0 1 0 1 0 0 0 1 0 1 0 1 0 1 0 1 0 1 0 1 0 1 0 1 0 0 0 1 0 1 0 1 0 1 0 1 0 1 0 0 0 1 0 0 0 1 0 0 0 1 0 0 0 0 0 0 0 0 0 0 0 0 0 0 0 -1 0 0 0 -1 0 0 0 -1 0 0 0 -1 0 -1 0 -1 0 -1 0 -1 0 -1 0 0 0 -1 0 -1 0 -1 0 -1 0 -1 0 -1 0 -1 0 -1 0 -1 0 0 0 -1 0 -1 0 0 0 -1 0 0 0 0 0 0 0zm-4 -7l0 1 0 0 0 0 0 0 0 1 0 0 0 0 0 0 0 1 0 0 0 0 0 1 0 0 0 0 0 0 0 1 0 0 0 0 0 0 1 0 0 1 0 0 0 0 0 0 0 0 1 0 0 0 0 1 0 0 1 0 0 0 0 0 0 0 1 0 0 0 -1 0 0 0 0 0 -1 0 0 0 0 0 0 0 -1 0 0 0 0 -1 0 0 0 0 -1 0 0 0 0 -1 0 0 0 0 0 0 0 -1 0 0 -1 0 0 0 0 -1 0 0 0 0 0 -1 0 0 1 0 0 -1 0 0 0 0 0 -1 0 0zm17 -31l0 0 0 0 0 1 0 0 0 0 0 1 -1 0 0 1 -1 1 0 1 -1 1 0 1 -1 1 -1 1 0 2 -1 1 -1 1 -1 2 0 1 -1 1 -1 2 -1 1 0 1 -1 2 -1 1 0 1 -1 1 0 1 -1 1 0 1 -1 1 0 1 0 0 -1 1 0 -1 0 0 0 -1 1 0 0 -1 1 -1 0 -1 1 -1 0 -1 1 -1 1 -1 0 -2 1 -1 1 -1 1 -2 0 -1 1 -2 1 -1 1 -1 0 -2 1 -1 1 -1 0 -1 1 -1 0 -1 1 -1 0 -1 1 -1 0 -1 1 0 0 0 0 -1 0 0 0 0zm0 0l0 0 0 0 0 0zm20 38l-20 -38 0 0 21 38 0 0 -1 0zm1 0l0 0 0 0 0 0z"/>
  </g>
  <g>
   <path class="fil0" d="M104 18c0,0 0,0 -14,0 -15,0 -13,24 0,24 12,0 14,0 14,0l0 5c0,0 -2,0 -16,0 -21,0 -22,-34 -1,-34 14,1 17,0 17,0l0 5z"/>
   <path id="1" class="fil1" d="M90 18l0 0 0 0 1 0 1 0 2 0 1 0 1 0 0 0 1 0 1 0 1 0 0 0 1 0 1 0 0 0 1 0 0 0 0 0 1 0 0 0 0 0 0 0 0 0 0 0 1 0 0 0 0 0 0 0 0 0 0 0 0 0 0 0 0 0 0 0 0 0 0 0 0 0 0 0 0 0 0 0 0 0 0 0 0 0 0 0 -1 0 0 0 0 0 0 0 0 0 0 0 -1 0 0 0 0 0 -1 0 0 0 -1 0 -1 0 0 0 -1 0 -1 0 -1 0 0 0 -1 0 -1 0 -2 0 -1 0 -1 0 0 0zm0 24l0 1 0 0 -1 -1 -1 0 -2 0 0 -1 -1 0 -1 -1 -1 -1 -1 0 0 -1 -1 -1 0 -1 -1 -1 0 -1 0 -2 0 -1 0 -1 0 -1 0 -1 0 -1 0 -1 0 -1 1 -1 0 -1 1 -1 0 -1 1 -1 1 -1 1 0 1 -1 1 0 1 0 2 0 0 0 -1 0 -2 1 -1 0 -1 0 -1 1 -1 0 0 1 -1 1 0 1 -1 1 0 1 -1 1 0 1 0 1 0 1 0 1 0 1 0 1 0 2 1 1 0 1 1 1 0 1 1 0 0 1 1 1 1 1 1 0 1 1 1 0 1 0 1 0 0 0zm14 0l0 0 0 1 0 0 0 0 0 0 0 0 0 0 0 0 0 0 -1 0 0 0 0 0 0 0 0 0 -1 0 0 0 0 0 -1 0 0 0 0 0 -1 0 0 0 -1 0 -1 0 0 0 -1 0 -1 0 0 0 -1 0 -1 0 -1 0 -1 0 -1 0 -1 0 0 -1 1 0 1 0 1 0 1 0 1 0 1 0 0 0 1 0 1 0 0 0 1 0 1 0 0 0 1 0 0 0 0 0 1 0 0 0 0 0 1 0 0 0 0 0 0 0 0 0 1 0 0 0 0 0 0 0 0 0 0 0 0 0 0 0 0 0zm0 0l0 0 0 0 0 0zm0 5l0 -5 0 0 0 5 0 0 0 0zm0 0l0 0 0 0 0 0zm-16 0l0 0 0 0 1 0 2 0 1 0 1 0 1 0 1 0 1 0 0 0 1 0 1 0 1 0 0 0 1 0 0 0 1 0 0 0 1 0 0 0 0 0 1 0 0 0 0 0 0 0 0 0 0 0 1 0 0 0 0 0 0 0 0 0 0 0 0 0 0 0 0 0 0 0 0 0 0 0 0 0 0 0 -1 0 0 0 0 0 0 0 0 0 0 0 -1 0 0 0 0 0 -1 0 0 0 -1 0 0 0 -1 0 0 0 -1 0 -1 0 -1 0 0 0 -1 0 -1 0 -1 0 -1 0 -1 0 -2 0 -1 0 0 0zm-1 -34l0 1 0 0 -2 0 -2 0 -1 0 -2 1 -1 1 -1 1 -2 1 -1 1 0 1 -1 1 -1 2 0 1 -1 2 0 1 0 2 0 1 0 2 0 1 0 2 1 2 0 1 1 1 1 2 1 1 1 1 1 1 2 1 1 1 2 0 1 1 2 0 2 0 0 0 -2 0 -2 0 -1 0 -2 -1 -2 -1 -1 -1 -1 -1 -1 -1 -1 -1 -1 -1 -1 -2 0 -1 -1 -2 0 -1 -1 -2 0 -2 0 -1 1 -2 0 -1 0 -2 1 -1 0 -2 1 -1 1 -1 1 -2 1 -1 2 -1 1 0 2 -1 1 0 2 -1 2 0 0 0zm0 0l0 0 0 0 0 0zm17 0l0 0 0 1 0 0 0 0 0 0 0 0 -1 0 0 0 0 0 0 0 0 0 0 0 -1 0 0 0 0 0 -1 0 0 0 0 0 -1 0 0 0 -1 0 -1 0 0 0 -1 0 -1 0 0 0 -1 0 -1 0 -1 0 -1 0 -1 0 -1 0 -2 0 -1 0 0 -1 1 0 2 0 1 0 1 0 1 0 1 0 1 0 1 0 0 0 1 0 1 0 0 0 1 0 1 0 0 0 1 0 0 0 0 0 1 0 0 0 0 0 1 0 0 0 0 0 0 0 0 0 0 0 1 0 0 0 0 0 0 0 0 0 0 0zm0 0l0 0 0 0 0 0zm0 5l0 -5 0 0 0 5 0 0 0 0zm0 0l0 0 0 0 0 0z"/>
  </g>
  <g>
   <polygon class="fil0" points="107,13 113,13 113,28 129,28 129,14 137,14 137,47 129,47 129,33 113,33 113,47 106,47 "/>
   <path id="1" class="fil1" d="M113 13l-6 0 0 0 6 0 1 0 -1 0zm0 0l1 0 0 0 -1 0zm0 15l0 -15 1 0 0 15 -1 0 0 0zm0 0l0 0 0 0 0 0zm16 0l-16 0 0 0 16 0 0 0 0 0zm0 0l0 0 0 0 0 0zm0 -14l0 14 0 0 0 -14 0 -1 0 1zm0 0l0 -1 0 0 0 1zm8 0l-8 0 0 -1 8 0 0 1 0 0zm0 -1l0 0 0 1 0 -1zm0 34l0 -33 0 0 0 33 0 0 0 0zm0 0l0 0 0 0 0 0zm-8 0l8 0 0 0 -8 0 0 0 0 0zm0 0l0 0 0 0 0 0zm0 -14l0 14 0 0 0 -14 0 0 0 0zm0 0l0 0 0 0 0 0zm-16 0l16 0 0 0 -16 0 0 0 0 0zm0 0l0 0 0 0 0 0zm0 14l0 -14 1 0 0 14 -1 0 0 0zm1 0l0 0 -1 0 1 0zm-8 0l7 0 0 0 -7 0 0 0 0 0zm0 0l0 0 0 0 0 0zm1 -34l0 34 -1 0 0 -34 1 0 0 0zm-1 0l0 0 1 0 -1 0z"/>
  </g>
  <g>
   <polygon class="fil0" points="149,47 142,47 142,20 149,13 "/>
   <path id="1" class="fil1" d="M142 47l7 0 0 0 -7 0 0 0 0 0zm0 0l0 0 0 0 0 0zm0 -27l0 27 0 0 0 -27 0 0 0 0zm0 0l0 0 0 0 0 0zm7 -7l-7 7 0 0 7 -7 0 0 0 0zm0 0l0 -1 0 1 0 0zm0 34l0 -34 0 0 0 34 0 0 0 0zm0 0l0 0 0 0 0 0z"/>
  </g>
  <g>
   <path class="fil0" d="M150 7c0,-2 -2,-5 -4,-5 -3,0 -5,3 -5,5 0,3 2,5 5,5 2,0 4,-2 4,-5z"/>
   <path id="1" class="fil1" d="M146 3l0 -1 0 0 0 0 0 0 0 0 1 0 0 0 0 1 0 0 1 0 0 0 0 0 0 0 0 0 1 0 0 0 0 1 0 0 0 0 0 0 1 0 0 0 0 1 0 0 0 0 0 0 0 1 0 0 0 0 0 0 0 0 1 1 0 0 0 0 -1 0 0 0 0 0 0 0 0 -1 0 0 0 0 0 0 0 -1 0 0 0 0 -1 0 0 0 0 0 0 -1 0 0 0 0 0 0 -1 0 0 0 0 -1 0 0 0 0 0 0 -1 0 0 0 0 0 0 0 0 0 -1 0 0 0 0 0 0 0 0 0zm-5 4l0 0 0 0 0 0 0 0 0 -1 0 0 0 0 0 0 0 0 0 -1 0 0 0 0 0 0 1 -1 0 0 0 0 0 0 0 0 0 0 0 -1 1 0 0 0 0 0 0 0 0 0 1 0 0 0 0 0 0 -1 1 0 0 0 0 0 0 0 1 0 0 1 -1 0 0 0 0 0 0 0 -1 0 0 0 0 0 0 0 0 0 -1 0 0 0 0 0 0 1 0 0 0 0 -1 0 0 0 0 0 0 1 0 0 0 0 0 0 0 0 -1 0 0 1 0 0 0 0 0 0 0 1 0 0 0 0 0 0 0 0zm5 5l0 0 0 0 -1 0 0 0 0 0 0 0 -1 0 0 0 0 0 0 0 -1 0 0 0 0 -1 0 0 0 0 -1 0 0 0 0 0 0 0 0 -1 0 0 0 0 -1 0 0 0 0 -1 0 0 0 0 0 0 0 -1 0 0 0 0 0 0 0 -1 0 0 0 0 0 0 0 1 0 0 0 0 0 0 0 1 0 0 0 0 1 0 0 0 0 1 0 0 0 0 0 0 0 0 0 0 1 1 0 0 0 0 0 0 0 0 0 0 1 0 0 0 0 0 0 1 0 0 1 0 0 0 0 0 0 0 1 0 0 0zm4 -5l1 0 0 0 0 0 0 1 -1 0 0 0 0 0 0 1 0 0 0 0 0 0 0 1 0 0 0 0 0 0 -1 0 0 1 0 0 0 0 0 0 0 0 -1 0 0 0 0 1 0 0 0 0 -1 0 0 0 0 0 0 0 -1 0 0 0 0 0 0 0 0 0 0 0 0 0 0 0 1 0 0 0 0 0 0 -1 0 0 1 0 0 0 0 0 0 0 0 0 0 0 1 0 0 -1 0 0 0 0 0 0 0 0 0 0 1 -1 0 0 0 0 0 0 0 0 0 -1 0 0 0 0 0 0 0 -1 0 0 0 0z"/>
  </g>
 </g>
</svg>
