<?xml version="1.0" standalone="no"?><!-- Generator: Gravit.io --><svg xmlns="http://www.w3.org/2000/svg" xmlns:xlink="http://www.w3.org/1999/xlink" style="isolation:isolate" viewBox="0 0 150 50" width="150" height="50"><defs><clipPath id="_clipPath_SMdLigrUb6abevyWCmehqTnLOcv2K6iX"><rect width="150" height="50"/></clipPath></defs><g clip-path="url(#_clipPath_SMdLigrUb6abevyWCmehqTnLOcv2K6iX)"><g id="g12"><path d=" M 4.17 13.494 L 4.165 13.498 C 4.166 13.497 4.168 13.496 4.17 13.494 C 4.168 13.496 4.166 13.497 4.165 13.498 C 2.89 14.77 2.253 16.439 2.253 18.106 C 2.253 19.695 2.828 21.285 3.979 22.532 L 1.512 25 L 3.99 27.478 C 2.832 28.725 2.253 30.318 2.253 31.908 C 2.253 33.578 2.891 35.251 4.17 36.524 C 5.441 37.79 7.11 38.423 8.777 38.423 C 10.366 38.423 11.958 37.848 13.21 36.698 L 15.68 39.168 L 18.145 36.702 C 19.391 37.849 20.982 38.423 22.57 38.423 C 24.239 38.423 25.91 37.79 27.181 36.524 L 27.186 36.524 C 28.456 35.253 29.092 33.58 29.092 31.908 C 29.092 30.317 28.517 28.725 27.367 27.48 L 29.848 25 L 27.373 22.525 C 28.519 21.277 29.092 19.69 29.092 18.106 C 29.092 16.435 28.456 14.764 27.186 13.494 L 27.184 13.496 C 25.912 12.22 24.239 11.581 22.57 11.581 C 20.986 11.581 19.399 12.157 18.154 13.306 L 15.68 10.832 L 13.204 13.308 C 11.955 12.158 10.365 11.581 8.777 11.581 C 7.11 11.581 5.441 12.219 4.17 13.494 L 4.17 13.494 Z  M 11.455 34.943 C 10.694 35.606 9.737 35.937 8.777 35.937 C 7.737 35.937 6.701 35.547 5.917 34.766 C 5.131 33.984 4.738 32.947 4.738 31.908 C 4.738 30.948 5.074 29.99 5.745 29.233 L 11.455 34.943 Z  M 5.027 25 L 6.008 24.019 C 6.882 24.427 7.829 24.631 8.777 24.631 C 10.445 24.631 12.116 23.996 13.392 22.726 L 13.397 22.721 C 14.667 21.445 15.302 19.774 15.302 18.106 C 15.302 17.158 15.098 16.212 14.689 15.337 L 15.68 14.347 L 16.664 15.331 C 16.254 16.207 16.049 17.156 16.049 18.106 C 16.049 19.774 16.684 21.445 17.954 22.721 L 17.954 22.726 C 19.225 23.996 20.898 24.631 22.57 24.631 C 23.521 24.631 24.471 24.426 25.349 24.016 L 26.333 25 L 25.336 25.997 C 24.463 25.59 23.516 25.386 22.57 25.386 C 20.898 25.386 19.225 26.021 17.954 27.292 C 16.684 28.562 16.049 30.236 16.049 31.908 C 16.049 32.854 16.252 33.8 16.659 34.674 L 15.68 35.653 L 14.695 34.668 C 15.1 33.796 15.302 32.852 15.302 31.908 C 15.302 30.236 14.667 28.562 13.397 27.292 L 13.392 27.292 C 12.116 26.021 10.445 25.386 8.777 25.386 C 7.834 25.386 6.891 25.589 6.02 25.993 L 5.027 25 Z  M 7.978 27.951 C 8.241 27.898 8.509 27.872 8.777 27.872 C 9.816 27.872 10.854 28.264 11.642 29.047 L 11.639 29.049 C 12.424 29.834 12.816 30.871 12.816 31.908 C 12.816 32.177 12.79 32.446 12.737 32.711 L 7.978 27.951 Z  M 5.739 20.773 C 5.072 20.012 4.738 19.059 4.738 18.106 C 4.738 17.069 5.131 16.034 5.917 15.251 L 5.922 15.247 C 6.705 14.46 7.739 14.067 8.777 14.067 C 9.73 14.067 10.683 14.401 11.443 15.068 L 5.739 20.773 Z  M 11.644 20.968 L 11.639 20.973 C 11.641 20.971 11.643 20.97 11.644 20.968 C 11.643 20.97 11.641 20.971 11.639 20.973 C 10.851 21.755 9.815 22.145 8.777 22.145 C 8.504 22.145 8.231 22.118 7.963 22.063 L 12.735 17.292 C 12.789 17.56 12.816 17.833 12.816 18.106 C 12.816 19.144 12.426 20.181 11.644 20.968 Z  M 19.909 15.061 C 20.664 14.398 21.616 14.067 22.57 14.067 C 23.61 14.067 24.646 14.46 25.429 15.247 L 25.429 15.251 C 26.214 16.036 26.606 17.07 26.606 18.106 C 26.606 19.059 26.276 20.011 25.618 20.77 L 19.909 15.061 Z  M 23.395 22.062 C 23.123 22.118 22.847 22.145 22.57 22.145 C 21.533 22.145 20.496 21.753 19.712 20.968 L 19.709 20.97 C 18.926 20.182 18.534 19.145 18.534 18.106 C 18.534 17.831 18.562 17.555 18.618 17.285 L 23.395 22.062 Z  M 25.607 29.24 C 26.273 29.998 26.606 30.953 26.606 31.908 C 26.606 32.945 26.214 33.981 25.429 34.766 L 25.431 34.769 C 24.648 35.548 23.61 35.937 22.57 35.937 C 21.613 35.937 20.658 35.607 19.901 34.947 L 25.607 29.24 Z  M 18.615 32.718 C 18.561 32.451 18.534 32.18 18.534 31.908 C 18.534 30.871 18.927 29.834 19.712 29.049 C 20.496 28.264 21.533 27.872 22.57 27.872 C 22.842 27.872 23.113 27.899 23.38 27.953 L 18.615 32.718 Z " fill="rgb(28,78,157)"/><path d=" M 36.688 37.535 L 42.178 37.535 L 42.178 28.585 L 47.948 28.585 C 54.184 28.585 56.599 24.624 56.599 20.566 C 56.599 16.508 54.184 12.556 47.948 12.556 L 36.688 12.556 L 36.688 37.535 Z  M 42.178 16.824 L 46.446 16.824 C 49.002 16.824 51.277 17.386 51.277 20.566 C 51.277 23.754 49.002 24.308 46.446 24.308 L 42.178 24.308 L 42.178 16.824 Z  M 74.28 29.7 C 74.631 24.141 71.654 18.959 65.497 18.959 C 59.999 18.959 56.257 23.087 56.257 28.515 C 56.257 34.109 59.796 38.027 65.497 38.027 C 69.59 38.027 72.567 36.209 73.963 31.94 L 69.59 31.94 C 69.273 33.064 67.666 34.285 65.672 34.285 C 62.906 34.285 61.369 32.854 61.228 29.7 L 74.28 29.7 Z  M 61.228 26.547 C 61.298 25.151 62.203 22.7 65.356 22.7 C 67.772 22.7 68.852 24.035 69.309 26.547 L 61.228 26.547 Z  M 75.905 37.535 L 80.876 37.535 L 80.876 29.384 C 80.876 26.205 82.132 23.578 85.768 23.578 C 86.366 23.578 87.103 23.649 87.56 23.754 L 87.56 19.135 C 87.244 19.028 86.822 18.959 86.471 18.959 C 84.055 18.959 81.605 20.531 80.701 22.806 L 80.63 22.806 L 80.63 19.451 L 75.905 19.451 L 75.905 37.535 Z  M 88.306 37.535 L 93.269 37.535 L 93.269 31.308 L 95.202 29.454 L 100.164 37.535 L 106.189 37.535 L 98.591 26.1 L 105.416 19.451 L 99.541 19.451 L 93.269 25.959 L 93.269 12.556 L 88.306 12.556 L 88.306 37.535 Z  M 107.454 37.535 L 112.425 37.535 L 112.425 19.451 L 107.454 19.451 L 107.454 37.535 Z  M 112.425 12.556 L 107.454 12.556 L 107.454 16.649 L 112.425 16.649 L 112.425 12.556 Z  M 114.682 37.535 L 119.645 37.535 L 119.645 28.058 C 119.645 24.378 120.804 22.876 123.501 22.876 C 125.811 22.876 126.68 24.343 126.68 27.32 L 126.68 37.535 L 131.652 37.535 L 131.652 26.407 C 131.652 21.936 130.326 18.959 125.038 18.959 C 122.939 18.959 120.769 19.933 119.505 21.963 L 119.399 21.963 L 119.399 19.451 L 114.682 19.451 L 114.682 37.535 Z  M 133.242 31.659 C 133.452 36.455 137.545 38.027 141.743 38.027 C 145.871 38.027 150 36.49 150 31.729 C 150 28.374 147.163 27.32 144.264 26.653 C 141.428 25.994 138.626 25.748 138.626 23.965 C 138.626 22.49 140.277 22.278 141.393 22.278 C 143.175 22.278 144.651 22.806 144.791 24.729 L 149.508 24.729 C 149.13 20.285 145.485 18.959 141.533 18.959 C 137.65 18.959 133.663 20.144 133.663 24.764 C 133.663 27.953 136.526 28.963 139.398 29.595 C 142.965 30.368 145.028 30.886 145.028 32.397 C 145.028 34.145 143.21 34.707 141.778 34.707 C 139.82 34.707 138.002 33.829 137.967 31.659 L 133.242 31.659" fill-rule="evenodd" fill="rgb(28,78,157)"/></g></g></svg>