<?xml version="1.0" encoding="UTF-8"?>
<!DOCTYPE svg PUBLIC "-//W3C//DTD SVG 1.1//EN" "http://www.w3.org/Graphics/SVG/1.1/DTD/svg11.dtd">
<!-- Creator: CorelDRAW X8 -->
<svg xmlns="http://www.w3.org/2000/svg" xml:space="preserve" width="150px" height="50px" version="1.1" style="shape-rendering:geometricPrecision; text-rendering:geometricPrecision; image-rendering:optimizeQuality; fill-rule:evenodd; clip-rule:evenodd"
viewBox="0 0 150 50"
 xmlns:xlink="http://www.w3.org/1999/xlink">
 <defs>
  <style type="text/css">
   <![CDATA[
    .fil2 {fill:#0062A2}
    .fil1 {fill:#0063A2}
    .fil0 {fill:#0097CE}
    .fil5 {fill:#F3FBFD}
    .fil4 {fill:#FCFCFC}
    .fil3 {fill:#FEFEFE}
   ]]>
  </style>
 </defs>
 <g id="Слой_x0020_1">
  <metadata id="CorelCorpID_0Corel-Layer"/>
  <g id="_1738112410144">
   <path class="fil0" d="M116 50c1,-1 5,-21 5,-21 -2,-1 -21,-1 -23,-1 -3,0 -22,0 -23,1 -1,0 -2,9 -3,10 0,2 -2,10 -2,11l16 0c0,-1 3,-16 4,-19l14 0 -3 19 15 0z"/>
   <path class="fil0" d="M33 19c1,0 14,0 15,-1l1 -6c1,0 8,0 9,1 2,0 3,2 3,4 0,0 0,1 -1,1 2,1 15,1 16,0 1,-4 0,-9 -2,-12 -5,-7 -14,-6 -23,-6 -5,0 -10,0 -15,0 0,2 -3,18 -3,19z"/>
   <path class="fil0" d="M123 18c0,0 0,0 0,0l0 -1c0,0 0,0 0,-1 0,0 0,-1 1,-2 0,-2 0,-3 1,-5 0,-1 1,-8 1,-9 0,0 -13,0 -15,0l-4 17 -15 0 4 -17c-2,0 -6,0 -8,0 -2,0 -6,0 -7,0 -1,1 -1,3 -1,4l-2 10c-1,5 -2,4 0,4 7,0 44,1 45,0z"/>
   <path class="fil0" d="M45 34c2,0 5,0 8,0 6,0 9,1 14,-2 1,0 4,-2 4,-3l-40 0c-1,0 -1,2 -1,2 0,1 0,2 0,3 -1,3 -2,7 -3,11 0,1 -1,4 -1,5 5,0 11,0 15,0 0,-1 1,-3 1,-4 0,-2 2,-11 3,-12z"/>
   <path class="fil1" d="M48 22c0,1 0,2 0,3l-2 0c1,-1 1,-2 2,-3zm-8 -3l-2 0 -2 9c2,0 5,0 7,0 0,0 1,0 2,0 0,-1 0,-1 0,-2 4,0 3,0 3,2l5 0c0,-1 2,-8 2,-9l-2 0c-1,2 -2,7 -2,8l0 -1c0,0 0,0 0,0l-1 -7 -3 0c0,1 -1,2 -1,2 -1,1 -1,2 -1,2l-2 3c-1,1 0,1 -1,1l0 -1 -3 -1 1 -6z"/>
   <path class="fil1" d="M61 28c1,-1 2,-8 2,-9l-2 0 -1 5c0,-1 -1,-2 -1,-3 0,0 0,0 0,-1 -1,0 -1,-1 -1,-1l-2 0c0,0 0,0 0,0l-2 9 2 0 1 -5c1,0 1,2 1,2 0,1 0,1 1,2 0,0 0,0 0,1l2 0z"/>
   <path class="fil1" d="M86 21c2,0 3,1 3,2 0,2 -1,3 -2,3l-1 0 0 -1 0 -4zm-3 7c1,0 4,0 5,-1 2,0 3,-1 3,-3 2,-5 -3,-5 -7,-5l-1 9z"/>
   <path class="fil1" d="M94 23c0,0 1,-2 1,-2 0,0 1,0 2,1 0,0 0,1 -1,1 0,0 -1,0 -2,0zm-3 5l2 0c1,-1 1,-3 1,-3 3,0 2,0 2,3l3 0c0,-1 -1,-3 -1,-3 0,-1 0,-1 0,-1 0,0 0,0 0,0 0,0 1,-1 1,-2 1,-3 -2,-3 -3,-3 -1,0 -3,0 -3,0l-2 9z"/>
   <path class="fil1" d="M70 19l-2 0 -2 9 3 0c0,-1 0,-3 0,-4l3 0 -1 4c3,0 2,0 3,-5 1,-1 1,-3 1,-4l-2 0c-1,3 0,4 -3,3l0 -3z"/>
   <path class="fil2" d="M23 21c3,-1 2,4 1,5 -1,0 -2,0 -2,-1 0,0 0,0 0,-1 0,-1 0,-2 1,-3zm4 3c1,-1 0,-3 0,-4 -2,-2 -7,-2 -8,3 -1,5 4,6 7,4 1,-1 1,-2 1,-3z"/>
   <path class="fil1" d="M114 19c-1,2 -1,3 -1,4 0,1 0,3 -2,3 -2,0 0,-5 0,-7 0,0 -1,0 -1,0 -2,0 -1,0 -2,3 0,1 0,2 0,3 -1,2 1,3 3,3 3,0 4,-1 4,-3 0,-1 1,-5 1,-6l-2 0z"/>
   <path class="fil1" d="M14 21c3,0 3,2 2,2 -1,0 -2,0 -2,0 0,0 0,-1 0,-2zm-3 7l2 0 1 -3c1,0 2,0 3,0 1,-1 2,-2 2,-3 0,-2 -1,-3 -2,-3 -1,0 -4,0 -5,0 0,1 -1,8 -1,9z"/>
   <path class="fil1" d="M136 25c0,0 -1,0 -1,0 -1,0 -1,0 -1,0 0,3 3,3 6,2 1,0 2,-2 1,-3 -1,-2 -3,-1 -4,-2 0,-1 1,-1 1,-1 1,0 1,0 1,1 1,0 2,0 3,0 0,-1 0,-3 -4,-3 -1,0 -3,1 -3,3 0,2 2,2 3,2 1,1 1,2 0,2 0,0 -1,0 -1,-1l-1 0z"/>
   <path class="fil1" d="M33 25c0,0 0,1 -1,1 -1,0 -1,-1 -1,-3 0,-2 3,-3 3,-1l2 0c0,-4 -5,-4 -7,-1 -2,2 -1,7 3,7 1,0 2,0 3,-1 0,-1 1,-2 1,-2l-3 0z"/>
   <path class="fil1" d="M131 25c0,2 -3,1 -3,-2 1,-1 1,-1 2,-2 1,0 2,1 2,1l2 0c0,-1 0,-2 -1,-2 -1,-1 -2,-1 -4,-1 -4,1 -5,9 0,9 3,0 4,-1 5,-3l-3 0z"/>
   <path class="fil1" d="M104 23c0,0 0,0 0,0 0,0 0,0 0,0 0,0 0,0 0,1 0,0 1,0 0,1l-1 0 1 -2zm-3 5c1,-1 1,-2 2,-2l2 0 0 2 2 0 -1 -9 -2 0 -3 4c0,1 -2,4 -2,5l2 0z"/>
   <path class="fil1" d="M77 28c3,0 2,0 3,-3 0,-1 4,-5 4,-6l-3 0c0,1 -2,3 -2,3l-1 -3 -2 0c0,2 2,5 1,6 0,1 0,2 0,3z"/>
   <path class="fil2" d="M118 26c0,-2 2,-6 1,-7l-2 0 -2 9 7 0 0 -2 -4 0z"/>
   <path class="fil1" d="M122 28l3 0c0,-1 1,-8 1,-9l-2 0 -2 9z"/>
   <path class="fil3" d="M23 21c-1,1 -1,2 -1,3 0,1 0,1 0,1 0,1 1,1 2,1 1,-1 2,-6 -1,-5z"/>
   <path class="fil4" d="M86 25l0 1 1 0c1,0 2,-1 2,-3 0,-1 -1,-2 -3,-2l0 4z"/>
   <path class="fil4" d="M94 23c1,0 2,0 2,0 1,0 1,-1 1,-1 -1,-1 -2,-1 -2,-1 0,0 -1,2 -1,2z"/>
   <path class="fil5" d="M14 21c0,1 0,2 0,2 0,0 1,0 2,0 1,0 1,-2 -2,-2z"/>
   <path class="fil5" d="M48 22c-1,1 -1,2 -2,3l2 0c0,-1 0,-2 0,-3z"/>
   <path class="fil4" d="M103 25l1 0c1,-1 0,-1 0,-1 0,-1 0,-1 0,-1 0,0 0,0 0,0 0,0 0,0 0,0l-1 2z"/>
  </g>
 </g>
</svg>
