<?xml version="1.0" encoding="UTF-8"?>
<!DOCTYPE svg PUBLIC "-//W3C//DTD SVG 1.1//EN" "http://www.w3.org/Graphics/SVG/1.1/DTD/svg11.dtd">
<!-- Creator: CorelDRAW X8 -->
<svg xmlns="http://www.w3.org/2000/svg" xml:space="preserve" width="150px" height="50px" version="1.1" style="shape-rendering:geometricPrecision; text-rendering:geometricPrecision; image-rendering:optimizeQuality; fill-rule:evenodd; clip-rule:evenodd"
viewBox="0 0 150 50"
 xmlns:xlink="http://www.w3.org/1999/xlink">
 <defs>
  <style type="text/css">
   <![CDATA[
    .fil0 {fill:#898989;fill-rule:nonzero}
    .fil1 {fill:#E31E24;fill-rule:nonzero}
   ]]>
  </style>
 </defs>
 <g id="Слой_x0020_1">
  <metadata id="CorelCorpID_0Corel-Layer"/>
  <path class="fil0" d="M15 46l5 0c2,0 3,0 4,-1 2,-1 2,-2 2,-3 0,-2 -1,-3 -2,-4 0,0 -1,0 -1,0 1,0 1,0 1,0 1,-1 1,-3 1,-3 0,-1 0,-2 0,-2 -1,-1 -3,-1 -3,-1 -1,0 -1,0 -2,0l-5 0 0 14zm2 -12l3 0c0,0 2,0 2,0 1,1 1,1 1,1 0,1 -1,1 -1,2 0,0 -1,0 -1,0 -1,0 -2,0 -3,0l-1 0 0 -3zm0 5l2 0c2,0 3,0 3,1 1,0 1,1 1,1 0,1 0,1 0,2 -1,0 -2,0 -3,0l-3 0 0 -4z"/>
  <path class="fil0" d="M38 41c0,-3 -2,-5 -3,-5 -1,-1 -2,-1 -2,-1 -3,0 -4,2 -5,3 0,1 0,2 0,3 0,3 2,4 3,5 1,0 2,0 2,0 3,0 4,-2 5,-3 0,-1 0,-2 0,-2l0 0zm-2 0c0,1 -1,3 -3,3 -2,0 -2,-2 -3,-2 0,-1 0,-1 0,-1 0,-2 1,-3 1,-3 1,0 2,0 2,0 2,0 2,1 3,3l0 0z"/>
  <path class="fil0" d="M48 37c-1,-1 -3,-2 -4,-2 -2,0 -3,1 -4,2 0,0 0,1 0,2 0,2 2,2 3,2 0,1 1,1 2,1 0,0 1,0 1,0 0,1 0,1 0,1 0,0 0,0 0,0 -1,1 -1,1 -2,1 0,0 -1,0 -2,-1 -1,0 -1,0 -1,0l-2 1c1,1 1,1 1,1 1,0 2,1 4,1 3,0 4,-1 4,-2 1,0 1,-1 1,-1 0,-2 -1,-2 -1,-3 -1,0 -1,0 -2,0 -1,0 -1,0 -2,-1 0,0 -1,0 -1,0 0,0 -1,0 -1,-1 0,0 0,0 1,0 0,-1 1,-1 1,-1 1,0 1,0 2,1 0,0 1,0 1,1l1 -2 0 0z"/>
  <path class="fil0" d="M58 42c0,0 -1,2 -3,2 -1,0 -2,-1 -2,-2 0,0 0,-1 0,-1 0,-1 0,-2 1,-3 0,0 1,0 1,0 1,0 2,0 2,0 0,0 1,1 1,1l2 -1c-1,-1 -2,-2 -3,-2 0,0 -1,-1 -1,-1 -3,0 -4,2 -4,2 -1,1 -2,2 -2,4 0,1 1,3 3,5 1,0 2,0 2,0 2,0 3,-1 4,-2 1,0 1,-1 1,-1l-2 -1 0 0z"/>
  <path class="fil0" d="M64 32l-2 0 0 14 2 0 0 -6c0,0 0,0 0,-1 0,0 1,0 1,0 0,-1 1,-1 2,-1 0,0 1,0 1,0 1,1 1,1 1,2l0 6 2 0 0 -6c0,-1 0,-2 -1,-3 0,-1 -1,-2 -3,-2 -1,0 -1,1 -2,1 0,0 -1,0 -1,1l0 -5z"/>
  <path class="fil0" d="M91 38l-6 0 0 2 4 0c0,1 -1,1 -1,2 0,1 -1,2 -3,2 -1,0 -2,-1 -2,-1 -2,-2 -2,-4 -2,-4 0,-2 1,-4 2,-4 0,-1 2,-1 2,-1 3,0 3,2 4,2l2 -1c-1,-2 -3,-3 -4,-3 -1,-1 -1,-1 -2,-1 -3,0 -4,2 -5,3 -1,1 -2,3 -2,5 0,3 2,4 2,5 2,2 4,2 5,2 1,0 3,0 4,-1l0 1 2 0 0 -8z"/>
  <path class="fil0" d="M97 36l-3 0 0 10 3 0 0 -5c0,0 0,-1 0,-1 0,-2 2,-2 3,-2l0 -3 0 0c-1,0 -2,1 -3,1 0,1 0,1 0,1l0 -1z"/>
  <path class="fil0" d="M111 41c0,-3 -2,-5 -3,-5 -1,-1 -2,-1 -2,-1 -3,0 -4,2 -5,3 0,1 0,2 0,3 0,3 2,4 3,5 1,0 2,0 2,0 3,0 4,-2 5,-3 0,-1 0,-2 0,-2l0 0zm-2 0c0,1 -1,3 -3,3 -2,0 -2,-2 -3,-2 0,-1 0,-1 0,-1 0,-2 1,-3 2,-3 0,0 1,0 1,0 2,0 3,1 3,3l0 0z"/>
  <path class="fil0" d="M122 36l-2 0 0 4c0,1 0,2 -1,3 0,0 0,1 -2,1 0,0 0,0 -1,-1 -1,0 -1,-1 -1,-2l0 -5 -2 0 0 5c0,2 0,3 1,4 0,0 1,1 2,1 2,0 3,-1 4,-1l0 1 2 0 0 -10z"/>
  <path class="fil0" d="M125 36l0 13 2 0 0 -4c1,1 2,1 3,1 1,0 2,0 4,-2 1,-1 1,-3 1,-3 0,-2 -1,-4 -2,-4 -1,-1 -2,-2 -3,-2 -2,0 -2,1 -3,2l0 -1 -2 0 0 0zm2 5c0,-2 1,-3 1,-3 1,0 1,0 2,0 1,0 2,0 2,1 0,1 0,1 0,2 0,1 0,2 -1,2 0,1 -1,1 -1,1 -2,0 -2,-1 -3,-2 0,-1 0,-1 0,-1l0 0z"/>
  <path class="fil1" d="M54 18c0,-3 0,-7 -4,-9 -1,-1 -2,-2 -5,-2 -6,1 -9,5 -9,10 0,5 4,9 9,9 4,0 6,-1 7,-2 1,-1 2,-3 2,-3l-4 -2c0,2 -1,3 -4,3 -4,0 -4,-3 -4,-4l0 0 12 0 0 0zm-12 -3c0,-1 0,-1 0,-2 1,-1 2,-2 3,-2 1,0 2,0 2,1 1,0 2,1 2,3l-7 0 0 0z"/>
  <polygon class="fil1" points="71,8 66,8 63,13 61,8 55,8 61,16 55,26 60,26 63,20 67,26 72,26 66,16 71,8 "/>
  <path class="fil1" d="M84 8c-3,0 -4,1 -5,2l0 -2 -5 0 0 18 5 0 0 -10c0,-3 1,-3 3,-3l2 -1 0 -4z"/>
  <path class="fil1" d="M95 8c-1,-1 -1,-1 -1,-1 -6,0 -9,4 -9,10 -1,2 0,3 0,4 2,4 6,5 9,5 8,0 10,-6 10,-9 0,-3 -2,-7 -6,-9 -1,0 -2,0 -3,0l0 0zm-1 4c2,0 4,1 4,5 0,2 -1,5 -4,5 -2,0 -4,-1 -4,-5 0,-2 1,-4 2,-5 0,0 1,0 2,0l0 0 0 0z"/>
  <path class="fil1" d="M107 3l0 5 -3 0 0 4 3 0 0 8c0,2 0,5 2,6 1,0 3,0 3,0 1,0 3,0 3,0l0 -4c-1,0 -1,0 -2,0 -1,0 -1,-2 -1,-2l0 -8 3 0 0 -4 -3 0 0 -5 -5 0 0 0z"/>
  <path class="fil1" d="M123 2l-5 0 0 24 5 0 0 -9c0,-2 0,-4 1,-4 1,-1 1,-1 2,-1 1,0 1,0 1,0 1,1 2,2 2,4l0 10 5 0 0 -12c0,-2 0,-4 -3,-6 0,0 -1,0 -3,0 -2,0 -4,1 -5,2l0 -8z"/>
  <path class="fil1" d="M15 2l11 0c2,0 7,0 8,4 1,2 1,3 1,4 0,3 -2,5 -5,6l6 10 -7 0 -4 -9 -4 0 0 9 -6 0 0 -24zm11 4l-5 0 0 7 5 0c2,0 4,-1 4,-4 0,-1 -1,-2 -2,-3 -1,0 -1,0 -2,0l0 0z"/>
 </g>
</svg>
