<?xml version="1.0" encoding="UTF-8"?>
<!DOCTYPE svg PUBLIC "-//W3C//DTD SVG 1.1//EN" "http://www.w3.org/Graphics/SVG/1.1/DTD/svg11.dtd">
<!-- Creator: CorelDRAW X8 -->
<svg xmlns="http://www.w3.org/2000/svg" xml:space="preserve" width="150px" height="50px" version="1.1" style="shape-rendering:geometricPrecision; text-rendering:geometricPrecision; image-rendering:optimizeQuality; fill-rule:evenodd; clip-rule:evenodd"
viewBox="0 0 150 50"
 xmlns:xlink="http://www.w3.org/1999/xlink">
 <defs>
  <style type="text/css">
   <![CDATA[
    .fil0 {fill:#20467B}
    .fil1 {fill:#C92C51}
   ]]>
  </style>
 </defs>
 <g id="Слой_x0020_1">
  <metadata id="CorelCorpID_0Corel-Layer"/>
  <path class="fil0" d="M17 10l15 0 3 6 -18 0c0,0 -1,0 -2,0 -1,1 -1,1 -2,2 -1,1 -1,3 -1,3 0,1 1,2 2,3 0,0 1,1 1,1 0,0 4,3 4,3 0,0 1,0 0,1 0,1 0,1 -1,1 0,0 0,0 0,0l-4 0c0,0 -3,0 -5,-3 -2,-2 -2,-4 -2,-5 0,-2 0,-4 1,-6 1,-2 2,-4 5,-5 2,-1 4,-1 4,-1 0,0 0,0 0,0z"/>
  <path class="fil0" d="M3 30c0,0 -3,-3 -3,-9 0,-5 2,-9 3,-9 1,-3 3,-5 7,-7 2,-1 5,-1 6,-1 0,0 1,0 1,0l12 0 3 5 -15 0c0,0 -3,0 -5,1 -2,1 -3,3 -5,4 -1,2 -1,3 -1,6 -1,2 0,4 0,5 0,0 1,1 2,2 0,1 2,3 3,3 -1,0 -8,0 -8,0z"/>
  <path class="fil0" d="M48 9l5 0c0,-1 0,-2 -2,-3 -1,-2 -3,-3 -5,-3 -3,0 -6,2 -6,6 0,3 3,5 4,5 3,2 4,2 4,3 0,1 -1,2 -2,2 0,0 -2,-1 -2,-3l-5 0 0 1c0,2 2,6 7,6 5,0 7,-3 7,-6 0,-2 -1,-4 -5,-5 -3,-2 -3,-2 -3,-3 0,-1 0,-2 1,-2 2,0 2,2 2,2z"/>
  <path class="fil0" d="M65 20l1 3 5 0 -7 -19 -4 0 -8 19 5 0 1 -3 7 0zm-3 -10l0 0 2 6 -4 0 2 -6z"/>
  <path class="fil0" d="M70 4l0 11c0,3 0,4 2,6 1,2 4,2 5,2 3,0 4,-1 5,-2 2,-1 2,-3 2,-6l0 -11 -4 0 0 11c0,2 0,4 -3,4 -2,0 -2,-3 -2,-4l0 -11 -5 0z"/>
  <polygon class="fil0" points="86,23 96,23 96,18 91,18 91,15 96,15 96,11 91,11 91,8 96,8 96,4 86,4 "/>
  <path class="fil0" d="M98 23l4 0 0 -7 0 0 5 7 5 0 -5 -7c4,0 5,-4 5,-6 0,-2 -1,-4 -2,-5 -2,-1 -3,-1 -6,-1l-6 0 0 19zm4 -15l2 0c2,0 3,1 3,2 0,1 0,3 -3,3l-2 0 0 -5z"/>
  <path class="fil1" d="M40 46l7 0c7,0 10,-5 10,-10 0,-2 -1,-4 -2,-6 -3,-3 -6,-3 -9,-3l-6 0 0 19zm5 -15l2 0c2,0 3,1 4,2 0,1 1,2 1,3 0,3 -1,5 -5,5l-2 0 0 -10z"/>
  <path class="fil1" d="M67 43l1 3 6 0 -8 -19 -4 0 -7 19 5 0 1 -3 6 0zm-3 -10l0 0 2 6 -4 0 2 -6z"/>
  <polygon class="fil1" points="74,46 79,46 79,34 79,34 86,46 90,46 90,27 85,27 86,39 86,39 78,27 74,27 "/>
  <polygon class="fil1" points="92,46 96,46 96,38 102,38 102,34 96,34 96,31 102,31 102,27 92,27 "/>
  <path class="fil1" d="M122 36c0,-5 -4,-10 -10,-10 -5,0 -8,4 -9,6 0,2 -1,3 -1,4 0,2 1,3 2,5l6 0c-2,-1 -3,-3 -3,-5 0,-3 2,-5 5,-5 4,0 5,3 5,5 0,2 0,4 -2,5l0 0c-1,0 -1,1 -3,1 -1,0 -2,-1 -2,-1l-6 0c1,3 4,5 8,5 4,0 7,-2 9,-5l0 0c1,-2 1,-3 1,-5z"/>
  <path class="fil1" d="M131 32l5 0c0,-1 0,-2 -1,-3 -2,-2 -4,-3 -6,-3 -3,0 -6,2 -6,6 0,3 3,5 4,5 3,2 4,2 4,3 0,1 -1,2 -2,2 0,0 -2,-1 -2,-3l-4 0 0 1c0,2 1,6 6,6 5,0 7,-3 7,-6 0,-2 -1,-4 -4,-5 -4,-2 -4,-2 -4,-3 0,-1 0,-2 1,-2 2,0 2,2 2,2z"/>
  <path class="fil1" d="M145 32l5 0c0,-1 0,-2 -1,-3 -2,-2 -4,-3 -6,-3 -3,0 -6,2 -6,6 0,3 3,5 4,5 3,2 4,2 4,3 0,1 0,2 -2,2 0,0 -2,-1 -2,-3l-4 0 0 1c0,2 1,6 6,6 5,0 7,-3 7,-6 0,-2 -1,-4 -4,-5 -4,-2 -4,-2 -4,-3 0,-1 0,-2 1,-2 2,0 2,2 2,2z"/>
  <path class="fil1" d="M17 39l-14 0 -3 -6 18 0c0,0 1,0 2,0 0,0 1,-1 2,-2 1,-1 1,-2 0,-3 0,-1 0,-2 -1,-3 0,0 -1,0 -1,-1 0,0 -4,-2 -4,-2 0,-1 -1,-1 -1,-2 0,0 1,-1 2,-1 0,0 0,0 0,0l4 0c0,0 3,1 5,3 1,2 2,4 2,6 0,1 0,3 -1,5 -1,2 -2,4 -5,5 -2,1 -4,1 -4,1 0,0 -1,0 -1,0z"/>
  <path class="fil1" d="M32 19c0,0 -7,0 -8,0 1,1 2,2 3,3 1,1 1,2 2,3 0,0 0,2 0,5 0,2 -1,4 -2,5 -1,2 -2,3 -4,4 -3,1 -5,1 -5,1l-15 0 3 6 12 0c0,0 0,0 1,0 1,0 4,-1 5,-2 5,-1 7,-4 8,-6 1,-1 3,-5 3,-10 0,-5 -3,-9 -3,-9z"/>
 </g>
</svg>
