<?xml version="1.0" encoding="UTF-8"?>
<!DOCTYPE svg PUBLIC "-//W3C//DTD SVG 1.1//EN" "http://www.w3.org/Graphics/SVG/1.1/DTD/svg11.dtd">
<!-- Creator: CorelDRAW X8 -->
<svg xmlns="http://www.w3.org/2000/svg" xml:space="preserve" width="150px" height="50px" version="1.1" style="shape-rendering:geometricPrecision; text-rendering:geometricPrecision; image-rendering:optimizeQuality; fill-rule:evenodd; clip-rule:evenodd"
viewBox="0 0 150 50"
 xmlns:xlink="http://www.w3.org/1999/xlink">
 <defs>
  <style type="text/css">
   <![CDATA[
    .fil1 {fill:#2B2A29}
    .fil0 {fill:#CF4138}
   ]]>
  </style>
 </defs>
 <g id="Слой_x0020_1">
  <metadata id="CorelCorpID_0Corel-Layer"/>
  <g id="_1251027729952">
   <circle class="fil0" cx="60" cy="31" r="6"/>
   <path class="fil1" d="M80 17l12 0 0 22 16 0 0 6 -28 0 0 -28zm48 1c8,0 14,4 17,9l-22 0 0 13 9 0 -2 5 -8 0c-7,-2 -12,-7 -12,-13 0,-8 8,-14 18,-14zm17 12l0 15 -11 0 0 -10 -6 0 0 -5 17 0zm-141 8c6,0 13,0 19,0l0 -12 1 0c6,0 14,1 14,9 0,9 -8,10 -14,10l0 0 -20 0 0 -7zm34 -15c-7,0 -12,0 -19,0l0 11c-7,0 -15,0 -15,-8 -1,-8 6,-9 13,-9l21 0 0 6zm7 -6l9 0 0 9c-2,1 -3,3 -3,5 0,2 1,4 3,6l0 8 -9 0 0 -28zm15 1c8,0 14,6 14,13 0,8 -6,14 -14,14 -1,0 -2,0 -3,0l0 -6c1,0 2,0 3,0 4,0 8,-3 8,-8 0,-4 -4,-8 -8,-8 -1,0 -2,0 -3,0l0 -5c1,0 2,0 3,0z"/>
  </g>
 </g>
</svg>
