<?xml version="1.0" encoding="UTF-8"?>
<!DOCTYPE svg PUBLIC "-//W3C//DTD SVG 1.1//EN" "http://www.w3.org/Graphics/SVG/1.1/DTD/svg11.dtd">
<!-- Creator: CorelDRAW X8 -->
<svg xmlns="http://www.w3.org/2000/svg" xml:space="preserve" width="150px" height="50px" version="1.1" style="shape-rendering:geometricPrecision; text-rendering:geometricPrecision; image-rendering:optimizeQuality; fill-rule:evenodd; clip-rule:evenodd"
viewBox="0 0 150 50"
 xmlns:xlink="http://www.w3.org/1999/xlink">
 <defs>
  <style type="text/css">
   <![CDATA[
    .fil0 {fill:black}
    .fil1 {fill:#ED7E1A}
   ]]>
  </style>
 </defs>
 <g id="Слой_x0020_1">
  <metadata id="CorelCorpID_0Corel-Layer"/>
  <path class="fil0" d="M78 33l2 3c0,0 6,8 6,8l6 0 0 -20 -6 0 0 11 -2 -3c-1,-1 -6,-8 -6,-8l-7 0 0 20 7 0 0 -11z"/>
  <path class="fil0" d="M30 37l6 0 0 7 7 0c0,-1 0,-19 0,-20l-7 0 0 7 -6 0 0 -7 -8 0 0 20 8 0 0 -7z"/>
  <path class="fil0" d="M12 23l-2 0c-1,0 -3,0 -3,0 -4,1 -7,4 -6,8 2,5 9,5 11,6 1,1 1,3 -1,3 -1,0 -2,0 -2,0 -1,-1 -1,-1 -1,-2 -1,0 -7,0 -8,0 0,2 2,4 3,5 1,1 4,2 6,2 12,1 13,-8 10,-11 -1,-2 -5,-3 -8,-4 -1,0 -2,0 -3,-1 0,-1 1,-1 1,-1 2,-1 4,0 4,1l7 0c0,-2 -1,-4 -3,-5 0,0 -1,0 -2,-1 -1,0 -3,0 -3,0z"/>
  <path class="fil0" d="M54 39c0,-1 3,-8 3,-9 0,0 4,8 4,9l-7 0zm-2 5c0,0 0,0 0,-1l0 0c1,-1 2,-4 2,-4l1 4c0,1 0,1 1,1l14 0c-1,-1 -4,-9 -5,-10 -1,-3 -2,-5 -3,-8 0,0 -1,-2 -1,-2l-8 0 -8 20 7 0z"/>
  <path class="fil0" d="M117 24c0,2 0,5 0,8 0,2 0,4 1,7 0,2 2,3 3,4 3,2 10,2 13,0 5,-3 4,-7 4,-12 0,-2 0,-5 0,-7l-7 0c0,3 0,6 0,10 0,1 0,3 0,4 -1,1 -2,2 -3,2 -2,0 -3,-1 -4,-2 0,-1 0,-3 0,-4 0,-4 0,-7 0,-10l-7 0z"/>
  <path class="fil0" d="M94 29l7 0 0 15c1,0 6,0 7,0l0 -15c2,0 5,0 7,0l0 -5 -21 0 0 5z"/>
  <polygon class="fil0" points="140,44 147,44 147,24 140,24 "/>
  <path class="fil1" d="M54 39l7 0c0,-1 -4,-9 -4,-9 0,1 -3,8 -3,9z"/>
 </g>
</svg>
