<?xml version="1.0" encoding="UTF-8"?>
<!DOCTYPE svg PUBLIC "-//W3C//DTD SVG 1.1//EN" "http://www.w3.org/Graphics/SVG/1.1/DTD/svg11.dtd">
<!-- Creator: CorelDRAW X8 -->
<svg xmlns="http://www.w3.org/2000/svg" xml:space="preserve" width="200px" height="150px" version="1.1" style="shape-rendering:geometricPrecision; text-rendering:geometricPrecision; image-rendering:optimizeQuality; fill-rule:evenodd; clip-rule:evenodd"
viewBox="0 0 200 150"
 xmlns:xlink="http://www.w3.org/1999/xlink">
 <defs>
  <style type="text/css">
   <![CDATA[
    .fil39 {fill:#2B2A29}
    .fil12 {fill:#F7EDCB}
    .fil13 {fill:#BF984B}
    .fil35 {fill:#676E70}
    .fil27 {fill:#404342}
    .fil61 {fill:#F7EDCB;fill-rule:nonzero}
    .fil19 {fill:url(#id0)}
    .fil33 {fill:url(#id1)}
    .fil17 {fill:url(#id2)}
    .fil57 {fill:url(#id3)}
    .fil51 {fill:url(#id4)}
    .fil28 {fill:url(#id5)}
    .fil14 {fill:url(#id6)}
    .fil47 {fill:url(#id7)}
    .fil58 {fill:url(#id8)}
    .fil29 {fill:url(#id9)}
    .fil44 {fill:url(#id10)}
    .fil53 {fill:url(#id11)}
    .fil37 {fill:url(#id12)}
    .fil22 {fill:url(#id13)}
    .fil6 {fill:url(#id14)}
    .fil42 {fill:url(#id15)}
    .fil5 {fill:url(#id16)}
    .fil11 {fill:url(#id17)}
    .fil21 {fill:url(#id18)}
    .fil25 {fill:url(#id19)}
    .fil4 {fill:url(#id20)}
    .fil18 {fill:url(#id21)}
    .fil15 {fill:url(#id22)}
    .fil0 {fill:url(#id23)}
    .fil49 {fill:url(#id24)}
    .fil46 {fill:url(#id25)}
    .fil1 {fill:url(#id26)}
    .fil20 {fill:url(#id27)}
    .fil54 {fill:url(#id28)}
    .fil23 {fill:url(#id29)}
    .fil24 {fill:url(#id30)}
    .fil32 {fill:url(#id31)}
    .fil41 {fill:url(#id32)}
    .fil34 {fill:url(#id33)}
    .fil30 {fill:url(#id34)}
    .fil10 {fill:url(#id35)}
    .fil38 {fill:url(#id36)}
    .fil60 {fill:url(#id37)}
    .fil7 {fill:url(#id38)}
    .fil52 {fill:url(#id39)}
    .fil40 {fill:url(#id40)}
    .fil62 {fill:url(#id41)}
    .fil9 {fill:url(#id42)}
    .fil50 {fill:url(#id43)}
    .fil26 {fill:url(#id44)}
    .fil56 {fill:url(#id45)}
    .fil55 {fill:url(#id46)}
    .fil43 {fill:url(#id47)}
    .fil8 {fill:url(#id48)}
    .fil2 {fill:url(#id49)}
    .fil36 {fill:url(#id50)}
    .fil48 {fill:url(#id51)}
    .fil31 {fill:url(#id52)}
    .fil45 {fill:url(#id53)}
    .fil59 {fill:url(#id54)}
    .fil16 {fill:url(#id55)}
    .fil63 {fill:url(#id56)}
    .fil3 {fill:url(#id57)}
   ]]>
  </style>
  <linearGradient id="id0" gradientUnits="userSpaceOnUse" x1="67.7564" y1="109.957" x2="84.4404" y2="117.576">
   <stop offset="0" style="stop-opacity:1; stop-color:#373938"/>
   <stop offset="1" style="stop-opacity:1; stop-color:#A3A1A0"/>
  </linearGradient>
  <linearGradient id="id1" gradientUnits="userSpaceOnUse" x1="99.6882" y1="110.868" x2="109.284" y2="79.3154">
   <stop offset="0" style="stop-opacity:1; stop-color:#5F6262"/>
   <stop offset="1" style="stop-opacity:1; stop-color:#FEFEFE"/>
  </linearGradient>
  <linearGradient id="id2" gradientUnits="userSpaceOnUse" x1="78.0039" y1="111.869" x2="88.4902" y2="128.185">
   <stop offset="0" style="stop-opacity:1; stop-color:#373938"/>
   <stop offset="1" style="stop-opacity:1; stop-color:#AFADAE"/>
  </linearGradient>
  <linearGradient id="id3" gradientUnits="userSpaceOnUse" x1="129.1" y1="124.054" x2="129.1" y2="132.953">
   <stop offset="0" style="stop-opacity:1; stop-color:#FAD60B"/>
   <stop offset="1" style="stop-opacity:1; stop-color:#F0B921"/>
  </linearGradient>
  <linearGradient id="id4" gradientUnits="userSpaceOnUse" x1="101.722" y1="122.686" x2="116.059" y2="110.263">
   <stop offset="0" style="stop-opacity:1; stop-color:#373938"/>
   <stop offset="1" style="stop-opacity:1; stop-color:#8A8B8B"/>
  </linearGradient>
  <linearGradient id="id5" gradientUnits="userSpaceOnUse" x1="82.1179" y1="120.847" x2="82.1179" y2="136.649">
   <stop offset="0" style="stop-opacity:1; stop-color:#373938"/>
   <stop offset="1" style="stop-opacity:1; stop-color:#BAB9B9"/>
  </linearGradient>
  <linearGradient id="id6" gradientUnits="userSpaceOnUse" xlink:href="#id5" x1="52.173" y1="140.951" x2="52.9649" y2="118.268">
  </linearGradient>
  <linearGradient id="id7" gradientUnits="userSpaceOnUse" xlink:href="#id0" x1="118.146" y1="109.957" x2="134.833" y2="117.578">
  </linearGradient>
  <linearGradient id="id8" gradientUnits="userSpaceOnUse" x1="112.09" y1="134.153" x2="111.824" y2="126.546">
   <stop offset="0" style="stop-opacity:1; stop-color:#FAD60B"/>
   <stop offset="1" style="stop-opacity:1; stop-color:#FEFEFE"/>
  </linearGradient>
  <linearGradient id="id9" gradientUnits="userSpaceOnUse" x1="57.9674" y1="134.619" x2="57.9674" y2="123.622">
   <stop offset="0" style="stop-opacity:1; stop-color:#373938"/>
   <stop offset="1" style="stop-opacity:1; stop-color:#7A7B7B"/>
  </linearGradient>
  <linearGradient id="id10" gradientUnits="userSpaceOnUse" x1="132.664" y1="115.292" x2="138.073" y2="133.713">
   <stop offset="0" style="stop-opacity:1; stop-color:#373938"/>
   <stop offset="1" style="stop-opacity:1; stop-color:#B4B3B4"/>
  </linearGradient>
  <linearGradient id="id11" gradientUnits="userSpaceOnUse" x1="101.508" y1="132.801" x2="106.578" y2="115.534">
   <stop offset="0" style="stop-opacity:1; stop-color:#373938"/>
   <stop offset="1" style="stop-opacity:1; stop-color:#7F7F7F"/>
  </linearGradient>
  <linearGradient id="id12" gradientUnits="userSpaceOnUse" x1="113.364" y1="91.6952" x2="113.364" y2="108.621">
   <stop offset="0" style="stop-opacity:1; stop-color:#B5B3B1"/>
   <stop offset="1" style="stop-opacity:1; stop-color:#FEFEFE"/>
  </linearGradient>
  <linearGradient id="id13" gradientUnits="userSpaceOnUse" x1="54.115" y1="117.492" x2="70.4429" y2="110.035">
   <stop offset="0" style="stop-opacity:1; stop-color:#373938"/>
   <stop offset="1" style="stop-opacity:1; stop-color:#90908F"/>
  </linearGradient>
  <linearGradient id="id14" gradientUnits="userSpaceOnUse" xlink:href="#id3" x1="113.513" y1="28.1647" x2="115.341" y2="54.2987">
  </linearGradient>
  <linearGradient id="id15" gradientUnits="userSpaceOnUse" xlink:href="#id5" x1="102.565" y1="140.951" x2="103.357" y2="118.268">
  </linearGradient>
  <linearGradient id="id16" gradientUnits="userSpaceOnUse" x1="137.619" y1="116.999" x2="137.619" y2="126.94">
   <stop offset="0" style="stop-opacity:1; stop-color:#D19032"/>
   <stop offset="1" style="stop-opacity:1; stop-color:#F4C617"/>
  </linearGradient>
  <linearGradient id="id17" gradientUnits="userSpaceOnUse" xlink:href="#id3" x1="107.901" y1="122.426" x2="111.779" y2="133.688">
  </linearGradient>
  <linearGradient id="id18" gradientUnits="userSpaceOnUse" x1="57.45" y1="114.459" x2="76.3696" y2="111.738">
   <stop offset="0" style="stop-opacity:1; stop-color:#373938"/>
   <stop offset="1" style="stop-opacity:1; stop-color:#979695"/>
  </linearGradient>
  <linearGradient id="id19" gradientUnits="userSpaceOnUse" xlink:href="#id11" x1="51.1193" y1="132.801" x2="56.1888" y2="115.534">
  </linearGradient>
  <linearGradient id="id20" gradientUnits="userSpaceOnUse" x1="99.9652" y1="67.0364" x2="99.9652" y2="105.949">
   <stop offset="0" style="stop-opacity:1; stop-color:#D19032"/>
   <stop offset="1" style="stop-opacity:1; stop-color:#9A6433"/>
  </linearGradient>
  <linearGradient id="id21" gradientUnits="userSpaceOnUse" x1="72.5504" y1="110.107" x2="87.4104" y2="122.984">
   <stop offset="0" style="stop-opacity:1; stop-color:#373938"/>
   <stop offset="1" style="stop-opacity:1; stop-color:#A7A7A8"/>
  </linearGradient>
  <linearGradient id="id22" gradientUnits="userSpaceOnUse" xlink:href="#id5" x1="84.4314" y1="119.195" x2="84.4314" y2="139.34">
  </linearGradient>
  <linearGradient id="id23" gradientUnits="userSpaceOnUse" x1="50.1854" y1="145.343" x2="50.1854" y2="65.6769">
   <stop offset="0" style="stop-opacity:1; stop-color:#DCDCE1"/>
   <stop offset="1" style="stop-opacity:1; stop-color:#FEFEFE"/>
  </linearGradient>
  <linearGradient id="id24" gradientUnits="userSpaceOnUse" xlink:href="#id18" x1="107.839" y1="114.461" x2="126.764" y2="111.74">
  </linearGradient>
  <linearGradient id="id25" gradientUnits="userSpaceOnUse" xlink:href="#id21" x1="122.943" y1="110.107" x2="137.805" y2="122.986">
  </linearGradient>
  <linearGradient id="id26" gradientUnits="userSpaceOnUse" x1="72.1762" y1="121.311" x2="70.4414" y2="120.712">
   <stop offset="0" style="stop-opacity:1; stop-color:#808384"/>
   <stop offset="1" style="stop-opacity:1; stop-color:#FEFEFE"/>
  </linearGradient>
  <linearGradient id="id27" gradientUnits="userSpaceOnUse" x1="61.922" y1="111.736" x2="80.9806" y2="114.476">
   <stop offset="0" style="stop-opacity:1; stop-color:#373938"/>
   <stop offset="1" style="stop-opacity:1; stop-color:#9B9A9A"/>
  </linearGradient>
  <linearGradient id="id28" gradientUnits="userSpaceOnUse" xlink:href="#id9" x1="104.525" y1="137.988" x2="104.525" y2="119.37">
  </linearGradient>
  <linearGradient id="id29" gradientUnits="userSpaceOnUse" xlink:href="#id4" x1="51.3276" y1="122.681" x2="65.6648" y2="110.258">
  </linearGradient>
  <linearGradient id="id30" gradientUnits="userSpaceOnUse" x1="50.3324" y1="127.619" x2="60.3074" y2="112.097">
   <stop offset="0" style="stop-opacity:1; stop-color:#373938"/>
   <stop offset="1" style="stop-opacity:1; stop-color:#858483"/>
  </linearGradient>
  <linearGradient id="id31" gradientUnits="userSpaceOnUse" xlink:href="#id3" x1="135.519" y1="105.473" x2="140.122" y2="142.958">
  </linearGradient>
  <linearGradient id="id32" gradientUnits="userSpaceOnUse" xlink:href="#id3" x1="113.474" y1="105.552" x2="116.758" y2="112.954">
  </linearGradient>
  <linearGradient id="id33" gradientUnits="userSpaceOnUse" xlink:href="#id1" x1="138.408" y1="112.215" x2="137.411" y2="116.216">
  </linearGradient>
  <linearGradient id="id34" gradientUnits="userSpaceOnUse" xlink:href="#id3" x1="78.711" y1="124.054" x2="78.711" y2="132.953">
  </linearGradient>
  <linearGradient id="id35" gradientUnits="userSpaceOnUse" xlink:href="#id16" x1="126.855" y1="108.086" x2="130.175" y2="120.813">
  </linearGradient>
  <linearGradient id="id36" gradientUnits="userSpaceOnUse" x1="73.439" y1="114.68" x2="73.439" y2="105.823">
   <stop offset="0" style="stop-opacity:1; stop-color:#CCC7C7"/>
   <stop offset="1" style="stop-opacity:1; stop-color:#7F7F7C"/>
  </linearGradient>
  <linearGradient id="id37" gradientUnits="userSpaceOnUse" xlink:href="#id20" x1="100.963" y1="54.0462" x2="100.963" y2="57.4742">
  </linearGradient>
  <linearGradient id="id38" gradientUnits="userSpaceOnUse" xlink:href="#id3" x1="102.424" y1="50.0062" x2="103.249" y2="56.7259">
  </linearGradient>
  <linearGradient id="id39" gradientUnits="userSpaceOnUse" xlink:href="#id30" x1="100.724" y1="127.619" x2="110.699" y2="112.096">
  </linearGradient>
  <linearGradient id="id40" gradientUnits="userSpaceOnUse" xlink:href="#id3" x1="98.2217" y1="80.9995" x2="104.042" y2="83.838">
  </linearGradient>
  <linearGradient id="id41" gradientUnits="userSpaceOnUse" xlink:href="#id20" x1="126.622" y1="29.2188" x2="126.622" y2="51.4976">
  </linearGradient>
  <linearGradient id="id42" gradientUnits="userSpaceOnUse" xlink:href="#id3" x1="125.171" y1="23.6005" x2="126.802" y2="31.276">
  </linearGradient>
  <linearGradient id="id43" gradientUnits="userSpaceOnUse" xlink:href="#id13" x1="104.509" y1="117.494" x2="120.838" y2="110.037">
  </linearGradient>
  <linearGradient id="id44" gradientUnits="userSpaceOnUse" xlink:href="#id9" x1="54.1361" y1="137.988" x2="54.1361" y2="119.37">
  </linearGradient>
  <linearGradient id="id45" gradientUnits="userSpaceOnUse" xlink:href="#id9" x1="108.36" y1="134.619" x2="108.36" y2="123.622">
  </linearGradient>
  <linearGradient id="id46" gradientUnits="userSpaceOnUse" xlink:href="#id5" x1="132.509" y1="120.847" x2="132.509" y2="136.649">
  </linearGradient>
  <linearGradient id="id47" gradientUnits="userSpaceOnUse" xlink:href="#id5" x1="134.826" y1="119.195" x2="134.826" y2="139.34">
  </linearGradient>
  <linearGradient id="id48" gradientUnits="userSpaceOnUse" xlink:href="#id3" x1="125.171" y1="23.6005" x2="126.802" y2="31.276">
  </linearGradient>
  <linearGradient id="id49" gradientUnits="userSpaceOnUse" x1="83.6274" y1="79.112" x2="86.4576" y2="79.9915">
   <stop offset="0" style="stop-opacity:1; stop-color:#5F6262"/>
   <stop offset="1" style="stop-opacity:1; stop-color:#212220"/>
  </linearGradient>
  <linearGradient id="id50" gradientUnits="userSpaceOnUse" xlink:href="#id12" x1="97.1517" y1="91.9534" x2="97.1517" y2="107.175">
  </linearGradient>
  <linearGradient id="id51" gradientUnits="userSpaceOnUse" xlink:href="#id27" x1="112.311" y1="111.736" x2="131.37" y2="114.476">
  </linearGradient>
  <linearGradient id="id52" gradientUnits="userSpaceOnUse" xlink:href="#id8" x1="61.7028" y1="134.153" x2="61.4371" y2="126.546">
  </linearGradient>
  <linearGradient id="id53" gradientUnits="userSpaceOnUse" xlink:href="#id2" x1="128.396" y1="111.869" x2="138.883" y2="128.188">
  </linearGradient>
  <linearGradient id="id54" gradientUnits="userSpaceOnUse" xlink:href="#id49" x1="51.5702" y1="102.357" x2="79.6321" y2="102.357">
  </linearGradient>
  <linearGradient id="id55" gradientUnits="userSpaceOnUse" xlink:href="#id10" x1="82.2729" y1="115.292" x2="87.6817" y2="133.713">
  </linearGradient>
  <linearGradient id="id56" gradientUnits="userSpaceOnUse" xlink:href="#id49" x1="119.805" y1="13.7518" x2="129.923" y2="14.1048">
  </linearGradient>
  <linearGradient id="id57" gradientUnits="userSpaceOnUse" xlink:href="#id3" x1="100.513" y1="63.1896" x2="104.202" y2="115.94">
  </linearGradient>
 </defs>
 <g id="Слой_x0020_1">
  <metadata id="CorelCorpID_0Corel-Layer"/>
  <path class="fil0" d="M84 128l5 -3 6 -3 0 0 0 0c0,0 1,0 1,0 0,0 0,0 0,0l0 0 1 -1 0 0c0,0 1,0 1,0 0,0 0,0 0,0l-2 0c0,0 0,0 0,0l10 -5 6 0 9 0c1,1 3,1 3,1 1,0 2,1 2,1l0 1 1 0 4 0 15 0 5 0 0 -1 -5 0 0 0 -15 0 0 0 -4 0 0 -6 -1 0 0 2c-1,0 -3,0 -3,0 0,0 -1,1 -1,1l-1 1 -14 -1 -3 -1 0 0c0,0 0,0 0,0l0 0 0 0 -13 6 -1 0c0,0 0,0 0,0 0,0 0,0 0,0l-2 1c0,0 0,0 0,0 0,0 0,0 0,0l0 0 -27 12 -5 0 0 0 1 0 0 4 1 0c0,0 0,0 0,0l0 0c0,0 1,0 1,0 0,0 -1,0 -1,0l0 0c0,1 0,1 0,1l0 0c1,0 1,0 1,0 0,0 0,0 0,0l-1 0c1,0 1,0 1,0l0 0c0,0 1,0 1,0 0,0 0,1 0,1l0 0c0,0 0,0 1,0l0 0c0,0 0,0 1,0 0,0 0,0 0,0l0 0c0,0 0,0 1,0l0 0c0,0 0,0 1,0 0,0 0,0 0,0l0 0c0,0 1,1 2,1 0,0 0,-1 0,-1 1,1 1,1 1,1 0,0 1,0 1,0 0,0 1,0 1,0l0 0 0 0 0 0c0,0 0,0 0,0 1,0 2,0 2,0 0,0 0,0 1,-1 0,0 0,1 0,1l0 0c1,0 1,-1 2,-1l0 0c0,0 0,0 0,0 0,0 1,0 1,0l0 0c0,0 1,0 1,0l0 0c0,0 0,0 0,0 0,0 1,0 1,0l0 0c0,0 1,0 1,0l0 0c0,0 0,-1 0,-1 0,0 0,0 1,0l0 0c0,0 0,0 0,0l0 0c0,0 0,0 0,0l0 0c0,0 0,0 1,0l0 0c0,0 0,0 0,-1l0 0c-1,0 -1,0 -1,0 0,0 0,0 1,0l0 0 0 0 1 0 0 1 1 0 0 0 22 0 0 0 4 0c0,0 0,0 1,0l0 0c0,0 0,0 0,0l0 0c0,0 0,0 0,0l0 0c0,0 0,0 1,0l0 0c0,0 0,0 0,0 1,0 0,1 0,1l0 0c0,0 1,0 1,0l0 0c0,0 1,0 1,0 0,0 0,0 0,0l0 0c0,0 1,0 1,0l0 0c0,0 1,0 1,0 0,0 1,0 0,0l0 0c1,0 1,1 2,1l0 0c0,0 0,-1 1,-1 0,1 0,1 0,1 1,0 1,0 2,0 0,0 0,0 0,0l0 0 0 0 0 0 0 0c1,0 1,0 1,0 0,0 1,0 2,0 -1,0 0,0 0,-1 0,0 1,1 1,1l0 0c0,0 1,-1 1,-1l0 0c0,0 0,0 0,0 1,0 1,0 1,0l0 0c1,0 1,0 2,0l0 0c-1,0 -1,0 0,0l0 0c0,0 0,0 0,0l0 0c1,0 1,0 1,0l0 0c0,0 0,-1 0,-1 0,0 1,0 1,0l0 0c0,0 1,0 1,0l0 0c-1,0 -1,0 -1,0 0,0 1,0 1,0l0 0c0,0 0,0 0,-1l0 0c0,0 0,0 0,0 0,0 0,0 0,0l0 0 0 0 2 0 0 -1 0 0c0,0 1,-1 1,-2 0,0 0,0 0,0l0 0 0 0 0 0 0 0c0,0 0,0 0,0l0 0 0 0 0 0 0 0 0 0 0 0 0 0 0 0 -1 0 0 0 0 0 0 0 0 0 0 0 0 0 0 0 0 0 0 0 0 0 0 0 0 0 0 0 0 0 0 0 0 0 0 0 0 0 0 -1 0 0 0 0 0 0 0 0 0 0 0 0 0 0 0 0 -1 0 0 0 0 0 0 0 0 0 0 0 0 0 0 0 0 0 0 0 0 0 0 0 0 0c0,0 0,0 0,0l-1 0 0 0 0 0 0 0 0 0 0 0 0 0 0 0 0 0 0 0 0 0 0 0 0 0 0 0 -1 0 0 0 0 0 0 0 0 0 0 0 0 0 0 0 0 0 0 0 0 0 -1 0 0 0 0 0 0 0 0 0 0 0 0 0 0 0 0 0 0 0 -1 0 0 0 0 0 0 0 0 0 0 0 0 0 0 0c-4,0 -13,0 -18,0 0,0 0,-1 0,-1 -1,0 -2,-2 -2,-2l2 0 0 0 -27 0 1 0 26 0 0 -1 -26 0 2 -1c0,0 0,0 -1,0zm-25 9l0 0zm0 1l0 0zm1 0l0 0zm2 1l0 0zm2 0l0 0zm2 1l0 0zm0 -1l0 0zm1 1l0 0zm2 0l0 0zm2 0l0 0zm1 -1l0 0zm2 0l0 0zm2 0l0 0zm2 -1l0 0zm1 -1l0 0zm31 1l0 0zm2 1l0 0zm2 0l0 0zm3 0l0 0zm0 1l0 0zm5 0l0 0zm0 -1l0 0zm2 0l0 0zm4 -1l0 0zm1 0l0 0zm1 -1l0 0zm3 -3l0 0zm0 0l0 0zm-3 -1l0 0z"/>
  <path class="fil1" d="M73 116c0,0 1,0 1,0 0,0 0,0 0,0l16 -48c0,0 0,0 -1,-1 0,0 0,1 0,1l-16 48z"/>
  <path class="fil2" d="M73 115c-1,1 0,2 0,2 1,0 2,0 2,-1l10 -30c0,0 0,-1 -1,-1 -1,-1 -2,0 -2,0l-9 30z"/>
  <polygon class="fil3" points="69,114 95,57 88,53 60,111 "/>
  <path class="fil4" d="M73 108c0,0 0,0 -1,0 0,0 0,0 0,0l22 -51c0,0 0,0 0,0 1,0 1,0 1,0l-22 51z"/>
  <polygon class="fil5" points="63,128 132,128 132,113 63,113 "/>
  <path class="fil6" d="M96 54c0,-2 12,-28 12,-28l-4 -3 -13 28 5 3z"/>
  <polygon class="fil7" points="88,53 95,57 97,54 90,50 "/>
  <polygon class="fil8" points="103,24 121,30 121,33 104,29 "/>
  <polygon class="fil9" points="57,128 82,128 82,109 57,109 "/>
  <path class="fil10" d="M77 118l4 12 28 0c0,0 4,-10 10,-11 6,-1 5,-2 5,-2l-29 -3 -18 4z"/>
  <polygon class="fil11" points="82,133 104,133 104,128 82,128 "/>
  <polygon class="fil12" points="82,128 104,128 104,128 82,128 "/>
  <polygon class="fil13" points="82,133 104,133 104,132 82,132 "/>
  <path class="fil14" d="M70 118c0,0 1,0 1,0 0,0 0,1 1,1 0,0 0,0 0,-1l0 0c1,1 1,1 2,1l0 0c0,0 0,1 0,1 0,0 1,0 1,0l0 0c0,0 1,0 1,1l0 0c0,0 0,0 0,0 0,1 1,1 1,0l0 0c0,1 1,1 1,2l0 0c0,0 0,0 0,1l0 0c0,0 0,0 1,0l0 0c0,0 0,1 0,1l0 0c0,0 0,1 0,1 0,0 0,1 1,0l0 0c0,1 0,2 0,2l0 0c-1,0 -1,0 -1,1 0,0 0,0 1,0l0 0c0,1 0,1 0,2l0 0c-1,0 -1,0 -1,0l0 0c0,1 0,1 0,1l0 0c0,1 0,1 0,2l0 0c-1,0 -1,0 -1,0 0,0 0,1 0,1l0 0c0,0 -1,1 -1,1l0 0c0,0 -1,0 -1,0 0,0 0,1 0,1l0 0c0,0 -1,1 -1,1l0 0c0,0 -1,0 -1,0 0,0 0,0 0,1l0 0c-1,0 -1,0 -2,0l0 0c0,0 0,0 0,0 -1,0 -1,0 -1,0l0 0c0,1 -1,1 -2,1 0,-1 0,-1 0,-1l0 0 0 0 0 0c0,0 -1,0 -1,1 0,0 -1,0 -1,-1l0 0c0,0 0,0 -1,0 0,0 0,0 0,0l0 0c-1,0 -2,0 -2,0l0 0c0,-1 0,-1 0,-1 -1,0 -1,0 -1,0l0 0c-1,0 -1,-1 -1,-1l0 0c0,0 0,-1 0,-1 -1,0 -1,0 -1,0l0 0c-1,0 -1,-1 -1,-1l0 0c0,0 0,-1 0,-1 0,0 -1,0 -1,0l0 0c0,-1 0,-1 -1,-2l1 0c0,0 0,0 0,-1 0,0 0,0 -1,0l0 0c0,-1 0,-1 0,-2l0 0c0,0 1,0 1,0 0,-1 -1,-1 -1,-1l0 0c0,0 0,-1 0,-2l0 0c1,1 1,0 1,0 0,0 0,-1 0,-1l-1 0c1,0 1,-1 1,-1l0 0c0,0 1,0 1,0l0 0c0,-1 0,-1 0,-1l0 0c0,-1 0,-1 1,-2l0 0c0,1 0,1 1,0 0,0 0,0 0,0l0 0c0,-1 0,-1 1,-1l0 0c0,0 0,0 1,0 0,0 0,-1 0,-1l0 0c0,0 1,0 2,-1l0 0c0,1 0,1 0,1 1,0 1,-1 1,-1 0,0 1,0 1,0 0,0 1,0 1,0 0,0 0,0 0,0 0,0 0,0 0,0 0,0 1,0 1,0zm1 0l0 0zm1 1l0 0zm2 1l0 0zm2 1l0 0zm3 5l0 0zm0 3l0 0zm-1 5l0 0zm-2 2l0 0zm-2 2l0 0zm-2 1l0 0zm-3 0l0 0zm-3 0l0 0zm-2 -1l0 0zm-2 -2l0 0zm-2 -2l0 0zm-1 -3l0 0zm0 -2l0 0zm0 -3l0 0zm3 -5l0 0zm2 -1l0 0zm2 -1l0 0zm1 -1l0 0zm2 0l0 0zm0 0l0 0z"/>
  <path class="fil15" d="M69 139c6,0 10,-5 10,-10 0,-6 -4,-10 -10,-10 -6,0 -10,4 -10,10 0,5 4,10 10,10z"/>
  <path class="fil16" d="M69 139c5,0 10,-5 10,-10 0,-6 -5,-10 -10,-10 -6,0 -10,4 -10,10 0,5 4,10 10,10z"/>
  <path class="fil17" d="M69 139c5,0 10,-5 10,-10 0,-6 -5,-10 -10,-10 -6,0 -10,4 -10,10 0,5 4,10 10,10z"/>
  <path class="fil18" d="M69 139c5,0 10,-5 10,-10 0,-6 -5,-10 -10,-10 -6,0 -10,4 -10,10 0,5 4,10 10,10z"/>
  <path class="fil19" d="M69 139c5,0 10,-5 10,-10 0,-6 -5,-10 -10,-10 -6,0 -10,4 -10,10 0,5 4,10 10,10z"/>
  <path class="fil20" d="M69 139c5,0 10,-5 10,-10 0,-6 -5,-10 -10,-10 -6,0 -10,4 -10,10 0,5 4,10 10,10z"/>
  <path class="fil21" d="M69 139c5,0 10,-5 10,-10 0,-6 -5,-10 -10,-10 -5,0 -10,4 -10,10 0,5 5,10 10,10z"/>
  <path class="fil22" d="M69 138c5,0 10,-4 10,-9 0,-6 -5,-10 -10,-10 -5,0 -10,4 -10,10 0,5 5,9 10,9z"/>
  <path class="fil23" d="M69 138c5,0 10,-4 10,-9 0,-6 -5,-10 -10,-10 -5,0 -10,4 -10,10 0,5 5,9 10,9z"/>
  <path class="fil24" d="M69 138c5,0 9,-4 9,-9 0,-6 -4,-10 -9,-10 -5,0 -10,4 -10,10 0,5 5,9 10,9z"/>
  <path class="fil25" d="M69 138c5,0 9,-4 9,-9 0,-5 -4,-10 -9,-10 -5,0 -10,5 -10,10 0,5 5,9 10,9z"/>
  <path class="fil26" d="M69 138c5,0 9,-4 9,-9 0,-5 -4,-10 -9,-10 -5,0 -10,5 -10,10 0,5 5,9 10,9z"/>
  <path class="fil27" d="M69 137c5,0 8,-4 8,-8 0,-5 -3,-9 -8,-9 -5,0 -8,4 -8,9 0,4 3,8 8,8z"/>
  <path class="fil28" d="M69 137c4,0 8,-4 8,-8 0,-5 -4,-8 -8,-8 -4,0 -8,3 -8,8 0,4 4,8 8,8z"/>
  <path class="fil29" d="M69 135c3,0 5,-3 5,-6 0,-3 -2,-5 -5,-5 -3,0 -6,2 -6,5 0,3 3,6 6,6z"/>
  <path class="fil13" d="M69 134c3,0 5,-2 5,-5 0,-3 -2,-6 -5,-6 -3,0 -5,3 -5,6 0,3 2,5 5,5z"/>
  <path class="fil30" d="M69 133c2,0 4,-2 4,-4 0,-3 -2,-5 -4,-5 -3,0 -5,2 -5,5 0,2 2,4 5,4z"/>
  <path class="fil27" d="M69 126c0,0 0,0 0,0 0,0 0,-1 0,-1 0,0 -1,1 -1,1 0,0 1,0 1,0z"/>
  <path class="fil27" d="M71 126c0,1 0,1 0,1 0,0 0,0 0,0 0,0 0,0 0,-1 0,0 0,0 0,0z"/>
  <path class="fil27" d="M72 129c0,0 0,0 0,0 0,0 0,0 0,0 0,0 0,-1 0,-1 0,0 0,1 0,1z"/>
  <path class="fil27" d="M71 131c0,0 0,0 0,0 0,0 0,0 0,0 0,0 0,0 0,0 1,0 1,0 0,0z"/>
  <path class="fil27" d="M69 132c0,0 0,0 0,0 0,0 0,-1 0,-1 0,0 0,1 0,1 0,0 0,0 0,0z"/>
  <path class="fil27" d="M66 131c0,0 0,0 0,0 1,0 1,0 1,0 0,0 0,0 0,0 0,0 0,0 -1,0z"/>
  <path class="fil27" d="M65 129c0,0 1,-1 1,-1 0,0 0,1 0,1 0,0 0,0 0,0 0,0 -1,0 -1,0z"/>
  <path class="fil27" d="M66 126c1,0 1,0 1,0 0,1 0,1 0,1 0,0 0,0 -1,0 0,0 0,0 0,-1z"/>
  <path class="fil31" d="M69 131c1,0 2,-1 2,-2 0,-1 -1,-2 -2,-2 -1,0 -2,1 -2,2 0,1 1,2 2,2z"/>
  <path class="fil32" d="M131 123c0,0 0,-11 0,-11l-25 -2 0 2 3 2 3 9c7,0 19,0 19,0z"/>
  <path class="fil33" d="M106 108c0,0 15,1 21,2 5,1 6,1 6,4 0,2 -1,10 -1,10l-2 -1c-9,-5 -16,-8 -24,-12l0 -3z"/>
  <path class="fil34" d="M106 108c0,0 15,1 21,2 4,0 6,1 6,3l-27 -4 0 -1z"/>
  <path class="fil35" d="M78 112c0,-2 0,-4 1,-6 0,-3 2,-10 2,-10l-3 -2 31 0 0 2 -2 0c0,0 1,6 2,10 0,1 0,3 0,6l-31 0z"/>
  <path class="fil36" d="M82 94c0,0 -2,7 -3,16l0 2 8 0c2,0 4,-1 4,-1l1 -17 -10 0z"/>
  <path class="fil37" d="M93 94l-1 17c0,0 1,1 2,1l14 0c0,-1 0,-2 0,-3 0,-2 -4,-15 -4,-15l-11 0z"/>
  <path class="fil38" d="M80 106c-1,1 -1,3 -1,4l0 2 8 0c2,0 4,-1 4,-1l0 -5 -11 0 0 0zm12 0l0 5c0,0 1,1 2,1l14 0c0,-1 0,-2 0,-3 0,0 0,-2 -1,-3l-15 0z"/>
  <path class="fil39" d="M81 97c1,0 2,1 2,1 1,1 0,2 0,2l-2 10 -2 0 0 2 3 0 1 -1c0,0 1,-8 1,-10 1,-3 2,-5 2,-5l6 0 0 -2 -10 0c0,0 0,1 -1,3l0 0zm10 15l-7 0 1 -1 3 -1 -1 -5c0,0 2,-1 2,0 1,0 1,1 2,3l0 4 0 0zm17 -4l-2 0 -2 2 -1 -1 1 -1 0 -1 -2 1 0 -1 2 -2 -1 0 -5 4 0 0 2 -1 1 1 -1 0 2 3 6 0c0,-1 0,-2 0,-3 0,0 0,0 0,-1l0 0zm-10 4l-6 0 0 -3 2 0 1 -13 -2 0 0 -2 11 0 1 2 -9 0 0 15 2 1 0 0z"/>
  <polygon class="fil40" points="78,94 109,94 109,92 78,92 "/>
  <path class="fil41" d="M74 109c11,0 23,0 35,0 0,3 1,6 1,9 -11,0 -21,0 -32,0 -1,0 -4,-2 -4,-9z"/>
  <path class="fil42" d="M120 118c0,0 1,0 1,0 0,0 1,1 1,1 0,0 1,0 1,-1l0 0c0,1 1,1 1,1l0 0c0,0 0,1 0,1 1,0 1,0 1,0l0 0c1,0 1,0 2,1l0 0c-1,0 -1,0 0,0 0,1 0,1 0,0l0 0c1,1 1,1 1,2l0 0c0,0 0,0 0,1l0 0c0,0 1,0 1,0l0 0c0,0 1,1 1,1l0 0c-1,0 -1,1 -1,1 0,0 1,1 1,0l0 0c0,1 0,2 0,2l0 0c0,0 0,0 0,1 0,0 0,0 0,0l0 0c0,1 0,1 0,2l0 0c0,0 -1,0 -1,0 0,1 0,1 1,1l0 0c0,1 -1,1 -1,2l0 0c0,0 -1,0 -1,0 0,0 0,1 0,1l0 0c0,0 0,1 -1,1l0 0c0,0 0,0 0,0l0 0c-1,0 -1,1 0,1l0 0c-1,0 -1,1 -2,1l0 0c0,0 0,0 -1,0 0,0 0,0 0,1l0 0c0,0 -1,0 -1,0l0 0c0,0 -1,0 -1,0 0,0 -1,0 0,0l0 0c-1,1 -2,1 -2,1 0,-1 0,-1 -1,-1l0 0 0 0 0 0 0 0c0,0 0,0 0,1 -1,0 -1,0 -2,-1l0 0c0,0 0,0 0,0 -1,0 -1,0 -1,0l0 0c-1,0 -1,0 -2,0l0 0c1,-1 0,-1 0,-1 0,0 -1,0 -1,0l0 0c0,0 -1,-1 -1,-1l0 0c0,0 0,-1 0,-1 0,0 -1,0 -1,0l0 0c0,0 -1,-1 -1,-1l0 0c0,0 1,-1 0,-1 0,0 0,0 0,0l0 0c-1,-1 -1,-1 -1,-2l0 0c0,0 0,0 0,-1l0 0c0,0 0,0 0,0l0 0c-1,-1 -1,-1 -1,-2l0 0c1,0 1,0 1,0 0,-1 0,-1 -1,-1l0 0c0,0 0,-1 1,-2l0 0c0,1 0,0 0,0 0,0 0,-1 0,-1l0 0c0,0 0,-1 1,-1l0 0c0,0 0,0 0,0l0 0c1,-1 0,-1 0,-1l0 0c0,-1 1,-1 1,-2l0 0c0,1 1,1 1,0 0,0 0,0 0,0l0 0c0,-1 1,-1 1,-1l0 0c1,0 1,0 1,0 0,0 1,-1 0,-1l0 0c1,0 1,0 2,-1l0 0c0,1 0,1 1,1 0,0 0,-1 0,-1l0 0c1,0 1,0 2,0 0,0 0,0 0,0 0,0 0,0 0,0 0,0 0,0 0,0 1,0 1,0 1,0zm1 0l0 0zm1 1l0 0zm2 1l0 0zm3 1l0 0zm2 5l0 0zm1 3l0 0zm-1 2l0 0zm-1 3l0 0zm-4 4l0 0zm-2 1l0 0zm-3 0l0 0zm-2 0l0 0zm-3 -1l0 0zm-2 -2l0 0zm-2 -2l0 0zm-1 -5l0 0zm0 -3l0 0zm3 -5l0 0zm2 -1l0 0zm3 -1l0 0zm2 -1l0 0zm0 0l0 0z"/>
  <path class="fil43" d="M119 139c6,0 10,-5 10,-10 0,-6 -4,-10 -10,-10 -5,0 -10,4 -10,10 0,5 5,10 10,10z"/>
  <path class="fil44" d="M119 139c6,0 10,-5 10,-10 0,-6 -4,-10 -10,-10 -5,0 -10,4 -10,10 0,5 5,10 10,10z"/>
  <path class="fil45" d="M119 139c6,0 10,-5 10,-10 0,-6 -4,-10 -10,-10 -5,0 -10,4 -10,10 0,5 5,10 10,10z"/>
  <path class="fil46" d="M119 139c6,0 10,-5 10,-10 0,-6 -4,-10 -10,-10 -5,0 -10,4 -10,10 0,5 5,10 10,10z"/>
  <path class="fil47" d="M119 139c6,0 10,-5 10,-10 0,-6 -4,-10 -10,-10 -5,0 -10,4 -10,10 0,5 5,10 10,10z"/>
  <path class="fil48" d="M119 139c6,0 10,-5 10,-10 0,-6 -4,-10 -10,-10 -5,0 -10,4 -10,10 0,5 5,10 10,10z"/>
  <path class="fil49" d="M119 139c6,0 10,-5 10,-10 0,-6 -4,-10 -10,-10 -5,0 -9,4 -9,10 0,5 4,10 9,10z"/>
  <path class="fil50" d="M119 138c6,0 10,-4 10,-9 0,-6 -4,-10 -10,-10 -5,0 -9,4 -9,10 0,5 4,9 9,9z"/>
  <path class="fil51" d="M119 138c6,0 10,-4 10,-9 0,-6 -4,-10 -10,-10 -5,0 -9,4 -9,10 0,5 4,9 9,9z"/>
  <path class="fil52" d="M119 138c6,0 10,-4 10,-9 0,-6 -4,-10 -10,-10 -5,0 -9,4 -9,10 0,5 4,9 9,9z"/>
  <path class="fil53" d="M119 138c6,0 10,-4 10,-9 0,-5 -4,-10 -10,-10 -5,0 -9,5 -9,10 0,5 4,9 9,9z"/>
  <path class="fil54" d="M119 138c5,0 10,-4 10,-9 0,-5 -5,-10 -10,-10 -5,0 -9,5 -9,10 0,5 4,9 9,9z"/>
  <path class="fil27" d="M119 137c5,0 9,-4 9,-8 0,-5 -4,-9 -9,-9 -4,0 -8,4 -8,9 0,4 4,8 8,8z"/>
  <path class="fil55" d="M119 137c5,0 8,-4 8,-8 0,-5 -3,-8 -8,-8 -4,0 -8,3 -8,8 0,4 4,8 8,8z"/>
  <path class="fil56" d="M119 135c3,0 6,-3 6,-6 0,-3 -3,-5 -6,-5 -3,0 -5,2 -5,5 0,3 2,6 5,6z"/>
  <path class="fil13" d="M119 134c3,0 6,-2 6,-5 0,-3 -3,-6 -6,-6 -3,0 -5,3 -5,6 0,3 2,5 5,5z"/>
  <path class="fil57" d="M119 133c3,0 5,-2 5,-4 0,-3 -2,-5 -5,-5 -2,0 -4,2 -4,5 0,2 2,4 4,4z"/>
  <path class="fil27" d="M119 126c1,0 1,0 1,0 0,0 0,-1 -1,-1 0,0 0,1 0,1 0,0 0,0 0,0z"/>
  <path class="fil27" d="M122 126c0,1 0,1 0,1 0,0 -1,0 -1,0 0,0 0,0 0,-1 0,0 1,0 1,0z"/>
  <path class="fil27" d="M123 129c0,0 0,0 -1,0 0,0 0,0 0,0 0,0 0,-1 0,-1 1,0 1,1 1,1z"/>
  <path class="fil27" d="M122 131c0,0 -1,0 -1,0 0,0 0,0 0,0 0,0 1,0 1,0 0,0 0,0 0,0z"/>
  <path class="fil27" d="M119 132c0,0 0,0 0,0 0,0 0,-1 0,-1 1,0 1,1 1,1 0,0 0,0 -1,0z"/>
  <path class="fil27" d="M117 131c0,0 0,0 0,0 0,0 0,0 0,0 1,0 1,0 0,0 0,0 0,0 0,0z"/>
  <path class="fil27" d="M116 129c0,0 0,-1 0,-1 0,0 1,1 1,1 0,0 -1,0 -1,0 0,0 0,0 0,0z"/>
  <path class="fil27" d="M117 126c0,0 0,0 0,0 1,1 1,1 0,1 0,0 0,0 0,0 0,0 0,0 0,-1z"/>
  <path class="fil58" d="M119 131c1,0 2,-1 2,-2 0,-1 -1,-2 -2,-2 -1,0 -2,1 -2,2 0,1 1,2 2,2z"/>
  <polygon class="fil59" points="56,111 73,111 73,108 56,108 "/>
  <path class="fil60" d="M88 54c0,0 0,-1 0,-1 0,0 0,0 0,0l8 4c0,0 0,0 0,1 0,0 -1,0 -1,0l-7 -4z"/>
  <path class="fil61" d="M90 50c0,0 0,0 0,-1 0,0 0,0 0,0l8 5c0,0 0,0 0,0 0,0 -1,0 -1,0l-7 -4z"/>
  <path class="fil62" d="M106 29l15 3c0,0 0,0 0,0 0,0 0,1 0,1l-15 -4 -10 24c0,0 0,0 0,0 0,0 0,0 0,-1l10 -23 -2 -5c0,0 0,0 0,-1 0,0 0,0 0,1l2 5z"/>
  <path class="fil63" d="M121 30l1 -4c0,0 1,-2 1,-3 0,0 4,-4 4,-4l0 20c0,0 -2,-1 -3,-2 0,-2 -3,-5 -3,-5l0 -2z"/>
  <polygon class="fil35" points="127,11 128,11 128,41 132,41 132,40 147,40 147,41 152,41 152,42 127,42 "/>
  <path class="fil39" d="M78 77l4 5 0 1 -5 -5 1 -1 0 0zm7 -12l-1 1 3 4 1 -2 -3 -3 0 0zm-2 2l4 4 -1 1 -3 -4 0 -1 0 0zm-1 3l4 4 -1 1 -4 -4 1 -1 0 0zm-1 2l-1 1 4 5 1 -1 -4 -5 0 0zm-2 3l0 1 4 5 0 -2 -4 -4z"/>
 </g>
</svg>
