<?xml version="1.0" encoding="UTF-8"?>
<!DOCTYPE svg PUBLIC "-//W3C//DTD SVG 1.1//EN" "http://www.w3.org/Graphics/SVG/1.1/DTD/svg11.dtd">
<!-- Creator: CorelDRAW X8 -->
<svg xmlns="http://www.w3.org/2000/svg" xml:space="preserve" width="150px" height="50px" version="1.1" style="shape-rendering:geometricPrecision; text-rendering:geometricPrecision; image-rendering:optimizeQuality; fill-rule:evenodd; clip-rule:evenodd"
viewBox="0 0 150 50"
 xmlns:xlink="http://www.w3.org/1999/xlink">
 <defs>
  <style type="text/css">
   <![CDATA[
    .fil1 {fill:#DB2434}
    .fil0 {fill:#2C2B2A}
   ]]>
  </style>
 </defs>
 <g id="Слой_x0020_1">
  <metadata id="CorelCorpID_0Corel-Layer"/>
  <g id="_1251245680080">
   <path class="fil0" d="M3 44l27 0 0 -22 -27 0 0 22zm1 1l25 0c1,0 2,0 2,-1l0 -22c0,-1 -1,-1 -2,-1l-25 0c-1,0 -2,0 -2,1l0 22c0,1 1,1 2,1l0 0z"/>
   <path class="fil0" d="M3 44l27 0 0 -22 -27 0 0 22zm1 1l25 0c1,0 2,0 2,-1l0 -22c0,-1 -1,-1 -2,-1l-25 0c-1,0 -2,0 -2,1l0 22c0,1 1,1 2,1l0 0z"/>
   <path class="fil1" d="M18 34c0,0 0,0 0,0 0,1 0,1 0,1l8 0c0,0 1,0 1,-1 0,0 -1,0 -1,0l-3 -4c-1,0 -1,0 -1,0 0,0 0,0 -1,0l-3 4 0 0zm-3 0c1,0 1,0 1,0 0,1 -1,1 -1,1l-7 0c-1,0 -1,0 -1,-1 0,0 0,0 0,0l4 -4c0,0 0,0 0,0 0,0 1,0 1,0l3 4 0 0zm2 -10l-5 5c0,0 -1,0 -1,0 0,0 0,0 0,0l-5 -5 0 0 0 18 21 0 0 -18 0 0 -4 5c-1,0 -1,0 -1,0 0,0 0,0 -1,0l-4 -5 0 0z"/>
   <path class="fil1" d="M18 34c0,0 0,0 0,0 0,1 0,1 0,1l8 0c0,0 1,0 1,-1 0,0 -1,0 -1,0l-3 -4c-1,0 -1,0 -1,0 0,0 0,0 -1,0l-3 4 0 0zm-3 0c1,0 1,0 1,0 0,1 -1,1 -1,1l-7 0c-1,0 -1,0 -1,-1 0,0 0,0 0,0l4 -4c0,0 0,0 0,0 0,0 1,0 1,0l3 4 0 0zm2 -10l-5 5c0,0 -1,0 -1,0 0,0 0,0 0,0l-5 -5 0 0 0 18 21 0 0 -18 0 0 -4 5c-1,0 -1,0 -1,0 0,0 0,0 -1,0l-4 -5 0 0z"/>
   <polygon class="fil0" points="46,42 46,28 39,28 39,24 58,24 58,28 51,28 51,42 46,42 "/>
   <polygon class="fil0" points="46,42 46,28 39,28 39,24 58,24 58,28 51,28 51,42 46,42 "/>
   <polygon class="fil0" points="104,42 104,24 122,24 122,28 109,28 109,31 121,31 121,35 109,35 109,39 122,39 122,42 104,42 "/>
   <polygon class="fil0" points="104,42 104,24 122,24 122,28 109,28 109,31 121,31 121,35 109,35 109,39 122,39 122,42 104,42 "/>
   <polygon class="fil0" points="146,42 138,33 145,24 139,24 135,29 130,24 124,24 131,33 123,42 129,42 135,36 140,42 146,42 "/>
   <polygon class="fil0" points="146,42 138,33 145,24 139,24 135,29 130,24 124,24 131,33 123,42 129,42 135,36 140,42 146,42 "/>
   <path class="fil0" d="M81 24l0 18 5 0 0 -7 5 0 5 7 6 0c0,0 -5,-7 -5,-7 6,0 8,-11 -2,-11l-14 0 0 0zm5 4c0,0 7,0 9,0 2,0 3,3 0,3 -3,0 -9,0 -9,0l0 -3 0 0z"/>
   <path class="fil0" d="M81 24l0 18 5 0 0 -7 5 0 5 7 6 0c0,0 -5,-7 -5,-7 6,0 8,-11 -2,-11l-14 0 0 0zm5 4c0,0 7,0 9,0 2,0 3,3 0,3 -3,0 -9,0 -9,0l0 -3 0 0z"/>
   <polygon class="fil0" points="61,42 61,24 78,24 78,28 66,28 66,31 78,31 78,35 66,35 66,38 78,38 78,42 61,42 "/>
   <polygon class="fil0" points="61,42 61,24 78,24 78,28 66,28 66,31 78,31 78,35 66,35 66,38 78,38 78,42 61,42 "/>
  </g>
 </g>
</svg>
