<?xml version="1.0" encoding="UTF-8"?>
<!DOCTYPE svg PUBLIC "-//W3C//DTD SVG 1.1//EN" "http://www.w3.org/Graphics/SVG/1.1/DTD/svg11.dtd">
<!-- Creator: CorelDRAW X8 -->
<svg xmlns="http://www.w3.org/2000/svg" xml:space="preserve" width="150px" height="50px" version="1.1" style="shape-rendering:geometricPrecision; text-rendering:geometricPrecision; image-rendering:optimizeQuality; fill-rule:evenodd; clip-rule:evenodd"
viewBox="0 0 150 50"
 xmlns:xlink="http://www.w3.org/1999/xlink">
 <defs>
  <style type="text/css">
   <![CDATA[
    .fil0 {fill:#CE4231}
   ]]>
  </style>
 </defs>
 <g id="Слой_x0020_1">
  <metadata id="CorelCorpID_0Corel-Layer"/>
  <polygon class="fil0" points="13,36 7,36 7,19 0,19 0,14 20,14 20,19 13,19 "/>
  <path class="fil0" d="M23 20c1,-6 5,-6 10,-6 7,0 10,2 10,9 0,9 0,13 -10,13 -4,0 -9,0 -10,-5 0,-1 0,-3 0,-5l0 -1c0,-2 0,-4 0,-5l0 0zm6 6c0,3 0,5 3,5 4,0 5,-1 5,-5 0,-1 0,-2 0,-3 0,-3 -1,-4 -4,-4 -4,0 -4,0 -4,6l0 1z"/>
  <path class="fil0" d="M60 21c0,-3 -1,-3 -3,-3l0 0 0 0c-2,0 -4,0 -4,2 0,1 1,2 2,2 5,1 11,0 11,7 0,2 0,4 -1,5 -2,2 -5,2 -7,2l-1 0 0 0c-6,0 -9,0 -9,-7l5 0 0 0c0,1 1,2 2,2l3 0 0 0c1,0 3,0 3,-2 0,-2 -2,-2 -3,-2 -7,0 -10,0 -10,-7 0,-4 1,-6 5,-6 1,0 3,0 4,0 5,0 9,0 9,6 0,0 0,0 0,1l-6 0 0 0z"/>
  <polygon class="fil0" points="90,36 84,36 84,27 77,27 77,36 71,36 71,14 77,14 77,22 84,22 84,14 90,14 "/>
  <polygon class="fil0" points="102,36 96,36 96,14 102,14 "/>
  <path class="fil0" d="M107 14l12 0 0 0c4,0 7,1 7,5 0,3 0,5 -4,5l0 1c3,0 4,1 4,4 0,5 -1,7 -7,7l-12 0 0 -22zm10 9c2,-1 3,0 3,-2 0,-2 0,-2 -2,-2l-5 0 0 4 4 0 0 0zm0 8c2,0 3,0 3,-2 0,-2 -1,-2 -2,-2l-5 0 0 4 4 0 0 0z"/>
  <path class="fil0" d="M144 36l6 0 -6 -22 -9 0 -7 22 6 0 1 -5 8 0 1 5 0 0zm-7 -9l2 -9 3 9 -5 0 0 0z"/>
 </g>
</svg>
