<?xml version="1.0" encoding="UTF-8"?>
<!DOCTYPE svg PUBLIC "-//W3C//DTD SVG 1.1//EN" "http://www.w3.org/Graphics/SVG/1.1/DTD/svg11.dtd">
<!-- Creator: CorelDRAW X8 -->
<svg xmlns="http://www.w3.org/2000/svg" xml:space="preserve" width="150px" height="50px" version="1.1" style="shape-rendering:geometricPrecision; text-rendering:geometricPrecision; image-rendering:optimizeQuality; fill-rule:evenodd; clip-rule:evenodd"
viewBox="0 0 150 50"
 xmlns:xlink="http://www.w3.org/1999/xlink">
 <defs>
  <style type="text/css">
   <![CDATA[
    .fil0 {fill:#1A171B}
    .fil1 {fill:white}
   ]]>
  </style>
 </defs>
 <g id="Слой_x0020_1">
  <metadata id="CorelCorpID_0Corel-Layer"/>
  <g id="_1738112642880">
   <path class="fil0" d="M106 28c0,-1 1,-3 1,-4l1 -1c0,0 1,-2 1,-2 1,-1 2,-1 3,-2 0,0 0,0 1,0 0,0 1,0 2,1 0,0 1,0 1,1 1,1 3,5 4,7l1 3 -4 0 -1 -2 -7 0c0,0 0,0 0,0l-1 2c0,0 0,0 0,0l-4 0 2 -3zm-24 -9l4 0 0 7c0,2 0,3 0,5l-4 0 0 -12zm7 0l9 0c2,0 3,0 5,1 2,1 1,4 1,7 0,1 0,2 0,2 -1,1 -2,1 -2,2 -2,0 -4,0 -5,0l-8 0 0 -12zm-25 0l4 0 0 5 7 0 0 -5 4 0 0 12 -4 0 0 -5 -7 0 0 5 -4 0 0 -12zm-34 0l4 0 0 10 7 0 0 -10 4 0 0 7c0,2 0,3 -1,4 -2,1 -3,1 -5,1 -3,0 -7,0 -8,-3 -1,-2 -1,-4 -1,-6 0,-1 0,-2 0,-2l0 -1zm17 5c0,-3 1,-4 3,-5 1,0 1,0 2,0 3,-1 6,-1 9,1 0,0 0,0 0,0 1,1 1,2 1,3 0,0 -3,0 -4,0l0 -2c-1,0 -2,0 -3,0l-4 0 0 8 7 0 0 -3 4 0c0,2 -1,3 -2,4 0,1 0,1 -1,1 0,0 0,0 -1,0l-2 0c-2,0 -5,0 -7,-1 -2,-1 -2,-4 -2,-6zm-28 26l113 0 0 -50 -113 0 0 50z"/>
   <path class="fil1" d="M93 21l7 0 0 8 -7 0 0 -8zm-4 10l8 0c1,0 3,0 5,0 0,-1 1,-1 2,-2 0,0 0,-1 0,-2 0,-3 1,-6 -1,-7 -2,-1 -3,-1 -5,-1l-9 0 0 12z"/>
   <polygon class="fil1" points="64,31 68,31 68,26 75,26 75,31 79,31 79,19 75,19 75,24 68,24 68,19 64,19 "/>
   <path class="fil1" d="M30 20c0,0 0,1 0,2 0,2 0,4 1,6 1,3 5,3 8,3 2,0 3,0 5,-1 1,-1 1,-2 1,-4l0 -7 -4 0 0 10 -7 0 0 -10 -4 0 0 1z"/>
   <path class="fil1" d="M47 24c0,2 0,5 2,6 2,1 5,1 7,1l2 0c1,0 1,0 1,0 1,0 1,0 1,-1 1,-1 2,-2 2,-4l-4 0 0 3 -7 0 0 -8 4 0c1,0 2,0 3,0l0 2c1,0 4,0 4,0 0,-1 0,-2 -1,-3 0,0 0,0 0,0 -3,-2 -6,-2 -9,-1 -1,0 -1,0 -2,0 -2,1 -3,2 -3,5z"/>
   <path class="fil1" d="M111 26c0,-1 0,-1 1,-1l1 -3c0,1 1,2 1,3 0,0 0,0 0,1l1 1 -4 0 0 -1zm-7 5l4 0c0,0 0,0 0,0l1 -2c0,0 0,0 0,0l7 0 1 2 4 0 -1 -3c-1,-2 -3,-6 -4,-7 0,-1 -1,-1 -1,-1 -1,-1 -2,-1 -2,-1 -1,0 -1,0 -1,0 -1,1 -2,1 -3,2 0,0 -1,2 -1,2l-1 1c0,1 -1,3 -1,4l-2 3z"/>
   <polygon class="fil0" points="93,29 100,29 100,21 93,21 "/>
   <path class="fil1" d="M82 31l4 0c0,-2 0,-3 0,-5l0 -7 -4 0 0 12z"/>
   <path class="fil0" d="M111 27l4 0 -1 -1c0,-1 0,-1 0,-1 0,-1 -1,-2 -1,-3l-1 3c-1,0 -1,0 -1,1l0 1z"/>
  </g>
 </g>
</svg>
