<?xml version="1.0" encoding="UTF-8"?>
<!DOCTYPE svg PUBLIC "-//W3C//DTD SVG 1.1//EN" "http://www.w3.org/Graphics/SVG/1.1/DTD/svg11.dtd">
<!-- Creator: CorelDRAW X8 -->
<svg xmlns="http://www.w3.org/2000/svg" xml:space="preserve" width="150px" height="50px" version="1.1" style="shape-rendering:geometricPrecision; text-rendering:geometricPrecision; image-rendering:optimizeQuality; fill-rule:evenodd; clip-rule:evenodd"
viewBox="0 0 150 50"
 xmlns:xlink="http://www.w3.org/1999/xlink">
 <defs>
  <style type="text/css">
   <![CDATA[
    .fil0 {fill:#0094D9}
   ]]>
  </style>
 </defs>
 <g id="Слой_x0020_1">
  <metadata id="CorelCorpID_0Corel-Layer"/>
  <path class="fil0" d="M28 9c-4,0 -7,4 -7,4 0,0 -7,17 -9,19 -2,3 -2,0 -2,0l0 -23 -10 0 1 32 17 0c0,0 8,-20 10,-23 1,-4 3,-3 3,-3l116 0 3 -6c0,0 -118,0 -122,0z"/>
  <path class="fil0" d="M31 17c-2,0 -3,3 -3,3l-9 21 10 0 9 -24c0,0 -5,0 -7,0z"/>
  <path class="fil0" d="M43 36l5 -14 9 0 2 -5c0,0 -13,0 -16,0 -3,0 -4,3 -4,3 0,0 -4,11 -6,15 -2,5 2,6 2,6l14 0 2 -5 -8 0z"/>
  <path class="fil0" d="M75 28c1,-2 9,-11 9,-11l-9 0 -9 8 3 -8 -9 0 -9 24 9 0 4 -11 5 11 8 0 -3 -11c0,0 0,-1 1,-2z"/>
  <path class="fil0" d="M86 36l2 -4 8 0 2 -5 -8 0 2 -5 9 0 2 -5c0,0 -14,0 -16,0 -3,0 -4,3 -4,3 0,0 -4,11 -6,15 -2,5 2,6 2,6l14 0 2 -5 -9 0z"/>
  <path class="fil0" d="M127 19c0,0 -2,5 -4,9 -1,3 2,4 2,4 0,0 5,0 6,0 1,0 1,1 1,1 0,0 -1,1 -1,2 0,1 -1,1 -1,1l-9 0 -1 4c0,0 -3,-7 -3,-8 -1,-1 0,-1 0,-1 3,-1 7,-4 8,-9 0,-5 -3,-5 -3,-5l-19 0 -9 24 0 0 9 0 4 -10 4 10c0,0 18,0 23,0 4,0 4,-2 4,-2 0,0 3,-6 4,-9 1,-3 -1,-3 -1,-3l-7 0c0,0 0,-1 0,-2 0,-2 1,-2 1,-2l9 0 2 -6c0,0 -13,0 -15,0 -3,0 -4,2 -4,2zm-12 5c-1,3 -6,3 -6,3l1 -5c0,0 6,-1 5,2z"/>
 </g>
</svg>
