<?xml version="1.0" encoding="UTF-8"?>
<!DOCTYPE svg PUBLIC "-//W3C//DTD SVG 1.1//EN" "http://www.w3.org/Graphics/SVG/1.1/DTD/svg11.dtd">
<!-- Creator: CorelDRAW X8 -->
<svg xmlns="http://www.w3.org/2000/svg" xml:space="preserve" width="200px" height="150px" version="1.1" style="shape-rendering:geometricPrecision; text-rendering:geometricPrecision; image-rendering:optimizeQuality; fill-rule:evenodd; clip-rule:evenodd"
viewBox="0 0 200 150"
 xmlns:xlink="http://www.w3.org/1999/xlink">
 <defs>
  <style type="text/css">
   <![CDATA[
    .fil15 {fill:#2B2A29}
    .fil40 {fill:#BF984B}
    .fil12 {fill:#676E70}
    .fil37 {fill:#404342}
    .fil9 {fill:#F7EDCB;fill-rule:nonzero}
    .fil10 {fill:#BF984B;fill-rule:nonzero}
    .fil16 {fill:url(#id0)}
    .fil20 {fill:url(#id1)}
    .fil3 {fill:url(#id2)}
    .fil68 {fill:url(#id3)}
    .fil14 {fill:url(#id4)}
    .fil49 {fill:url(#id5)}
    .fil38 {fill:url(#id6)}
    .fil36 {fill:url(#id7)}
    .fil17 {fill:url(#id8)}
    .fil24 {fill:url(#id9)}
    .fil27 {fill:url(#id10)}
    .fil48 {fill:url(#id11)}
    .fil60 {fill:url(#id12)}
    .fil39 {fill:url(#id13)}
    .fil47 {fill:url(#id14)}
    .fil58 {fill:url(#id15)}
    .fil2 {fill:url(#id16)}
    .fil4 {fill:url(#id17)}
    .fil51 {fill:url(#id18)}
    .fil1 {fill:url(#id19)}
    .fil26 {fill:url(#id20)}
    .fil67 {fill:url(#id21)}
    .fil29 {fill:url(#id22)}
    .fil11 {fill:url(#id23)}
    .fil65 {fill:url(#id24)}
    .fil64 {fill:url(#id25)}
    .fil23 {fill:url(#id26)}
    .fil57 {fill:url(#id27)}
    .fil0 {fill:url(#id28)}
    .fil61 {fill:url(#id29)}
    .fil33 {fill:url(#id30)}
    .fil66 {fill:url(#id31)}
    .fil31 {fill:url(#id32)}
    .fil19 {fill:url(#id33)}
    .fil62 {fill:url(#id34)}
    .fil59 {fill:url(#id35)}
    .fil25 {fill:url(#id36)}
    .fil30 {fill:url(#id37)}
    .fil28 {fill:url(#id38)}
    .fil46 {fill:url(#id39)}
    .fil35 {fill:url(#id40)}
    .fil5 {fill:url(#id41)}
    .fil53 {fill:url(#id42)}
    .fil13 {fill:url(#id43)}
    .fil44 {fill:url(#id44)}
    .fil63 {fill:url(#id45)}
    .fil7 {fill:url(#id46)}
    .fil22 {fill:url(#id47)}
    .fil6 {fill:url(#id48)}
    .fil41 {fill:url(#id49)}
    .fil34 {fill:url(#id50)}
    .fil18 {fill:url(#id51)}
    .fil54 {fill:url(#id52)}
    .fil21 {fill:url(#id53)}
    .fil42 {fill:url(#id54)}
    .fil50 {fill:url(#id55)}
    .fil56 {fill:url(#id56)}
    .fil32 {fill:url(#id57)}
    .fil52 {fill:url(#id58)}
    .fil45 {fill:url(#id59)}
    .fil8 {fill:url(#id60)}
    .fil43 {fill:url(#id61)}
    .fil55 {fill:url(#id62)}
   ]]>
  </style>
  <linearGradient id="id0" gradientUnits="userSpaceOnUse" x1="157.302" y1="83.6097" x2="169.291" y2="87.0475">
   <stop offset="0" style="stop-opacity:1; stop-color:#5F6262"/>
   <stop offset="1" style="stop-opacity:1; stop-color:#212220"/>
  </linearGradient>
  <linearGradient id="id1" gradientUnits="userSpaceOnUse" x1="57.4693" y1="107.05" x2="97.9946" y2="109.883">
   <stop offset="0" style="stop-opacity:1; stop-color:#FAD60B"/>
   <stop offset="1" style="stop-opacity:1; stop-color:#F0B921"/>
  </linearGradient>
  <linearGradient id="id2" gradientUnits="userSpaceOnUse" x1="81.6848" y1="117.069" x2="61.1249" y2="117.069">
   <stop offset="0" style="stop-opacity:1; stop-color:#FEFEFE"/>
   <stop offset="0.180392" style="stop-opacity:1; stop-color:#C8C6C6"/>
   <stop offset="0.2" style="stop-opacity:1; stop-color:#FEFEFE"/>
   <stop offset="0.360784" style="stop-opacity:1; stop-color:#F3F3F5"/>
   <stop offset="0.54902" style="stop-opacity:1; stop-color:#F3F3F5"/>
   <stop offset="0.588235" style="stop-opacity:1; stop-color:#929294"/>
   <stop offset="0.85098" style="stop-opacity:1; stop-color:#5E6161"/>
   <stop offset="0.909804" style="stop-opacity:1; stop-color:#D19032"/>
   <stop offset="1" style="stop-opacity:1; stop-color:#F8EDC3"/>
  </linearGradient>
  <linearGradient id="id3" gradientUnits="userSpaceOnUse" xlink:href="#id2" x1="31.8698" y1="136.004" x2="30.5466" y2="136.004">
  </linearGradient>
  <linearGradient id="id4" gradientUnits="userSpaceOnUse" x1="58.7729" y1="96.2118" x2="58.7729" y2="90.1222">
   <stop offset="0" style="stop-opacity:1; stop-color:#CCC7C7"/>
   <stop offset="1" style="stop-opacity:1; stop-color:#7F7F7C"/>
  </linearGradient>
  <linearGradient id="id5" gradientUnits="userSpaceOnUse" x1="37.767" y1="114.328" x2="53.6142" y2="116.606">
   <stop offset="0" style="stop-opacity:1; stop-color:#373938"/>
   <stop offset="1" style="stop-opacity:1; stop-color:#9B9A9A"/>
  </linearGradient>
  <linearGradient id="id6" gradientUnits="userSpaceOnUse" x1="101.783" y1="122.791" x2="101.783" y2="135.934">
   <stop offset="0" style="stop-opacity:1; stop-color:#373938"/>
   <stop offset="1" style="stop-opacity:1; stop-color:#BAB9B9"/>
  </linearGradient>
  <linearGradient id="id7" gradientUnits="userSpaceOnUse" x1="76.7196" y1="137.048" x2="76.7196" y2="121.566">
   <stop offset="0" style="stop-opacity:1; stop-color:#373938"/>
   <stop offset="1" style="stop-opacity:1; stop-color:#7A7B7B"/>
  </linearGradient>
  <linearGradient id="id8" gradientUnits="userSpaceOnUse" xlink:href="#id1" x1="152.916" y1="24.1077" x2="217.97" y2="50.3781">
  </linearGradient>
  <linearGradient id="id9" gradientUnits="userSpaceOnUse" xlink:href="#id6" x1="75.639" y1="140.203" x2="75.3094" y2="121.327">
  </linearGradient>
  <linearGradient id="id10" gradientUnits="userSpaceOnUse" x1="98.2198" y1="114.835" x2="106.943" y2="128.409">
   <stop offset="0" style="stop-opacity:1; stop-color:#373938"/>
   <stop offset="1" style="stop-opacity:1; stop-color:#AFADAE"/>
  </linearGradient>
  <linearGradient id="id11" gradientUnits="userSpaceOnUse" x1="42.8667" y1="112.915" x2="56.7436" y2="119.253">
   <stop offset="0" style="stop-opacity:1; stop-color:#373938"/>
   <stop offset="1" style="stop-opacity:1; stop-color:#A3A1A0"/>
  </linearGradient>
  <linearGradient id="id12" gradientUnits="userSpaceOnUse" x1="36.1845" y1="133.274" x2="36.516" y2="126.953">
   <stop offset="0" style="stop-opacity:1; stop-color:#FAD60B"/>
   <stop offset="1" style="stop-opacity:1; stop-color:#FEFEFE"/>
  </linearGradient>
  <linearGradient id="id13" gradientUnits="userSpaceOnUse" xlink:href="#id7" x1="79.9466" y1="134.246" x2="79.9466" y2="125.1">
  </linearGradient>
  <linearGradient id="id14" gradientUnits="userSpaceOnUse" x1="47.0726" y1="113.184" x2="59.4313" y2="123.892">
   <stop offset="0" style="stop-opacity:1; stop-color:#373938"/>
   <stop offset="1" style="stop-opacity:1; stop-color:#A7A7A8"/>
  </linearGradient>
  <linearGradient id="id15" gradientUnits="userSpaceOnUse" xlink:href="#id7" x1="33.4991" y1="134.246" x2="33.4991" y2="125.1">
  </linearGradient>
  <linearGradient id="id16" gradientUnits="userSpaceOnUse" xlink:href="#id2" x1="81.0029" y1="121.547" x2="57.8476" y2="121.547">
  </linearGradient>
  <linearGradient id="id17" gradientUnits="userSpaceOnUse" x1="32.7474" y1="119.725" x2="32.7474" y2="112.093">
   <stop offset="0" style="stop-opacity:1; stop-color:#D19032"/>
   <stop offset="1" style="stop-opacity:1; stop-color:#9A6433"/>
  </linearGradient>
  <linearGradient id="id18" gradientUnits="userSpaceOnUse" x1="30.7756" y1="119.188" x2="44.3562" y2="112.986">
   <stop offset="0" style="stop-opacity:1; stop-color:#373938"/>
   <stop offset="1" style="stop-opacity:1; stop-color:#90908F"/>
  </linearGradient>
  <linearGradient id="id19" gradientUnits="userSpaceOnUse" xlink:href="#id0" x1="108.474" y1="74.3423" x2="111.172" y2="76.2396">
  </linearGradient>
  <linearGradient id="id20" gradientUnits="userSpaceOnUse" x1="101.877" y1="117.919" x2="106.374" y2="133.236">
   <stop offset="0" style="stop-opacity:1; stop-color:#373938"/>
   <stop offset="1" style="stop-opacity:1; stop-color:#B4B3B4"/>
  </linearGradient>
  <linearGradient id="id21" gradientUnits="userSpaceOnUse" xlink:href="#id0" x1="24.1217" y1="140.081" x2="24.1217" y2="124.294">
  </linearGradient>
  <linearGradient id="id22" gradientUnits="userSpaceOnUse" xlink:href="#id11" x1="89.3141" y1="112.918" x2="103.191" y2="119.256">
  </linearGradient>
  <linearGradient id="id23" gradientUnits="userSpaceOnUse" xlink:href="#id1" x1="98.0898" y1="82.8209" x2="89.5696" y2="154.331">
  </linearGradient>
  <linearGradient id="id24" gradientUnits="userSpaceOnUse" xlink:href="#id0" x1="24.121" y1="140.081" x2="24.121" y2="124.293">
  </linearGradient>
  <linearGradient id="id25" gradientUnits="userSpaceOnUse" xlink:href="#id2" x1="103.354" y1="136.004" x2="102.033" y2="136.004">
  </linearGradient>
  <linearGradient id="id26" gradientUnits="userSpaceOnUse" xlink:href="#id0" x1="20.6483" y1="125.174" x2="20.6483" y2="119.409">
  </linearGradient>
  <linearGradient id="id27" gradientUnits="userSpaceOnUse" xlink:href="#id6" x1="55.3358" y1="122.791" x2="55.3358" y2="135.934">
  </linearGradient>
  <linearGradient id="id28" gradientUnits="userSpaceOnUse" x1="83.0239" y1="111.666" x2="81.8155" y2="110.721">
   <stop offset="0" style="stop-opacity:1; stop-color:#808384"/>
   <stop offset="1" style="stop-opacity:1; stop-color:#FEFEFE"/>
  </linearGradient>
  <linearGradient id="id29" gradientUnits="userSpaceOnUse" xlink:href="#id0" x1="95.6086" y1="140.081" x2="95.6086" y2="124.293">
  </linearGradient>
  <linearGradient id="id30" gradientUnits="userSpaceOnUse" x1="74.6919" y1="123.639" x2="86.6159" y2="113.308">
   <stop offset="0" style="stop-opacity:1; stop-color:#373938"/>
   <stop offset="1" style="stop-opacity:1; stop-color:#8A8B8B"/>
  </linearGradient>
  <linearGradient id="id31" gradientUnits="userSpaceOnUse" xlink:href="#id0" x1="24.1217" y1="140.08" x2="24.1217" y2="124.294">
  </linearGradient>
  <linearGradient id="id32" gradientUnits="userSpaceOnUse" x1="80.2398" y1="116.594" x2="95.9767" y2="114.331">
   <stop offset="0" style="stop-opacity:1; stop-color:#373938"/>
   <stop offset="1" style="stop-opacity:1; stop-color:#979695"/>
  </linearGradient>
  <linearGradient id="id33" gradientUnits="userSpaceOnUse" xlink:href="#id0" x1="164.485" y1="84.0239" x2="161.46" y2="84.5122">
  </linearGradient>
  <linearGradient id="id34" gradientUnits="userSpaceOnUse" xlink:href="#id0" x1="95.6086" y1="140.08" x2="95.6086" y2="124.294">
  </linearGradient>
  <linearGradient id="id35" gradientUnits="userSpaceOnUse" xlink:href="#id1" x1="52.503" y1="125.46" x2="52.503" y2="132.862">
  </linearGradient>
  <linearGradient id="id36" gradientUnits="userSpaceOnUse" xlink:href="#id6" x1="103.709" y1="121.417" x2="103.709" y2="138.172">
  </linearGradient>
  <linearGradient id="id37" gradientUnits="userSpaceOnUse" xlink:href="#id5" x1="84.2167" y1="114.328" x2="100.064" y2="116.606">
  </linearGradient>
  <linearGradient id="id38" gradientUnits="userSpaceOnUse" xlink:href="#id14" x1="93.5204" y1="113.184" x2="105.878" y2="123.892">
  </linearGradient>
  <linearGradient id="id39" gradientUnits="userSpaceOnUse" xlink:href="#id10" x1="51.7754" y1="114.838" x2="60.4982" y2="128.412">
  </linearGradient>
  <linearGradient id="id40" gradientUnits="userSpaceOnUse" x1="74.2444" y1="132.482" x2="78.4608" y2="118.122">
   <stop offset="0" style="stop-opacity:1; stop-color:#373938"/>
   <stop offset="1" style="stop-opacity:1; stop-color:#7F7F7F"/>
  </linearGradient>
  <linearGradient id="id41" gradientUnits="userSpaceOnUse" xlink:href="#id1" x1="140.169" y1="21.6726" x2="184.12" y2="74.0754">
  </linearGradient>
  <linearGradient id="id42" gradientUnits="userSpaceOnUse" x1="27.2501" y1="127.94" x2="35.5435" y2="115.035">
   <stop offset="0" style="stop-opacity:1; stop-color:#373938"/>
   <stop offset="1" style="stop-opacity:1; stop-color:#858483"/>
  </linearGradient>
  <linearGradient id="id43" gradientUnits="userSpaceOnUse" x1="94.0185" y1="79.2795" x2="94.0185" y2="91.586">
   <stop offset="0" style="stop-opacity:1; stop-color:#B5B3B1"/>
   <stop offset="1" style="stop-opacity:1; stop-color:#FEFEFE"/>
  </linearGradient>
  <linearGradient id="id44" gradientUnits="userSpaceOnUse" xlink:href="#id6" x1="57.2614" y1="121.417" x2="57.2614" y2="138.172">
  </linearGradient>
  <linearGradient id="id45" gradientUnits="userSpaceOnUse" xlink:href="#id0" x1="95.6086" y1="140.081" x2="95.6086" y2="124.294">
  </linearGradient>
  <linearGradient id="id46" gradientUnits="userSpaceOnUse" xlink:href="#id0" x1="139.302" y1="35.2116" x2="141.291" y2="38.2545">
  </linearGradient>
  <linearGradient id="id47" gradientUnits="userSpaceOnUse" xlink:href="#id0" x1="33.0962" y1="128.722" x2="33.0962" y2="119.364">
  </linearGradient>
  <linearGradient id="id48" gradientUnits="userSpaceOnUse" xlink:href="#id28" x1="97.7073" y1="63.5668" x2="96.8596" y2="62.1586">
  </linearGradient>
  <linearGradient id="id49" gradientUnits="userSpaceOnUse" xlink:href="#id1" x1="98.9474" y1="125.46" x2="98.9474" y2="132.862">
  </linearGradient>
  <linearGradient id="id50" gradientUnits="userSpaceOnUse" xlink:href="#id42" x1="73.6997" y1="127.94" x2="81.9932" y2="115.035">
  </linearGradient>
  <linearGradient id="id51" gradientUnits="userSpaceOnUse" xlink:href="#id28" x1="156.228" y1="37.4631" x2="157.579" y2="37.2968">
  </linearGradient>
  <linearGradient id="id52" gradientUnits="userSpaceOnUse" xlink:href="#id40" x1="27.7939" y1="132.482" x2="32.0111" y2="118.12">
  </linearGradient>
  <linearGradient id="id53" gradientUnits="userSpaceOnUse" xlink:href="#id0" x1="109.596" y1="116.466" x2="121.596" y2="119.017">
  </linearGradient>
  <linearGradient id="id54" gradientUnits="userSpaceOnUse" xlink:href="#id12" x1="82.6289" y1="133.274" x2="82.9604" y2="126.953">
  </linearGradient>
  <linearGradient id="id55" gradientUnits="userSpaceOnUse" xlink:href="#id32" x1="33.7924" y1="116.591" x2="49.5293" y2="114.329">
  </linearGradient>
  <linearGradient id="id56" gradientUnits="userSpaceOnUse" xlink:href="#id7" x1="30.2714" y1="137.049" x2="30.2714" y2="121.566">
  </linearGradient>
  <linearGradient id="id57" gradientUnits="userSpaceOnUse" xlink:href="#id18" x1="77.2261" y1="119.186" x2="90.8059" y2="112.983">
  </linearGradient>
  <linearGradient id="id58" gradientUnits="userSpaceOnUse" xlink:href="#id30" x1="28.2475" y1="123.642" x2="40.1708" y2="113.31">
  </linearGradient>
  <linearGradient id="id59" gradientUnits="userSpaceOnUse" xlink:href="#id20" x1="55.4265" y1="117.919" x2="59.9245" y2="133.236">
  </linearGradient>
  <linearGradient id="id60" gradientUnits="userSpaceOnUse" xlink:href="#id1" x1="127.45" y1="31.5992" x2="153.587" y2="62.7482">
  </linearGradient>
  <linearGradient id="id61" gradientUnits="userSpaceOnUse" xlink:href="#id6" x1="29.1916" y1="140.203" x2="28.8628" y2="121.33">
  </linearGradient>
  <linearGradient id="id62" gradientUnits="userSpaceOnUse" xlink:href="#id7" x1="30.2722" y1="137.048" x2="30.2722" y2="121.566">
  </linearGradient>
 </defs>
 <g id="Слой_x0020_1">
  <metadata id="CorelCorpID_0Corel-Layer"/>
  <path class="fil0" d="M87 107c-1,0 0,1 0,1 0,0 0,0 0,0l31 -43c1,0 1,0 0,-1 0,0 0,0 0,1l-31 42z"/>
  <path class="fil1" d="M86 107c-1,0 -1,1 0,2 1,0 2,0 2,-1l20 -26c0,-1 0,-2 -1,-2 0,-1 -1,-1 -2,0l-19 27z"/>
  <polygon class="fil2" points="58,116 81,116 81,111 58,111 "/>
  <polygon class="fil3" points="61,112 82,112 82,110 61,110 "/>
  <polygon class="fil4" points="38,119 102,119 102,112 38,112 "/>
  <path class="fil5" d="M81 97c0,-3 0,-8 0,-12 1,-5 7,-13 20,-21 13,-7 42,-24 42,-24l5 -1 1 3 -5 5c0,0 -35,27 -41,31 -6,5 -12,16 -13,24 -3,-2 -6,-4 -9,-5z"/>
  <path class="fil6" d="M103 60c-1,1 -1,1 -1,1 0,0 1,0 1,0l46 -29c0,0 0,0 0,-1 0,0 0,0 -1,0l-45 29z"/>
  <path class="fil7" d="M102 59c-1,1 -1,2 -1,3 1,1 2,1 3,0l32 -20c1,-1 1,-2 0,-2 0,-1 -1,-1 -2,-1l-32 20z"/>
  <path class="fil8" d="M129 41l2 4 -27 18 -15 10 0 -1c0,0 5,-6 6,-8 2,-2 3,-2 4,-4 2,-1 30,-19 30,-19z"/>
  <path class="fil9" d="M81 97c0,-2 0,-4 0,-6 0,-2 0,-4 0,-6 1,-2 3,-6 6,-10 4,-4 8,-7 14,-10 13,-7 41,-24 42,-25l5 -1 0 0 -5 1 0 0 0 0c0,0 -29,17 -42,24 -6,3 -11,7 -14,10l0 0c-4,4 -6,8 -6,11 0,2 -1,4 -1,6 0,2 0,4 0,6l1 0z"/>
  <path class="fil10" d="M149 42l-5 5c-1,1 -35,26 -41,31 -3,2 -7,6 -9,11 -2,4 -4,9 -4,13l0 0c1,-4 2,-9 5,-13 2,-4 5,-8 8,-11 6,-4 41,-30 41,-30l0 0 0 0 5 -6 0 0z"/>
  <path class="fil11" d="M88 111l-64 0c0,0 0,-11 0,-14 0,-3 2,-4 6,-5 4,0 30,0 30,0 0,0 1,-9 1,-11 1,-2 4,-2 4,-2l18 0c0,0 3,0 4,3 3,8 6,22 1,29z"/>
  <path class="fil12" d="M62 80c1,-1 3,-1 3,-1l18 0c0,0 3,0 4,3 2,7 5,18 2,26l-27 -10 0 -18z"/>
  <path class="fil13" d="M66 81l4 0 0 14 -6 0 0 -12c0,-1 1,-2 2,-2l0 0zm6 0l10 0c0,0 2,0 3,3 1,3 4,11 4,18l-17 -7 0 -14z"/>
  <path class="fil14" d="M70 90l0 5 -6 0 0 -5 6 0 0 0zm17 0l-15 0 0 5 17 7c0,-4 -1,-8 -2,-12z"/>
  <path class="fil15" d="M70 92l0 3 -1 0 0 -3c0,0 0,0 1,0l0 0zm18 2c0,0 -2,1 -3,2 0,0 -1,0 -1,0l-1 -4 -2 1 1 1 -1 1 -1 0 1 2 -2 1 10 4c0,-3 0,-6 -1,-8l0 0zm-15 2c0,-2 0,-4 0,-4 -1,0 -1,0 -1,0l0 3 1 1z"/>
  <path class="fil9" d="M60 93c0,0 0,0 -1,0 0,0 0,0 0,0l0 15 -35 0c0,0 0,0 0,0 0,0 0,0 0,0l35 0 0 0 1 0 29 0c0,0 0,0 0,0 0,0 0,0 0,0l-29 0 0 -15z"/>
  <path class="fil10" d="M89 108c1,0 1,0 1,0 0,0 0,0 -1,0l-65 0c0,0 0,0 0,0 0,0 0,0 0,0l65 0z"/>
  <path class="fil10" d="M60 93c0,-1 0,-1 0,-1 0,0 0,0 0,1l0 15c0,0 0,0 0,0 0,0 0,0 0,0l0 -15z"/>
  <polygon class="fil16" points="158,94 168,92 171,107 164,109 165,104 168,102 167,95 165,95 167,102 165,103 162,99 "/>
  <polygon class="fil15" points="45,102 43,102 47,106 47,105 "/>
  <polygon class="fil15" points="45,102 43,102 47,106 47,105 "/>
  <polygon class="fil15" points="45,102 43,102 47,106 47,105 "/>
  <polygon class="fil15" points="42,102 40,102 45,107 47,107 "/>
  <polygon class="fil15" points="39,102 38,102 42,107 44,107 "/>
  <polygon class="fil15" points="36,102 35,102 39,107 41,107 "/>
  <polygon class="fil15" points="33,102 32,102 36,107 38,107 "/>
  <polygon class="fil15" points="30,102 29,102 33,107 35,107 "/>
  <polygon class="fil15" points="27,102 26,102 30,107 32,107 "/>
  <polygon class="fil15" points="26,103 26,105 28,107 29,107 "/>
  <path class="fil17" d="M146 31c0,0 -3,9 -2,14 0,5 15,53 15,53l3 0 -7 -60c0,0 -3,-6 -4,-8 -2,-2 -3,-2 -4,-2 -1,1 -1,3 -1,3z"/>
  <path class="fil18" d="M157 43c0,0 0,0 0,0 -1,0 -1,0 -1,0l8 55c0,1 0,1 1,1 0,0 0,0 0,-1l-8 -55z"/>
  <path class="fil19" d="M158 43c0,-1 -1,-1 -1,-1 -1,0 -2,1 -2,1l5 35c0,1 1,1 2,1 1,0 1,-1 1,-2l-5 -34z"/>
  <path class="fil9" d="M147 28c-1,1 -1,2 -1,3 0,1 -3,9 -3,14 0,5 16,53 16,53l0 0 0 0 3 1 0 -1 -3 0c-1,-4 -15,-48 -15,-53 0,-5 3,-14 3,-14l0 0 0 0c0,0 -1,-2 0,-3l0 0z"/>
  <path class="fil12" d="M158 99l-6 15c0,0 1,3 -1,5 -2,1 -4,3 -4,3l0 1c0,0 4,-2 8,-3 3,-2 10,-2 14,-5 3,-2 4,-7 1,-10 -3,-3 -5,-6 -5,-7 -1,-1 -2,-1 -2,-1l-5 2z"/>
  <path class="fil15" d="M150 64l5 -5 0 -1 -6 4 1 2 0 0zm4 14l-1 -2 4 -3 1 2 -4 3 0 0zm-1 -3l4 -3 0 -2 -4 4 0 1 0 0zm-1 -3l0 -1 4 -4 1 2 -5 3 0 0zm-1 -3l5 -3 0 -2 -5 4 0 1 0 0zm0 -3l-1 -1 5 -4 1 2 -5 3z"/>
  <polygon class="fil20" points="38,119 102,119 102,115 38,115 "/>
  <polygon class="fil21" points="103,121 105,128 120,129 120,135 101,130 100,120 "/>
  <path class="fil12" d="M119 129c0,0 2,-4 4,-6 2,-2 5,-2 5,-2l1 2c0,0 -2,2 -3,5 0,4 3,11 3,11l-4 0c0,0 -6,-4 -7,-6 -1,-2 1,-4 1,-4z"/>
  <polygon class="fil22" points="38,128 95,128 95,119 38,119 "/>
  <polygon class="fil23" points="26,125 108,125 108,119 26,119 "/>
  <path class="fil24" d="M89 120c0,0 -1,0 -1,0l0 0c0,1 0,1 0,1 -1,0 -1,0 -1,0l0 0c0,0 -1,0 -1,0l0 0c0,0 0,1 0,1 -1,0 -1,0 -1,0l0 0c0,0 -1,0 -1,1l0 0c0,0 0,0 0,0 0,0 -1,0 -1,0l0 0c0,1 0,1 -1,1l0 0c1,1 1,1 0,1 0,0 0,0 0,0l0 0c0,1 -1,1 -1,2l0 0c1,0 1,0 1,0 0,0 -1,1 -1,0l0 0c0,1 0,1 0,2l0 0c0,0 0,0 0,0 0,1 0,1 0,1l0 0c0,0 0,1 0,1l0 0c0,0 1,0 1,1 0,0 0,0 -1,0l0 0c0,1 1,1 1,1l0 0c0,0 0,0 0,1 1,0 1,0 0,0l0 0c1,1 1,1 1,1l0 0c0,0 1,0 1,0 0,1 0,1 0,1l0 0c0,0 1,1 1,1l0 0c0,0 0,0 1,0 0,0 0,0 0,0l0 0c0,1 1,1 1,1l0 0c0,0 0,0 1,0 0,0 0,0 0,0l0 0c0,0 1,0 1,0 0,0 1,0 1,0l0 0 0 0 0 0c0,0 0,0 0,0 1,0 1,0 2,0l0 0c0,0 0,0 0,0 0,0 1,0 1,0l0 0c0,0 1,0 1,-1l0 0c0,0 0,0 0,0 0,0 1,0 1,0l0 0c0,0 1,-1 1,-1l0 0c0,0 0,0 0,-1 0,0 0,0 1,0l0 0c0,0 0,0 1,-1l0 0c-1,0 -1,0 -1,0 0,-1 1,-1 1,-1l0 0c0,0 0,0 1,-1l0 0c-1,0 -1,0 -1,0 0,-1 1,-1 1,-1l0 0c0,0 0,-1 0,-1l0 0c0,0 -1,0 -1,-1 0,0 1,0 1,0l0 0c0,-1 0,-1 0,-2l0 0c0,1 -1,0 -1,0 0,0 0,0 1,0l0 0c-1,-1 -1,-1 -1,-2l0 0c0,0 -1,0 -1,0 0,0 0,0 0,-1l1 0c-1,0 -1,0 -1,-1l0 0c-1,0 -1,0 -1,0 0,0 0,0 0,0l0 0c0,-1 -1,-1 -1,-1l0 0c0,0 -1,0 -1,0 0,0 0,-1 0,-1l0 0c0,0 -1,0 -1,0l0 0c0,0 -1,0 -1,0 0,0 0,0 0,-1l0 0c-1,0 -1,0 -2,0 0,1 0,1 0,1 0,0 0,0 0,0 0,0 0,0 0,0 0,0 -1,0 -1,-1zm-1 1l0 0zm-2 1l0 0zm-2 1l0 0zm-2 2l0 0zm0 2l0 0zm-1 2l0 0zm1 3l0 0zm0 2l0 0zm2 1l0 0zm2 2l0 0zm2 1l0 0zm2 0l0 0zm2 0l0 0zm2 -1l0 0zm2 -2l0 0zm1 -1l0 0zm1 -2l0 0zm0 -3l0 0zm0 -2l0 0zm-1 -2l0 0zm-1 -2l0 0zm-2 -1l0 0zm-2 -1l0 0zm-2 0l0 0zm0 0l0 0z"/>
  <path class="fil25" d="M90 138c5,0 8,-4 8,-9 0,-4 -3,-8 -8,-8 -5,0 -9,4 -9,8 0,5 4,9 9,9z"/>
  <path class="fil26" d="M90 138c5,0 8,-4 8,-9 0,-4 -3,-8 -8,-8 -5,0 -9,4 -9,8 0,5 4,9 9,9z"/>
  <path class="fil27" d="M90 138c4,0 8,-4 8,-9 0,-4 -4,-8 -8,-8 -5,0 -8,4 -8,8 0,5 3,9 8,9z"/>
  <path class="fil28" d="M90 138c4,0 8,-4 8,-9 0,-4 -4,-8 -8,-8 -5,0 -8,4 -8,8 0,5 3,9 8,9z"/>
  <path class="fil29" d="M90 138c4,0 8,-4 8,-9 0,-4 -4,-8 -8,-8 -5,0 -8,4 -8,8 0,5 3,9 8,9z"/>
  <path class="fil30" d="M90 138c4,0 8,-4 8,-9 0,-4 -4,-8 -8,-8 -5,0 -8,4 -8,8 0,5 3,9 8,9z"/>
  <path class="fil31" d="M90 138c4,0 8,-4 8,-9 0,-4 -4,-8 -8,-8 -5,0 -8,4 -8,8 0,5 3,9 8,9z"/>
  <path class="fil32" d="M90 137c4,0 8,-3 8,-8 0,-4 -4,-8 -8,-8 -5,0 -8,4 -8,8 0,5 3,8 8,8z"/>
  <path class="fil33" d="M90 137c4,0 8,-3 8,-8 0,-4 -4,-8 -8,-8 -5,0 -8,4 -8,8 0,5 3,8 8,8z"/>
  <path class="fil34" d="M90 137c4,0 8,-3 8,-8 0,-4 -4,-8 -8,-8 -4,0 -8,4 -8,8 0,5 4,8 8,8z"/>
  <path class="fil35" d="M90 137c4,0 8,-3 8,-8 0,-4 -4,-8 -8,-8 -4,0 -8,4 -8,8 0,5 4,8 8,8z"/>
  <path class="fil36" d="M90 137c4,0 8,-3 8,-8 0,-4 -4,-7 -8,-7 -4,0 -8,3 -8,7 0,5 4,8 8,8z"/>
  <path class="fil37" d="M90 136c4,0 7,-3 7,-7 0,-3 -3,-7 -7,-7 -4,0 -7,4 -7,7 0,4 3,7 7,7z"/>
  <path class="fil38" d="M90 136c4,0 6,-3 6,-7 0,-3 -2,-6 -6,-6 -4,0 -7,3 -7,6 0,4 3,7 7,7z"/>
  <path class="fil39" d="M90 134c2,0 5,-2 5,-4 0,-3 -3,-5 -5,-5 -3,0 -5,2 -5,5 0,2 2,4 5,4z"/>
  <path class="fil40" d="M90 134c2,0 4,-2 4,-5 0,-2 -2,-4 -4,-4 -3,0 -5,2 -5,4 0,3 2,5 5,5z"/>
  <path class="fil41" d="M90 133c2,0 4,-2 4,-4 0,-2 -2,-3 -4,-3 -2,0 -4,1 -4,3 0,2 2,4 4,4z"/>
  <path class="fil37" d="M90 127c0,0 0,0 0,0 0,0 0,0 0,0 0,0 0,0 0,0 0,0 0,0 0,0z"/>
  <path class="fil37" d="M88 127c0,1 0,1 0,1 0,0 0,0 0,0 0,0 0,0 0,-1 0,0 0,0 0,0z"/>
  <path class="fil37" d="M87 129c0,1 0,1 0,1 1,0 1,0 1,-1 0,0 0,0 -1,0 0,0 0,0 0,0z"/>
  <path class="fil37" d="M88 131c0,1 0,1 0,0 0,0 0,0 0,0 0,0 0,0 0,0 0,0 0,0 0,0z"/>
  <path class="fil37" d="M90 132c0,0 0,0 0,0 0,0 0,0 0,0 0,0 0,0 0,0 0,0 0,0 0,0z"/>
  <path class="fil37" d="M92 131c0,0 0,0 0,0 0,0 0,0 -1,0 0,0 0,0 0,0 1,1 1,1 1,0z"/>
  <path class="fil37" d="M93 129c0,0 0,0 -1,0 0,0 0,0 0,0 0,1 0,1 0,1 1,0 1,0 1,-1z"/>
  <path class="fil37" d="M92 127c0,0 0,0 -1,0 0,1 0,1 0,1 1,0 1,0 1,0 0,0 0,0 0,-1z"/>
  <path class="fil42" d="M90 131c1,0 2,-1 2,-2 0,-1 -1,-1 -2,-1 -1,0 -2,0 -2,1 0,1 1,2 2,2z"/>
  <path class="fil43" d="M43 120c-1,0 -1,0 -1,0l0 0c0,1 0,1 -1,1 0,0 0,0 0,0l0 0c-1,0 -1,0 -2,0l0 0c0,0 0,1 0,1 0,0 0,0 0,0l0 0c-1,0 -1,0 -2,1l0 0c1,0 1,0 0,0 0,0 0,0 0,0l0 0c-1,1 -1,1 -1,1l0 0c0,1 0,1 0,1 0,0 0,0 -1,0l0 0c0,1 0,1 0,2l0 0c0,0 0,0 0,0 0,0 0,1 0,0l0 0c-1,1 -1,1 -1,2l0 0c1,0 1,0 1,0 0,1 0,1 -1,1l0 0c0,0 0,1 1,1l0 0c0,0 0,0 0,1 0,0 0,0 0,0l0 0c0,1 0,1 0,1l0 0c1,0 1,0 1,1 0,0 0,0 0,0l0 0c0,1 0,1 1,1l0 0c0,0 0,0 0,0 1,1 1,1 0,1l0 0c1,0 1,1 1,1l0 0c1,0 1,0 1,0 0,0 0,0 0,0l0 0c1,1 1,1 2,1l0 0c0,0 0,0 0,0 0,0 1,0 1,0l0 0c0,0 0,0 1,0 0,0 0,0 0,0l0 0 0 0c1,0 1,0 1,0 0,0 1,0 1,0l0 0c0,0 0,0 1,0 0,0 0,0 0,0l0 0c1,0 1,0 2,-1l0 0c-1,0 -1,0 0,0l0 0c0,0 0,0 0,0l0 0c1,0 1,-1 2,-1l0 0c-1,0 -1,0 0,-1 0,0 0,0 0,0l0 0c1,0 1,0 1,-1l0 0c0,0 0,0 0,0 0,-1 0,-1 1,-1l0 0c0,0 0,0 0,-1l0 0c0,0 0,0 0,0 0,-1 0,-1 0,-1l0 0c0,0 1,-1 1,-1l0 0c-1,0 -1,0 -1,-1 0,0 0,0 1,0l0 0c0,-1 -1,-1 -1,-2l0 0c0,1 0,0 0,0 0,0 0,0 0,0l0 0c0,-1 0,-1 0,-2l0 0c-1,0 -1,0 -1,0 0,0 0,0 0,-1l0 0c0,0 0,0 -1,-1l0 0c0,0 0,0 -1,0 0,0 0,0 0,0l0 0c0,-1 0,-1 -1,-1l0 0c0,0 0,0 0,0 -1,0 -1,-1 0,-1l0 0c-1,0 -1,0 -2,0l0 0c0,0 0,0 0,0 -1,0 -1,0 -1,-1l0 0c0,0 -1,0 -1,0 0,1 0,1 -1,1 0,0 0,0 0,0 0,0 0,0 0,0 0,0 0,0 0,-1zm-2 1l0 0zm-2 1l0 0zm-2 1l0 0zm-1 2l0 0zm-1 2l0 0zm0 2l0 0zm0 3l0 0zm1 2l0 0zm1 1l0 0zm2 2l0 0zm2 1l0 0zm2 0l0 0zm3 0l0 0zm4 -3l0 0zm1 -1l0 0zm1 -2l0 0zm0 -3l0 0zm0 -2l0 0zm-1 -2l0 0zm-2 -2l0 0zm-1 -1l0 0zm-2 -1l0 0zm-3 0l0 0zm0 0l0 0z"/>
  <path class="fil44" d="M43 138c5,0 9,-4 9,-9 0,-4 -4,-8 -9,-8 -4,0 -8,4 -8,8 0,5 4,9 8,9z"/>
  <path class="fil45" d="M43 138c5,0 9,-4 9,-9 0,-4 -4,-8 -9,-8 -4,0 -8,4 -8,8 0,5 4,9 8,9z"/>
  <path class="fil46" d="M43 138c5,0 9,-4 9,-9 0,-4 -4,-8 -9,-8 -4,0 -8,4 -8,8 0,5 4,9 8,9z"/>
  <path class="fil47" d="M43 138c5,0 9,-4 9,-9 0,-4 -4,-8 -9,-8 -4,0 -8,4 -8,8 0,5 4,9 8,9z"/>
  <path class="fil48" d="M43 138c5,0 9,-4 9,-9 0,-4 -4,-8 -9,-8 -4,0 -8,4 -8,8 0,5 4,9 8,9z"/>
  <path class="fil49" d="M43 138c5,0 9,-4 9,-9 0,-4 -4,-8 -9,-8 -4,0 -8,4 -8,8 0,5 4,9 8,9z"/>
  <path class="fil50" d="M43 138c5,0 9,-4 9,-9 0,-4 -4,-8 -9,-8 -4,0 -8,4 -8,8 0,5 4,9 8,9z"/>
  <path class="fil51" d="M43 137c5,0 9,-3 9,-8 0,-4 -4,-8 -9,-8 -4,0 -8,4 -8,8 0,5 4,8 8,8z"/>
  <path class="fil52" d="M43 137c5,0 8,-3 8,-8 0,-4 -3,-8 -8,-8 -4,0 -8,4 -8,8 0,5 4,8 8,8z"/>
  <path class="fil53" d="M43 137c5,0 8,-3 8,-8 0,-4 -3,-8 -8,-8 -4,0 -8,4 -8,8 0,5 4,8 8,8z"/>
  <path class="fil54" d="M43 137c5,0 8,-3 8,-8 0,-4 -3,-8 -8,-8 -4,0 -7,4 -7,8 0,5 3,8 7,8z"/>
  <path class="fil55" d="M43 137c5,0 8,-3 8,-8 0,-4 -3,-7 -8,-7 -4,0 -7,3 -7,7 0,5 3,8 7,8z"/>
  <path class="fil56" d="M43 136c4,0 7,-3 7,-7 0,-3 -3,-7 -7,-7 -3,0 -7,4 -7,7 0,4 4,7 7,7z"/>
  <path class="fil57" d="M43 136c4,0 7,-3 7,-7 0,-3 -3,-6 -7,-6 -3,0 -6,3 -6,6 0,4 3,7 6,7z"/>
  <path class="fil58" d="M43 134c3,0 5,-2 5,-4 0,-3 -2,-5 -5,-5 -2,0 -4,2 -4,5 0,2 2,4 4,4z"/>
  <path class="fil40" d="M43 134c3,0 5,-2 5,-5 0,-2 -2,-4 -5,-4 -2,0 -4,2 -4,4 0,3 2,5 4,5z"/>
  <path class="fil59" d="M43 133c2,0 4,-2 4,-4 0,-2 -2,-3 -4,-3 -2,0 -3,1 -3,3 0,2 1,4 3,4z"/>
  <path class="fil37" d="M43 127c1,0 1,0 1,0 0,0 0,0 -1,0 0,0 0,0 0,0 0,0 0,0 0,0z"/>
  <path class="fil37" d="M41 127c0,1 0,1 0,1 1,0 1,0 1,0 0,0 0,0 0,-1 0,0 0,0 -1,0z"/>
  <path class="fil37" d="M41 129c0,1 0,1 0,1 0,0 0,0 0,-1 0,0 0,0 0,0 0,0 0,0 0,0z"/>
  <path class="fil37" d="M41 131c1,1 1,1 1,0 0,0 0,0 0,0 0,0 0,0 -1,0 0,0 0,0 0,0z"/>
  <path class="fil37" d="M43 132c1,0 1,0 1,0 0,0 0,0 -1,0 0,0 0,0 0,0 0,0 0,0 0,0z"/>
  <path class="fil37" d="M45 131c1,0 1,0 0,0 0,0 0,0 0,0 0,0 0,0 0,0 0,1 0,1 0,0z"/>
  <path class="fil37" d="M46 129c0,0 0,0 0,0 0,0 0,0 0,0 0,1 0,1 0,1 0,0 0,0 0,-1z"/>
  <path class="fil37" d="M45 127c0,0 0,0 0,0 0,1 0,1 0,1 0,0 0,0 0,0 1,0 1,0 0,-1z"/>
  <path class="fil60" d="M43 131c1,0 2,-1 2,-2 0,-1 -1,-1 -2,-1 0,0 -1,0 -1,1 0,1 1,2 1,2z"/>
  <polygon class="fil12" points="26,119 108,119 108,118 26,118 "/>
  <polygon class="fil61" points="101,139 105,139 105,124 101,124 "/>
  <polygon class="fil62" points="100,132 106,132 106,119 100,119 "/>
  <polygon class="fil63" points="99,140 107,140 107,139 99,139 "/>
  <path class="fil64" d="M102 130c0,0 0,1 1,1 0,0 0,-1 0,-1l0 -10 -1 0 0 10z"/>
  <polygon class="fil65" points="29,139 33,139 33,124 29,124 "/>
  <polygon class="fil66" points="28,132 34,132 34,119 28,119 "/>
  <polygon class="fil67" points="27,140 35,140 35,139 27,139 "/>
  <path class="fil68" d="M31 130c0,0 0,1 0,1 1,0 1,-1 1,-1l0 -10 -1 0 0 10z"/>
 </g>
</svg>
