<?xml version="1.0" encoding="UTF-8"?>
<!DOCTYPE svg PUBLIC "-//W3C//DTD SVG 1.1//EN" "http://www.w3.org/Graphics/SVG/1.1/DTD/svg11.dtd">
<!-- Creator: CorelDRAW X8 -->
<svg xmlns="http://www.w3.org/2000/svg" xml:space="preserve" width="150px" height="50px" version="1.1" style="shape-rendering:geometricPrecision; text-rendering:geometricPrecision; image-rendering:optimizeQuality; fill-rule:evenodd; clip-rule:evenodd"
viewBox="0 0 150 50"
 xmlns:xlink="http://www.w3.org/1999/xlink">
 <defs>
  <style type="text/css">
   <![CDATA[
    .fil1 {fill:#8F8988;fill-rule:nonzero}
    .fil0 {fill:#303C6F;fill-rule:nonzero}
   ]]>
  </style>
 </defs>
 <g id="Слой_x0020_1">
  <metadata id="CorelCorpID_0Corel-Layer"/>
  <g id="_1251183231664">
   <path class="fil0" d="M26 41c-2,0 -5,0 -7,0 4,-6 7,-13 11,-19 1,2 2,4 4,6 -3,4 -5,9 -8,13zm7 -29l-1 0c0,0 0,0 0,0 -9,0 -18,0 -27,0 0,0 -1,0 -1,0 -1,0 -2,1 -2,2 0,0 0,0 0,1l0 0c0,0 0,0 0,0 0,9 0,18 0,27 0,2 1,3 3,3 9,0 19,0 28,0 2,0 3,-1 3,-3 0,-9 0,-18 0,-27 0,0 0,-1 0,-2 -1,0 -1,-1 -2,-1 -1,0 -1,0 -1,0zm-25 10c1,-2 2,-4 4,-6 5,0 9,0 14,0 1,2 3,4 4,6 -7,0 -15,0 -22,0zm4 19c-3,-4 -5,-9 -8,-13 2,-2 3,-4 4,-6 4,6 7,13 11,19 -3,0 -5,0 -7,0z"/>
   <path class="fil1" d="M123 23c2,-2 5,-3 9,-3 2,0 5,0 7,1 3,1 5,3 7,5 -3,1 -6,2 -9,3 -1,-1 -3,-1 -4,-1 -2,0 -3,0 -4,1 -2,2 -2,4 -2,5 1,2 3,4 5,4 1,0 2,-1 4,-1 -2,-1 -4,0 -5,0 0,-2 1,-4 1,-6 5,0 10,0 15,0 0,0 0,1 0,1l0 0c0,3 -1,5 -2,7 -1,2 -3,3 -5,4 -3,1 -6,2 -9,2 -3,0 -6,0 -9,-2 -2,-1 -4,-3 -5,-5 0,2 0,4 0,7 -2,0 -5,0 -7,0 -1,0 -1,0 -2,0 0,-3 0,-7 0,-10 -2,3 -3,7 -5,10 -2,0 -5,0 -7,0 0,-3 -1,-7 -1,-10 -1,3 -2,6 -3,9 0,0 0,1 -1,1 -3,0 -6,0 -9,0 0,-1 0,-1 0,-1 1,-2 2,-4 2,-5 1,-1 1,-2 1,-2 0,-1 1,-2 1,-2 2,-5 3,-9 5,-13 0,-1 0,-1 0,-1 3,0 5,0 7,0 1,0 2,0 3,0 0,4 1,7 1,11 3,-4 5,-7 7,-11 0,0 1,0 1,0 2,0 4,0 6,0 1,0 2,0 2,0 0,0 0,0 0,1 0,1 0,3 0,5 1,-2 3,-3 5,-4l0 0z"/>
   <path class="fil0" d="M79 21c3,-1 7,-1 11,0 -1,3 -2,5 -3,7 0,0 0,0 0,1 -2,-1 -4,-1 -6,-1 -1,0 -3,1 -4,2 -1,1 -2,2 -2,4 0,1 1,2 2,2 1,1 3,1 4,1 2,0 3,0 4,0 0,0 0,1 -1,2 0,1 -1,3 -2,5 0,0 0,0 0,0 -3,1 -6,1 -10,0 -2,0 -4,-2 -6,-4 -1,-1 -2,-3 -3,-5 0,-1 0,-3 1,-4 1,-3 3,-5 5,-6 3,-3 6,-4 10,-4l0 0z"/>
   <path class="fil1" d="M42 21c1,0 2,0 3,0 3,4 5,7 8,11 -5,4 -9,8 -14,12 0,1 -1,1 -1,1 -1,0 -2,0 -3,0 1,-1 1,-2 2,-2 4,-4 8,-7 12,-11 -2,-4 -4,-7 -6,-10 0,-1 -1,-1 -1,-1l0 0z"/>
   <path class="fil1" d="M47 21c2,0 4,0 6,0 1,0 1,0 2,0 1,1 2,2 3,3 1,-1 2,-2 3,-3 0,0 0,0 1,0 1,0 2,0 3,0 0,0 -1,1 -2,1 -3,3 -6,6 -10,9 -2,-3 -4,-6 -6,-9 0,0 0,-1 0,-1l0 0z"/>
   <path class="fil1" d="M66 21c0,0 1,0 1,0 2,0 4,0 5,0 1,0 1,0 1,0 -3,2 -6,4 -9,7 -1,2 -2,5 -1,8 0,3 2,6 5,8 0,0 1,0 1,1 -2,0 -5,0 -7,0 -3,-4 -6,-9 -8,-13 4,-3 8,-7 12,-11l0 0z"/>
   <path class="fil1" d="M51 35c1,-1 1,-1 2,-2 2,4 5,8 7,12 -1,0 -2,0 -3,0 -1,-2 -1,-3 -2,-4 -2,1 -3,2 -5,3 0,1 0,1 -1,1 -3,0 -6,0 -9,0 1,-1 2,-2 2,-2 3,-3 6,-6 9,-8l0 0z"/>
  </g>
 </g>
</svg>
