<?xml version="1.0" encoding="UTF-8"?>
<!DOCTYPE svg PUBLIC "-//W3C//DTD SVG 1.1//EN" "http://www.w3.org/Graphics/SVG/1.1/DTD/svg11.dtd">
<!-- Creator: CorelDRAW X8 -->
<svg xmlns="http://www.w3.org/2000/svg" xml:space="preserve" width="150px" height="50px" version="1.1" style="shape-rendering:geometricPrecision; text-rendering:geometricPrecision; image-rendering:optimizeQuality; fill-rule:evenodd; clip-rule:evenodd"
viewBox="0 0 150 50"
 xmlns:xlink="http://www.w3.org/1999/xlink">
 <defs>
  <style type="text/css">
   <![CDATA[
    .fil0 {fill:#0000FE}
    .fil1 {fill:#010101}
    .fil2 {fill:#FDE601}
   ]]>
  </style>
 </defs>
 <g id="Слой_x0020_1">
  <metadata id="CorelCorpID_0Corel-Layer"/>
  <path class="fil0" d="M27 29c0,1 0,3 0,4 -1,1 -1,1 -2,2 -3,4 -9,4 -12,1 -2,-1 -3,-3 -3,-6 0,-2 1,-5 2,-7 1,-1 3,-2 5,-3 2,0 3,0 4,1 3,0 4,2 5,3 1,1 1,3 1,3l-4 0c0,-1 0,-2 -1,-2 -1,-1 -3,-1 -4,-1 -3,1 -4,3 -4,5 0,6 5,6 8,5 0,-1 1,-2 1,-3l-4 0c-1,-1 -1,-1 -2,-2 1,0 10,0 10,0zm-24 -16l0 9c1,0 2,2 3,3 2,2 2,6 0,9 -1,1 -2,2 -3,2l0 9c3,0 6,0 10,0 2,0 2,0 3,-1 1,-1 1,-1 2,-2 0,0 0,0 0,0l0 -1c0,0 0,0 0,0 1,0 1,1 3,3 1,1 1,1 3,1 4,0 7,0 11,0l0 -9c-1,0 -1,0 -2,0 -2,-1 -3,-4 -3,-6 0,-4 2,-7 4,-7l0 -10 -10 0c-1,0 -1,0 -2,1 0,0 -1,0 -1,1 -1,1 -2,2 -2,3l-1 -1c-1,-1 -2,-2 -3,-3 -1,-1 -1,-1 -2,-1 -4,0 -7,0 -10,0z"/>
  <path class="fil1" d="M108 31l-5 -13 -8 0 0 23c0,0 4,0 5,0l0 -15 6 15 4 0 6 -15 0 15 4 0c0,-4 0,-8 0,-12 0,-1 0,-11 0,-11l-8 0 -4 13z"/>
  <path class="fil1" d="M90 29l-14 0 3 3 6 0c0,1 -2,3 -3,4 -3,2 -10,1 -10,-7 -1,-3 2,-6 5,-7 3,0 6,0 7,2 1,2 1,2 1,3l6 0c-1,-2 -2,-4 -2,-4 -3,-5 -7,-7 -12,-6 -2,0 -4,1 -5,1 -1,1 -2,2 -3,3 -2,3 -3,6 -3,9 1,8 6,12 13,12 4,-1 7,-2 8,-4 2,-2 3,-6 3,-9z"/>
  <path class="fil1" d="M50 29l-7 12 7 0c0,0 2,-4 3,-4 0,-1 1,-2 1,-2l4 5c0,0 0,1 1,1l6 0 -7 -11c0,-1 0,0 1,-2 1,-2 2,-3 3,-5l3 -5c0,0 0,0 0,0l-7 -1c0,1 0,1 0,1 0,1 0,1 -1,1l-3 4c0,0 0,1 0,1 0,-1 -1,-1 -1,-1 0,0 0,-1 0,-1 -1,0 -1,-1 -1,-1 -1,-1 -2,-3 -3,-4l-7 0 4 6c1,1 2,2 2,3 1,1 2,2 2,3z"/>
  <path class="fil1" d="M136 24l3 7 -5 0c0,-1 1,-3 1,-3 0,-1 0,-2 1,-2l0 -1c0,0 0,-1 0,-1 0,0 0,0 0,0zm12 16l0 0 -9 -22 -6 0c0,0 -1,2 -1,3l-3 8c-1,2 -1,4 -2,6 -1,1 -2,5 -2,6l6 0 1 -6 8 0c1,1 1,2 1,3 1,0 1,2 1,2l6 0z"/>
  <path class="fil2" d="M27 29c0,0 -9,0 -10,0 1,1 1,1 2,2l4 0c0,1 -1,2 -1,3 -3,1 -8,1 -8,-5 0,-2 1,-4 4,-5 1,0 3,0 4,1 1,0 1,1 1,2l4 0c0,0 0,-2 -1,-3 -1,-1 -2,-3 -5,-3 -1,-1 -2,-1 -4,-1 -2,1 -4,2 -5,3 -1,2 -2,5 -2,7 0,3 1,5 3,6 3,3 9,3 12,-1 1,-1 1,-1 2,-2 0,-1 0,-3 0,-4z"/>
 </g>
</svg>
