<?xml version="1.0" standalone="no"?><!-- Generator: Gravit.io --><svg xmlns="http://www.w3.org/2000/svg" xmlns:xlink="http://www.w3.org/1999/xlink" style="isolation:isolate" viewBox="0 0 150 150" width="150" height="150"><defs><clipPath id="_clipPath_EDH1JR5DvgVG3byolVa8vVps1z4goiyD"><rect width="150" height="150"/></clipPath></defs><g clip-path="url(#_clipPath_EDH1JR5DvgVG3byolVa8vVps1z4goiyD)"><path d=" M 35.908 57.894 L 55.512 57.894 L 55.512 44.555 L 41.343 44.555 L 41.343 44.554 L 41.324 44.554 L 41.324 3.62 L 53.532 3.62 L 53.532 3.636 L 97.615 3.636 L 97.615 3.62 L 109.823 3.62 L 109.823 3.636 L 109.843 3.636 L 109.843 15.844 L 109.823 15.844 L 109.823 32.347 L 109.843 32.347 L 109.843 44.555 L 95.175 44.555 L 95.175 57.894 L 115.359 57.894 L 115.359 57.878 L 127.567 57.878 L 127.567 106.04 L 127.477 106.04 L 127.477 106.048 L 95.175 106.048 L 95.175 106.054 L 82.967 106.054 L 82.967 70.102 L 67.72 70.102 L 67.72 106.054 L 55.512 106.054 L 55.512 106.048 L 23.709 106.048 L 23.709 106.04 L 23.7 106.04 L 23.7 57.878 L 35.908 57.878 L 35.908 57.894 Z  M 67.72 57.894 L 82.967 57.894 L 82.967 32.33 L 95.175 32.33 L 95.175 32.347 L 97.615 32.347 L 97.615 15.844 L 53.532 15.844 L 53.532 32.347 L 55.512 32.347 L 55.512 32.33 L 67.72 32.33 L 67.72 57.894 Z  M 115.359 70.102 L 95.175 70.102 L 95.175 93.84 L 115.359 93.84 L 115.359 70.102 Z  M 55.512 70.102 L 35.908 70.102 L 35.908 93.84 L 55.512 93.84 L 55.512 70.102 Z " fill-rule="evenodd" fill="rgb(27,25,24)"/><path d=" M 101.542 139.965 L 128.693 139.965 L 128.585 139.886 L 118.444 130.93 L 127.793 123.739 L 101.542 123.739 L 101.542 117.324 L 147.113 117.324 L 147.113 123.739 L 146.981 123.739 L 147.089 123.819 L 135.828 131.128 L 147.155 139.886 L 147.055 139.965 L 147.113 139.965 L 147.113 146.38 L 101.542 146.38 L 101.542 139.965 Z " fill-rule="evenodd" fill="rgb(27,25,24)"/><path d=" M 81.662 123.279 L 81.662 145.18 L 67.501 145.18 L 67.501 123.279 L 52.963 123.279 L 52.963 116.864 L 96.556 116.864 L 96.556 123.279 L 81.662 123.279 Z " fill-rule="evenodd" fill="rgb(27,25,24)"/><path d=" M 33.649 116.902 L 47.81 116.902 L 47.81 145.18 L 33.649 145.18 L 33.649 132.092 L 17.006 132.092 L 2.845 132.092 L 2.845 125.677 L 2.845 116.902 L 17.006 116.902 L 17.006 125.677 L 33.649 125.677 L 33.649 116.902 Z " fill-rule="evenodd" fill="rgb(27,25,24)"/></g></svg>